<svg width="190" height="146" viewBox="0 0 190 146" fill="none" xmlns="http://www.w3.org/2000/svg">
<path d="M60.8117 145.01C49.3451 145.01 39.0784 142.21 30.0117 136.61C20.9451 130.877 13.8117 122.61 8.61172 111.81C3.41172 101.01 0.811719 87.9437 0.811719 72.6103C0.811719 57.277 3.41172 44.2103 8.61172 33.4104C13.8117 22.6103 20.9451 14.4103 30.0117 8.81035C39.0784 3.07701 49.3451 0.210349 60.8117 0.210349C72.4117 0.210349 82.6784 3.07701 91.6117 8.81035C100.678 14.4103 107.812 22.6103 113.012 33.4104C118.212 44.2103 120.812 57.277 120.812 72.6103C120.812 87.9437 118.212 101.01 113.012 111.81C107.812 122.61 100.678 130.877 91.6117 136.61C82.6784 142.21 72.4117 145.01 60.8117 145.01ZM60.8117 117.61C66.2784 117.61 71.0117 116.077 75.0117 113.01C79.1451 109.944 82.3451 105.077 84.6117 98.4103C87.0117 91.7437 88.2117 83.1437 88.2117 72.6103C88.2117 62.077 87.0117 53.477 84.6117 46.8103C82.3451 40.1437 79.1451 35.277 75.0117 32.2103C71.0117 29.1437 66.2784 27.6103 60.8117 27.6103C55.4784 27.6103 50.7451 29.1437 46.6117 32.2103C42.6117 35.277 39.4117 40.1437 37.0117 46.8103C34.7451 53.477 33.6117 62.077 33.6117 72.6103C33.6117 83.1437 34.7451 91.7437 37.0117 98.4103C39.4117 105.077 42.6117 109.944 46.6117 113.01C50.7451 116.077 55.4784 117.61 60.8117 117.61ZM157.373 142.61V14.6103L171.373 28.6103H129.373V2.61034H189.773V142.61H157.373Z" fill="#EEF0F7"/>
</svg>
