<svg width="240" height="146" viewBox="0 0 240 146" fill="none" xmlns="http://www.w3.org/2000/svg">
<path d="M60.257 145.01C48.657 145.01 38.3237 142.144 29.257 136.41C20.1904 130.677 13.057 122.41 7.85703 111.61C2.79037 100.677 0.257031 87.677 0.257031 72.6103C0.257031 57.5437 2.79037 44.6103 7.85703 33.8103C13.057 22.877 20.1904 14.5437 29.257 8.81035C38.3237 3.07701 48.657 0.210349 60.257 0.210349C71.857 0.210349 82.1904 3.07701 91.257 8.81035C100.324 14.5437 107.39 22.877 112.457 33.8103C117.657 44.6103 120.257 57.5437 120.257 72.6103C120.257 87.677 117.657 100.677 112.457 111.61C107.39 122.41 100.324 130.677 91.257 136.41C82.1904 142.144 71.857 145.01 60.257 145.01ZM60.257 117.61C68.7904 117.61 75.457 113.944 80.257 106.61C85.1904 99.277 87.657 87.9437 87.657 72.6103C87.657 57.277 85.1904 45.9437 80.257 38.6103C75.457 31.277 68.7904 27.6103 60.257 27.6103C51.857 27.6103 45.1904 31.277 40.257 38.6103C35.457 45.9437 33.057 57.277 33.057 72.6103C33.057 87.9437 35.457 99.277 40.257 106.61C45.1904 113.944 51.857 117.61 60.257 117.61ZM239.427 116.21V142.61H133.627V121.61L187.627 70.6103C193.361 65.1437 197.227 60.477 199.227 56.6104C201.227 52.6103 202.227 48.677 202.227 44.8103C202.227 39.2103 200.294 34.9437 196.427 32.0103C192.694 28.9437 187.161 27.4103 179.827 27.4103C173.694 27.4103 168.161 28.6103 163.227 31.0103C158.294 33.277 154.161 36.7437 150.827 41.4103L127.227 26.2103C132.694 18.077 140.227 11.7437 149.827 7.21034C159.427 2.54368 170.427 0.210349 182.827 0.210349C193.227 0.210349 202.294 1.94368 210.027 5.41034C217.894 8.74368 223.961 13.5437 228.227 19.8103C232.627 25.9437 234.827 33.2103 234.827 41.6104C234.827 49.2104 233.227 56.3437 230.027 63.0103C226.827 69.677 220.627 77.277 211.427 85.8103L179.227 116.21H239.427Z" fill="#EEF0F7"/>
</svg>
