<svg width="238" height="146" viewBox="0 0 238 146" fill="none" xmlns="http://www.w3.org/2000/svg">
<path d="M60.4523 145.01C48.8523 145.01 38.519 142.144 29.4523 136.41C20.3857 130.677 13.2523 122.41 8.05235 111.61C2.98568 100.677 0.452344 87.677 0.452344 72.6103C0.452344 57.5437 2.98568 44.6103 8.05235 33.8103C13.2523 22.877 20.3857 14.5437 29.4523 8.81035C38.519 3.07701 48.8523 0.210349 60.4523 0.210349C72.0523 0.210349 82.3857 3.07701 91.4523 8.81035C100.519 14.5437 107.586 22.877 112.652 33.8103C117.852 44.6103 120.452 57.5437 120.452 72.6103C120.452 87.677 117.852 100.677 112.652 111.61C107.586 122.41 100.519 130.677 91.4523 136.41C82.3857 142.144 72.0523 145.01 60.4523 145.01ZM60.4523 117.61C68.9857 117.61 75.6523 113.944 80.4523 106.61C85.3857 99.277 87.8523 87.9437 87.8523 72.6103C87.8523 57.277 85.3857 45.9437 80.4523 38.6103C75.6523 31.277 68.9857 27.6103 60.4523 27.6103C52.0523 27.6103 45.3857 31.277 40.4523 38.6103C35.6523 45.9437 33.2523 57.277 33.2523 72.6103C33.2523 87.9437 35.6523 99.277 40.4523 106.61C45.3857 113.944 52.0523 117.61 60.4523 117.61ZM199.641 59.6103C211.908 61.6103 221.308 66.2103 227.841 73.4103C234.375 80.477 237.641 89.277 237.641 99.8103C237.641 107.944 235.508 115.477 231.241 122.41C226.975 129.21 220.441 134.677 211.641 138.81C202.975 142.944 192.308 145.01 179.641 145.01C169.775 145.01 160.041 143.744 150.441 141.21C140.975 138.544 132.908 134.81 126.241 130.01L138.841 105.21C144.175 109.21 150.308 112.344 157.241 114.61C164.308 116.744 171.508 117.81 178.841 117.81C186.975 117.81 193.375 116.277 198.041 113.21C202.708 110.01 205.041 105.544 205.041 99.8103C205.041 88.3437 196.308 82.6103 178.841 82.6103H164.041V61.2104L192.841 28.6103H133.241V2.61034H231.241V23.6103L199.641 59.6103Z" fill="#EEF0F7"/>
</svg>
