<svg width="265" height="146" viewBox="0 0 265 146" fill="none" xmlns="http://www.w3.org/2000/svg">
<path d="M60.6359 145.503C49.0359 145.503 38.7026 142.636 29.6359 136.903C20.5693 131.169 13.4359 122.903 8.23594 112.103C3.16927 101.169 0.635938 88.1692 0.635938 73.1025C0.635938 58.0359 3.16927 45.1025 8.23594 34.3025C13.4359 23.3692 20.5693 15.0359 29.6359 9.30253C38.7026 3.5692 49.0359 0.702537 60.6359 0.702537C72.2359 0.702537 82.5693 3.5692 91.6359 9.30253C100.703 15.0359 107.769 23.3692 112.836 34.3025C118.036 45.1025 120.636 58.0359 120.636 73.1025C120.636 88.1692 118.036 101.169 112.836 112.103C107.769 122.903 100.703 131.169 91.6359 136.903C82.5693 142.636 72.2359 145.503 60.6359 145.503ZM60.6359 118.103C69.1693 118.103 75.8359 114.436 80.6359 107.103C85.5693 99.7692 88.0359 88.4359 88.0359 73.1025C88.0359 57.7692 85.5693 46.4359 80.6359 39.1025C75.8359 31.7692 69.1693 28.1025 60.6359 28.1025C52.2359 28.1025 45.5693 31.7692 40.6359 39.1025C35.8359 46.4359 33.4359 57.7692 33.4359 73.1025C33.4359 88.4359 35.8359 99.7692 40.6359 107.103C45.5693 114.436 52.2359 118.103 60.6359 118.103ZM264.578 113.703H241.778V143.103H210.178V113.703H134.778V91.9025L200.778 3.10253H234.778L173.578 87.3025H211.178V61.1025H241.778V87.3025H264.578V113.703Z" fill="#EEF0F7"/>
</svg>
