<svg width="242" height="146" viewBox="0 0 242 146" fill="none" xmlns="http://www.w3.org/2000/svg">
<path d="M60.1828 145.503C48.5828 145.503 38.2495 142.636 29.1828 136.903C20.1161 131.169 12.9828 122.903 7.78281 112.103C2.71615 101.169 0.182813 88.1692 0.182813 73.1025C0.182813 58.0359 2.71615 45.1025 7.78281 34.3025C12.9828 23.3692 20.1161 15.0359 29.1828 9.30253C38.2495 3.5692 48.5828 0.702537 60.1828 0.702537C71.7828 0.702537 82.1162 3.5692 91.1828 9.30253C100.249 15.0359 107.316 23.3692 112.383 34.3025C117.583 45.1025 120.183 58.0359 120.183 73.1025C120.183 88.1692 117.583 101.169 112.383 112.103C107.316 122.903 100.249 131.169 91.1828 136.903C82.1162 142.636 71.7828 145.503 60.1828 145.503ZM60.1828 118.103C68.7162 118.103 75.3828 114.436 80.1828 107.103C85.1161 99.7692 87.5828 88.4359 87.5828 73.1025C87.5828 57.7692 85.1161 46.4359 80.1828 39.1025C75.3828 31.7692 68.7162 28.1025 60.1828 28.1025C51.7828 28.1025 45.1161 31.7692 40.1828 39.1025C35.3828 46.4359 32.9828 57.7692 32.9828 73.1025C32.9828 88.4359 35.3828 99.7692 40.1828 107.103C45.1161 114.436 51.7828 118.103 60.1828 118.103ZM183.925 55.7025C203.658 55.7025 218.192 59.6359 227.525 67.5025C236.992 75.3692 241.725 85.9025 241.725 99.1025C241.725 107.636 239.592 115.436 235.325 122.503C231.058 129.436 224.525 135.036 215.725 139.303C207.058 143.436 196.325 145.503 183.525 145.503C173.658 145.503 163.925 144.236 154.325 141.703C144.858 139.036 136.792 135.303 130.125 130.503L142.925 105.703C148.258 109.703 154.392 112.836 161.325 115.103C168.258 117.236 175.392 118.303 182.725 118.303C190.858 118.303 197.258 116.703 201.925 113.503C206.592 110.303 208.925 105.836 208.925 100.103C208.925 94.1025 206.458 89.5692 201.525 86.5025C196.725 83.4359 188.325 81.9025 176.325 81.9025H140.525L147.725 3.10253H233.125V29.1025H174.725L172.525 55.7025H183.925Z" fill="#EEF0F7"/>
</svg>
