<svg width="252" height="146" viewBox="0 0 252 146" fill="none" xmlns="http://www.w3.org/2000/svg">
<path d="M60.4836 145.503C48.8836 145.503 38.5503 142.636 29.4836 136.903C20.4169 131.169 13.2836 122.903 8.0836 112.103C3.01693 101.169 0.483594 88.1692 0.483594 73.1025C0.483594 58.0359 3.01693 45.1025 8.0836 34.3025C13.2836 23.3692 20.4169 15.0359 29.4836 9.30253C38.5503 3.5692 48.8836 0.702537 60.4836 0.702537C72.0836 0.702537 82.4169 3.5692 91.4836 9.30253C100.55 15.0359 107.617 23.3692 112.684 34.3025C117.884 45.1025 120.484 58.0359 120.484 73.1025C120.484 88.1692 117.884 101.169 112.684 112.103C107.617 122.903 100.55 131.169 91.4836 136.903C82.4169 142.636 72.0836 145.503 60.4836 145.503ZM60.4836 118.103C69.0169 118.103 75.6836 114.436 80.4836 107.103C85.4169 99.7692 87.8836 88.4359 87.8836 73.1025C87.8836 57.7692 85.4169 46.4359 80.4836 39.1025C75.6836 31.7692 69.0169 28.1025 60.4836 28.1025C52.0836 28.1025 45.4169 31.7692 40.4836 39.1025C35.6836 46.4359 33.2836 57.7692 33.2836 73.1025C33.2836 88.4359 35.6836 99.7692 40.4836 107.103C45.4169 114.436 52.0836 118.103 60.4836 118.103ZM203.626 55.3025C212.559 55.3025 220.692 57.1025 228.026 60.7025C235.359 64.3025 241.159 69.4359 245.426 76.1025C249.692 82.6359 251.826 90.2359 251.826 98.9025C251.826 108.236 249.492 116.436 244.826 123.503C240.159 130.569 233.759 136.036 225.626 139.903C217.626 143.636 208.692 145.503 198.826 145.503C179.226 145.503 163.892 139.503 152.826 127.503C141.759 115.503 136.226 98.3692 136.226 76.1025C136.226 60.2359 139.226 46.6359 145.226 35.3025C151.226 23.9692 159.559 15.3692 170.226 9.50253C181.026 3.63587 193.492 0.702537 207.626 0.702537C215.092 0.702537 222.226 1.5692 229.026 3.30253C235.959 4.90253 241.826 7.23587 246.626 10.3025L234.626 34.1025C227.692 29.4359 218.959 27.1025 208.426 27.1025C196.559 27.1025 187.159 30.5692 180.226 37.5025C173.292 44.4359 169.559 54.5025 169.026 67.7025C177.292 59.4359 188.826 55.3025 203.626 55.3025ZM197.026 121.303C203.959 121.303 209.559 119.436 213.826 115.703C218.226 111.969 220.426 106.903 220.426 100.503C220.426 94.1025 218.226 89.0359 213.826 85.3025C209.559 81.4359 203.826 79.5025 196.626 79.5025C189.559 79.5025 183.759 81.5025 179.226 85.5025C174.692 89.3692 172.426 94.3692 172.426 100.503C172.426 106.636 174.626 111.636 179.026 115.503C183.426 119.369 189.426 121.303 197.026 121.303Z" fill="#EEF0F7"/>
</svg>
