<svg width="55" height="65" viewBox="0 0 55 65" fill="none" xmlns="http://www.w3.org/2000/svg">
<path fill-rule="evenodd" clip-rule="evenodd" d="M14.5283 4.98577C2.67427 8.70424 1.52493 9.08801 1.209 9.43274L0.863281 9.80996L0.90665 22.3734C0.948413 34.481 0.959533 34.9954 1.21246 36.5514C2.20018 42.6268 4.4792 47.8422 8.14664 52.4202C12.3776 57.7017 18.3488 61.6491 24.8454 63.4592C27.5142 64.2029 27.6454 64.2169 29.0842 63.9098C31.6767 63.3568 35.1581 62.036 37.6336 60.6665C40.411 59.1299 42.6803 57.4309 44.9345 55.2003C50.0836 50.1051 53.207 43.9571 54.4085 36.5514C54.6607 34.997 54.6721 34.4685 54.7148 22.3739L54.7592 9.81107L54.413 9.43064C54.0948 9.08109 53.0108 8.71968 41.0423 4.97341C33.8788 2.73121 27.9017 0.900949 27.7598 0.906262C27.6179 0.911698 21.6637 2.7474 14.5283 4.98577ZM40.1414 7.28963L52.2868 11.0901L52.2428 22.9517C52.195 35.8816 52.213 35.5206 51.4489 38.7671C50.4342 43.0791 48.2509 47.5213 45.4251 51.0234C41.4521 55.9472 35.6375 59.676 29.4609 61.2609L27.8366 61.6777L26.6154 61.382C15.6445 58.7255 7.02016 50.1403 4.26952 39.1378C3.40709 35.6876 3.42834 36.0752 3.37966 22.9517L3.33567 11.0901L15.4188 7.30087C22.0644 5.21682 27.613 3.50653 27.749 3.50036C27.8849 3.49418 33.4615 5.19928 40.1414 7.28963ZM17.9261 11.1692C9.4178 13.8361 8.43935 14.1692 8.12737 14.5048L7.78091 14.8777L7.82403 24.7219C7.86616 34.3616 7.87296 34.598 8.15035 36.0998C8.64594 38.7824 9.35961 40.9549 10.5156 43.2993C13.6028 49.5602 19.0368 54.2822 25.7103 56.5033C26.6124 56.8035 27.486 57.0169 27.8107 57.0163C29.6382 57.0131 36.1975 53.9343 37.3858 52.522C37.8227 52.0027 37.8031 51.3969 37.3342 50.928C36.7547 50.3485 36.2814 50.4225 34.9739 51.2971C33.4474 52.318 32.0616 53.0448 30.4055 53.6929C27.9831 54.6407 27.9605 54.6428 26.2477 54.0797C17.6418 51.2509 11.4034 43.4392 10.3968 34.2312C10.3169 33.5012 10.2665 29.7275 10.268 24.5936L10.2705 16.156L19.0491 13.4195L27.8278 10.6828L36.561 13.4195L45.2942 16.156L45.3304 24.3726C45.3533 29.5811 45.3178 33.1094 45.2334 34.0101C44.9876 36.63 44.2044 39.4751 43.0604 41.9035C42.3231 43.4685 42.3434 44.043 43.1506 44.4604C43.6302 44.7085 44.2326 44.6103 44.5946 44.225C45.2944 43.4801 46.7738 39.5067 47.2707 37.0373C47.7816 34.4983 47.8271 33.426 47.8271 23.929V14.8626L47.4873 14.495C47.1827 14.1656 46.161 13.8192 37.6438 11.157C32.4168 9.52318 27.9688 8.19098 27.7592 8.19654C27.5498 8.20198 23.1248 9.53974 17.9261 11.1692ZM29.6372 26.4401L25.5858 30.4845L23.8874 28.7939C22.1837 27.0979 21.7344 26.7826 21.2098 26.9142C21.0545 26.9532 19.8352 28.0824 18.5002 29.4235C16.1718 31.7623 16.0727 31.8817 16.0727 32.3473C16.0727 32.8206 16.1826 32.9424 20.5536 37.3134L25.0345 41.7942H25.5851H26.1358L32.7738 35.153C37.2485 30.6761 39.4385 28.4011 39.4936 28.172C39.5387 27.9852 39.5375 27.6793 39.491 27.4924C39.3975 27.1157 35.2642 22.8659 34.7053 22.5714C33.9158 22.1557 33.9707 22.1138 29.6372 26.4401ZM35.4419 26.6289L36.5815 27.7733L31.0525 33.3013L25.5236 38.8292L22.28 35.5841L19.0367 32.3389L20.2714 31.1088L21.5061 29.8787L23.2779 31.6356C25.017 33.3597 25.0598 33.3923 25.5923 33.3923H26.1348L30.0926 29.439C32.2694 27.2647 34.1071 25.4855 34.1764 25.4851C34.2457 25.4849 34.8152 25.9996 35.4419 26.6289ZM40.1047 46.8533C39.647 47.0408 39.3689 47.472 39.3689 47.9946C39.3689 48.3992 39.4436 48.5583 39.7698 48.8496C40.3182 49.3398 40.9195 49.3387 41.4116 48.8465C42.3497 47.9085 41.3293 46.3522 40.1047 46.8533Z" fill="#30B8C4"/>
</svg>
