<svg width="61" height="61" viewBox="0 0 61 61" fill="none" xmlns="http://www.w3.org/2000/svg">
<path fill-rule="evenodd" clip-rule="evenodd" d="M23.8942 1.06443C23.7137 1.24487 23.6079 1.48398 23.6079 1.71119C23.6079 2.12771 24.0539 2.6443 24.4135 2.6443C24.8198 2.6443 25.2204 2.39201 25.3638 2.04594C25.7378 1.14281 24.5856 0.373107 23.8942 1.06443ZM51.6464 5.44632C49.6674 5.80277 47.0523 7.32445 47.0523 8.11957C47.0523 8.23423 47.1612 8.46646 47.2941 8.63547C47.6637 9.10529 48.096 9.04184 49.0998 8.37035C50.0867 7.71029 50.9075 7.37658 52.0205 7.18273C54.6025 6.73309 57.4316 8.016 58.4555 10.1009C58.7596 10.7204 58.774 10.8269 58.7613 12.3837C58.7292 16.3381 57.3622 20.9045 54.7911 25.6465C54.3432 26.4726 54.0507 27.1522 54.0507 27.3669C54.0507 28.1492 54.9692 28.4677 55.5179 27.8757C55.9533 27.406 58.0366 23.103 58.7123 21.278C59.904 18.0593 60.5032 15.0644 60.5149 12.267C60.5216 10.6923 60.4949 10.4493 60.2484 9.83627C59.4363 7.81561 57.5713 6.23305 55.2754 5.61603C54.4328 5.38964 52.4707 5.29784 51.6464 5.44632ZM21.4138 6.14802C21.1883 6.35809 21.1585 6.50646 21.1585 7.41787V8.4499L20.328 8.4969C19.6321 8.53621 19.4618 8.58776 19.2783 8.81451C19.0158 9.13865 19.0005 9.61372 19.2423 9.93424C19.3807 10.1176 19.5983 10.18 20.2593 10.2258L21.1002 10.2842L21.1336 11.3579C21.1648 12.356 21.1885 12.4486 21.4701 12.6701C21.8163 12.9426 21.966 12.9608 22.3649 12.7791C22.7773 12.591 22.9081 12.1998 22.9081 11.1535V10.2258H23.6662C24.5653 10.2258 24.8909 9.99804 24.8909 9.36913C24.8909 8.7899 24.5611 8.55429 23.6708 8.4976L22.9303 8.45048L22.89 7.40329C22.8541 6.46913 22.82 6.33196 22.5744 6.13309C22.2164 5.84325 21.7342 5.84943 21.4138 6.14802ZM45.2183 9.95221C45.1397 9.98393 44.5377 10.754 43.8805 11.6634C39.8745 17.2065 35.7019 21.6321 31.4751 24.8211C28.3144 27.2057 25.8405 28.5749 20.8431 30.705C17.596 32.089 16.1684 32.7824 15.0932 33.4976C14.1781 34.1064 12.9962 35.2778 12.3953 36.1717C12.0188 36.7317 11.8186 36.8958 11.0298 37.2907C8.0248 38.7947 6.45134 42.8078 6.15286 49.7287C6.11052 50.7117 6.06177 51.5161 6.04474 51.5161C6.02759 51.5161 4.94658 51.782 3.64256 52.1071C1.16666 52.7243 0.863281 52.8696 0.863281 53.4378C0.863281 53.8591 1.29461 54.3154 1.69293 54.3154C2.17955 54.3154 5.7816 53.3965 8.23102 52.6475L10.2917 52.0174L10.8554 52.3723C12.1888 53.2117 14.3743 53.9653 16.6679 54.3765C18.349 54.6779 21.6862 54.7394 23.1432 54.4957C31.6587 53.0718 43.7965 44.1613 51.8688 33.4079C53.1035 31.7632 53.7008 30.8325 53.7008 30.5532C53.7008 30.2107 53.2125 29.7046 52.882 29.7046C52.4488 29.7046 52.2392 29.9012 51.3658 31.1277C47.7533 36.1994 42.7993 41.321 37.7212 45.2337C32.5878 49.189 27.0169 52.028 22.9852 52.7433C22.0639 52.9069 21.4428 52.9343 19.8359 52.8823C17.7313 52.8141 16.4319 52.6267 14.8133 52.1577C13.8209 51.8701 12.4525 51.3158 12.5384 51.236C12.5643 51.212 13.3728 50.8912 14.3351 50.5231C17.9514 49.14 22.5557 46.9508 26.2323 44.8666C28.3789 43.6497 28.6841 43.29 28.1483 42.6089C27.7436 42.0943 27.3783 42.1901 25.3662 43.3385C21.524 45.5317 16.7823 47.7541 12.6438 49.3016C12.1627 49.4814 11.6771 49.6652 11.5649 49.71C11.3786 49.7843 11.3608 49.6886 11.3608 48.6126C11.3608 47.5892 11.33 47.4029 11.1275 47.2004C10.8329 46.9058 10.3019 46.901 9.94492 47.1899C9.68808 47.3977 9.66556 47.513 9.61121 48.8996L9.55289 50.3865L8.9697 50.5844C7.74487 50.9997 7.86163 51.0291 7.86163 50.3056C7.86163 47.0829 8.7258 42.6991 9.69239 41.0186C10.0151 40.4574 10.7792 39.4649 10.8409 39.5267C10.8613 39.5472 10.7796 39.9193 10.6591 40.3538C10.4545 41.0917 9.96113 43.7605 9.96113 44.1294C9.96113 44.4188 10.5129 44.8676 10.8686 44.8676C11.4112 44.8676 11.6711 44.4714 11.8248 43.4097C12.1424 41.2166 12.8111 38.9714 13.537 37.6606C14.0669 36.7038 15.152 35.5538 16.1517 34.8892C16.9324 34.3702 19.6204 33.0263 19.7061 33.1122C19.7299 33.136 19.6248 33.5477 19.4726 34.0271C18.8242 36.0687 18.3091 39.2027 18.128 42.2078C17.9896 44.5048 18.107 44.8676 18.9882 44.8676C19.3297 44.8676 19.7587 44.4595 19.7593 44.1341C19.7608 43.1295 20.037 39.8866 20.2261 38.653C20.6112 36.1395 21.2526 33.8493 21.8935 32.6987L22.2666 32.0292L24.0161 31.2371C31.8054 27.7107 38.1642 22.2897 44.489 13.7833C46.6477 10.8798 46.7283 10.7077 46.1828 10.1623C45.9157 9.89505 45.5539 9.81632 45.2183 9.95221ZM26.1832 11.8106C25.7868 12.1441 25.6221 12.6106 25.2393 14.4832C24.8095 16.5856 24.8622 16.4831 24.1012 16.6978C21.7802 17.3527 21.1585 17.7341 21.1585 18.5034C21.1585 19.2776 21.7126 19.6364 23.8818 20.2667C24.4308 20.4263 24.7913 20.596 24.8265 20.7115C24.858 20.8142 25.0163 21.531 25.1783 22.3042C25.6176 24.3994 25.7786 24.8633 26.1848 25.2052C26.6649 25.6093 27.1488 25.5984 27.5732 25.1741C27.9389 24.8082 28.025 24.5417 28.5171 22.2496C28.7026 21.3858 28.8953 20.6381 28.9453 20.5881C28.9955 20.5379 29.5817 20.335 30.2482 20.137C32.1278 19.5785 32.5255 19.2939 32.5255 18.5072C32.5255 17.7326 32.0042 17.383 30.0065 16.8178L28.8819 16.4996L28.6269 15.2581C28.1712 13.0396 27.9199 12.2295 27.5719 11.8569C27.1572 11.413 26.6748 11.3969 26.1832 11.8106ZM27.1082 16.4706C27.3969 17.5994 27.7005 17.9486 28.637 18.2291C29.0145 18.3423 29.3232 18.4677 29.3232 18.508C29.3232 18.5483 29.0247 18.6753 28.6599 18.7903C27.6006 19.1242 27.3426 19.4906 26.9284 21.2482C26.8555 21.5572 26.8193 21.4861 26.6182 20.6393C26.3317 19.432 26.0213 19.0691 25.0255 18.7764C24.6309 18.6605 24.3081 18.5393 24.3081 18.5072C24.3081 18.4751 24.6295 18.3544 25.0226 18.2389C26.0377 17.9406 26.3359 17.5992 26.5975 16.435C26.7145 15.9146 26.8243 15.5029 26.8417 15.5203C26.8591 15.5376 26.979 15.9653 27.1082 16.4706ZM51.6013 17.14C51.4157 17.2315 51.1249 17.6442 50.8016 18.2746C47.4838 24.7446 42.89 30.3475 36.6132 35.5799C35.0315 36.8983 32.4552 38.8442 30.9615 39.8485C30.4105 40.219 29.8873 40.6094 29.7987 40.7161C29.5558 41.0089 29.6167 41.6239 29.9124 41.8633C30.371 42.2346 30.7257 42.1189 32.1903 41.1205C38.1547 37.0543 43.704 31.8498 47.6579 26.6136C49.3549 24.3663 51.4068 21.0637 52.4272 18.9374C52.8055 18.149 52.8732 17.91 52.7846 17.6771C52.5819 17.1438 52.0669 16.9101 51.6013 17.14ZM46.6518 42.6915C46.3747 42.9688 46.3525 43.0687 46.3525 44.0459V45.1009H45.5446C44.8105 45.1009 44.7143 45.129 44.4948 45.4083C44.219 45.7589 44.2004 45.9076 44.3825 46.3073C44.5565 46.6893 44.9525 46.8505 45.7165 46.8505H46.3525V47.8262C46.3525 48.6367 46.3935 48.8539 46.5943 49.1092C46.9103 49.511 47.4262 49.5199 47.8158 49.1302C48.0752 48.8709 48.1021 48.75 48.1021 47.8472V46.8505H48.8109C49.4443 46.8505 49.5573 46.813 49.8726 46.4977C50.1582 46.212 50.2104 46.0842 50.1461 45.827C49.9976 45.2319 49.7728 45.1009 48.9005 45.1009H48.1021V44.0641C48.1021 42.8872 47.9554 42.5861 47.3225 42.4638C47.023 42.406 46.8933 42.4501 46.6518 42.6915ZM39.1294 48.4409C38.9964 48.6099 38.8876 48.8652 38.8876 49.0083C38.8876 49.1514 38.9964 49.4068 39.1294 49.5758C39.3158 49.8129 39.474 49.8831 39.8207 49.8831C40.1675 49.8831 40.3257 49.8129 40.512 49.5758C40.645 49.4068 40.7538 49.1514 40.7538 49.0083C40.7538 48.8652 40.645 48.6099 40.512 48.4409C40.3257 48.2038 40.1675 48.1335 39.8207 48.1335C39.474 48.1335 39.3158 48.2038 39.1294 48.4409ZM42.3868 50.8793C41.4412 51.3033 40.8326 52.2393 40.8351 53.2657C40.8372 54.0708 41.0692 54.6239 41.6354 55.1738C42.7012 56.2089 44.3832 56.1192 45.389 54.9738C46.4106 53.8101 46.1391 51.9562 44.8189 51.0825C44.2201 50.6863 43.0378 50.5875 42.3868 50.8793ZM44.0197 52.6825C44.3126 52.9753 44.3285 53.6281 44.0489 53.88C43.4544 54.4157 42.5812 54.0504 42.5812 53.2659C42.5812 52.5482 43.5091 52.1718 44.0197 52.6825ZM41.0402 58.9174C40.225 59.7325 41.4043 61.0456 42.2467 60.2607C42.5789 59.9513 42.6755 59.5359 42.4943 59.1959C42.1603 58.569 41.5126 58.4449 41.0402 58.9174Z" fill="#30B8C4"/>
</svg>
