<svg width="50" height="58" viewBox="0 0 50 58" fill="none" xmlns="http://www.w3.org/2000/svg">
<path d="M23.9357 16.5319C23.9163 16.4811 23.872 16.427 23.8196 16.3728C23.7642 16.3155 23.6885 16.247 23.5927 16.1671C23.401 16.007 23.1224 15.7956 22.7497 15.5275C22.004 14.9909 20.8755 14.2225 19.2972 13.174C18.0681 12.3574 16.9505 11.6063 16.14 11.0541C15.7347 10.7779 15.4065 10.5516 15.1797 10.3919C15.0662 10.3119 14.9787 10.249 14.9198 10.205C14.9118 10.199 14.9044 10.1934 14.8975 10.1882C14.9028 10.1805 14.9085 10.1721 14.9147 10.163C14.9563 10.1022 15.0182 10.0144 15.0985 9.90237C15.259 9.67847 15.4915 9.35945 15.7788 8.96874C16.3535 8.18741 17.1467 7.12034 18.0197 5.95618C19.7264 3.6804 20.606 2.49816 20.9751 1.80461C21.1595 1.45828 21.2288 1.21247 21.1917 1.00267C21.1545 0.792464 21.0134 0.641946 20.8539 0.482411L20.5223 0.15073L20.4929 0.121358L20.4514 0.121427L12.102 0.135208C9.26479 0.139869 7.13891 0.155273 5.68193 0.182177C4.95353 0.195627 4.39158 0.211963 3.99124 0.231314C3.79115 0.240985 3.63052 0.251451 3.50924 0.262784C3.39143 0.273793 3.30173 0.28631 3.24987 0.302635L3.24984 0.302647L23.8422 16.5676M23.9357 16.5319L23.8422 16.5676M23.9357 16.5319C23.9357 16.5319 23.9357 16.5319 23.9357 16.5319L23.8422 16.5676M23.9357 16.5319C23.968 16.6166 23.9791 16.7229 23.9733 16.8601C23.9674 16.9982 23.944 17.1749 23.9013 17.4046C23.8158 17.8639 23.6507 18.5473 23.3833 19.5793C23.1949 20.3067 23.0237 20.9871 22.8996 21.4971C22.8432 21.7291 22.7966 21.9256 22.7625 22.0751M23.8422 16.5676C23.9436 16.8331 23.8214 17.4897 23.2865 19.5542C22.9743 20.7597 22.7091 21.8364 22.6272 22.2242C22.6522 22.1981 22.6826 22.165 22.7184 22.1249C22.7324 22.1092 22.7471 22.0926 22.7625 22.0751M22.7625 22.0751C22.7591 22.09 22.7559 22.1044 22.7528 22.1184C22.739 22.1794 22.7278 22.231 22.7193 22.2723C22.7051 22.2875 22.6921 22.3011 22.6804 22.313M22.7625 22.0751C22.8818 21.9394 23.0433 21.7479 23.2383 21.5111C23.6784 20.9769 24.2858 20.2159 24.9542 19.3573C25.6228 18.4985 26.2301 17.7068 26.6699 17.1232C26.8898 16.8313 27.0675 16.5919 27.19 16.4223C27.2514 16.3374 27.2983 16.2707 27.3297 16.2239C27.3316 16.221 27.3335 16.2182 27.3353 16.2155M22.6804 22.313C22.6627 22.2906 22.6382 22.2797 22.6163 22.277L22.6804 22.313ZM22.6804 22.313L18.341 10.0139C18.3495 10.0233 18.3596 10.0331 18.3705 10.0432C18.3923 10.0633 18.4211 10.0877 18.4558 10.1158C18.5253 10.172 18.6226 10.2461 18.7439 10.3357C18.9866 10.5151 19.3289 10.7587 19.7452 11.049C20.578 11.6295 21.709 12.3979 22.9375 13.214C24.1651 14.0296 25.2815 14.7821 26.0909 15.3373C26.4957 15.615 26.8234 15.843 27.0498 16.0049C27.1631 16.086 27.2503 16.1499 27.3089 16.1949C27.3186 16.2024 27.3274 16.2092 27.3353 16.2155M27.3353 16.2155C27.3513 16.2281 27.3636 16.2382 27.3723 16.2459L27.3797 16.2525C27.3814 16.2541 27.3821 16.2549 27.3822 16.255L27.381 16.2535C27.3803 16.2527 27.3789 16.2509 27.3772 16.2484C27.3771 16.2483 27.3628 16.229 27.3617 16.1995C27.3611 16.1828 27.3652 16.1705 27.3659 16.1685L27.366 16.1683L27.3675 16.1641L27.3681 16.1628C27.3681 16.1627 27.3678 16.1634 27.3668 16.1651L27.3631 16.1717C27.3573 16.1817 27.3481 16.1962 27.3353 16.2155ZM18.9875 27.5543V27.5543C18.9874 27.5171 18.9982 27.4482 19.0141 27.3627C19.0308 27.2729 19.0552 27.1541 19.0865 27.01C19.149 26.7217 19.2393 26.3299 19.3507 25.8632C19.5734 24.9295 19.8806 23.694 20.2185 22.3819C20.5562 21.0707 20.8561 19.8606 21.0672 18.9674C21.1728 18.5207 21.2561 18.1539 21.3107 17.8934C21.3381 17.763 21.3581 17.6603 21.3701 17.588C21.3754 17.5561 21.379 17.5313 21.381 17.5132C21.3658 17.4997 21.3438 17.4814 21.3145 17.4581C21.2516 17.4082 21.16 17.3391 21.0421 17.2526C20.8065 17.0798 20.4694 16.8401 20.0553 16.5507C19.2272 15.972 18.0934 15.196 16.8537 14.3624L16.9095 14.2794L16.8537 14.3624C15.6133 13.5283 14.467 12.7463 13.6194 12.1584C13.1956 11.8645 12.8461 11.6188 12.5968 11.4392C12.4722 11.3495 12.372 11.2759 12.2999 11.2209C12.2639 11.1934 12.2343 11.1701 12.2117 11.1514C12.1923 11.1352 12.1702 11.1162 12.1568 11.0991C12.1568 11.0991 12.1568 11.0991 12.1568 11.0991L12.2355 11.0374L18.9875 27.5543ZM18.9875 27.5543C18.9879 27.8256 19.1423 28.1093 19.3459 28.3212M18.9875 27.5543L19.3459 28.3212M25.1006 45.2817L25.0027 45.3022C24.8558 44.5998 24.8021 43.3704 24.8003 40.7748C24.7992 39.104 24.7949 38.2198 24.7635 37.7637C24.7556 37.6501 24.7463 37.5657 24.7354 37.5035C24.7257 37.4482 24.7157 37.4161 24.7077 37.3983L25.1006 45.2817ZM25.1006 45.2817L25.0027 45.3022C25.2697 46.5783 26.1209 48.2638 26.9876 49.2329L27.5334 49.8431H19.4935H11.4536L11.9994 49.2329C12.8661 48.2638 13.7173 46.5783 13.9843 45.3022L13.8864 45.2817L13.9843 45.3022C14.1312 44.5998 14.1849 43.3704 14.1867 40.7748C14.1877 39.104 14.1921 38.2198 14.2235 37.7637C14.2313 37.6501 14.2407 37.5657 14.2516 37.5035C14.2612 37.4482 14.2713 37.4161 14.2793 37.3983C14.2818 37.3992 14.2847 37.4003 14.288 37.4017C14.3612 37.4312 14.573 37.4886 14.8454 37.5562C15.1219 37.6248 15.4702 37.7062 15.824 37.784C16.751 37.9875 18.1249 38.0883 19.4935 38.0883C20.8621 38.0883 22.236 37.9875 23.163 37.784C23.5168 37.7062 23.8652 37.6248 24.1416 37.5562C24.4139 37.4886 24.6258 37.4312 24.699 37.4017L25.1006 45.2817ZM19.3459 28.3212C19.5489 28.5325 19.8231 28.6952 20.0879 28.6952M19.3459 28.3212L20.0879 28.6952M20.0879 28.6952C20.2006 28.6952 20.3383 28.6549 20.4673 28.5972M20.0879 28.6952L20.4673 28.5972M20.4673 28.5972C20.5981 28.5388 20.7311 28.4577 20.8346 28.3661M20.4673 28.5972L20.8346 28.3661M20.8346 28.3661C20.8749 28.3305 20.9456 28.2526 21.0383 28.1447M20.8346 28.3661L21.0383 28.1447M21.0383 28.1447C21.133 28.0347 21.2552 27.888 21.4008 27.7102M21.0383 28.1447L21.4008 27.7102M21.4008 27.7102C21.6921 27.3545 22.0781 26.8727 22.5259 26.3076M21.4008 27.7102L22.5259 26.3076M22.5259 26.3076C23.4215 25.1772 24.5652 23.712 25.6944 22.2515M22.5259 26.3076L25.6944 22.2515M25.6944 22.2515C26.8236 20.791 27.9386 19.3348 28.7768 18.2226M25.6944 22.2515L28.7768 18.2226M28.7768 18.2226C29.1959 17.6666 29.5461 17.1961 29.7944 16.8539M28.7768 18.2226L29.7944 16.8539M29.7944 16.8539C29.9184 16.6829 30.0175 16.5433 30.0872 16.4408M29.7944 16.8539L30.0872 16.4408M30.0872 16.4408C30.1219 16.3897 30.1499 16.3469 30.1702 16.3137M30.0872 16.4408L30.1702 16.3137M30.1702 16.3137C30.1804 16.2971 30.1892 16.2819 30.1961 16.2687M30.1702 16.3137L30.1961 16.2687M30.1961 16.2687C30.2019 16.2576 30.2102 16.2409 30.2146 16.2237M30.1961 16.2687L30.2146 16.2237M30.2146 16.2237C30.2644 16.0321 30.3029 15.8556 30.2363 15.6588M30.2146 16.2237L30.2363 15.6588M30.2363 15.6588C30.1711 15.4662 30.011 15.2696 29.7129 15.0119M30.2363 15.6588L29.7129 15.0119M29.7129 15.0119C29.1159 14.4957 27.9057 13.6859 25.5614 12.1277M29.7129 15.0119L25.5614 12.1277M25.5614 12.1277C24.2514 11.2569 23.1284 10.4893 22.3374 9.92777M25.5614 12.1277L22.3374 9.92777M22.3374 9.92777C21.9417 9.64689 21.6301 9.41823 21.4199 9.25431M22.3374 9.92777L21.4199 9.25431M21.4199 9.25431C21.3144 9.17211 21.2363 9.10753 21.1862 9.06146M21.4199 9.25431L21.1862 9.06146M21.1862 9.06146C21.177 9.05305 21.1691 9.04558 21.1625 9.039M21.1862 9.06146L21.1625 9.039M21.1625 9.039C21.1698 9.02779 21.1784 9.01481 21.1883 9.00004C21.2241 8.94698 21.2753 8.87343 21.3406 8.78143C21.471 8.59757 21.6562 8.34188 21.8825 8.03285C22.3351 7.4149 22.9515 6.58476 23.6225 5.6917L26.0332 2.48324H30.5135H35.0024L35.3114 2.79227L35.6204 3.10122L35.569 12.5505C35.5674 12.8458 35.5658 13.1322 35.5643 13.4102C35.5397 17.9867 35.5275 20.2692 35.4307 21.6783C35.3347 23.0778 35.1562 23.6076 34.794 24.6827C34.7717 24.7489 34.7487 24.8171 34.725 24.8878C32.9442 30.1925 28.3285 34.2609 22.7152 35.4694C22.0085 35.6216 20.8291 35.7081 19.6477 35.7214C18.4662 35.7347 17.2962 35.6746 16.608 35.5383C10.1758 34.2642 5.32647 29.6008 3.74547 23.1668C3.47932 22.0834 3.46399 21.6363 3.41625 12.5505L3.36661 3.10122L3.67556 2.79227L3.9846 2.48324H10.9088H17.6744L21.1625 9.039ZM18.208 9.46731C18.1784 9.67437 18.2325 9.8248 18.3143 9.97764L1.27172 2.51835L1.17538 2.49154C1.17538 2.49154 1.17538 2.49154 1.17538 2.49155C1.1393 2.62117 1.11296 2.86501 1.09276 3.26133C1.07237 3.66135 1.05795 4.22617 1.04884 5.00475C1.03062 6.56213 1.03363 8.97906 1.05323 12.6524C1.05434 12.8624 1.05543 13.0681 1.0565 13.2697C1.08233 18.154 1.09528 20.603 1.21892 22.1568C1.34331 23.7202 1.58064 24.3847 2.04896 25.6957C2.068 25.749 2.08743 25.8034 2.10724 25.859L2.2012 25.8255L2.10725 25.859C3.65847 30.2075 6.84486 33.8895 10.9022 36.0211L10.9487 35.9325L10.9022 36.0211L11.8272 36.5069V40.329C11.8272 42.4733 11.8088 43.6737 11.6969 44.5158C11.586 45.3502 11.3836 45.8309 11.008 46.5357C10.5139 47.4627 9.6761 48.2906 8.70267 48.8868C7.72909 49.4831 6.62735 49.8431 5.6098 49.8431C5.0214 49.8431 4.57027 50.1336 4.36848 50.5362C4.16546 50.9412 4.22283 51.445 4.62181 51.8439L4.95336 52.1756L4.98265 52.2049H5.02408H19.4935H33.9629H34.0043L34.0336 52.1756L34.3652 51.8439C34.7642 51.445 34.8215 50.9412 34.6185 50.5362C34.4167 50.1336 33.9656 49.8431 33.3772 49.8431C30.7108 49.8431 28.0767 47.7191 27.3635 44.9806C27.205 44.372 27.1598 43.3852 27.1598 40.324V36.4979L27.8142 36.1682C31.9733 34.0717 35.3295 30.2545 36.8787 25.8586C36.9016 25.7935 36.924 25.7301 36.9459 25.668C37.4101 24.3535 37.6454 23.6872 37.7687 22.1387C37.8913 20.5993 37.9042 18.1812 37.9297 13.3584C37.931 13.1286 37.9322 12.8933 37.9335 12.6524C37.9532 8.97866 37.9563 6.56172 37.9382 5.00445C37.9291 4.22592 37.9147 3.66117 37.8943 3.26121C37.8741 2.86495 37.8477 2.62115 37.8116 2.49151C37.695 2.0725 37.3544 1.58269 36.9517 1.1721C36.5491 0.761572 36.067 0.412413 35.6522 0.289826L35.6522 0.289823C35.5928 0.27228 35.5004 0.257675 35.3854 0.244717C35.2684 0.231533 35.1217 0.219414 34.9503 0.208303C34.6075 0.186073 34.1623 0.167666 33.6507 0.153025C32.6274 0.123737 31.3356 0.109435 30.0595 0.109976C28.7834 0.110516 27.522 0.125899 26.5595 0.156039C26.0784 0.171103 25.6709 0.189886 25.3732 0.212445C25.2246 0.223708 25.1017 0.236031 25.0101 0.249569C24.9645 0.256317 24.9247 0.263637 24.8925 0.271783C24.865 0.278739 24.8281 0.289699 24.8005 0.31047L24.8005 0.310486C24.7842 0.3228 24.765 0.343012 24.7475 0.362231C24.7278 0.383814 24.7033 0.412155 24.6744 0.446475C24.6164 0.51523 24.539 0.610348 24.4447 0.728481C24.2559 0.964881 23.9979 1.29534 23.6893 1.69552C23.072 2.49598 22.2516 3.57659 21.3771 4.74425C19.8006 6.84906 18.9564 7.99336 18.5457 8.68257C18.3407 9.02656 18.2364 9.26863 18.208 9.46731Z" fill="#30B8C4" stroke="#30B8C4" stroke-width="0.2"/>
<path d="M23.1992 30.8052L35.8836 27.3076C40.0185 28.4735 48.2882 30.8798 48.2882 31.1782C48.2882 31.5513 48.5214 44.3756 48.2882 45.728C48.055 47.0803 45.4902 50.7178 44.1844 51.837C42.8787 52.9562 36.35 56.3605 34.9976 56.3605C33.9157 56.3605 27.4896 50.609 24.4117 47.7332L23.1992 30.8052Z" fill="white"/>
<path fill-rule="evenodd" clip-rule="evenodd" d="M35.6451 26.1746C34.0825 26.6109 23.1894 29.9252 23.0503 30.0066C22.9424 30.0698 22.7955 30.2001 22.7239 30.2961L22.5938 30.4708V37.8103C22.5938 43.4987 22.6115 45.2436 22.6726 45.5658C23.2626 48.678 25.7359 51.6851 30.1535 54.661C32.2601 56.0801 35.4182 57.7974 35.9214 57.7974C36.4247 57.7974 39.5828 56.0801 41.6894 54.661C46.107 51.6851 48.5803 48.678 49.1703 45.5658C49.2314 45.2436 49.2491 43.4987 49.2491 37.8103V30.4708L49.119 30.2961C49.0474 30.2001 48.9005 30.0698 48.7926 30.0066C48.5499 29.8645 36.3565 26.1988 36.0142 26.165C35.8782 26.1516 35.712 26.1559 35.6451 26.1746ZM41.6885 29.7634L47.4247 31.4815V38.0484C47.4247 42.3256 47.4019 44.784 47.3592 45.0991C47.2191 46.1333 46.6516 47.3974 45.8447 48.4726C45.3335 49.1539 44.1035 50.434 43.2965 51.1249C41.7469 52.4513 39.724 53.81 37.4367 55.0605C36.2944 55.6849 35.9772 55.8303 35.8365 55.7937C35.4532 55.6941 32.6506 54.0879 31.314 53.2017C29.1178 51.7457 27.1223 49.9705 25.9982 48.4726C25.1913 47.3974 24.6238 46.1333 24.4837 45.0991C24.441 44.784 24.4182 42.3256 24.4182 38.0484V31.4815L30.0925 29.7723C33.2134 28.8322 35.8086 28.0592 35.8596 28.0543C35.9106 28.0494 38.5336 28.8185 41.6885 29.7634Z" fill="#30B8C4"/>
</svg>
