<svg width="60" height="59" viewBox="0 0 60 59" fill="none" xmlns="http://www.w3.org/2000/svg">
<path fill-rule="evenodd" clip-rule="evenodd" d="M24.4514 0.228175C21.9574 0.410156 18.8881 0.951314 18.4072 1.29374C17.4357 1.98554 17.5044 3.6154 18.5315 4.23997C18.7238 4.35689 19.3268 4.53898 19.8715 4.64473C23.0847 5.26805 26.0259 6.30364 27.192 7.22221C27.4146 7.39758 27.7474 7.81396 27.9316 8.14761C28.2188 8.66792 28.2667 8.87714 28.2676 9.61748C28.2686 10.4327 28.2347 10.5496 27.6567 11.7188C27.3202 12.3997 27.0179 13.1569 26.9851 13.4015C26.9209 13.8799 28.0325 12.8341 10.0712 29.3115C6.63564 32.4632 6.4442 32.7028 6.44944 33.8448C6.45411 34.8804 6.69922 35.2023 10.0142 38.5278C12.2601 40.7807 13.2683 41.714 13.6767 41.9179C14.3953 42.2766 15.2912 42.296 15.9694 41.9677C16.3356 41.7905 18.6009 39.3893 25.6185 31.7405L34.789 21.7448L35.4033 21.7804C35.741 21.7999 36.4843 21.7395 37.0549 21.6461C38.1917 21.4602 38.6719 21.514 39.2911 21.8966C39.7482 22.1791 39.9861 22.5968 40.633 24.2518C41.2031 25.7102 41.3686 25.9583 42.6765 27.3155C44.2045 28.901 44.8687 29.2221 45.7925 28.8219C45.9962 28.7336 47.7896 27.0235 49.8259 24.9761C53.7876 20.9923 53.7555 21.0349 53.5723 20.0071C53.5089 19.652 53.2419 19.3278 51.9928 18.0894L50.4894 16.5989L48.828 15.9497C46.6541 15.1001 46.3389 14.7942 46.1006 13.3022C45.8676 11.8434 45.8407 11.8091 41.5674 7.51985C39.3924 5.33676 37.3176 3.32083 36.9568 3.03994C34.2006 0.894794 29.5732 -0.145702 24.4514 0.228175ZM28.8385 1.97814C30.4215 2.12684 32.2542 2.53536 33.4112 2.99744C35.2612 3.7363 35.7294 4.11713 39.986 8.34498C42.1686 10.513 44.0355 12.4406 44.1345 12.6287C44.2337 12.8167 44.3794 13.3433 44.4586 13.7988C44.79 15.7048 45.4894 16.4465 47.8649 17.4111L48.317 17.5947L47.7224 18.1739C47.0378 18.8409 46.9304 19.33 47.3773 19.7462C47.8401 20.1775 48.2101 20.0575 49.111 19.184L49.9306 18.3894L50.9491 19.4127L51.9677 20.4361L48.5514 23.8537L45.1351 27.2715L44.0518 26.1849L42.9686 25.0983L44.4227 23.7064C46.0212 22.1764 46.1397 21.9429 45.5946 21.3978C45.0788 20.882 44.7971 20.9964 43.4429 22.2717C42.7693 22.9062 42.2036 23.4061 42.1858 23.3828C42.1682 23.3593 41.9627 22.9322 41.7293 22.4334C41.1914 21.2837 40.6974 20.6819 39.9639 20.2826C39.1166 19.8215 38.279 19.718 37.0393 19.9211C35.1619 20.2288 35.6556 20.53 31.9329 16.8056L28.6475 13.5187L29.1871 12.4469C29.4838 11.8574 29.7954 11.1188 29.8795 10.8054C30.3277 9.13421 29.723 7.18369 28.3939 6.01432C27.7539 5.45117 26.2087 4.65726 24.7825 4.15872C23.6478 3.76206 20.8589 3.04496 20.0158 2.93317C19.4311 2.85557 19.2713 2.72156 19.6369 2.61524C19.7466 2.58334 20.5286 2.44921 21.3746 2.31726C24.1596 1.88276 26.6289 1.77063 28.8385 1.97814ZM30.7052 17.9709C32.1696 19.4362 33.3485 20.6869 33.3251 20.7503C33.2922 20.8394 17.2463 38.3746 15.6116 40.1079C15.3243 40.4126 15.1626 40.4899 14.8133 40.4899C14.392 40.4899 14.2572 40.3718 11.2657 37.3804C8.34708 34.4617 8.15621 34.2456 8.15621 33.8604C8.15621 33.6319 8.24452 33.3499 8.35563 33.2239C8.46536 33.0995 12.5789 29.312 17.4971 24.8073C22.4153 20.3027 26.7483 16.3239 27.126 15.9658C27.5038 15.6075 27.8647 15.3127 27.9278 15.3105C27.9909 15.3084 29.2408 16.5054 30.7052 17.9709ZM2.11675 44.9019C1.71678 45.0532 1.29869 45.4389 1.08856 45.8507C0.894618 46.231 0.863281 46.5236 0.863281 47.9545C0.863281 49.5671 0.8716 49.6248 1.14303 49.8961L1.42267 50.1759H4.79463H8.16658L8.44622 49.8961C8.80517 49.5373 8.81189 49.0428 8.46229 48.7143C8.20612 48.4738 8.11679 48.4666 5.38558 48.4666H2.57256V47.498V46.5294H30.035H57.4974V47.498V48.4666H34.5559H11.6145L11.3667 48.7303C11.0377 49.0804 11.0509 49.5483 11.3995 49.897L11.68 50.1775L35.2255 50.1482L58.7711 50.1189L58.9889 49.8498C59.1809 49.6128 59.2067 49.3857 59.2067 47.9366C59.2067 46.0813 59.0758 45.637 58.3832 45.1431L58.0102 44.8771L30.149 44.8573C14.8253 44.8463 2.21076 44.8665 2.11675 44.9019ZM6.25412 51.5455C6.11681 51.6002 5.92104 51.7722 5.81917 51.9278C5.6446 52.1942 5.65371 52.2841 5.97745 53.4851C6.16638 54.1861 6.40853 54.8564 6.51553 54.9747C6.95653 55.462 7.92831 55.0914 7.92831 54.436C7.92831 53.9407 7.35114 51.9553 7.14876 51.7547C6.89545 51.5033 6.55792 51.4244 6.25412 51.5455ZM12.9422 51.5113C12.5917 51.6379 12.3724 51.9311 12.3726 52.2732C12.3727 52.8958 12.9379 54.7759 13.1894 54.9903C13.7204 55.4431 14.5375 55.1074 14.5375 54.4364C14.5375 53.87 13.9896 51.978 13.7609 51.7547C13.532 51.5311 13.1784 51.426 12.9422 51.5113ZM19.4734 51.5441C19.1797 51.6625 18.9811 51.9936 18.9831 52.3619C18.9858 52.858 19.6417 54.8906 19.8477 55.0413C20.1378 55.2535 20.7389 55.2254 20.9408 54.9903C21.2615 54.617 21.2589 54.379 20.9211 53.1603C20.4968 51.6296 20.1692 51.2638 19.4734 51.5441ZM26.0197 51.6077C25.8481 51.7008 25.6753 51.906 25.6358 52.0637C25.5397 52.4465 26.1312 54.6593 26.4094 54.958C26.7298 55.302 27.3359 55.268 27.6337 54.8895C27.9255 54.5185 27.9258 54.4404 27.6375 53.4358C27.2332 52.0272 27.0827 51.6986 26.7791 51.5603C26.4236 51.3982 26.4032 51.3996 26.0197 51.6077ZM32.6925 51.5623C32.1939 51.8083 32.153 52.2039 32.4948 53.4757C32.8627 54.8446 33.0878 55.1898 33.6129 55.1898C34.0298 55.1898 34.4796 54.8011 34.4785 54.4418C34.4772 54.057 33.8241 51.8649 33.664 51.7084C33.4413 51.4905 32.9788 51.421 32.6925 51.5623ZM39.4142 51.5455C39.2769 51.6002 39.0811 51.7722 38.9792 51.9278C38.8046 52.1942 38.8138 52.2841 39.1375 53.4851C39.5252 54.9233 39.6992 55.1898 40.2514 55.1898C40.7247 55.1898 41.0884 54.8496 41.0884 54.4067C41.0884 53.9575 40.4645 51.8943 40.2742 51.714C40.0485 51.5003 39.6993 51.4318 39.4142 51.5455ZM46.1022 51.5113C45.4504 51.7466 45.394 52.2106 45.8306 53.7439C46.1786 54.9657 46.3381 55.1898 46.8606 55.1898C47.3433 55.1898 47.6976 54.8492 47.6976 54.385C47.6976 53.8701 47.1341 51.9718 46.9167 51.7547C46.6934 51.5316 46.3393 51.4258 46.1022 51.5113ZM52.6334 51.5451C52.3399 51.6621 52.1411 51.9933 52.1432 52.3619C52.1458 52.858 52.8017 54.8906 53.0077 55.0413C53.4711 55.3801 54.1428 55.1566 54.3404 54.5981C54.4399 54.3165 53.7902 52.0001 53.5462 51.7663C53.2718 51.5034 52.9398 51.4231 52.6334 51.5451ZM1.14303 56.8369C0.989198 56.9908 0.863281 57.2494 0.863281 57.4118C0.863281 57.5742 0.989198 57.8329 1.14303 57.9867L1.42267 58.2665H30.035H58.6473L58.927 57.9867C59.2835 57.6303 59.2835 57.1934 58.927 56.8369L58.6473 56.5572H30.035H1.42267L1.14303 56.8369Z" fill="#30B8C4"/>
</svg>
