<svg width="60" height="56" viewBox="0 0 60 56" fill="none" xmlns="http://www.w3.org/2000/svg">
<path fill-rule="evenodd" clip-rule="evenodd" d="M28.4402 0.71127C27.1881 1.03934 26.3016 1.55832 25.3247 2.53508C24.3339 3.52592 23.8261 4.40351 23.4955 5.69565C23.0828 7.30956 23.297 9.0644 24.0923 10.5821C24.5789 11.5109 25.9661 12.8978 26.8959 13.385C27.2861 13.5894 27.981 13.855 28.4402 13.9753C28.8993 14.0956 29.2493 14.1976 29.2178 14.2018C29.1864 14.2062 28.6964 14.3055 28.1291 14.4226C24.2472 15.2238 21.2105 18.0853 20.1644 21.9279C19.9439 22.7376 19.9095 23.2093 19.8658 26.0248C19.8291 28.3865 19.8528 29.2945 19.9577 29.5476C20.2477 30.2477 19.845 30.2211 30.1329 30.2211C40.4208 30.2211 40.0182 30.2477 40.3081 29.5476C40.413 29.2945 40.4367 28.3865 40.4 26.0248C40.3563 23.2093 40.322 22.7376 40.1014 21.9279C39.2826 18.9201 37.2616 16.5066 34.4443 15.172C33.5965 14.7702 32.0455 14.321 31.5064 14.321C30.9065 14.321 31.0587 14.1634 31.8533 13.9616C33.068 13.6531 33.9656 13.1269 34.9411 12.1515C35.932 11.1607 36.4397 10.2831 36.7703 8.99096C37.183 7.37705 36.9688 5.62221 36.1736 4.1045C35.6874 3.17658 34.2996 1.78881 33.3717 1.30266C31.8582 0.509717 30.0413 0.291807 28.4402 0.71127ZM32.0122 3.20472C33.0443 3.68778 33.7121 4.3446 34.224 5.38039C34.6277 6.19713 34.6513 6.30522 34.6513 7.3433C34.6513 8.38138 34.6277 8.48948 34.224 9.30621C33.7095 10.3474 33.0472 10.9958 31.9837 11.4996C31.2927 11.827 31.1156 11.8617 30.1329 11.8617C29.1525 11.8617 28.9735 11.8269 28.3027 11.5059C27.2134 10.9846 26.5556 10.3461 26.046 9.31502C25.638 8.48936 25.6146 8.38241 25.6146 7.34925C25.6146 6.35979 25.6488 6.18443 25.9766 5.49249C26.4362 4.52225 27.0906 3.81201 27.9442 3.35708C28.8452 2.87688 29.3383 2.76821 30.3902 2.81831C31.0767 2.85103 31.4424 2.93808 32.0122 3.20472ZM4.35175 12.0387C3.6279 12.2206 2.59771 12.8303 2.09761 13.3728C1.8408 13.6515 1.46767 14.2234 1.26863 14.6436L0.906591 15.4077L0.873875 24.1585C0.845736 31.6931 0.866554 33.0828 1.02372 34.1591C1.60756 38.1544 3.87521 41.8574 7.15862 44.1769C7.62064 44.5034 9.47865 45.512 11.2874 46.4184L14.576 48.0665V51.2636C14.576 53.4987 14.6171 54.551 14.7127 54.7606C15.0002 55.3915 14.9444 55.3866 21.7825 55.3866C28.6207 55.3866 28.5649 55.3915 28.8523 54.7606C29.0724 54.2776 29.0408 39.2384 28.8176 38.1711C28.5751 37.0122 27.8469 35.6154 27.0299 34.742C25.727 33.3492 24.5538 32.7864 22.267 32.4572C20.5751 32.2136 19.2033 31.8164 18.0077 31.2241C17.1263 30.7874 16.8312 30.5418 14.8518 28.5981C12.4819 26.271 11.8724 25.853 10.6192 25.6964L10.0114 25.6205L9.97728 20.5078L9.9433 15.3952L9.51606 14.5311C8.74291 12.9673 7.36967 12.0497 5.68221 11.9694C5.19468 11.9462 4.59597 11.9774 4.35175 12.0387ZM53.7677 12.0387C53.0438 12.2206 52.0137 12.8303 51.5135 13.3728C51.2567 13.6515 50.8836 14.2234 50.6846 14.6436L50.3225 15.4077L50.2886 20.5141L50.2545 25.6205L49.6466 25.6964C48.389 25.8536 47.776 26.274 45.4096 28.602C43.6327 30.3503 43.0818 30.8231 42.4255 31.1634C41.3972 31.6963 40.0752 32.0775 37.9905 32.442C37.0788 32.6015 36.0629 32.8383 35.7329 32.9683C33.6888 33.7741 31.9185 35.9237 31.4483 38.1711C31.225 39.2384 31.1934 54.2776 31.4135 54.7606C31.701 55.3915 31.6451 55.3866 38.4833 55.3866C45.3215 55.3866 45.2656 55.3915 45.5531 54.7606C45.6487 54.551 45.6898 53.4987 45.6898 51.2639V48.067L47.663 47.0836C48.7483 46.5426 49.7251 45.989 49.8339 45.8532C49.9425 45.7174 50.0327 45.4094 50.034 45.1686C50.0374 44.6021 49.54 44.0621 49.0148 44.0621C48.7945 44.0621 47.7258 44.5305 46.1699 45.3092C44.2114 46.2891 43.6483 46.621 43.5398 46.8588C43.4436 47.0701 43.402 48.0574 43.402 50.1301V53.0988H38.4833H33.5646V46.0879C33.5646 38.3974 33.5696 38.3324 34.254 37.1361C34.6562 36.4332 35.5153 35.6012 36.1992 35.2523C36.4894 35.1043 37.3568 34.8865 38.303 34.7242C41.1892 34.2291 42.9069 33.6565 44.2799 32.7319C44.5835 32.5275 45.7842 31.4214 46.9481 30.274C49.1083 28.1444 49.4027 27.9359 50.2521 27.934C51.4566 27.9311 52.5553 29.0298 52.5524 30.2343C52.5504 31.1348 52.414 31.3075 48.9793 34.7632L45.6583 38.1043L45.7242 38.5951C45.8114 39.2454 46.2144 39.6009 46.8641 39.6009C47.3339 39.6009 47.3766 39.5638 50.6385 36.3123C53.6436 33.3166 53.9752 32.9476 54.3606 32.1716C54.7599 31.3675 54.7837 31.258 54.7837 30.2211C54.7837 29.1814 54.7606 29.0758 54.3529 28.2509C54.059 27.6562 53.737 27.2129 53.3396 26.8555C53.0192 26.5675 52.7093 26.3318 52.6508 26.3318C52.5863 26.3318 52.5575 24.2488 52.5774 21.0414L52.6103 15.7509L52.8817 15.3143C53.031 15.074 53.362 14.7395 53.6169 14.5707C54.0018 14.316 54.2083 14.2638 54.8325 14.2638C55.7336 14.2638 56.2905 14.554 56.7646 15.2706L57.0715 15.7343L57.07 24.8365L57.0684 33.9387L56.7635 35.0477C56.5958 35.6576 56.2279 36.6871 55.9458 37.3355C55.3663 38.6673 55.3584 38.9809 55.8927 39.4306C56.2844 39.7602 56.8371 39.8037 57.2204 39.5353C57.7585 39.1584 58.7435 36.7604 59.1433 34.8538C59.3446 33.8938 59.3592 33.2016 59.3592 24.6102V15.3959L58.932 14.5315C58.1591 12.9675 56.7858 12.0497 55.0981 11.9694C54.6106 11.9462 54.0119 11.9774 53.7677 12.0387ZM6.68151 14.5923C6.91863 14.7492 7.23481 15.074 7.38408 15.3143L7.65553 15.7509L7.68847 21.0414C7.70837 24.2488 7.67955 26.3318 7.61503 26.3318C7.55658 26.3318 7.24659 26.5675 6.92618 26.8555C6.5288 27.2129 6.20679 27.6562 5.91293 28.2509C5.50525 29.0758 5.48214 29.1814 5.48214 30.2211C5.48214 31.258 5.50593 31.3675 5.90527 32.1716C6.29064 32.9476 6.62225 33.3166 9.62736 36.3123C12.8893 39.5638 12.9319 39.6009 13.4017 39.6009C14.0515 39.6009 14.4545 39.2454 14.5416 38.5951L14.6075 38.1043L11.2866 34.7632C7.85182 31.3075 7.71547 31.1348 7.71341 30.2343C7.71055 29.0298 8.80925 27.9311 10.0138 27.934C10.8642 27.9359 11.1566 28.1434 13.3178 30.2793C14.4941 31.4418 15.753 32.5749 16.1523 32.8308C17.5615 33.7337 19.4425 34.3353 22.1257 34.7414C24.0659 35.035 25.19 35.7402 26.0456 37.2005C26.69 38.3004 26.7013 38.452 26.7013 46.0879V53.0988H21.7825H16.8638V50.1301C16.8638 48.0938 16.8215 47.0683 16.729 46.8653C16.6222 46.6312 15.8156 46.1761 12.8683 44.6876C10.2059 43.343 8.86187 42.5949 8.15895 42.0666C5.82805 40.3148 4.32487 38.0456 3.50024 35.0338L3.20043 33.9387L3.1636 25.1052C3.13786 18.9379 3.16462 16.131 3.25236 15.8051C3.40313 15.2453 4.11531 14.4923 4.64836 14.3291C5.2481 14.1455 6.19089 14.2676 6.68151 14.5923ZM31.6574 16.6586C34.0752 17.1213 36.1771 18.7376 37.2689 20.9739C37.9826 22.4358 38.1401 23.3208 38.1401 25.8695V27.9333H30.1329H22.1257V25.8843C22.1257 23.2985 22.2829 22.4104 22.9979 20.9556C23.4413 20.0536 23.6994 19.7015 24.5161 18.8848C25.3318 18.0692 25.6862 17.8092 26.5869 17.3656C28.2588 16.5422 29.8728 16.3172 31.6574 16.6586ZM52.7945 41.5908C51.8028 42.1405 52.2177 43.7189 53.3538 43.7189C53.9334 43.7189 54.4977 43.1601 54.4977 42.5861C54.4977 41.7273 53.5486 41.1727 52.7945 41.5908Z" fill="#30B8C4"/>
</svg>
