<svg width="65" height="72" viewBox="0 0 65 72" fill="none" xmlns="http://www.w3.org/2000/svg">
<path fill-rule="evenodd" clip-rule="evenodd" d="M30.3833 0.131341C21.6996 1.10047 14.3933 7.5969 12.4232 16.1C11.9496 18.1444 11.8428 19.8028 11.8428 25.1099C11.8428 30.7342 11.8896 31.1117 12.7224 32.2092C12.9722 32.5385 13.4964 32.996 13.8872 33.226L14.5979 33.6443L14.657 34.9686C14.7273 36.544 15.0209 37.3103 15.8854 38.1748C16.7051 38.9945 17.5261 39.3262 18.9241 39.4021L20.0809 39.4651L20.4414 40.1792C20.9233 41.1332 21.501 41.9818 22.3229 42.943L23.0029 43.7381L21.8226 46.0957L20.6423 48.4531L16.626 49.8043C11.3491 51.5795 9.7831 52.4245 7.21754 54.881C3.74753 58.2036 1.6374 62.3324 0.901353 67.2402C0.786346 68.007 0.691832 69.0253 0.691413 69.5033C0.690716 70.2672 0.739786 70.4275 1.09735 70.8276L1.50413 71.2829L32.6688 71.3187L63.8335 71.3544L64.2793 70.956C64.6663 70.6103 64.7332 70.4479 64.7853 69.7269C64.8184 69.2701 64.7436 68.2024 64.6193 67.3543C63.8873 62.3632 61.7926 58.236 58.2887 54.881C55.7232 52.4245 54.1571 51.5795 48.8803 49.8043L44.864 48.4531L43.6837 46.0957L42.5034 43.7381L43.1834 42.943C44.9386 40.8905 46.1082 38.431 46.6107 35.7353C46.7394 35.0452 46.8729 34.3459 46.9075 34.1811C46.9672 33.8968 47.0625 33.8786 48.7487 33.8284C50.1856 33.7855 50.6513 33.7186 51.175 33.4799C52.0009 33.1035 52.9099 32.1961 53.2942 31.3649C53.5807 30.7451 53.5958 30.4919 53.6384 25.5589C53.6656 22.4314 53.622 19.7974 53.5279 18.8676C53.032 13.9725 51.0673 9.7759 47.6292 6.26853C43.1084 1.65668 36.8075 -0.585606 30.3833 0.131341ZM36.1645 3.11623C39.9276 3.90176 42.8745 5.4791 45.5186 8.12342C48.432 11.0367 50.1699 14.5499 50.7132 18.6236L50.8293 19.4949H49.4859H48.1425L47.9653 18.0758C47.1753 11.7459 42.5411 6.85458 36.3032 5.76683C34.6811 5.48398 30.8252 5.48398 29.2031 5.76683C22.9651 6.85458 18.331 11.7459 17.541 18.0758L17.3638 19.4949H16.0103C14.7962 19.4949 14.6618 19.4698 14.7044 19.2509C14.7306 19.1167 14.825 18.5051 14.9144 17.8918C15.2516 15.5742 16.2324 13.0998 17.7104 10.8372C18.7311 9.27461 21.055 6.91397 22.5451 5.92602C24.6933 4.50175 27.4848 3.38123 29.6863 3.05963C30.2613 2.97557 30.8886 2.87952 31.0803 2.84593C31.8072 2.71893 35.0991 2.89388 36.1645 3.11623ZM35.982 8.54275C38.0418 8.94548 39.5082 9.62479 41.1319 10.9285C43.638 12.9405 45.0825 15.8787 45.2602 19.3257L45.3413 20.899L44.7278 20.8107C43.0706 20.5723 40.6121 20.0143 39.4999 19.624C36.7824 18.6706 33.8258 16.9514 31.9167 15.2145C30.6394 14.0525 30.4095 13.9188 29.6901 13.9189C28.281 13.9194 25.7957 14.5299 24.4686 15.2016C23.3088 15.7887 22.0631 16.6833 21.1939 17.5534L20.2989 18.4494L20.3902 17.7833C20.6279 16.0487 21.65 13.875 22.9781 12.28C24.5294 10.4167 27.0665 8.97294 29.6166 8.50246C30.7608 8.2914 34.828 8.31705 35.982 8.54275ZM30.066 17.3C33.7811 20.5995 38.3227 22.6533 43.6766 23.4552C44.4326 23.5684 45.0837 23.6937 45.1237 23.7336C45.2297 23.8395 44.9142 27.8525 44.5979 30.4225C43.8439 36.5504 43.2131 38.4963 41.16 41.0278C39.8285 42.6694 37.585 44.1298 35.5412 44.6851C34.2809 45.0276 31.2257 45.0276 29.9651 44.6852C27.7683 44.0884 25.4531 42.5049 24.0154 40.6156C23.6075 40.0796 23.2738 39.5935 23.2738 39.5353C23.2738 39.4771 23.8853 39.4315 24.6329 39.4341L25.9921 39.4388L26.4103 40.1612C26.9271 41.054 27.7919 41.7271 28.7979 42.0195C29.9813 42.3636 33.559 42.2537 34.4467 41.8461C35.2758 41.4656 36.184 40.5569 36.563 39.729C36.9752 38.8288 36.9752 37.2421 36.563 36.3418C36.184 35.5139 35.2758 34.6053 34.4467 34.2247C33.559 33.8171 29.9813 33.7073 28.7979 34.0513C27.7919 34.3438 26.9271 35.0168 26.4103 35.9097L25.9921 36.6321L23.9359 36.6368C22.805 36.6393 21.8797 36.5944 21.8796 36.5368C21.8796 36.4793 21.7879 35.9929 21.6758 35.4559C21.1809 33.0837 20.5646 27.9131 20.404 24.7858L20.3148 23.0497L21.4257 21.5819C22.0366 20.7746 22.9547 19.7309 23.4657 19.2625C24.9866 17.869 27.1255 16.9265 29.2286 16.7233C29.3219 16.7142 29.6987 16.9738 30.066 17.3ZM17.47 22.9451C17.5127 23.3094 17.586 24.36 17.6331 25.2801C17.6804 26.2002 17.8077 27.7684 17.9161 28.7652C18.0244 29.7619 18.1138 30.6932 18.1145 30.8349C18.1157 31.0705 18.0042 31.0882 16.7945 31.044C15.5676 30.9991 15.4455 30.968 15.0868 30.6093L14.7005 30.223L14.6595 26.253L14.6186 22.283H16.0056H17.3927L17.47 22.9451ZM50.8467 26.253L50.8058 30.223L50.4195 30.6093C50.0608 30.968 49.9387 30.9991 48.7118 31.044C47.5021 31.0882 47.3905 31.0705 47.3918 30.8349C47.3925 30.6932 47.4821 29.7619 47.591 28.7652C47.6999 27.7684 47.827 26.1688 47.8733 25.2104C47.9197 24.252 47.9907 23.2013 48.0311 22.8754L48.1046 22.283H49.4961H50.8877L50.8467 26.253ZM18.5979 34.167C18.636 34.3396 18.7348 34.8767 18.8175 35.3606C18.9 35.8446 19.0061 36.3407 19.0531 36.4631C19.1866 36.8111 18.2642 36.5738 17.8417 36.1515C17.5566 35.8666 17.4884 35.6411 17.4426 34.8307L17.3874 33.8534H17.9581C18.4365 33.8534 18.5399 33.9041 18.5979 34.167ZM33.6881 37.0945C34.263 37.6699 34.2293 38.4803 33.6073 39.0361L33.1433 39.4505L31.2781 39.4052C29.4929 39.3617 29.3979 39.3446 29.0574 39.0037C28.5471 38.4928 28.4646 37.7901 28.8566 37.2919C29.3169 36.7066 29.5859 36.645 31.5306 36.6796C33.2618 36.7103 33.3145 36.7204 33.6881 37.0945ZM41.4758 47.8135L42.3939 49.6457L42.0203 50.6979C41.5278 52.0852 40.5318 54.4087 39.8381 55.7885L39.2807 56.897L36.9246 54.544L34.5686 52.1911L35.1673 51.5607C35.4966 51.2138 36.821 49.8166 38.1104 48.4558C39.3999 47.0949 40.478 45.9814 40.5063 45.9814C40.5346 45.9814 40.9708 46.8058 41.4758 47.8135ZM28.4721 54.5787C27.2781 55.8306 26.2741 56.8548 26.2411 56.8548C26.1229 56.8548 24.4148 53.1271 23.7586 51.4372L23.0895 49.7139L23.91 48.0544L24.7305 46.395L27.6868 49.3488L30.643 52.3027L28.4721 54.5787ZM32.9132 47.7239H34.9553L33.8235 48.9088C33.201 49.5605 32.6575 50.1098 32.6158 50.1293C32.574 50.1488 31.9449 49.5671 31.2176 48.8366C29.9541 47.5673 29.917 47.5131 30.3833 47.6161C30.6517 47.6754 31.7902 47.7239 32.9132 47.7239ZM21.4682 53.2303C22.9366 56.9147 24.9292 60.5835 27.525 64.3825C28.2323 65.4176 29.1338 66.7819 29.5283 67.4145L30.2459 68.5646H16.8861H3.5263L3.65009 67.6236C4.38279 62.057 7.86911 56.8808 12.6095 54.3221C13.673 53.748 20.2192 51.4018 20.5949 51.46C20.6933 51.4754 21.0863 52.2719 21.4682 53.2303ZM48.2829 52.5316C50.1035 53.144 52.106 53.9117 52.7329 54.2376C57.5307 56.7319 61.1149 61.9906 61.8562 67.6236L61.98 68.5646H48.6202H35.2604L35.9779 67.4145C36.3724 66.7819 37.274 65.4176 37.9813 64.3825C40.5226 60.6634 42.3578 57.3212 43.7991 53.7879C44.2212 52.7528 44.6042 51.7961 44.6499 51.662C44.6956 51.5279 44.7869 51.4181 44.8527 51.4181C44.9187 51.4181 46.4621 51.9192 48.2829 52.5316ZM35.2261 56.8882C36.6262 58.2867 37.7716 59.4875 37.7716 59.5569C37.7716 59.6262 37.0973 60.6836 36.2731 61.9067C35.4488 63.1298 34.3497 64.7988 33.8304 65.6156C33.3113 66.4325 32.8265 67.1008 32.7531 67.1008C32.6798 67.1008 32.195 66.4325 31.6758 65.6156C31.1566 64.7988 30.051 63.1201 29.2189 61.8851C28.3868 60.6503 27.7362 59.5621 27.7733 59.467C27.8555 59.2556 32.4803 54.3455 32.5972 54.3455C32.6432 54.3455 33.8261 55.4897 35.2261 56.8882ZM47.5839 55.3185C47.1451 55.4959 46.6934 56.142 46.6934 56.5925C46.6934 57.1506 47.3341 57.8203 47.9638 57.9202C48.3882 57.9877 48.541 57.9344 48.9364 57.5812C49.328 57.2313 49.4055 57.0654 49.4055 56.576C49.4055 56.0908 49.3274 55.9202 48.9532 55.5859C48.4953 55.1766 48.1177 55.1029 47.5839 55.3185ZM52.4786 57.9623C51.9716 58.1699 51.6485 58.6613 51.6485 59.2247C51.6485 59.7127 51.7668 59.8823 52.9778 61.1304C53.7324 61.9082 54.5682 62.9404 54.9113 63.5179C55.5898 64.6603 56.0805 65.0145 56.7978 64.88C57.3294 64.7803 57.6673 64.4466 57.8375 63.8533C58.0679 63.0497 56.853 61.0386 55.0488 59.2369C53.7209 57.911 53.216 57.6605 52.4786 57.9623Z" fill="#30B8C4"/>
</svg>
