<svg width="54" height="62" viewBox="0 0 54 62" fill="none" xmlns="http://www.w3.org/2000/svg">
<path fill-rule="evenodd" clip-rule="evenodd" d="M0.0839844 0.770996H53.9675V61.2293H53.2223V1.51611H0.829102V61.2293H0.0839844V0.770996Z" fill="#333333"/>
<path opacity="0.2" d="M1.44531 1.88037L13.1592 3.20222V59.3603L1.44531 60.9209V1.88037Z" fill="#7ABFFF"/>
<path fill-rule="evenodd" clip-rule="evenodd" d="M1.2479 1.65734C1.31119 1.60079 1.39557 1.57391 1.47991 1.58342L13.1938 2.90527C13.3445 2.92228 13.4584 3.04977 13.4584 3.20144V59.3595C13.4584 59.5089 13.3478 59.6353 13.1997 59.655L1.48584 61.2155C1.40069 61.2269 1.31478 61.2009 1.25014 61.1443C1.18551 61.0877 1.14844 61.006 1.14844 60.9201V1.87959C1.14844 1.79473 1.18462 1.71388 1.2479 1.65734ZM1.74453 2.21316V60.5797L12.8623 59.0986V3.46775L1.74453 2.21316Z" fill="#333333"/>
<path fill-rule="evenodd" clip-rule="evenodd" d="M13.1606 14.5193L1.30454 13.6987L1.3457 13.104L13.2018 13.9247L13.1606 14.5193Z" fill="#333333"/>
<path fill-rule="evenodd" clip-rule="evenodd" d="M13.1609 25.4481L1.30469 25.4481L1.30469 24.8521L13.1609 24.8521L13.1609 25.4481Z" fill="#333333"/>
<path fill-rule="evenodd" clip-rule="evenodd" d="M13.1608 37.0353L1.30445 37.3415L1.28906 36.7456L13.1455 36.4394L13.1608 37.0353Z" fill="#333333"/>
<path fill-rule="evenodd" clip-rule="evenodd" d="M13.1616 48.2511L1.30516 49.2352L1.25586 48.6411L13.1123 47.6571L13.1616 48.2511Z" fill="#333333"/>
<path opacity="0.2" d="M25.084 1.88037L35.5336 3.23942V59.3833L25.084 60.9209V1.88037Z" fill="#7ABFFF"/>
<path fill-rule="evenodd" clip-rule="evenodd" d="M24.8885 1.65566C24.9529 1.59907 25.0386 1.57297 25.1236 1.58403L35.5732 2.94309C35.7217 2.9624 35.8328 3.0889 35.8328 3.23864V59.3825C35.8328 59.5304 35.7244 59.6559 35.5781 59.6774L25.1285 61.215C25.0428 61.2276 24.9559 61.2023 24.8903 61.1457C24.8248 61.089 24.7871 61.0067 24.7871 60.9201V1.87959C24.7871 1.79384 24.824 1.71225 24.8885 1.65566ZM25.3832 2.21891V60.575L35.2367 59.1251V3.50044L25.3832 2.21891Z" fill="#333333"/>
<path fill-rule="evenodd" clip-rule="evenodd" d="M35.4433 14.3991L24.9429 13.699L24.9825 13.1043L35.483 13.8043L35.4433 14.3991Z" fill="#333333"/>
<path fill-rule="evenodd" clip-rule="evenodd" d="M35.4891 25.4481L24.9434 25.4481L24.9434 24.8521L35.4891 24.8521L35.4891 25.4481Z" fill="#333333"/>
<path fill-rule="evenodd" clip-rule="evenodd" d="M35.5347 36.9025L24.9426 37.3412L24.918 36.7456L35.51 36.3069L35.5347 36.9025Z" fill="#333333"/>
<path fill-rule="evenodd" clip-rule="evenodd" d="M35.535 48.3004L24.943 49.2349L24.8906 48.6411L35.4826 47.7066L35.535 48.3004Z" fill="#333333"/>
<path opacity="0.2" d="M24.0691 1.68311L13.9771 3.20224V59.3603L24.2207 60.8484L24.0691 1.68311Z" fill="#7ABFFF"/>
<path fill-rule="evenodd" clip-rule="evenodd" d="M24.2621 1.45618C24.1963 1.39974 24.1093 1.3747 24.0236 1.3876L13.9316 2.90674C13.7858 2.92869 13.6779 3.05399 13.6779 3.20146V59.3596C13.6779 59.5076 13.7866 59.6332 13.9331 59.6545L24.1767 61.1425C24.2624 61.155 24.3494 61.1295 24.4148 61.0727C24.4803 61.0159 24.5178 60.9335 24.5176 60.8468L24.366 1.68156C24.3658 1.5949 24.3278 1.51263 24.2621 1.45618ZM23.7708 2.02846L23.9206 60.503L14.274 59.1017V3.458L23.7708 2.02846Z" fill="#333333"/>
<path fill-rule="evenodd" clip-rule="evenodd" d="M13.9771 14.0812L24.2207 13.1714L24.2734 13.7651L14.0298 14.675L13.9771 14.0812Z" fill="#333333"/>
<path fill-rule="evenodd" clip-rule="evenodd" d="M14.1097 25.0556L24.2189 24.925L24.2266 25.521L14.1174 25.6517L14.1097 25.0556Z" fill="#333333"/>
<path fill-rule="evenodd" clip-rule="evenodd" d="M14.1115 36.5046L24.2207 36.9029L24.1973 37.4985L14.0881 37.1002L14.1115 36.5046Z" fill="#333333"/>
<path fill-rule="evenodd" clip-rule="evenodd" d="M13.9757 47.733L24.0924 48.7433L24.0332 49.3364L13.9165 48.3261L13.9757 47.733Z" fill="#333333"/>
<path opacity="0.2" d="M47.7422 1.73584L36.3495 3.3989V59.557L47.7422 60.9153V1.73584Z" fill="#7ABFFF"/>
<path fill-rule="evenodd" clip-rule="evenodd" d="M47.936 1.5096C47.8705 1.45299 47.7836 1.42764 47.698 1.44014L36.3053 3.1032C36.1588 3.12458 36.0503 3.25015 36.0503 3.39812V59.5562C36.0503 59.7072 36.1631 59.8343 36.313 59.8522L47.7057 61.2105C47.7903 61.2206 47.8752 61.194 47.9389 61.1374C48.0026 61.0809 48.0391 60.9997 48.0391 60.9145V1.73506C48.0391 1.6485 48.0014 1.56622 47.936 1.5096ZM47.443 2.07977V60.5788L36.6464 59.2916V3.65582L47.443 2.07977Z" fill="#333333"/>
<path fill-rule="evenodd" clip-rule="evenodd" d="M36.3492 13.8918L47.7419 13.1381L47.7812 13.7329L36.3885 14.4865L36.3492 13.8918Z" fill="#333333"/>
<path fill-rule="evenodd" clip-rule="evenodd" d="M36.5746 25.1495L47.7402 24.8197L47.7578 25.4155L36.5922 25.7453L36.5746 25.1495Z" fill="#333333"/>
<path fill-rule="evenodd" clip-rule="evenodd" d="M36.4831 36.7009L47.7412 36.7188L47.7402 37.3149L36.4822 37.297L36.4831 36.7009Z" fill="#333333"/>
<path fill-rule="evenodd" clip-rule="evenodd" d="M36.3485 47.9296L47.741 48.7673L47.6973 49.3618L36.3048 48.5241L36.3485 47.9296Z" fill="#333333"/>
<path d="M0.794922 18.6929H1.37097V20.4535H0.794922V18.6929Z" fill="#333333"/>
<path d="M13.4004 19.2583H13.9764V21.019H13.4004V19.2583Z" fill="#333333"/>
<path d="M24.2188 18.6929H25.1975V20.4535H24.2188V18.6929Z" fill="#333333"/>
<path d="M35.4883 19.2583H36.467V21.019H35.4883V19.2583Z" fill="#333333"/>
<path d="M35.4883 52.4653H36.467V54.226H35.4883V52.4653Z" fill="#333333"/>
<path d="M24.2188 53.8638H25.1975V55.6244H24.2188V53.8638Z" fill="#333333"/>
<path d="M13.1973 52.4653H14.176V54.226H13.1973V52.4653Z" fill="#333333"/>
<path d="M0.558594 53.8638H1.60738V55.6244H0.558594V53.8638Z" fill="#333333"/>
</svg>
