<svg width="71" height="52" viewBox="0 0 71 52" fill="none" xmlns="http://www.w3.org/2000/svg">
<path fill-rule="evenodd" clip-rule="evenodd" d="M60.2936 2.36621C60.2936 1.26164 61.189 0.366211 62.2936 0.366211H68.7513C69.8559 0.366211 70.7513 1.26164 70.7513 2.36621V49.1114C70.7513 50.216 69.8559 51.1114 68.7513 51.1114H2C0.895428 51.1114 -2.44379e-06 50.216 0 49.1114L0.000100672 2.82136C0.000103116 1.71679 0.895531 0.821363 2.0001 0.821363H8.00135C9.10592 0.821363 10.0013 1.7168 10.0013 2.82136V40.472H60.2936V2.36621ZM68.7513 2.36621H62.2936V40.472C62.2936 41.5766 61.3982 42.472 60.2936 42.472H10.0014C8.89678 42.472 8.00135 41.5766 8.00135 40.472V2.82136L2.0001 2.82136L2 49.1114H68.7513V2.36621Z" fill="#232C2E"/>
<path fill-rule="evenodd" clip-rule="evenodd" d="M0.60945 11.6915L8.80086 3.54861L9.50586 4.25781L1.31445 12.4007L0.60945 11.6915Z" fill="#232C2E"/>
<path fill-rule="evenodd" clip-rule="evenodd" d="M0.60945 18.1251L8.80086 9.9822L9.50586 10.6914L1.31445 18.8343L0.60945 18.1251Z" fill="#232C2E"/>
<path fill-rule="evenodd" clip-rule="evenodd" d="M0.60945 25.0616L8.80086 16.9187L9.50586 17.6279L1.31445 25.7708L0.60945 25.0616Z" fill="#232C2E"/>
<path fill-rule="evenodd" clip-rule="evenodd" d="M0.60945 30.2364L8.80086 22.0935L9.50586 22.8027L1.31445 30.9456L0.60945 30.2364Z" fill="#232C2E"/>
<path fill-rule="evenodd" clip-rule="evenodd" d="M0.60945 36.4689L8.80086 28.326L9.50586 29.0352L1.31445 37.1781L0.60945 36.4689Z" fill="#232C2E"/>
<path fill-rule="evenodd" clip-rule="evenodd" d="M0.60945 42.3478L8.80086 34.2049L9.50586 34.9141L1.31445 43.057L0.60945 42.3478Z" fill="#232C2E"/>
<path fill-rule="evenodd" clip-rule="evenodd" d="M0.60945 48.5802L8.80086 40.4373L9.50586 41.1465L1.31445 49.2894L0.60945 48.5802Z" fill="#232C2E"/>
<path fill-rule="evenodd" clip-rule="evenodd" d="M5.23445 49.839L13.4259 41.6961L14.1309 42.4053L5.93945 50.5482L5.23445 49.839Z" fill="#232C2E"/>
<path fill-rule="evenodd" clip-rule="evenodd" d="M10.9649 49.838L19.1563 41.6951L19.8613 42.4043L11.6699 50.5472L10.9649 49.838Z" fill="#232C2E"/>
<path fill-rule="evenodd" clip-rule="evenodd" d="M16.9962 49.838L25.1876 41.6951L25.8926 42.4043L17.7012 50.5472L16.9962 49.838Z" fill="#232C2E"/>
<path fill-rule="evenodd" clip-rule="evenodd" d="M23.4141 49.3067L31.6055 41.1638L32.3105 41.873L24.1191 50.0159L23.4141 49.3067Z" fill="#232C2E"/>
<path fill-rule="evenodd" clip-rule="evenodd" d="M29.3594 49.3067L37.5509 41.1638L38.2559 41.873L30.0645 50.0159L29.3594 49.3067Z" fill="#232C2E"/>
<path fill-rule="evenodd" clip-rule="evenodd" d="M35.8634 49.3067L44.0548 41.1638L44.7598 41.873L36.5684 50.0159L35.8634 49.3067Z" fill="#232C2E"/>
<path fill-rule="evenodd" clip-rule="evenodd" d="M41.7227 49.3067L49.9141 41.1638L50.6191 41.873L42.4277 50.0159L41.7227 49.3067Z" fill="#232C2E"/>
<path fill-rule="evenodd" clip-rule="evenodd" d="M47.3712 49.3067L55.5626 41.1638L56.2676 41.873L48.0762 50.0159L47.3712 49.3067Z" fill="#232C2E"/>
<path fill-rule="evenodd" clip-rule="evenodd" d="M60.9219 36.6192L69.1134 28.4763L69.8184 29.1855L61.627 37.3284L60.9219 36.6192Z" fill="#232C2E"/>
<path fill-rule="evenodd" clip-rule="evenodd" d="M60.9219 30.2364L69.1134 22.0935L69.8184 22.8027L61.627 30.9456L60.9219 30.2364Z" fill="#232C2E"/>
<path fill-rule="evenodd" clip-rule="evenodd" d="M60.9219 24.2081L69.1134 16.0652L69.8184 16.7744L61.627 24.9173L60.9219 24.2081Z" fill="#232C2E"/>
<path fill-rule="evenodd" clip-rule="evenodd" d="M60.9219 18.5079L69.1134 10.365L69.8184 11.0742L61.627 19.2171L60.9219 18.5079Z" fill="#232C2E"/>
<path fill-rule="evenodd" clip-rule="evenodd" d="M60.9219 12.6407L69.1134 4.49783L69.8184 5.20703L61.627 13.3499L60.9219 12.6407Z" fill="#232C2E"/>
<path fill-rule="evenodd" clip-rule="evenodd" d="M60.9202 6.52493L66.496 0.949143L67.2031 1.65625L61.6273 7.23204L60.9202 6.52493Z" fill="#232C2E"/>
<path fill-rule="evenodd" clip-rule="evenodd" d="M53.4524 49.3072L69.6132 33.1464L70.3203 33.8535L54.1595 50.0143L53.4524 49.3072Z" fill="#232C2E"/>
<path fill-rule="evenodd" clip-rule="evenodd" d="M59.7329 49.3069L69.6718 39.3681L70.3789 40.0752L60.44 50.0141L59.7329 49.3069Z" fill="#232C2E"/>
<path fill-rule="evenodd" clip-rule="evenodd" d="M0.0441486 5.39613L4.07414 1.36614L4.78125 2.07324L0.751255 6.10324L0.0441486 5.39613Z" fill="#232C2E"/>
</svg>
