<svg width="71" height="78" viewBox="0 0 71 78" fill="none" xmlns="http://www.w3.org/2000/svg">
<path fill-rule="evenodd" clip-rule="evenodd" d="M5.75913 0.516014C4.75614 0.754598 3.29548 1.61534 2.58456 2.3865C2.2229 2.77893 1.6974 3.58442 1.4171 4.17612L0.907227 5.25225V39.0103V72.7684L1.50892 73.9856C2.23353 75.4519 3.16628 76.3652 4.66399 77.0747L5.74012 77.5845H21.447H37.1539L38.23 77.0747C39.7276 76.3652 40.6605 75.4519 41.3851 73.9858L41.9868 72.7685L42.03 51.3795L42.0732 29.9905L53.7985 29.9453L65.5239 29.9L66.7412 29.2983C68.2072 28.5737 69.1204 27.6406 69.8299 26.1432C70.2909 25.17 70.3398 24.9207 70.3398 23.5367C70.3398 22.1527 70.2909 21.9033 69.8299 20.9301C69.1204 19.4328 68.2072 18.4997 66.7412 17.7751L65.5239 17.1734L53.8047 17.1281L42.0856 17.0828L42.0361 11.1587L41.9868 5.23453L41.3851 4.0176C40.6605 2.55195 39.7273 1.63853 38.23 0.929226L37.1539 0.419356L21.7692 0.393258C12.8177 0.378115 6.12304 0.429505 5.75913 0.516014ZM36.813 3.11224C37.6979 3.3737 39.0325 4.70822 39.2939 5.59313C39.4307 6.05612 39.4898 7.89133 39.4898 11.6745V17.0928H36.0404H32.591L31.8708 16.086C30.5021 14.1725 28.5491 12.5834 26.5128 11.7264C24.6685 10.9501 23.5999 10.746 21.3665 10.7434C18.9225 10.7406 17.9454 10.9631 15.7281 12.0273C12.4942 13.5796 10.1524 16.3592 9.0173 19.9926C8.6943 21.0263 8.63985 21.538 8.63985 23.5367C8.63985 25.5354 8.6943 26.0471 9.0173 27.0808C10.1514 30.7113 12.4864 33.4841 15.7281 35.0507C17.8307 36.0668 19.0373 36.3374 21.447 36.3335C23.7644 36.3297 25.2362 35.9941 27.1519 35.0327C29.1133 34.0484 30.8161 32.5597 32.0554 30.7457L32.5781 29.9805H36.034H39.4898V50.8641C39.4898 66.7898 39.4432 71.9051 39.2939 72.4108C39.0325 73.2957 37.6979 74.6302 36.813 74.8916C35.8577 75.1739 7.0363 75.1739 6.081 74.8916C5.19609 74.6302 3.86157 73.2957 3.60011 72.4108C3.31529 71.4467 3.31529 6.55713 3.60011 5.59313C3.84256 4.7725 5.1911 3.37612 5.98176 3.1269C6.82768 2.86029 35.9135 2.84643 36.813 3.11224ZM24.6428 13.7596C26.1958 14.2996 27.4068 15.0395 28.5166 16.1263L29.4213 17.0123L24.6599 17.0928L19.8986 17.1734L18.682 17.7751C17.2163 18.4997 16.3027 19.4331 15.5936 20.9301C15.1319 21.9046 15.0837 22.1516 15.0837 23.5451C15.0837 24.9973 15.1175 25.1522 15.6854 26.3011C16.41 27.7674 17.3428 28.6807 18.8405 29.3901L19.9166 29.9L24.6689 29.9805L29.4213 30.0611L28.5166 30.9471C26.7472 32.6797 24.5217 33.6568 22.0257 33.7968C15.2479 34.1768 9.98356 28.0285 11.3783 21.3619C12.1706 17.5753 15.3904 14.3217 19.1917 13.4662C20.7585 13.1138 23.1569 13.2428 24.6428 13.7596ZM65.166 19.8663C66.5505 20.2753 67.8428 22.0473 67.8428 23.5367C67.8428 25.026 66.5505 26.7981 65.166 27.2071C64.2055 27.4908 21.2179 27.4908 20.2575 27.2071C19.3726 26.9456 18.0381 25.6111 17.7766 24.7262C17.3305 23.2163 17.645 22.0124 18.7834 20.8713C19.2295 20.4245 19.8481 19.9787 20.1582 19.8809C21.0082 19.6132 64.2613 19.599 65.166 19.8663ZM19.8361 46.9559C18.6046 47.2949 17.8578 47.733 16.9292 48.6611C14.4284 51.1607 14.3879 55.0591 16.8366 57.6145L17.5807 58.3912V62.4919C17.5807 65.2407 17.6453 66.8112 17.7766 67.2557C18.0381 68.1406 19.3726 69.4751 20.2575 69.7365C21.7955 70.191 23.188 69.8089 24.2338 68.6456C24.6169 68.2195 25.0164 67.5833 25.1218 67.2318C25.2481 66.8106 25.3133 65.194 25.3133 62.4919V58.3912L26.0574 57.6145C26.4666 57.1875 27.0285 56.3589 27.3059 55.7735C27.761 54.8131 27.8103 54.559 27.8103 53.1784C27.8103 51.8007 27.7604 51.5428 27.3104 50.5933C27.0356 50.0132 26.5644 49.2577 26.2633 48.9145C24.7208 47.1562 22.0572 46.3444 19.8361 46.9559ZM22.6365 49.508C23.5215 49.7695 24.856 51.104 25.1174 51.9889C25.5936 53.6007 25.1698 54.8754 23.6985 56.2573L22.7358 57.1614V61.8626V66.5641L22.3403 66.9594C21.8172 67.4827 21.0768 67.4827 20.5537 66.9594L20.1582 66.5641V61.8816V57.1991L19.0642 56.115C17.6265 54.6905 17.2936 53.6237 17.7766 51.9889C18.019 51.1683 19.3676 49.7719 20.1582 49.5227C20.9297 49.2796 21.8448 49.2741 22.6365 49.508Z" fill="#30B8C4"/>
</svg>
