<svg width="65" height="89" viewBox="0 0 65 89" fill="none" xmlns="http://www.w3.org/2000/svg">
<path fill-rule="evenodd" clip-rule="evenodd" d="M17.4137 0.513603C17.1302 0.64231 14.5658 3.09497 11.7154 5.96382C7.38726 10.3196 6.50177 11.2934 6.34626 11.8673C6.21841 12.3394 6.15981 18.0027 6.1593 29.9441L6.15827 47.3337L3.78019 49.3903C1.00499 51.7902 0.570583 52.2684 0.415756 53.0939C0.223124 54.1205 0.585533 54.9829 1.82621 56.4503C7.27763 62.8977 7.55463 63.1613 8.87659 63.1613C9.49074 63.1613 9.64488 63.2503 10.1955 63.922L10.8187 64.6827L10.5505 65.5856C10.2149 66.7159 10.2145 67.1663 10.5486 68.291C10.9007 69.4768 11.957 70.5771 13.1442 70.995C13.9725 71.2865 14.0371 71.3511 14.1397 71.9927C14.3974 73.6046 15.7142 75.1455 17.1688 75.5371C17.7687 75.6986 17.8297 75.7747 18.0016 76.5762C18.1036 77.0518 18.298 77.6557 18.4336 77.9179C18.7742 78.5764 19.8727 79.5363 20.5939 79.8057C21.6147 80.1869 21.7069 80.2754 21.8016 80.9648C22.1175 83.2612 24.6426 85.0305 26.8752 84.5196L27.6517 84.3419L28.9482 85.8579C30.5606 87.7433 31.3158 88.1666 33.0511 88.1576C34.3861 88.1507 35.081 87.8772 36.0304 86.9846C36.6751 86.3784 37.2611 85.3477 37.2611 84.8198C37.2611 84.5676 37.3731 84.4693 37.6601 84.4693C38.3427 84.4693 39.5715 83.9678 40.2408 83.4161C40.8488 82.915 41.7289 81.4788 41.7289 80.9878C41.7289 80.85 42.1025 80.6814 42.6723 80.5618C44.3218 80.2159 45.7429 78.9038 46.1177 77.3809C46.1816 77.1209 46.3275 76.9084 46.4419 76.9084C47.1085 76.9084 48.5379 76.2951 49.1407 75.7505C50.1868 74.8054 50.5638 73.9541 50.5719 72.5203C50.5772 71.5453 50.4922 71.1444 50.1317 70.4489L49.6849 69.5867L51.9953 67.6198C54.2395 65.7093 54.3266 65.6545 55.0365 65.7091C55.4384 65.74 56.0498 65.6474 56.395 65.5031C57.1872 65.1721 63.9822 59.3576 64.4249 58.6319C64.9239 57.8141 65.0072 57.0618 64.6905 56.2373C64.5225 55.7998 63.3634 54.2932 61.7552 52.4213L59.0977 49.3282L59.0482 25.8722C58.9929 -0.368103 59.1068 1.8579 57.7665 0.835629L57.1353 0.354136L37.5323 0.316675C21.2914 0.285744 17.8407 0.319596 17.4137 0.513603ZM56.1211 24.4691C56.1459 36.5303 56.1 45.638 56.0144 45.6053C55.9317 45.5737 54.379 43.8079 52.564 41.6814C50.7489 39.5549 49.0316 37.6485 48.7473 37.4449C48.4631 37.2412 47.9675 37.0254 47.6458 36.9649C46.4316 36.7372 45.8964 37.0625 42.0109 40.3895C39.9736 42.134 38.1779 43.7581 38.0203 43.9986C37.6544 44.5569 37.5117 45.8066 37.739 46.4589L37.9153 46.9644L37.0296 47.0708C36.5427 47.1294 35.7522 47.178 35.2733 47.1787C33.9895 47.1809 32.8156 47.5964 31.8631 48.386C31.3598 48.8033 30.9146 49.0457 30.7603 48.9866C30.6182 48.932 29.8512 48.7242 29.0563 48.5247C27.7268 48.1913 27.6206 48.1333 27.7325 47.8001C28.0394 46.8866 28.0108 45.8487 27.6603 45.1838C27.1453 44.2071 21.4669 37.716 20.778 37.3165C20.059 36.8996 18.8166 36.8733 18.1011 37.2596C17.8175 37.4127 15.7355 39.1275 13.4743 41.0703C11.2131 43.0131 9.29914 44.6027 9.2213 44.6027C9.14328 44.6027 9.07953 37.6045 9.07953 29.0512V13.4998H12.9041C15.0076 13.4998 16.9929 13.424 17.3159 13.3314C17.9761 13.142 18.7836 12.4435 19.1474 11.7471C19.3361 11.3858 19.3899 10.3856 19.3899 7.23542V3.18793L37.7337 3.23158L56.0775 3.2754L56.1211 24.4691ZM16.4686 8.00097V10.5786H13.8503H11.2318L13.8051 8.00097C15.2204 6.5833 16.3987 5.42338 16.4234 5.42338C16.4483 5.42338 16.4686 6.5833 16.4686 8.00097ZM20.3702 14.9912C20.2004 15.0371 19.2338 16.176 18.2219 17.5224L16.3823 19.9701L15.867 19.6571C15.1368 19.2138 14.628 19.2662 14.0496 19.8446C13.2609 20.6334 13.3691 21.0815 14.6751 22.4342C15.8579 23.6593 16.316 23.8782 17.0486 23.5682C17.3146 23.4556 18.4552 22.0888 19.9014 20.1498C21.8516 17.5353 22.3111 16.8118 22.3111 16.3565C22.3111 15.4607 21.2902 14.7427 20.3702 14.9912ZM27.6995 15.045C26.7645 15.4222 26.4973 16.6704 27.2008 17.3739C27.5771 17.7504 27.7682 17.7958 28.975 17.7958C30.1667 17.7958 30.3721 17.7485 30.7013 17.3981C31.1 16.9737 31.1969 16.1109 30.9067 15.5686C30.5853 14.9683 28.6661 14.6549 27.6995 15.045ZM34.9241 15.1172C34.0518 15.5014 33.8568 16.7562 34.5656 17.4222C34.9622 17.7946 34.9884 17.7958 42.8809 17.7958C51.7372 17.7958 51.4311 17.8382 51.6325 16.58C51.7117 16.0851 51.6468 15.8679 51.2986 15.4631L50.8663 14.9604L43.1615 14.9214C36.9594 14.8902 35.3528 14.9283 34.9241 15.1172ZM27.8564 20.8378C27.3386 20.9379 26.7789 21.6855 26.7789 22.2772C26.7789 22.5427 26.9654 22.9769 27.1934 23.242L27.6079 23.7242L32.8545 23.7765C38.8618 23.8363 39.3555 23.7708 39.7914 22.8566C40.0537 22.3067 40.0537 22.2206 39.7923 21.6723C39.5811 21.2296 39.3465 21.0356 38.8582 20.9001C38.2335 20.7265 28.7113 20.6727 27.8564 20.8378ZM20.0475 26.9462C19.9004 27.0644 19.0625 28.1276 18.1853 29.309C17.3082 30.4904 16.5263 31.5286 16.4478 31.6161C16.3627 31.711 16.1607 31.6448 15.9486 31.4529C15.1802 30.7576 13.8587 31.204 13.6321 32.2356C13.4949 32.8604 13.8321 33.4969 14.7794 34.4011C16.6087 36.1471 16.7612 36.0743 19.8298 31.9849C22.5524 28.3565 22.7139 27.9778 21.8893 27.1533C21.422 26.6859 20.5003 26.5823 20.0475 26.9462ZM27.2008 27.1533C26.2804 28.0735 26.93 29.4432 28.3635 29.6047C30.1214 29.8029 31.0749 29.2865 31.0749 28.136C31.0749 27.0634 30.573 26.7314 28.951 26.7314C27.7696 26.7314 27.5758 26.7781 27.2008 27.1533ZM34.5416 27.129C34.0584 27.6435 34.0383 28.6637 34.5021 29.1275C34.6859 29.3114 35.0918 29.5083 35.4042 29.5654C35.7166 29.6224 39.3235 29.646 43.4193 29.618L50.8664 29.5667L51.2986 29.0641C51.6468 28.6593 51.7117 28.4421 51.6325 27.9472C51.4311 26.6886 51.7399 26.7314 42.8569 26.7314H34.9153L34.5416 27.129ZM27.2008 32.9958C26.6095 33.5869 26.6403 34.3519 27.2812 34.9929L27.7835 35.4952H33.1985C36.2306 35.4952 38.8039 35.4228 39.046 35.3307C39.5875 35.1249 40.0683 34.2353 39.9138 33.7253C39.8507 33.5173 39.6399 33.1733 39.4454 32.9606C39.0919 32.5744 39.0843 32.5739 33.3569 32.5739H27.6225L27.2008 32.9958ZM22.2967 43.2374C23.8381 45.0383 25.071 46.5336 25.0368 46.5606C25.0026 46.5876 21.3861 49.682 17.0003 53.4371L9.02592 60.2644L8.63825 59.8656C7.91085 59.117 3.4097 53.7964 3.40936 53.6847C3.40885 53.557 19.2472 39.963 19.3964 39.963C19.4502 39.963 20.7553 41.4365 22.2967 43.2374ZM54.4369 48.3817C58.4162 53.0121 61.7105 56.901 61.7576 57.0237C61.8083 57.1555 60.9821 57.9819 59.7378 59.0442C58.5798 60.0326 57.1131 61.2889 56.4785 61.836L55.3246 62.8305L47.9216 54.2014C43.1749 48.6685 40.5781 45.5129 40.6841 45.4069C41.1777 44.9133 46.988 39.9814 47.0858 39.973C47.1496 39.9675 50.4576 43.7515 54.4369 48.3817ZM46.1971 56.6846C49.4223 60.4472 52.0368 63.5879 52.0071 63.6641C51.9279 63.868 47.9156 67.2854 47.7555 67.2854C47.6802 67.2854 45.3214 64.6047 42.5134 61.3281C38.3416 56.4604 37.4288 55.3055 37.5225 55.013C37.8521 53.9827 37.8198 53.7268 37.2931 53.2001C36.7564 52.6634 36.2693 52.554 35.7216 52.8471C35.5489 52.9396 33.3308 54.7953 30.7926 56.9709C26.7844 60.4067 26.1026 60.9268 25.6077 60.9272C24.8268 60.9275 24.4426 60.6864 24.224 60.0594C24.0866 59.665 24.0931 59.4021 24.2489 59.0418C24.4251 58.6345 33.21 50.9279 34.1448 50.3606C34.3899 50.2118 39.258 49.7685 40.043 49.8235C40.2026 49.8346 42.972 52.9222 46.1971 56.6846ZM26.8442 50.9677C28.2782 51.3441 28.3501 51.3844 28.0392 51.6371C27.8572 51.7848 26.4585 52.9765 24.931 54.2851C21.7136 57.0414 21.2801 57.6583 21.2801 59.4808C21.2801 62.6523 24.5631 64.7801 27.3804 63.435C27.8536 63.209 29.771 61.7118 31.6485 60.102L35.0574 57.1794L35.6135 57.8074C35.9192 58.153 38.7736 61.4697 41.9564 65.1778C48.1619 72.4077 48.1511 72.3914 47.4023 73.3432C46.998 73.857 46.378 74.0476 45.811 73.8319C45.5857 73.7462 44.6737 72.8198 43.7846 71.773C41.7951 69.431 41.2461 69.1715 40.2253 70.0903C39.5447 70.7031 39.6978 71.4996 40.7266 72.6983C43.5441 75.9815 43.6554 76.2071 42.9192 77.1429C42.6381 77.5005 42.4151 77.5957 41.8587 77.5957C41.2177 77.5957 41.0756 77.5072 40.2817 76.6123C38.5819 74.6965 38.354 74.5026 37.8034 74.5026C37.0241 74.5026 36.3332 75.1711 36.3332 75.9251C36.3332 76.4057 36.5112 76.7407 37.1838 77.5242C37.6515 78.0693 38.2083 78.7488 38.421 79.034C39.1295 79.9845 38.8018 81.237 37.7864 81.4599C37.1224 81.6058 36.6494 81.3425 35.7441 80.3233C35.1001 79.598 34.9129 79.4859 34.3455 79.4859C33.4099 79.4859 32.887 79.9599 32.887 80.8081C32.887 81.3519 33.0316 81.6513 33.6479 82.382C34.5916 83.5013 34.6797 84.2804 33.935 84.9212C33.0411 85.69 32.4503 85.4446 30.9278 83.6719L29.8739 82.4448L30.1308 81.7171C30.2721 81.3167 30.3876 80.5826 30.3876 80.0853C30.3876 78.3494 28.9673 76.4996 27.2872 76.0473C26.7413 75.9002 26.6071 75.7849 26.6071 75.4627C26.6071 74.852 26.1565 73.7058 25.6615 73.0566C25.2741 72.5488 23.9809 71.7561 23.1518 71.5183C22.9818 71.4695 22.8309 71.1621 22.7605 70.7211C22.5089 69.1478 21.2291 67.6261 19.8463 67.2563C19.1166 67.0611 19.0998 67.0398 18.8975 66.0607C18.6248 64.7406 17.8522 63.7294 16.6392 63.1047C15.7867 62.6657 15.5656 62.6256 14.3558 62.6902L13.0164 62.7616L12.5282 62.1452L12.0401 61.5288L18.5073 55.9863C22.0644 52.938 25.052 50.4718 25.1465 50.5057C25.241 50.5397 26.005 50.7476 26.8442 50.9677ZM15.7031 65.9889C16.592 66.8776 15.9496 68.3164 14.6643 68.3164C13.7493 68.3164 13.1287 67.6445 13.264 66.8003C13.4571 65.5928 14.8452 65.1309 15.7031 65.9889ZM19.5187 70.4879C20.0343 71.055 20.0198 71.8262 19.4835 72.3624C18.4858 73.3602 16.7674 72.4433 17.0683 71.0736C17.3295 69.8848 18.6774 69.5624 19.5187 70.4879ZM22.8809 74.5306C23.7886 75.0142 23.9732 76.1212 23.264 76.8302C22.7208 77.3735 21.9626 77.3792 21.3413 76.8448C20.0934 75.7715 21.4323 73.7591 22.8809 74.5306ZM27.0444 79.2205C28.0423 80.2181 27.1254 81.9365 25.7556 81.6357C24.6091 81.3837 24.239 79.9652 25.1217 79.2058C25.7431 78.6714 26.5012 78.6771 27.0444 79.2205Z" fill="#30B8C4"/>
</svg>
