<svg width="64" height="70" viewBox="0 0 64 70" fill="none" xmlns="http://www.w3.org/2000/svg">
<path fill-rule="evenodd" clip-rule="evenodd" d="M3.88177 3.92864L0.34375 7.46666V14.8262C0.34375 18.8739 0.381459 22.2839 0.427382 22.4037C0.627777 22.9257 1.15947 23.0158 4.04055 23.0158H6.80809V28.1636V33.3112L3.57592 36.5532L0.34375 39.7954V54.2389V68.6825L0.674374 69.013L1.00486 69.3436H22.4568H43.9087L53.9092 59.343L63.9098 49.3425V27.9149V6.48731L63.6306 6.13244L63.3516 5.77758H43.1688H22.9859L22.9438 3.34133C22.9027 0.967433 22.8934 0.898345 22.5837 0.647852C22.2794 0.401668 21.9479 0.390625 14.8427 0.390625H7.41978L3.88177 3.92864ZM17.1106 4.70019L14.959 6.85497H9.50467H4.05038L6.20206 4.70019L8.35375 2.54541H13.808H19.2623L17.1106 4.70019ZM18.661 17.155L16.5046 19.3112V13.8591V8.40682L18.6257 6.28247L20.7468 4.15826L20.7821 9.57834L20.8173 14.9986L18.661 17.155ZM30.0393 10.0871L27.8876 12.2419H25.4284H22.969V10.0871V7.93236H27.5799H32.191L30.0393 10.0871ZM44.0454 10.0871L41.8937 12.2419H36.4716C33.4894 12.2419 31.0494 12.1972 31.0494 12.1425C31.0494 12.0879 31.9728 11.1182 33.1015 9.98775L35.1537 7.93236H40.6753H46.1971L44.0454 10.0871ZM58.0515 10.0871L55.8998 12.2419H50.4777C47.4955 12.2419 45.0555 12.1972 45.0555 12.1425C45.0555 12.0879 45.9789 11.1182 47.1076 9.98775L49.1598 7.93236H54.6814H60.2032L58.0515 10.0871ZM14.3498 14.9354V20.861H8.42418H2.49853V14.9354V9.00975H8.42418H14.3498V14.9354ZM59.6019 22.5419L57.4455 24.6982V19.246V13.7938L59.5666 11.6694L61.6877 9.54521L61.723 14.9653L61.7581 20.3855L59.6019 22.5419ZM23.575 16.5515C21.4342 18.6955 21.4203 18.7063 20.8186 18.7063H20.2138L21.3704 17.5279C22.8391 16.0314 22.969 15.8294 22.969 15.04V14.3967H24.3477H25.7267L23.575 16.5515ZM37.5811 16.5515L35.4294 18.7063H30.0073C27.0251 18.7063 24.585 18.6616 24.585 18.6069C24.585 18.5522 25.5085 17.5826 26.6372 16.4521L28.6894 14.3967H34.211H39.7328L37.5811 16.5515ZM51.5872 16.5515L49.4355 18.7063H44.0134C41.0311 18.7063 38.5911 18.6616 38.5911 18.6069C38.5911 18.5522 39.5146 17.5826 40.6433 16.4521L42.6954 14.3967H48.2171H53.7388L51.5872 16.5515ZM53.1375 29.0063L50.9811 31.1625V25.7104V20.2581L53.1022 18.1338L55.2233 16.0096L55.2586 21.4296L55.2938 26.8499L53.1375 29.0063ZM16.8029 23.3271L14.3498 25.7932V29.2527V32.7123H11.6564H8.96288V27.8641V23.0158H12.3095H15.6562L16.1814 22.6274C16.4703 22.4138 17.0074 21.929 17.3749 21.55C17.984 20.9222 18.097 20.861 18.6496 20.861H19.2559L16.8029 23.3271ZM31.1167 23.0158L28.965 25.1706H23.5429C20.5607 25.1706 18.1207 25.1259 18.1207 25.0712C18.1207 25.0165 19.0442 24.0469 20.1729 22.9164L22.225 20.861H27.7466H33.2684L31.1167 23.0158ZM45.1228 23.0158L42.9711 25.1706H37.549C34.5668 25.1706 32.1268 25.1259 32.1268 25.0712C32.1268 25.0165 33.0502 24.0469 34.1789 22.9164L36.2311 20.861H41.7527H47.2745L45.1228 23.0158ZM46.6732 35.4706L44.5168 37.6269V32.1747V26.7225L46.6379 24.5981L48.759 22.4739L48.7943 27.894L48.8294 33.3142L46.6732 35.4706ZM59.6017 36.548L57.4455 38.7043V33.1848V27.6652L59.5666 25.5408L61.6877 23.4166L61.7228 28.9042L61.7581 34.3916L59.6017 36.548ZM28.3559 33.251V39.1767H22.4303H16.5046V33.251V27.3254H22.4303H28.3559V33.251ZM42.362 33.251V39.1767H36.4363H30.5107V33.251V27.3254H36.4363H42.362V33.251ZM53.1374 43.0123L50.9811 45.1686V39.6491V34.1295L53.1022 32.0052L55.2233 29.881L55.2585 35.3685L55.2938 40.8559L53.1374 43.0123ZM14.3498 37.0219V39.1767H9.20017H4.05038L6.20206 37.0219L8.35375 34.8671H11.3517H14.3498V37.0219ZM48.8263 41.9055V47.3276L46.6716 49.4792L44.5168 51.6309V46.1124V40.5939L46.5689 38.5386C47.6976 37.4082 48.6673 36.4832 48.7237 36.4832C48.7801 36.4832 48.8263 38.9232 48.8263 41.9055ZM59.6019 50.5541L57.4455 52.7103V47.2582V41.8059L59.5666 39.6816L61.6877 37.5574L61.723 42.9775L61.7581 48.3977L59.6019 50.5541ZM14.3498 47.2571V53.1828H8.42418H2.49853V47.2571V41.3315H8.42418H14.3498V47.2571ZM28.3559 47.2571V53.1828H22.4303H16.5046V47.2571V41.3315H22.4303H28.3559V47.2571ZM42.362 47.2571V53.1828H36.4363H30.5107V47.2571V41.3315H36.4363H42.362V47.2571ZM53.1375 57.0184L50.9811 59.1747V53.7225V48.2703L53.1022 46.1459L55.2233 44.0217L55.2586 49.4418L55.2938 54.862L53.1375 57.0184ZM46.6732 63.4828L44.5168 65.639V60.1869V54.7346L46.6379 52.6103L48.759 50.4861L48.7943 55.9061L48.8294 61.3264L46.6732 63.4828ZM14.3498 61.2632V67.1889H8.42418H2.49853V61.2632V55.3376H8.42418H14.3498V61.2632ZM28.3559 61.2632V67.1889H22.4303H16.5046V61.2632V55.3376H22.4303H28.3559V61.2632ZM42.362 61.2632V67.1889H36.4363H30.5107V61.2632V55.3376H36.4363H42.362V61.2632Z" fill="#30B8C4"/>
</svg>
