<svg width="80" height="80" viewBox="0 0 80 80" fill="none" xmlns="http://www.w3.org/2000/svg">
<path fill-rule="evenodd" clip-rule="evenodd" d="M12.1459 0.31281C11.9393 0.398118 11.6877 0.622052 11.5869 0.810384C11.4694 1.03002 11.4037 2.94137 11.4037 6.14456V11.1365L6.22847 11.1867L1.05339 11.2369L0.724711 11.643C0.269791 12.2052 0.300234 13.0647 0.791445 13.5261C1.1755 13.887 1.33081 13.8988 6.25221 13.9432L11.3177 13.9888V39.8737V65.7585L6.25221 65.8041C1.33081 65.8485 1.1755 65.8604 0.791445 66.2212C0.300234 66.6827 0.269791 67.5421 0.724711 68.1044L1.05339 68.5104L6.22847 68.5606L11.4037 68.6109V73.6583C11.4037 78.3338 11.4275 78.7352 11.7255 79.1033C12.1607 79.6406 13.156 79.648 13.6864 79.1179C14.0629 78.7416 14.0705 78.6458 14.12 73.6657L14.1702 68.5964H40.1265H66.0827L66.1329 73.6657C66.1825 78.6458 66.19 78.7416 66.5665 79.1179C67.097 79.648 68.0923 79.6406 68.5274 79.1033C68.8255 78.7352 68.8492 78.3338 68.8492 73.6583V68.6109L74.0245 68.5606L79.1996 68.5104L79.5282 68.1044C79.9832 67.5421 79.9527 66.6827 79.4615 66.2212C79.0774 65.8604 78.9221 65.8485 74.0007 65.8041L68.9352 65.7585V39.8737V13.9888L74.0007 13.9432C78.9221 13.8988 79.0774 13.887 79.4615 13.5261C79.9527 13.0647 79.9832 12.2052 79.5282 11.643L79.1996 11.2369L74.0245 11.1867L68.8492 11.1365V6.08901C68.8492 1.41356 68.8255 1.01213 68.5274 0.644067C68.0923 0.106762 67.097 0.0993668 66.5665 0.629448C66.19 1.00577 66.1825 1.10157 66.1329 6.08161L66.0827 11.1509H40.1265H14.1702L14.12 6.08161C14.0722 1.27545 14.0517 0.994932 13.7256 0.674682C13.3011 0.258116 12.6436 0.107451 12.1459 0.31281ZM28.775 21.7285V29.5541H21.4653H14.1556V21.7285V13.9028H21.4653H28.775V21.7285ZM48.7261 21.7285V29.5541H40.1265H31.5268V21.7285V13.9028H40.1265H48.7261V21.7285ZM66.0973 21.7285V29.5541H58.7877H51.478V21.7285V13.9028H58.7877H66.0973V21.7285ZM28.775 41.5936V50.8812H21.4653H14.1556V41.5936V32.306H21.4653H28.775V41.5936ZM48.7261 41.5936V50.8812H40.1265H31.5268V41.5936V32.306H40.1265H48.7261V41.5936ZM66.0973 41.5936V50.8812H58.7877H51.478V41.5936V32.306H58.7877H66.0973V41.5936ZM28.775 59.7388V65.8445H21.4653H14.1556V59.7388V53.6331H21.4653H28.775V59.7388ZM48.7261 59.7388V65.8445H40.1265H31.5268V59.7388V53.6331H40.1265H48.7261V59.7388ZM66.0973 59.7388V65.8445H58.7877H51.478V59.7388V53.6331H58.7877H66.0973V59.7388Z" fill="#30B8C4"/>
</svg>
