<svg width="71" height="72" viewBox="0 0 71 72" fill="none" xmlns="http://www.w3.org/2000/svg">
<path fill-rule="evenodd" clip-rule="evenodd" d="M32.9645 0.747212C32.6804 0.851921 32.3074 1.03205 32.1357 1.14754C31.9641 1.26316 24.8614 7.73195 16.352 15.5229C4.9395 25.9717 0.798914 29.8428 0.569602 30.2778L0.258789 30.8675V50.0997C0.258789 63.3522 0.304513 69.4527 0.405769 69.7207C0.605657 70.2499 1.20173 70.8635 1.73937 71.0935C2.40409 71.378 68.8408 71.378 69.5055 71.0935C70.0432 70.8635 70.6392 70.2499 70.8391 69.7207C70.9404 69.4527 70.9861 63.3522 70.9861 50.0997V30.8675L70.6753 30.2738C70.4436 29.8312 66.4083 26.0581 54.8238 15.4523C46.2764 7.62696 39.0345 1.09007 38.7306 0.925964C38.2353 0.65825 37.9346 0.623715 35.8297 0.592219C34.1039 0.566387 33.3442 0.607553 32.9645 0.747212ZM34.377 4.45888L34.3746 6.01294L21.3149 18.0311C14.1321 24.641 8.04114 30.2261 7.77964 30.4425L7.30389 30.8357L7.30735 28.9229L7.31066 27.0101L19.6758 15.6827C34.1589 2.41497 33.6081 2.90481 34.0432 2.90481H34.3792L34.377 4.45888ZM38.3032 3.56097C38.7256 3.92193 44.6656 9.34555 51.5029 15.6136L63.9348 27.0101L63.9378 28.9264C63.9407 30.704 63.9241 30.829 63.7091 30.6531C63.5816 30.549 57.5051 24.9712 50.2059 18.2583L36.9348 6.053L36.8958 4.47891L36.857 2.90481H37.196C37.4004 2.90481 37.8397 3.16506 38.3032 3.56097ZM36.2896 8.64961L36.8685 9.14497L36.8325 15.453L36.7966 21.7608H35.6224H34.4483L34.4087 15.4755L34.3692 9.19015L34.9613 8.67254C35.2869 8.38783 35.5889 8.15465 35.6321 8.15451C35.6755 8.15424 35.9714 8.37706 36.2896 8.64961ZM32.0308 16.6497V21.8299H27.9557H23.8806V20.3427V18.8555L27.8978 15.1625C30.1074 13.1313 31.9412 11.4694 31.9729 11.4694C32.0048 11.4694 32.0308 13.8005 32.0308 16.6497ZM43.4744 15.2618L47.3643 18.847V20.3384V21.8299H43.2892H39.2141V16.6428C39.2141 12.3432 39.2457 11.4746 39.3993 11.5661C39.5011 11.6269 41.3349 13.29 43.4744 15.2618ZM21.4684 64.066C21.4234 64.1844 21.0537 64.2386 20.2933 64.2386H19.1839L19.1888 43.6904L19.194 23.1422L20.3285 22.111L21.4632 21.0799L21.4987 42.4865C21.5181 54.2603 21.5046 63.9711 21.4684 64.066ZM51.0066 22.1966L52.061 23.1852V43.7175V64.2498L50.9214 64.2096L49.7817 64.1696L49.7468 42.6428C49.727 30.4793 49.764 21.136 49.832 21.1621C49.898 21.1875 50.4265 21.6531 51.0066 22.1966ZM47.3643 25.3524V26.5266H35.6224H23.8806V25.3524V24.1783H35.6224H47.3643V25.3524ZM16.6974 35.4366V45.3136H12.0006H7.30389L7.31411 39.6844L7.3242 34.0552L11.9602 29.8074C14.5099 27.4712 16.6189 25.5596 16.6467 25.5596C16.6746 25.5596 16.6974 30.0043 16.6974 35.4366ZM59.6443 30.1182L63.9257 34.0552L63.9334 39.6844L63.941 45.3136H59.2443H54.5475V35.4189V25.5243L54.9552 25.8528C55.1794 26.0335 57.2894 27.9529 59.6443 30.1182ZM47.3643 37.0943V45.3136H35.6224H23.8806V37.0943V28.875H35.6224H47.3643V37.0943ZM4.95552 49.1124V68.9354H3.78134H2.60716L2.6102 50.1139L2.61323 31.2924L3.73299 30.2909C4.34868 29.74 4.87568 29.2894 4.904 29.2894C4.93232 29.2894 4.95552 38.2098 4.95552 49.1124ZM67.652 30.4134L68.6377 31.3304V50.1328V68.9354H67.4635H66.2894V49.1055C66.2894 32.3927 66.3189 29.293 66.4778 29.3861C66.5815 29.4469 67.1099 29.9092 67.652 30.4134ZM16.6974 48.8361V50.0103H12.0006H7.30389V48.8361V47.6619H12.0006H16.6974V48.8361ZM47.3643 48.8361V50.0103H35.6224H23.8806V48.8361V47.6619H35.6224H47.3643V48.8361ZM63.941 48.8361V50.0103H59.2443H54.5475V48.8361V47.6619H59.2443H63.941V48.8361ZM16.6974 58.2987V64.2386H12.0006H7.30389V58.3908C7.30389 55.1744 7.34533 52.5014 7.39603 52.4508C7.44659 52.4001 9.56012 52.3587 12.0928 52.3587H16.6974V58.2987ZM47.3643 58.2987V64.2386H35.6224H23.8806V58.2987V52.3587H35.6224H47.3643V58.2987ZM63.908 58.3332L63.9439 64.2386H59.2458H54.5475V58.2969V52.3549L59.2097 52.3914L63.8719 52.4277L63.908 58.3332ZM63.941 67.7612V68.9354H35.6224H7.30389V67.7612V66.587H35.6224H63.941V67.7612Z" fill="#30B8C4"/>
</svg>
