<svg width="82" height="72" viewBox="0 0 82 72" fill="none" xmlns="http://www.w3.org/2000/svg">
<path fill-rule="evenodd" clip-rule="evenodd" d="M40.2544 0.36981C39.9915 0.402322 39.3818 0.508627 38.8997 0.605847C38.2619 0.734463 7.44264 13.0133 2.38929 15.1521C1.20703 15.6524 0.331417 17.0525 0.33301 18.4399C0.334126 19.3202 1.00861 20.588 1.72979 21.0652C2.0742 21.2932 7.06826 23.3777 12.8276 25.6973L23.2992 29.915H41.1445H58.9899L67.1535 26.6285C81.9872 20.6568 80.8549 21.1946 81.5388 19.7967C82.2629 18.3169 81.9382 16.7676 80.6835 15.7141C80.2235 15.3279 75.6492 13.4191 62.3142 8.04841C52.5481 4.115 44.1631 0.798373 43.681 0.678203C42.7025 0.434198 40.9839 0.279443 40.2544 0.36981ZM43.2904 3.06837C44.9784 3.532 78.9831 17.3284 79.2618 17.6626C79.6423 18.1188 79.612 18.6382 79.1821 19.0299C78.9848 19.2097 74.3178 21.1697 68.8107 23.3857L58.798 27.4146L51.598 24.5337C47.6382 22.9492 44.1472 21.5705 43.8404 21.4701C42.9488 21.1782 40.5115 21.0857 39.2945 21.2977C38.5611 21.4254 35.7447 22.4763 30.8401 24.4526L23.4856 27.416L13.4164 23.3662C7.87821 21.139 3.20625 19.1882 3.03412 19.0314C2.64652 18.678 2.63218 18.1028 3.00018 17.6661C3.17135 17.4629 6.20317 16.16 10.8495 14.2928C15.0132 12.6195 23.0528 9.38653 28.7151 7.10841C39.4062 2.80715 39.9347 2.63216 41.7685 2.78691C42.163 2.82022 42.8478 2.94677 43.2904 3.06837ZM42.9889 23.7505C43.4353 23.8664 45.7545 24.7448 48.1428 25.7029L52.4851 27.4447L46.808 27.4866C43.6856 27.5096 38.5738 27.5096 35.4484 27.4866L29.7659 27.4447L34.1336 25.6982C36.5359 24.7377 38.824 23.864 39.2185 23.7567C40.1806 23.4949 41.9918 23.4918 42.9889 23.7505ZM7.96985 30.3761C4.76447 31.6753 1.94654 32.8664 1.70779 33.0229C1.06184 33.446 0.481868 34.5524 0.377955 35.5593C0.300976 36.3044 0.353251 36.5722 0.723164 37.3281C1.00446 37.9033 1.36513 38.353 1.74078 38.5974C2.3861 39.0172 36.9816 52.9868 38.5013 53.4412C39.8032 53.8306 42.4549 53.8312 43.7607 53.4425C45.1006 53.0437 79.4708 39.2108 80.2935 38.7392C81.819 37.865 82.3521 35.6272 81.4148 34.0328C81.1745 33.624 80.7442 33.1464 80.4586 32.9714C79.7025 32.5079 68.4696 28.0025 68.0702 28.0025C67.613 28.0025 66.95 28.6952 66.95 29.173C66.95 29.3864 67.0756 29.7117 67.2289 29.8957C67.3997 30.1009 69.7305 31.125 73.2454 32.5395C76.8541 33.9917 79.0863 34.9746 79.2618 35.1885C79.6156 35.6199 79.6155 36.003 79.2612 36.4407C78.8734 36.9195 44.2197 50.8875 42.5654 51.2319C40.2624 51.7112 40.8677 51.916 21.2493 44.0198C11.541 40.1126 3.41854 36.7857 3.1994 36.6268C2.70374 36.2678 2.61512 35.6577 2.99221 35.2003C3.17613 34.9773 5.33871 34.0226 9.01664 32.5409C12.7003 31.057 14.8587 30.104 15.0462 29.879C15.5954 29.22 15.0007 27.9941 14.1388 28.0081C13.9514 28.0111 11.1752 29.0767 7.96985 30.3761ZM19.1202 31.0504C18.7233 31.1945 18.3402 31.7652 18.3402 32.212C18.3402 32.3275 18.4889 32.611 18.6705 32.842C19.3264 33.6757 20.7308 33.2135 20.7308 32.164C20.7308 31.3027 19.937 30.7538 19.1202 31.0504ZM33.53 31.0337C32.2831 31.5306 32.6286 33.2619 33.9747 33.2619C34.6849 33.2619 35.0747 32.8345 35.0747 32.0558C35.0747 31.2804 34.2614 30.7422 33.53 31.0337ZM47.9842 30.9859C47.2044 31.2675 46.9385 32.1982 47.4355 32.9076C47.6176 33.1677 47.8441 33.2619 48.2873 33.2619C48.9526 33.2619 49.3304 32.9578 49.4975 32.2883C49.671 31.5928 48.6757 30.7363 47.9842 30.9859ZM62.2189 31.0318C61.7988 31.201 61.5312 31.6616 61.5312 32.2155C61.5312 33.2191 62.9546 33.6518 63.5914 32.842C63.7731 32.611 63.9218 32.3275 63.9218 32.212C63.9218 31.7407 63.5307 31.1959 63.0792 31.0386C62.8153 30.9465 62.592 30.8759 62.5832 30.8813C62.5743 30.8869 62.4105 30.9546 62.2189 31.0318ZM11.5147 35.0651C10.9346 35.6829 11.0775 36.4713 11.8414 36.8664C13.0103 37.4709 14.1298 36.0067 13.2339 35.0452C12.7916 34.5704 11.9705 34.58 11.5147 35.0651ZM25.8425 35.1163C25.3897 35.6918 25.4276 36.0706 25.9942 36.6374C26.3807 37.0238 26.5626 37.0991 26.9106 37.0167C28.3292 36.681 28.1654 34.6963 26.7191 34.6963C26.3187 34.6963 26.0844 34.8085 25.8425 35.1163ZM40.2689 34.999C39.5973 35.7412 40.1365 36.9807 41.131 36.9807C42.1255 36.9807 42.6647 35.7412 41.9931 34.999C41.6252 34.5927 40.6368 34.5927 40.2689 34.999ZM54.678 35.0151C54.0405 35.6526 54.4257 36.7977 55.3514 37.0167C55.6994 37.0991 55.8813 37.0238 56.2678 36.6374C56.8344 36.0706 56.8723 35.6918 56.4195 35.1163C56.0056 34.59 55.1526 34.5404 54.678 35.0151ZM69.0281 35.0452C68.4649 35.6497 68.6231 36.4769 69.3763 36.8664C70.5661 37.4816 71.6954 35.9546 70.725 35.0428C70.2397 34.587 69.4538 34.5881 69.0281 35.0452ZM19.0357 37.4293C18.6959 37.5973 18.3402 38.1895 18.3402 38.587C18.3402 38.7026 18.4889 38.9861 18.6705 39.217C19.3264 40.0507 20.7308 39.5885 20.7308 38.539C20.7308 37.6634 19.7977 37.0525 19.0357 37.4293ZM33.53 37.4087C32.3286 37.8875 32.6222 39.637 33.9041 39.637C35.2934 39.637 35.5401 37.7226 34.1981 37.3565C34.0228 37.3087 33.7222 37.3321 33.53 37.4087ZM47.9842 37.3609C47.1652 37.6567 46.9058 38.718 47.5061 39.3182C48.5103 40.3225 50.1829 38.8884 49.231 37.8395C48.833 37.4009 48.368 37.2224 47.9842 37.3609ZM62.2189 37.4068C61.7988 37.5761 61.5312 38.0367 61.5312 38.5905C61.5312 39.5941 62.9546 40.0268 63.5914 39.217C63.7731 38.9861 63.9218 38.7026 63.9218 38.587C63.9218 38.1656 63.5585 37.596 63.1796 37.4232C62.7315 37.2191 62.6867 37.2184 62.2189 37.4068ZM25.8425 41.4913C25.4149 42.035 25.4254 42.3872 25.8854 42.9219C26.623 43.7795 27.9028 43.3022 27.9028 42.1693C27.9028 41.1198 26.4983 40.6576 25.8425 41.4913ZM40.2689 41.374C39.8794 41.8047 39.895 42.6156 40.3006 43.0213C41.0331 43.7537 42.3107 43.2123 42.2814 42.1819C42.2613 41.4728 41.8453 41.0714 41.131 41.0714C40.7557 41.0714 40.4438 41.1809 40.2689 41.374ZM54.678 41.3901C54.5027 41.5654 54.3592 41.9161 54.3592 42.1693C54.3592 43.3022 55.639 43.7795 56.3766 42.9219C56.8366 42.3872 56.8471 42.035 56.4195 41.4913C56.0056 40.9651 55.1526 40.9155 54.678 41.3901ZM33.1499 44.0873C32.7443 44.4929 32.6716 44.6666 32.7599 45.0199C32.8195 45.2588 32.9814 45.5798 33.1196 45.7331C33.4639 46.1152 34.3557 46.0935 34.7559 45.6933C35.1561 45.2931 35.1778 44.4012 34.7958 44.057C34.6423 43.9188 34.3215 43.7569 34.0826 43.6973C33.7292 43.609 33.5555 43.6816 33.1499 44.0873ZM47.9842 43.7344C47.1639 44.0361 46.9058 45.0931 47.5061 45.6933C47.9063 46.0935 48.7981 46.1152 49.1424 45.7331C49.2806 45.5798 49.4425 45.2588 49.5021 45.0199C49.5899 44.6685 49.5187 44.4938 49.1283 44.1035C48.6521 43.6273 48.4516 43.5626 47.9842 43.7344ZM7.901 47.8965C4.74535 49.183 1.92199 50.4076 1.62699 50.6182C0.99777 51.067 0.333967 52.383 0.33301 53.184C0.331417 54.5401 1.06471 55.7705 2.228 56.3635C3.4595 56.9915 38.0738 70.8477 38.8795 71.0353C40.049 71.3076 42.4409 71.2769 43.6055 70.9745C44.1338 70.8373 52.5546 67.5073 62.3187 63.5744C80.7654 56.1441 80.9523 56.0598 81.5473 54.9094C81.9851 54.0626 82.0173 52.8663 81.626 51.9818C81.2014 51.0219 80.9055 50.6866 80.1365 50.294C78.9687 49.6981 68.4877 45.5339 68.1552 45.5339C67.2998 45.5339 66.7642 46.4658 67.1695 47.2486C67.3658 47.6278 68.1498 47.9877 73.1096 49.9746C76.2523 51.2335 78.985 52.4115 79.1821 52.5922C79.612 52.986 79.6423 53.5051 79.2618 53.9613C78.9891 54.2881 45.1229 68.0356 43.2462 68.5812C42.2417 68.8733 40.1896 68.9039 39.2025 68.6418C38.6506 68.4951 10.9773 57.4263 4.5541 54.783C2.93722 54.1176 2.53687 53.6926 2.80621 52.9271C2.94583 52.5301 3.50556 52.2673 8.77757 50.1225C11.9771 48.8209 14.6778 47.7171 14.7794 47.6694C14.8811 47.6219 15.0455 47.386 15.1453 47.1455C15.48 46.3372 14.897 45.5173 14.0077 45.5457C13.8046 45.5521 11.0567 46.61 7.901 47.8965ZM40.2689 47.7491C39.8794 48.1797 39.895 48.9906 40.3006 49.3964C40.715 49.8108 41.4934 49.8318 41.9258 49.4406C42.3435 49.0625 42.3603 48.0768 41.9551 47.7102C41.5548 47.3479 40.6124 47.3696 40.2689 47.7491Z" fill="#30B8C4"/>
</svg>
