<svg width="70" height="69" viewBox="0 0 70 69" fill="none" xmlns="http://www.w3.org/2000/svg">
<path fill-rule="evenodd" clip-rule="evenodd" d="M12.4634 0.771926C10.3644 1.22182 8.6633 2.24315 7.00877 4.04689C3.78849 7.55769 1.82218 11.5644 0.946584 16.3998C0.653917 18.0156 0.614342 21.9909 0.874788 23.6142C1.30209 26.2785 2.08998 28.7358 3.2291 30.9575C4.0972 32.6506 4.54911 33.34 6.69739 36.2487C14.038 46.1877 23.3939 55.5449 33.3804 62.9352C37.2908 65.829 39.0476 66.8144 42.0611 67.8039C44.621 68.6446 46.4996 68.931 49.4243 68.9267C52.822 68.9217 55.5253 68.4026 58.4745 67.1885C61.9347 65.764 65.9198 62.8235 67.3829 60.6149C69.5317 57.3712 69.6288 53.4145 67.6412 50.0866C67.008 49.0265 60.6634 42.6081 59.4517 41.8019C56.1938 39.6343 52.0658 39.5913 48.767 41.691C48.3564 41.9523 46.9074 43.2598 45.547 44.5964C44.114 46.0044 42.8486 47.1332 42.5388 47.28C42.2447 47.4194 41.6025 47.5579 41.1118 47.5878C40.3737 47.6328 40.096 47.5856 39.5032 47.3142C37.7224 46.4989 29.309 38.5038 24.9032 33.4401C22.2648 30.4078 21.9582 29.8805 22.0414 28.5173C22.0712 28.0266 22.2097 27.3845 22.3491 27.0903C22.4959 26.7806 23.6248 25.5151 25.0328 24.0821C26.3693 22.7217 27.6768 21.2727 27.9382 20.8621C30.0378 17.5633 29.9949 13.4354 27.8272 10.1774C27.021 8.96568 20.6026 2.62112 19.5425 1.98792C17.3905 0.70267 14.835 0.263735 12.4634 0.771926ZM15.8927 3.37171C16.2823 3.45233 17.0524 3.73029 17.6039 3.9894C18.5338 4.42619 18.8604 4.71418 22.1002 7.95398C25.3457 11.1995 25.6284 11.5201 26.081 12.4709C27.3054 15.0431 26.912 18.1627 25.1058 20.2048L24.5736 20.8065L20.1188 16.361C15.6574 11.9091 15.3222 11.6304 14.5725 11.751C14.0452 11.8358 13.5929 12.4273 13.5929 13.0323C13.5929 13.5703 13.6546 13.6395 18.1299 18.128L22.6668 22.6783L21.5376 23.8558C20.9164 24.5034 20.2581 25.3297 20.0745 25.692C19.0329 27.7477 19.122 30.193 20.3068 32.0607C22.2566 35.1346 34.4945 47.3725 37.5684 49.3224C39.4354 50.5067 41.8815 50.5963 43.9353 49.5555C44.2964 49.3725 45.1265 48.714 45.7801 48.0921L46.9684 46.9612L54.4801 54.4739C58.6117 58.606 61.992 62.033 61.992 62.0896C61.992 62.2485 59.9117 63.5621 58.6963 64.1706C57.2791 64.8801 54.7846 65.7028 53.101 66.0157C51.1163 66.3847 47.3168 66.3524 45.4437 65.9507C43.5014 65.5343 42.0859 65.0661 40.4665 64.3046C38.7792 63.5112 37.9653 62.995 35.2522 60.997C26.7183 54.7127 18.4398 46.7664 11.7673 38.4548C7.20223 32.7681 5.31627 29.7859 4.32717 26.6892C2.96237 22.4161 2.9736 17.8334 4.35939 13.6399C5.7028 9.57455 8.85115 5.21421 11.32 3.99969C12.8032 3.2701 14.3653 3.05551 15.8927 3.37171ZM38.6314 6.10478C36.2 6.75964 34.35 8.62862 33.7132 11.0736C33.4193 12.202 33.4193 25.2663 33.7132 26.3947C34.3575 28.8684 36.215 30.7259 38.6887 31.3702C39.3129 31.5328 40.5999 31.5693 45.7088 31.5693H51.9646V33.6483C51.9646 35.9213 52.0667 36.337 52.6962 36.6238C53.158 36.8342 53.5033 36.8254 53.9433 36.5919C54.1419 36.4867 55.3866 35.3135 56.7096 33.9848L59.1147 31.5693H61.1269C62.4776 31.5693 63.3904 31.5038 63.9035 31.3702C66.3772 30.7259 68.2347 28.8684 68.879 26.3947C69.1729 25.2663 69.1729 12.202 68.879 11.0736C68.2347 8.59988 66.3772 6.7424 63.9035 6.0981C62.7976 5.81011 39.703 5.81613 38.6314 6.10478ZM10.6515 8.20841C10.1483 8.45856 9.80589 9.24337 9.98933 9.72589C10.2031 10.2884 10.4989 10.5628 10.9901 10.655C12.4735 10.9332 13.117 8.87984 11.7634 8.18755C11.3873 7.99529 11.068 8.00131 10.6515 8.20841ZM64.0174 8.92717C64.812 9.29445 65.6826 10.1651 66.0499 10.9597C66.3326 11.5711 66.3372 11.6977 66.3372 18.7341C66.3372 25.7706 66.3326 25.8972 66.0499 26.5086C65.6818 27.3049 64.8103 28.1753 64.0174 28.5384C63.4693 28.7895 63.0766 28.8314 60.6902 28.8926L57.9844 28.9621L56.325 30.6179L54.6656 32.2736L54.6186 30.9883C54.5749 29.7923 54.546 29.6774 54.2011 29.3326L53.8306 28.9621L46.5134 28.8953C39.3816 28.8302 39.1805 28.8212 38.5747 28.5411C37.7802 28.1738 36.9095 27.3032 36.5422 26.5086C36.2623 25.9028 36.2539 25.715 36.2123 19.1352C36.1831 14.5028 36.2167 12.1671 36.3194 11.6942C36.6052 10.3774 37.6057 9.27185 38.9278 8.81179C39.5477 8.59614 40.4812 8.58103 51.4966 8.60937C63.3575 8.63972 63.3979 8.64079 64.0174 8.92717ZM44.2769 17.5456C43.2811 18.1182 43.3069 19.4119 44.3243 19.934C45.2966 20.4329 46.4619 19.3151 46.0348 18.2932C45.9364 18.0578 45.7616 17.787 45.6465 17.6916C45.3491 17.4449 44.5921 17.3643 44.2769 17.5456ZM50.8281 17.5235C49.9976 17.8635 49.7507 18.9875 50.3703 19.6073C50.5566 19.7934 50.9296 19.9816 51.1994 20.0254C51.6334 20.0957 51.7445 20.0505 52.1615 19.6335C52.7962 18.9989 52.8011 18.4744 52.1785 17.8517C51.7222 17.3954 51.3576 17.3068 50.8281 17.5235ZM57.1488 17.6056C56.6878 17.8557 56.5104 18.1872 56.5104 18.7983C56.5104 19.6684 57.4392 20.2726 58.2563 19.9341C58.7808 19.717 59.0506 19.3189 59.0506 18.7625C59.0506 18.1751 58.8623 17.846 58.3848 17.599C57.9023 17.3496 57.6178 17.351 57.1488 17.6056ZM16.524 38.1102C15.8702 38.764 16.0531 39.797 16.8933 40.1957C18.265 40.8465 19.4191 39.1062 18.2867 38.0945C17.7075 37.5769 17.0515 37.5828 16.524 38.1102ZM20.4635 41.7226C20.0622 41.892 19.6094 42.5117 19.6094 42.8916C19.6094 43.0691 19.6958 43.3813 19.8012 43.5853C20.0152 43.9991 26.7957 50.711 27.8105 51.5134C28.6338 52.1647 29.2802 52.2116 29.7942 51.6576C30.5918 50.7979 30.3918 50.2504 28.7259 48.733C28.0136 48.0842 26.1041 46.2441 24.4827 44.6438C21.4514 41.6522 21.1497 41.4331 20.4635 41.7226ZM55.3827 42.9439C55.8191 43.0229 56.6273 43.3008 57.1788 43.5615C58.1065 43.9998 58.4435 44.2973 61.6752 47.5289C64.9149 50.7687 65.2029 51.0954 65.6397 52.0252C66.3859 53.6136 66.5586 54.8621 66.261 56.513C66.0828 57.5024 65.3579 58.9883 64.6677 59.7798L64.143 60.3814L56.4828 52.7187L48.8227 45.056L49.4243 44.5236C50.9684 43.1571 53.2387 42.5552 55.3827 42.9439Z" fill="#30B8C4"/>
</svg>
