<svg width="75" height="74" viewBox="0 0 75 74" fill="none" xmlns="http://www.w3.org/2000/svg">
<path fill-rule="evenodd" clip-rule="evenodd" d="M31.4693 0.412002L31.1149 0.766242V4.02081V7.27523H24.2582C17.5939 7.27523 17.3934 7.28331 17.1128 7.56393C16.8353 7.84137 16.8241 8.04506 16.8241 12.7606C16.8241 15.46 16.7753 17.6693 16.7158 17.6702C16.6563 17.6709 16.2178 17.9645 15.7414 18.3225L14.8753 18.9732L14.8031 16.9737C14.7341 15.0627 14.7117 14.9431 14.2979 14.2772C13.7316 13.3662 12.581 12.5851 11.0861 12.0967L9.89515 11.7077V10.3078C9.89515 8.58147 9.78313 8.43004 8.50662 8.43004C6.57303 8.43004 4.73427 9.25068 3.18003 10.8075C1.31471 12.6759 0.945312 13.8746 0.945312 18.0598C0.945312 20.7963 0.964223 21.0076 1.23402 21.2774C1.61684 21.6602 2.43907 21.6602 2.82189 21.2774C3.09067 21.0086 3.11059 20.7963 3.11059 18.2001C3.11059 16.0777 3.1653 15.224 3.33983 14.6274C3.88678 12.7571 5.37259 11.2669 7.18854 10.7675L7.72986 10.6186V31.3706V52.1228L6.89984 52.3069C5.83308 52.5436 4.40269 53.1905 3.67891 53.7638L3.11059 54.2139V40.0553C3.11059 26.0891 3.1067 25.8928 2.82189 25.608C2.43763 25.2237 1.61684 25.2251 1.23127 25.6107C0.941559 25.9004 0.939971 26.0124 0.978658 43.5496L1.01749 61.197L1.49111 62.1588C2.56668 64.3434 4.84672 65.5909 7.80998 65.6159C9.38717 65.6292 10.461 65.4061 11.687 64.8108L12.6071 64.3639L12.6632 66.8914C12.7155 69.2471 12.7448 69.474 13.095 70.2301C14.9974 74.3375 21.8305 75.2658 25.056 71.8552C26.4913 70.3376 26.4131 70.9088 26.4956 61.3351L26.5678 52.9627L41.9142 52.9259C52.2349 52.9012 57.231 52.937 57.1702 53.0353C57.1207 53.1156 52.2934 57.2559 46.4432 62.236C40.5929 67.2162 35.5304 71.5437 35.1929 71.8528C34.4343 72.5477 34.3519 73.1887 34.9597 73.6667C35.3395 73.9655 35.3645 73.9659 51.966 73.9659C68.3816 73.9659 68.596 73.9623 68.9013 73.6778C69.3404 73.2687 69.3984 72.759 69.3441 69.7884C69.2974 67.2229 69.2873 67.1483 68.9552 66.8797C68.5425 66.5458 67.9575 66.5249 67.5238 66.8287C67.2144 67.0454 67.203 67.1378 67.203 69.4271V71.8006H52.8812C40.8476 71.8006 38.5931 71.7695 38.7708 71.6058C38.887 71.4985 43.5942 67.491 49.2311 62.7003C54.8681 57.9093 61.1804 52.5406 63.2587 50.7695C65.3368 48.9985 67.0745 47.5495 67.1201 47.5495C67.1657 47.5495 67.203 50.8299 67.203 54.8393C67.203 61.9366 67.2106 62.1367 67.4917 62.4178C67.8564 62.7825 68.5134 62.7883 68.9552 62.4307L69.2961 62.1549L69.3397 57.5228L69.3833 52.8905H71.8192H74.2553L74.5544 52.5101L74.8536 52.1298V30.0829V8.03596L74.5544 7.65559L74.2553 7.27523H57.1676H40.0799L40.0362 3.94213C39.993 0.637768 39.9897 0.606733 39.6518 0.33333C39.3359 0.0778265 39.0371 0.0576172 35.5673 0.0576172H31.8235L31.4693 0.412002ZM37.8995 16.0807V29.9385H35.5898H33.2802V28.5859V27.2334L33.9447 27.1584C34.7572 27.0669 35.0702 26.7788 35.0702 26.1224C35.0702 25.3986 34.6781 25.0305 33.9074 25.0305H33.2802V23.587V22.1435H34.3468C35.6718 22.1435 36.0806 21.8881 36.0806 21.0609C36.0806 20.2336 35.6718 19.9782 34.3468 19.9782H33.2802V18.5347V17.0912H33.9192C34.4378 17.0912 34.6149 17.0194 34.8575 16.7108C35.2002 16.2753 35.222 16.0933 34.9925 15.5895C34.8236 15.2186 34.2179 14.9259 33.6196 14.9259C33.2871 14.9259 33.2802 14.8979 33.2802 13.5545V12.1832H34.3468C35.6575 12.1832 36.0806 11.9252 36.0806 11.1264C36.0806 10.2484 35.7338 10.0179 34.4126 10.0179H33.2802V8.5744V7.13087H33.9074C34.685 7.13087 35.0702 6.76379 35.0702 6.02239C35.0702 5.35707 34.615 4.96559 33.8416 4.96559H33.2802V3.59425V2.2229H35.5898H37.8995V16.0807ZM31.1149 20.4178V31.3952L31.4693 31.7494L31.8235 32.1038H35.5673C39.0381 32.1038 39.3359 32.0837 39.6518 31.8279L39.9926 31.5519L40.0313 20.4963L40.0701 9.44051H42.5935H45.1171V30.0829V50.7252H35.8064H26.4956L26.4925 37.12C26.4894 24.2548 26.475 23.4834 26.2256 22.9374C25.7027 21.7927 24.1239 20.6821 22.4177 20.2585L21.732 20.0884V18.946C21.732 16.9488 21.3711 16.5359 19.7704 16.701L18.9893 16.7815V13.1111V9.44051H25.0521H31.1149V20.4178ZM72.6883 22.5773V35.7142L60.0214 35.6772L47.3545 35.6404L47.3177 22.5405L47.2808 9.44051H59.9846H72.6883V22.5773ZM57.2427 14.0123C57.1236 14.0559 55.7756 15.3343 54.2473 16.8531L51.4686 19.6146V24.9997V30.3847L51.823 30.7389L52.1772 31.0933H57.5535H62.9297L65.7519 28.2802L68.5743 25.4671L68.5434 20.0253C68.5134 14.742 68.5039 14.5747 68.2147 14.2855C67.926 13.9966 67.7597 13.9867 62.6881 13.9603C59.8121 13.9452 57.3617 13.9687 57.2427 14.0123ZM11.0019 14.3574C11.3856 14.5211 11.9107 14.8586 12.1687 15.1075L12.6378 15.5599V36.1768V56.7939L12.0879 56.5133C11.3973 56.1609 10.0929 55.824 8.92077 55.6951L8.01857 55.596V54.9817C8.01857 54.3342 8.18833 54.1965 8.99295 54.1917C9.17151 54.1905 9.44765 54.0598 9.60644 53.901C9.8924 53.615 9.89515 53.4198 9.89515 33.836C9.89515 16.8676 9.92416 14.0598 10.0997 14.0598C10.2121 14.0598 10.6182 14.1937 11.0019 14.3574ZM64.749 16.1862C64.749 16.2443 64.1493 16.8938 63.4166 17.6298L62.0842 18.9678H58.6196H55.155L56.5931 17.5242L58.0311 16.0807H61.39C63.2375 16.0807 64.749 16.1282 64.749 16.1862ZM66.4812 21.1553V24.4976L65.0396 25.955L63.5978 27.4124L63.596 23.9506L63.5942 20.4889L64.9265 19.1509C65.6594 18.415 66.309 17.8129 66.37 17.8129C66.4313 17.8129 66.4812 19.3169 66.4812 21.1553ZM19.5667 39.6795V60.3913L19.1698 60.4788C17.457 60.8564 16.2171 61.3752 15.4163 62.0489C15.1753 62.2518 14.9375 62.4178 14.888 62.4178C14.8385 62.4178 14.8154 53.5997 14.8368 42.8219L14.8753 23.2261L15.223 22.36C15.8523 20.7924 18.0014 19.0144 19.3141 18.9753C19.5536 18.9682 19.5667 20.0474 19.5667 39.6795ZM61.4289 25.0305V28.9281H57.5314H53.6339V25.0305V21.133H57.5314H61.4289V25.0305ZM23.2044 22.8739C23.387 22.9679 23.7151 23.2116 23.9334 23.4151L24.3304 23.7854V44.3957V65.0058L23.6447 64.7093C22.7751 64.3335 21.2834 64.0114 20.3968 64.0081L19.7111 64.0056V63.2839V62.5621H20.2095C20.9296 62.5621 21.4071 62.2962 21.5805 61.7989C21.6834 61.5037 21.732 55.0987 21.732 41.8324V22.3007L22.3022 22.5018C22.6157 22.6125 23.0218 22.7799 23.2044 22.8739ZM72.6883 44.3016V50.7252H71.0387H69.3892L69.3425 47.6808C69.2968 44.6818 69.291 44.6324 68.9552 44.3607C68.4748 43.972 67.8863 44.0157 67.3225 44.482C67.0586 44.7003 65.2972 46.1944 63.4087 47.8021L59.9747 50.7252H53.6285H47.2824V44.3016V37.8779H59.9853H72.6883V44.3016ZM53.4368 41.3529C52.9602 41.7278 52.9153 42.5003 53.3451 42.9302C53.6229 43.2079 53.8263 43.2189 58.6756 43.2189H63.7176L64.0167 42.8385C64.4136 42.334 64.3946 41.8409 63.9615 41.408L63.6073 41.0536H58.7122C53.9786 41.0536 53.8046 41.0634 53.4368 41.3529ZM53.3724 45.6785C52.962 46.0608 52.9482 46.8638 53.3451 47.2608C53.6087 47.5244 53.8263 47.5495 55.8462 47.5495C57.9719 47.5495 58.0707 47.5365 58.3724 47.2155C58.7887 46.7721 58.7724 46.1791 58.3318 45.7386C57.9875 45.3942 57.9175 45.3842 55.8329 45.3842C53.8742 45.3842 53.6608 45.4097 53.3724 45.6785ZM5.85329 56.1384C5.85329 57.6619 5.94047 57.7301 8.03214 57.8396C10.0728 57.9466 11.2575 58.3174 12.0909 59.1101C12.6562 59.6479 12.6723 59.6894 12.6101 60.4411C12.5319 61.3846 12.1299 61.9996 11.2083 62.5851C10.2872 63.1704 9.16386 63.4662 7.8618 63.4662C3.79497 63.4662 1.94654 60.3733 3.8989 56.8355C4.31493 56.0817 5.3648 55.0558 5.72019 55.0558C5.79338 55.0558 5.85329 55.543 5.85329 56.1384ZM55.675 61.2808C48.9553 67.0005 48.8702 67.0796 48.8702 67.61C48.8702 67.9726 48.969 68.2364 49.174 68.4221C49.4619 68.6828 49.8231 68.6992 56.1389 68.7385C59.8026 68.7613 62.948 68.7434 63.1286 68.6988C63.3093 68.6541 63.5853 68.4893 63.7421 68.3326C64.0168 68.0579 64.0272 67.8294 64.0272 62.082V56.1166L63.6932 55.8027C62.9335 55.089 63.0147 55.0334 55.675 61.2808ZM61.8141 66.5555C61.7851 66.5845 59.7573 66.591 57.3076 66.57L52.8538 66.5318L57.3218 62.7309L61.7898 58.9299L61.8283 62.7164C61.8495 64.799 61.8432 66.5266 61.8141 66.5555ZM17.9588 65.8953C18.2416 66.124 18.5371 66.1709 19.6968 66.1709C21.9285 66.1709 23.3577 66.6509 24.018 67.6222C24.2934 68.0274 24.3449 68.2582 24.2962 68.8671C24.2183 69.8364 23.7495 70.4543 22.6477 71.0389C20.6738 72.0863 18.1267 72.0271 16.4414 70.8945C15.1198 70.0065 14.68 68.9285 14.9361 67.2059C15.1803 65.5641 15.9445 64.238 17.0406 63.5547L17.4736 63.2847L17.5458 64.4523C17.6079 65.4574 17.6655 65.6582 17.9588 65.8953Z" fill="#30B8C4"/>
</svg>
