<svg width="69" height="69" viewBox="0 0 69 69" fill="none" xmlns="http://www.w3.org/2000/svg">
<path fill-rule="evenodd" clip-rule="evenodd" d="M4.46703 0.308259C4.24599 0.445971 3.17604 1.46354 2.08921 2.56979C0.208662 4.48384 0.113281 4.60681 0.113281 5.11667C0.113281 5.57669 0.537805 6.36077 3.11763 10.6655C5.33469 14.3651 6.21388 15.7205 6.47296 15.8385C6.6861 15.9357 7.49228 15.9985 8.52606 15.9985H10.2282L18.5 24.2711L26.7719 32.5438L21.8482 37.4661L16.9246 42.3883L15.9203 42.1745C14.3753 41.8459 11.4157 41.979 9.83526 42.4482C4.85257 43.9277 1.16032 48.0064 0.256352 53.03C0.0294214 54.2911 0.0832739 56.7615 0.367942 58.1403C0.760047 60.0402 1.09602 60.5005 2.09095 60.5005C2.52686 60.5005 2.78688 60.2763 5.52532 57.5399L8.48801 54.5794H9.89568H11.3035L12.8083 56.0886L14.3132 57.5976V58.9315V60.2652L11.2803 63.3086L8.24755 66.3519L8.32485 66.929C8.43349 67.7391 8.82613 68.0255 10.3023 68.372C14.7425 69.4145 19.3256 68.2271 22.5171 65.2073C24.6381 63.2004 25.9302 60.9736 26.5926 58.1835C26.8872 56.9424 26.9153 54.2372 26.6478 52.862L26.4572 51.8814L30.3987 47.9305L34.3404 43.9795L35.2417 44.9565L36.143 45.9335L35.6929 46.405C34.824 47.3153 34.7268 47.9027 35.3324 48.5806C35.6605 48.9478 35.8094 49.0138 36.2814 49.0015C36.7466 48.9892 36.9358 48.8939 37.401 48.4372L37.961 47.8877L46.5998 57.2795C51.351 62.445 55.507 66.8772 55.8352 67.1287C59.5514 69.9769 64.9135 69.0075 67.4894 65.0221C68.4159 63.5887 68.5986 62.7957 68.546 60.4371C68.5037 58.5367 68.475 58.3423 68.127 57.5935C67.9215 57.1514 67.5598 56.4974 67.3232 56.1403C67.0566 55.7377 63.29 52.1821 57.4153 46.7872C52.2024 42.0001 47.9375 38.0392 47.9375 37.9852C47.9375 37.931 48.1478 37.6828 48.405 37.4336C48.6649 37.1818 48.9082 36.7897 48.9531 36.5507C49.1018 35.7585 48.4794 35.029 47.6506 35.0239C47.261 35.0215 47.0315 35.1389 46.5119 35.6059L45.8611 36.1909L44.8952 35.2983L43.9294 34.4058L47.9133 30.4234L51.8973 26.4412L52.9624 26.6614C54.403 26.9593 57.2104 26.8617 58.7124 26.4613C63.3358 25.2288 67.003 21.5825 68.2901 16.9382C68.5239 16.0944 68.5673 15.5572 68.5655 13.5229C68.5635 11.0548 68.4052 9.88435 67.9559 9.01535C67.7149 8.5493 67.0525 8.22256 66.5453 8.31955C66.3181 8.36296 65.1819 9.4025 63.2644 11.3215L60.3312 14.257H58.9882H57.6453L56.1405 12.7478L54.6356 11.2387V9.89963V8.56068L56.926 6.28481C59.9603 3.26988 60.5299 2.58989 60.5299 1.98224C60.5299 1.20727 60.0149 0.817044 58.5329 0.469147C55.3765 -0.271928 52.1492 0.0890982 49.3441 1.49717C48.1417 2.1008 47.4368 2.58801 46.3785 3.54704C44.1985 5.52257 42.8917 7.80259 42.1595 10.908C41.9265 11.8962 41.9307 14.7597 42.167 15.9745L42.3577 16.9552L37.4119 21.9024L32.466 26.8496L24.2604 18.6448L16.0547 10.4399V8.7272C16.0547 7.58919 15.9937 6.86862 15.8732 6.57993C15.7167 6.20564 14.9882 5.72392 10.6124 3.10122C7.62356 1.30989 5.39658 0.0573493 5.20114 0.0576172C5.01841 0.0578852 4.68806 0.170681 4.46703 0.308259ZM56.3547 2.86799C56.3302 2.94033 55.3912 3.95991 54.2682 5.13368C53.1452 6.30732 52.1657 7.4275 52.0914 7.62295C51.8764 8.1884 51.9196 11.7715 52.1476 12.2853C52.2528 12.5225 53.2638 13.6658 54.3944 14.8263L56.4501 16.9362H58.9167H61.3832L63.7174 14.6254L66.0515 12.3145L65.9857 13.9891C65.9309 15.3847 65.8536 15.8577 65.5217 16.8288C64.2679 20.4966 61.2417 23.1953 57.5203 23.964C56.234 24.2297 54.2854 24.2236 53.095 23.95C51.5156 23.5871 51.2074 23.5783 50.7216 23.8818C49.9645 24.3551 23.7163 50.726 23.6234 51.1068C23.5759 51.3009 23.6637 51.9401 23.8236 52.5667C24.7856 56.3344 23.8052 60.0373 21.0998 62.8547C19.5562 64.4622 17.5836 65.5003 15.3231 65.8944C14.079 66.1114 12.4377 66.1702 12.4377 65.998C12.4377 65.9418 13.3783 64.9622 14.5278 63.8211C15.6775 62.68 16.7023 61.5523 16.8051 61.3152C17.0648 60.7176 17.0668 57.156 16.808 56.551C16.7065 56.3139 15.659 55.1704 14.4801 54.01L12.3367 51.9001H9.88416H7.43159L5.11205 54.206L2.79251 56.5118L2.79479 55.2442C2.80028 52.2908 3.75194 50.0132 5.87362 47.8765C7.51184 46.2266 9.15795 45.3035 11.2447 44.8645C12.4758 44.6055 14.5416 44.6156 15.7198 44.8863C17.2992 45.2492 17.6074 45.2581 18.0932 44.9545C18.3351 44.8033 24.5086 38.6936 31.8122 31.3773C40.9774 22.1962 45.1181 17.9606 45.1775 17.706C45.2291 17.4851 45.1444 16.8935 44.9666 16.2324C44.5614 14.7257 44.5597 12.2414 44.9625 10.7547C45.4699 8.88259 46.5746 7.04973 48.0309 5.66417C49.4894 4.27646 51.1172 3.43023 53.162 2.9966C54.4035 2.73336 56.4281 2.65178 56.3547 2.86799ZM9.44182 5.51266L13.3755 7.88726V9.69453V11.5018L21.9795 20.1127L30.5835 28.7236L29.6508 29.6636L28.7181 30.6035L20.2095 22.1015C15.4772 17.3727 11.5336 13.5372 11.3238 13.4594C11.1165 13.3824 10.2404 13.3193 9.37711 13.3193H7.80762L5.50094 9.4526C4.23233 7.32596 3.19439 5.53382 3.19439 5.47006C3.19439 5.3574 5.34434 3.13819 5.45352 3.13819C5.48353 3.13819 7.27821 4.20667 9.44182 5.51266ZM45.7265 21.2784C45.3041 21.7008 45.1877 22.2026 45.3956 22.7045C45.6131 23.23 46.0119 23.5003 46.5695 23.5003C47.1649 23.5003 47.4882 23.3109 47.747 22.8103C48.2098 21.9154 47.6025 20.9551 46.5738 20.9551C46.1985 20.9551 45.9581 21.0468 45.7265 21.2784ZM33.6259 33.313C28.8832 38.0468 24.924 42.1009 24.8277 42.3219C24.453 43.1818 25.1079 44.1304 26.0762 44.1304C26.5452 44.1304 26.9294 43.7675 35.1889 35.5234C39.9316 30.7894 43.8908 26.7355 43.9871 26.5145C44.3618 25.6546 43.7069 24.706 42.7386 24.706C42.2696 24.706 41.8854 25.0689 33.6259 33.313ZM43.0479 37.2308L43.9856 38.0905L41.0385 41.0469L38.0913 44.0034L37.1632 43.0536L36.2353 42.1038L39.1046 39.2322C40.6827 37.6528 42.0045 36.363 42.042 36.3658C42.0795 36.3688 42.5322 36.7579 43.0479 37.2308ZM55.2584 48.4347C60.3312 53.0862 64.6496 57.0921 64.8545 57.3368C65.0596 57.5814 65.3912 58.1312 65.5913 58.5583C65.9148 59.2487 65.9553 59.4912 65.9553 60.7416C65.9553 61.9873 65.9142 62.2358 65.5963 62.9142C64.5858 65.07 62.0828 66.4112 59.8459 65.9953C58.8856 65.8166 58.0722 65.4458 57.3421 64.8537C57.0518 64.6182 53.2713 60.5674 48.9407 55.852C44.6103 51.1366 40.7908 46.9913 40.4531 46.6401L39.839 46.0019L42.849 42.9897C44.5043 41.333 45.8985 39.9776 45.947 39.9776C45.9955 39.9776 50.1855 43.7833 55.2584 48.4347ZM21.5136 45.4807C21.1238 45.7078 20.8442 46.39 20.9374 46.887C21.0959 47.7321 22.256 48.1874 22.9725 47.6857C23.9796 46.9803 23.476 45.3303 22.2564 45.34C21.9769 45.3423 21.6425 45.4056 21.5136 45.4807ZM46.915 46.6451C46.5388 46.9499 46.33 47.3749 46.33 47.8357C46.33 48.1503 47.334 49.2145 52.6578 54.5427C56.8845 58.7729 59.1243 60.9215 59.4035 61.0135C60.2366 61.2886 61.0657 60.6558 61.0657 59.7453C61.0657 59.2064 61.0082 59.1442 54.6648 52.8046C48.358 46.5018 48.2561 46.4077 47.7323 46.4107C47.4322 46.4124 47.0763 46.5145 46.915 46.6451Z" fill="#30B8C4"/>
</svg>
