<svg width="82" height="68" viewBox="0 0 82 68" fill="none" xmlns="http://www.w3.org/2000/svg">
<path fill-rule="evenodd" clip-rule="evenodd" d="M21.7788 0.993788C21.1614 1.30146 20.6032 1.81623 19.5179 3.07902C18.7253 4.00124 17.9956 4.84651 17.8963 4.95746C17.7513 5.11924 17.562 5.0725 16.9394 4.7214L16.1631 4.28358L10.2845 4.23699C3.5894 4.18396 3.42116 4.20741 2.11998 5.37718C1.70529 5.75016 1.18973 6.40028 0.974436 6.82189L0.582884 7.58847L0.531737 13.1753C0.497429 16.9161 0.538976 19.0302 0.657638 19.5734C0.991433 21.1019 2.18135 22.4092 3.7304 22.9492C4.22378 23.1212 5.58571 23.1687 10.0254 23.1687C16.4849 23.1687 16.637 23.144 17.9909 21.8776C19.1363 20.8063 19.425 19.9647 19.5147 17.4355L19.5897 15.3219L23.0491 11.2978C24.9516 9.08449 26.6782 7.02066 26.8858 6.71142C27.0932 6.40217 27.3433 5.7648 27.4415 5.29503C27.7167 3.97654 27.3212 2.79323 26.261 1.76225C24.9653 0.50246 23.3281 0.221701 21.7788 0.993788ZM24.5503 3.33617C25.1186 3.81428 25.2849 4.52169 24.9884 5.19824C24.6218 6.03486 14.5694 17.6305 14.0036 17.8694C13.2059 18.2063 12.5704 17.9896 11.8756 17.1439C10.4354 15.3907 8.20209 12.3733 8.05148 11.9771C7.47407 10.4584 9.50831 9.1668 10.6776 10.3097C10.9248 10.5512 11.5347 11.2594 12.0326 11.8834C12.8261 12.8774 13.0024 13.0179 13.4556 13.0179C14.1012 13.0179 14.212 12.9042 18.6641 7.66716C20.5407 5.45996 22.2964 3.49465 22.5656 3.29998C23.2164 2.82958 23.9644 2.84327 24.5503 3.33617ZM32.5744 4.51004C31.4322 4.95652 30.6389 5.67588 30.1003 6.75375L29.6188 7.71736V13.5659C29.6188 20.2125 29.6391 20.3501 30.809 21.6513C31.2186 22.107 31.8348 22.57 32.3289 22.7932L33.1597 23.1687L54.5629 23.2131C67.6295 23.2401 76.3454 23.1988 76.94 23.1068C77.4759 23.0242 78.1817 22.8295 78.5086 22.6744C79.3217 22.2885 80.257 21.318 80.6638 20.4381C80.9913 19.7296 81.002 19.5147 81.002 13.6474V7.58847L80.6105 6.82189C80.3952 6.40028 79.8813 5.75174 79.4686 5.38064C78.1225 4.17027 78.4735 4.20489 67.5313 4.20489C62.1872 4.20489 57.7001 4.24895 57.5601 4.30262C57.4199 4.35644 57.2032 4.59786 57.0784 4.83927C56.7855 5.40567 57.0165 6.1351 57.5683 6.38643C57.8482 6.51407 60.7134 6.56553 67.5305 6.56553H77.0997L77.6345 6.92277C78.6996 7.63427 78.7196 7.75859 78.7197 13.7024C78.7201 19.6657 78.6998 19.7931 77.6411 20.4514L77.0676 20.8081H55.3497C34.7398 20.8081 33.6054 20.7936 33.1134 20.5249C32.8283 20.3693 32.4567 20.0152 32.2879 19.7381C31.9984 19.2636 31.9805 18.9112 31.98 13.666C31.9794 8.35741 31.9942 8.07382 32.2967 7.58438C32.9435 6.53783 32.6449 6.56553 43.2736 6.56553C52.7417 6.56553 52.8734 6.56128 53.2826 6.23929C53.8246 5.81296 53.8479 5.0308 53.3331 4.54702L52.9688 4.20489L43.143 4.21228C33.9759 4.21905 33.2674 4.23904 32.5744 4.51004ZM15.9399 6.83008C16.0825 6.97282 15.8428 7.34643 14.9049 8.44318C14.2335 9.22817 13.6333 9.87042 13.5713 9.87042C13.5091 9.87042 13.1517 9.50673 12.777 9.06246C10.8089 6.72841 7.38987 7.07842 5.97821 9.75837C5.55896 10.5545 5.51363 12.1602 5.88646 13.0179C6.12803 13.5738 9.57252 18.1572 10.4798 19.1301C12.0487 20.8123 14.55 20.8156 16.2907 19.138C16.7275 18.7168 17.1122 18.3999 17.1458 18.4334C17.34 18.6276 16.7981 19.8167 16.3269 20.2305C15.5953 20.8727 15.0616 20.9207 9.31725 20.8594C4.64806 20.8095 4.5017 20.7983 3.94381 20.4514C2.88514 19.7931 2.86484 19.6657 2.86515 13.7024C2.86531 7.7523 2.88419 7.63506 3.9586 6.91726L4.5017 6.55435L10.1281 6.59936C14.1902 6.63178 15.8059 6.69584 15.9399 6.83008ZM36.8492 12.836C36.376 13.2192 36.3697 14.0159 36.8362 14.4825L37.1816 14.8278H55.3376C72.971 14.8278 73.5032 14.8191 73.8249 14.528C74.2572 14.1367 74.2655 13.2847 73.8414 12.8606C73.5303 12.5494 73.3169 12.5458 55.3672 12.5458C37.9537 12.5458 37.193 12.5578 36.8492 12.836ZM22.5095 23.0774C21.4849 23.4095 20.7319 24.0275 19.2984 25.713C18.4641 26.6939 17.7597 27.4965 17.7328 27.4965C17.706 27.4965 17.3064 27.3017 16.8449 27.0638L16.0057 26.631H10.0254H4.04516L3.14434 27.0734C2.05765 27.607 1.24843 28.5093 0.813125 29.6727C0.505141 30.496 0.492236 30.8093 0.536458 36.3738L0.582884 42.2112L1.00166 42.9981C1.53517 44.0006 2.26272 44.6957 3.25828 45.154C4.02454 45.5066 4.189 45.5174 9.53081 45.5631C15.5766 45.6149 16.2569 45.5469 17.4221 44.7752C18.9554 43.7596 19.5459 42.2414 19.5475 39.3101L19.5484 37.8047L23.1797 33.5555C25.1768 31.2185 26.9402 29.0568 27.0982 28.7519C28.0526 26.91 27.3283 24.5769 25.4628 23.4836C24.7267 23.0522 23.2246 22.8456 22.5095 23.0774ZM24.3698 25.5964C25.0405 26.0054 25.3067 26.8088 25.008 27.5223C24.7994 28.0204 15.4839 39.0536 14.4992 39.9686C13.927 40.5005 13.0189 40.5564 12.4335 40.0957C11.9964 39.752 8.72473 35.5553 8.19862 34.6636C7.89442 34.1482 7.87773 34.0171 8.04503 33.4587C8.28329 32.6637 9.00675 32.1681 9.76404 32.2814C10.4305 32.381 10.5851 32.5124 11.7245 33.949C12.8407 35.3564 13.2507 35.6264 13.8768 35.3672C14.135 35.2602 15.6935 33.5656 17.678 31.2337C19.5281 29.0601 21.3921 26.8976 21.8201 26.4283C22.9123 25.231 23.4713 25.0486 24.3698 25.5964ZM33.1965 26.7219C31.884 27.0348 30.6382 28.0083 29.9902 29.2277C29.7218 29.7327 29.6937 30.2868 29.6512 35.8867L29.6049 41.9951L29.9832 42.8218C30.4346 43.8076 31.2762 44.6656 32.2742 45.1573L33.0023 45.5161H55.1924C76.5805 45.5161 77.4102 45.5054 78.1541 45.2185C79.1478 44.8351 80.0515 44.0124 80.5815 43.008L81.002 42.2112L81.0484 36.3738C81.0927 30.8093 81.0798 30.496 80.7718 29.6727C80.3365 28.5093 79.5273 27.607 78.4406 27.0734L77.5397 26.631L55.6645 26.6058C43.1926 26.5915 33.5344 26.6414 33.1965 26.7219ZM15.809 29.1317C15.9606 29.203 16.0838 29.3068 16.083 29.3625C16.0817 29.4535 15.3012 30.4008 14.0015 31.888L13.5335 32.4235L13.1224 31.888C11.9489 30.359 10.7204 29.7413 9.20693 29.9193C7.55496 30.1134 6.23693 31.1881 5.78511 32.7091C5.26041 34.4763 5.55833 35.2265 8.09287 38.5193C9.18931 39.944 10.3015 41.3426 10.5643 41.6273C11.2237 42.3418 12.2049 42.7546 13.2517 42.7576C14.6027 42.7617 15.2022 42.5189 16.2608 41.5389L17.2268 40.6445L17.1088 41.1917C16.9127 42.1009 16.5819 42.5853 15.93 42.9178C15.3452 43.2162 15.0084 43.2341 9.9924 43.2338C4.14021 43.2337 3.98221 43.2102 3.26945 42.2392C2.95722 41.814 2.94148 41.5682 2.89474 36.4163C2.86232 32.8486 2.90387 30.8401 3.01781 30.4514C3.19076 29.8622 3.90588 29.1797 4.51728 29.0204C5.02954 28.887 15.5086 28.9903 15.809 29.1317ZM77.8224 29.4285C78.1784 29.7001 78.4602 30.0873 78.5671 30.4514C78.681 30.8401 78.7226 32.8486 78.6902 36.4163C78.6434 41.5682 78.6277 41.814 78.3155 42.2392C78.1362 42.4835 77.7467 42.8072 77.4499 42.9584C76.9439 43.2165 75.5669 43.2337 55.384 43.2338C31.8373 43.2341 33.2395 43.2913 32.4048 42.2992L31.9794 41.7937V36.2111C31.9794 30.304 31.9954 30.1614 32.7332 29.4936C32.9059 29.3374 33.2496 29.1484 33.497 29.0736C33.7442 28.9988 43.6897 28.9499 55.5981 28.9647L77.2495 28.9916L77.8224 29.4285ZM37.0659 35.0803C36.5197 35.3444 36.3115 36.024 36.6037 36.5891C36.7372 36.8472 36.961 37.1023 37.1012 37.1561C37.2413 37.2098 45.4819 37.2538 55.4138 37.2538H73.4717L73.814 36.8897C74.2981 36.3743 74.266 35.6319 73.7415 35.2194C73.3273 34.8935 73.3062 34.8932 55.3678 34.9039C43.1315 34.9111 37.2997 34.9673 37.0659 35.0803ZM2.31402 49.2801C1.69333 49.5572 1.05202 50.2534 0.748601 50.9799C0.383804 51.8533 0.383017 65.1442 0.747814 66.0172C1.05785 66.7592 1.53013 67.2642 2.26838 67.6427C2.81684 67.9241 3.28267 67.9422 9.9455 67.9422C15.9728 67.9422 17.1258 67.9058 17.6182 67.7001C18.3692 67.3863 18.7165 67.0624 19.1306 66.2897C19.4579 65.6789 19.4694 65.4618 19.5154 58.9875C19.5464 54.6153 19.5039 52.0411 19.3923 51.5205C19.1832 50.5452 18.6242 49.7843 17.8127 49.3704C17.2254 49.0707 16.8834 49.0574 9.9924 49.0632C4.3223 49.0681 2.68543 49.1143 2.31402 49.2801ZM32.6876 49.266C31.3861 49.7764 30.6754 50.4023 30.0657 51.5751C29.7015 52.2754 29.697 52.3487 29.6507 58.1849C29.6184 62.2398 29.6598 64.2884 29.7824 64.7315C30.0745 65.7861 30.992 66.8465 32.116 67.4283L33.1086 67.9422H43.0607H53.0129L53.3551 67.578C53.7774 67.1284 53.7936 66.5223 53.3965 66.0318L53.0958 65.6602L43.2064 65.5815C32.4573 65.4961 32.8624 65.5329 32.2863 64.5879C31.9989 64.1164 31.9805 63.7544 31.98 58.5311C31.9794 52.3952 31.9896 52.3242 32.9707 51.7261C33.4639 51.4252 33.9313 51.4188 55.377 51.4183L77.2796 51.4177L77.7694 51.8299C78.7213 52.6309 78.7201 52.6222 78.7201 58.4996C78.7201 64.2918 78.7185 64.3041 77.8569 65.1094L77.436 65.5028L67.538 65.5815L57.6402 65.6602L57.2949 66.0055C56.8286 66.4721 56.8349 67.2688 57.3081 67.652C57.6479 67.9271 58.1775 67.9422 67.4792 67.9422C76.9013 67.9422 77.3252 67.9297 78.1318 67.6279C79.1252 67.2563 80.1383 66.3114 80.6438 65.2857C80.9978 64.5672 81.002 64.486 81.002 58.4996C81.002 52.6556 80.9902 52.415 80.6679 51.7184C80.2307 50.7731 79.3406 49.8987 78.3427 49.434L77.5397 49.0602L55.3497 49.0706C38.7338 49.0783 33.0411 49.1276 32.6876 49.266ZM17.028 51.7313C17.1415 51.9432 17.1816 54.1935 17.1517 58.6617C17.1137 64.339 17.0738 65.2997 16.8713 65.4276C16.5002 65.6619 3.28959 65.6286 3.05369 65.3927C2.78206 65.121 2.78206 51.8782 3.05369 51.6065C3.1947 51.4655 4.96549 51.4177 10.0514 51.4177C16.6914 51.4177 16.8644 51.4254 17.028 51.7313ZM37.246 57.3904C36.4818 57.7001 36.2375 58.6877 36.7775 59.2844C37.0617 59.5984 37.2251 59.6012 55.2954 59.6012C73.3169 59.6012 73.5303 59.5976 73.8414 59.2865C74.4404 58.6875 74.1821 57.7049 73.3491 57.4145C72.7519 57.2063 37.7578 57.1828 37.246 57.3904Z" fill="#30B8C4"/>
</svg>
