<svg width="73" height="81" viewBox="0 0 73 81" fill="none" xmlns="http://www.w3.org/2000/svg">
<path fill-rule="evenodd" clip-rule="evenodd" d="M16.0003 0.280959C14.8455 0.598257 12.7942 1.63928 11.7147 2.45591C9.54492 4.09733 7.83163 6.48679 6.94533 9.10725C6.49213 10.4474 6.41995 10.8883 6.36048 12.6763C6.30445 14.3629 6.34918 14.9531 6.6183 16.083C7.19876 18.5204 8.23932 20.4242 10.0267 22.3188C12.4084 24.8437 16.1522 26.564 19.2646 26.564H20.1342V41.2233V55.8826L18.9965 56.4953L17.8589 57.1081L17.7727 55.763C17.7253 55.0231 17.6332 54.3038 17.5679 54.1644C17.3474 53.6936 16.697 53.5548 14.713 53.5548H12.7589V52.6917C12.7589 52.0378 12.6827 51.7525 12.445 51.5148C12.1432 51.213 11.922 51.2009 6.72344 51.2009C1.36248 51.2009 1.31289 51.2039 0.995747 51.5444C0.678763 51.8846 0.675781 52.0164 0.675781 65.753V79.6183L1.06103 80.0034L1.44612 80.3886H9.1297C13.3556 80.3886 16.9275 80.3447 17.0672 80.2912C17.6046 80.085 17.7804 79.3761 17.7804 77.4149V75.524H24.2055H30.6305L31.0578 75.1565C31.6119 74.6799 31.6449 73.8783 31.1276 73.4595C30.7932 73.1887 30.3535 73.1701 24.2753 73.1701H17.7804V66.6126V60.0551L18.7612 59.4133C21.7473 57.4592 25.3069 56.3474 29.2946 56.1236C31.8999 55.9773 33.8525 56.375 38.1675 57.9304L39.9593 58.5763H43.8995C48.2093 58.5763 48.2944 58.5928 48.7736 59.5196C48.9026 59.7689 49.0081 60.2904 49.0081 60.6783C49.0081 61.5674 48.5459 62.1457 47.6742 62.3469C47.329 62.4267 43.748 62.4936 39.7165 62.4956L32.3865 62.4994L32.0665 62.8429C31.4757 63.477 31.7163 64.3887 32.5512 64.6798C33.202 64.9066 46.7347 64.9188 47.9275 64.6936C49.0672 64.4785 50.0785 63.8255 50.6972 62.9052C51.1816 62.1849 51.6668 61.8795 59.6042 57.2999C69.0142 51.8705 68.7911 51.9648 69.8068 52.9806C70.0952 53.269 70.3783 53.6932 70.4361 53.9232C70.5911 54.5409 70.3928 55.3434 69.9942 55.711C68.7909 56.821 48.9411 72.1539 48.3019 72.4673C47.0365 73.0876 46.1205 73.1701 40.5025 73.1701C37.0496 73.1701 35.0689 73.2287 34.8671 73.3366C34.1145 73.7395 34.1853 74.984 34.9815 75.3467C35.6037 75.6302 45.8064 75.5817 47.1897 75.2888C48.7757 74.9528 50.0648 74.2859 51.957 72.8226C61.2208 65.6589 71.1816 57.798 71.7073 57.2362C74.2732 54.4941 72.2975 50.0981 68.5007 50.1017C68.0449 50.1021 67.4269 50.2048 67.1277 50.3298L66.5835 50.5572V41.2412C66.5835 36.1173 66.5395 31.8107 66.486 31.6711C66.339 31.2879 65.5475 30.9362 65.0903 31.0509C64.2034 31.2736 64.2298 30.9433 64.2282 41.8598L64.2266 51.9071L58.5865 55.1632L52.9465 58.4194H51.9188C51.3536 58.4194 50.8912 58.3572 50.8912 58.2814C50.8912 57.9794 49.5747 56.8119 48.8814 56.4991C48.2097 56.1959 47.7664 56.1583 43.8296 56.0691L39.5142 55.9715L37.7881 55.2936C34.5883 54.0368 33.4631 53.8126 30.3342 53.8079C27.4828 53.8036 25.6294 54.0346 23.6101 54.6462L22.645 54.9384V40.6003V26.2622L23.3119 26.0841C24.3129 25.8169 26.0926 24.9593 27.1832 24.2186C30.7021 21.8292 32.9977 17.5685 33.0008 13.4217L33.0019 11.9702H35.1989H37.3958V18.1572V24.3443L37.817 24.6756C38.3676 25.1089 38.6265 25.045 41.2679 23.8248L43.4006 22.8394L45.7588 23.9278C48.2431 25.0742 48.5598 25.1293 49.1689 24.5201C49.4669 24.2221 49.4789 23.9746 49.4789 18.0902V11.9702H56.8542H64.2296V19.6465C64.2296 23.8685 64.2754 27.4425 64.3316 27.5886C64.4851 27.9885 65.3143 28.2876 65.7792 28.1108C66.5932 27.8015 66.5731 28.0309 66.5784 18.9352C66.5833 10.5779 66.5783 10.4367 66.2582 10.0298L65.933 9.61631H49.2698H32.6068L32.252 8.62675C31.4341 6.34635 29.4617 3.76245 27.4348 2.31609C26.2119 1.44344 24.4448 0.602651 23.0966 0.251928C22.1156 -0.00322911 22.0346 -0.00338604 21.6476 0.250202C21.1232 0.593863 20.957 1.23034 21.2537 1.75902C21.4263 2.06674 21.8224 2.27859 22.93 2.65583C24.906 3.32872 25.952 3.97932 27.4348 5.45785C29.5802 7.59702 30.6504 10.1814 30.6457 13.2114C30.6431 15.0003 30.3628 16.3006 29.6507 17.8284C28.3504 20.6179 26.0763 22.6309 23.0373 23.6824C21.9232 24.068 21.5524 24.1177 19.7419 24.1243C18.0324 24.1304 17.5113 24.0724 16.525 23.7657C13.4548 22.8113 11.0117 20.6934 9.67626 17.8284C8.96414 16.3006 8.68388 15.0003 8.68121 13.2114C8.6765 10.1792 9.74735 7.59232 11.8906 5.45785C13.3663 3.98811 14.6915 3.16928 16.483 2.6199C17.8306 2.20656 18.2512 1.86384 18.2512 1.17887C18.2512 0.704651 17.5808 0.0400816 17.1205 0.0579709C16.9225 0.065817 16.4183 0.166091 16.0003 0.280959ZM23.9611 7.95952C23.7835 8.08396 22.2017 9.99214 20.4462 12.2002C18.6907 14.4081 17.2081 16.16 17.1514 16.0932C14.158 12.5605 13.9314 12.3708 13.1374 12.7325C12.6672 12.9467 12.373 13.5491 12.4998 14.0378C12.5517 14.2383 13.5191 15.4793 14.6493 16.7955C16.5319 18.9879 16.748 19.1886 17.2249 19.1886C17.5113 19.1886 17.8874 19.0651 18.0608 18.914C18.5934 18.4498 25.576 9.5595 25.6881 9.20282C25.8298 8.75104 25.5206 8.12068 25.0527 7.90742C24.5491 7.678 24.3492 7.68757 23.9611 7.95952ZM47.125 16.9237C47.125 21.8218 47.1214 21.8764 46.8082 21.7769C46.6338 21.7215 45.8911 21.399 45.1577 21.0602C44.424 20.7213 43.6222 20.444 43.3756 20.444C43.1291 20.444 42.2427 20.7618 41.4058 21.1502C40.5691 21.5385 39.8541 21.8563 39.8169 21.8563C39.7799 21.8563 39.7496 19.6319 39.7496 16.9132V11.9702H43.4373H47.125V16.9237ZM29.1401 35.0626C26.2746 37.9062 25.4696 38.8627 25.4696 39.4234C25.4696 39.5221 25.643 39.7761 25.8549 39.988C26.21 40.3433 26.3567 40.3732 27.7379 40.3732H29.2358V45.1672C29.2358 50.1856 29.2989 50.697 29.949 50.9465C30.3653 51.1063 35.6662 51.0569 35.9773 50.8904C36.5343 50.5922 36.6112 49.8856 36.6112 45.0629V40.3839L38.2816 40.3393C39.9021 40.296 39.9616 40.2817 40.2767 39.8593C40.5947 39.4328 40.5954 39.4129 40.3153 38.8925C40.1579 38.6003 38.5647 36.9073 36.7747 35.1303C33.6866 32.0646 33.4898 31.8994 32.9238 31.8994C32.3584 31.8994 32.1621 32.0635 29.1401 35.0626ZM35.4942 38.0542C34.208 38.2772 34.2573 38.0528 34.2573 43.6929V48.6901H32.9235H31.5896V43.6929C31.5896 38.0414 31.6332 38.2364 30.3325 38.0621L29.6786 37.9743L31.2984 36.3491L32.918 34.7238L34.5326 36.3325L36.1471 37.9409L35.4942 38.0542ZM49.9496 39.2748C49.5267 39.6977 49.535 40.5473 49.9659 40.9374C50.2737 41.2161 50.6365 41.2394 55.3406 41.2823C58.115 41.3075 60.5457 41.2881 60.742 41.2391C61.6807 41.0045 62.0217 39.9279 61.3557 39.3021C60.9973 38.9655 60.9198 38.9609 55.628 38.9609C50.4726 38.9609 50.2512 38.9732 49.9496 39.2748ZM50.3129 43.8266C49.7086 44.0702 49.6358 44.4655 49.6358 47.5029C49.6358 50.2071 49.6584 50.4389 49.9496 50.7301C50.2512 51.0318 50.4726 51.044 55.65 51.044H61.0364L61.3777 50.6809C61.7022 50.3353 61.7188 50.1783 61.7188 47.4536C61.7188 45.8784 61.6496 44.4603 61.5652 44.3024C61.4808 44.1446 61.1878 43.9374 60.9141 43.842C60.3117 43.6321 50.8301 43.6182 50.3129 43.8266ZM59.365 47.3563V48.6901H55.6773H51.9896V47.3563V46.0225H55.6773H59.365V47.3563ZM10.405 65.7948V78.0348H6.71732H3.02963V65.7948V53.5548H6.71732H10.405V65.7948ZM15.4265 66.9717V78.0348H14.0927H12.7589V66.9717V55.9086H14.0927H15.4265V66.9717ZM6.11081 58.7447C5.28995 59.3904 5.74502 60.7732 6.77836 60.7732C7.89377 60.7732 8.36376 59.5131 7.51935 58.7869C6.99288 58.334 6.64608 58.3237 6.11081 58.7447Z" fill="#30B8C4"/>
</svg>
