<svg width="72" height="72" viewBox="0 0 72 72" fill="none" xmlns="http://www.w3.org/2000/svg">
<path fill-rule="evenodd" clip-rule="evenodd" d="M2.51377 0.829645C1.7842 1.16846 1.35939 1.58923 1.04239 2.28727C0.798459 2.82446 0.783317 3.37456 0.7804 11.789L0.777344 20.7207L1.11838 21.0616C1.30591 21.2491 1.62125 21.4026 1.8192 21.4026C2.01715 21.4026 2.33249 21.2491 2.52002 21.0616L2.86106 20.7207V11.9147C2.86106 3.56028 2.87412 3.09714 3.11513 2.87905C3.34115 2.67443 3.89722 2.64915 8.16398 2.64915C12.6327 2.64915 12.9744 2.66637 13.1886 2.90322C13.3858 3.12104 13.4186 3.53722 13.4186 5.82042V8.48355H11.4675C9.55798 8.48355 9.50867 8.49119 9.15985 8.84C8.87119 9.12867 8.82007 9.28036 8.89147 9.63696C9.05192 10.4395 9.20181 10.4934 11.4089 10.5428L13.4186 10.5878V12.8696V15.1514H12.123C10.9485 15.1514 10.7995 15.1814 10.5255 15.4729C10.2227 15.7953 10.1486 16.1837 10.3098 16.6038C10.4712 17.0244 11.1355 17.2352 12.3003 17.2352H13.4186V19.4472V21.6594L11.4614 21.7046C9.51297 21.7497 9.50269 21.7515 9.1693 22.1397C8.75895 22.6173 8.74756 22.9218 9.12235 23.3981C9.40962 23.7633 9.41462 23.7641 11.4144 23.7641H13.4186V26.0427V28.3215L12.0865 28.3696C10.8843 28.413 10.7285 28.4499 10.489 28.7457C10.145 29.1707 10.1525 29.6098 10.5115 30.066C10.7861 30.4152 10.8596 30.432 12.109 30.432H13.4186V32.7241V35.0162H11.4675C9.58104 35.0162 9.50506 35.0274 9.17541 35.3572C8.74075 35.7918 8.74075 36.3244 9.17541 36.7589C9.50506 37.0887 9.58104 37.0999 11.4675 37.0999H13.4186V39.392V41.6841H12.109C10.8596 41.6841 10.7861 41.7009 10.5115 42.0501C10.1525 42.5063 10.145 42.9454 10.489 43.3704C10.7285 43.6663 10.8843 43.7031 12.0865 43.7465L13.4186 43.7946V46.0734V48.352H11.4144C9.41462 48.352 9.40962 48.3528 9.12235 48.718C8.74756 49.1944 8.75895 49.4989 9.1693 49.9764C9.50269 50.3646 9.51297 50.3664 11.4614 50.4115L13.4186 50.4567V53.5627C13.4186 55.271 13.4758 56.8191 13.5457 57.0029C13.663 57.3117 13.262 57.7476 8.26691 62.7414L2.86106 68.1459V46.5044V24.8628L2.52002 24.5219C2.0855 24.0872 1.5529 24.0872 1.11838 24.5219L0.777344 24.8628L0.7804 47.1302C0.783317 68.5079 0.793736 69.4197 1.04073 69.9532C1.35592 70.6341 1.92867 71.1878 2.61351 71.4739C3.07554 71.6669 6.62841 71.6893 36.3697 71.6865C68.5024 71.6836 69.6284 71.6749 70.1797 71.4245C70.8777 71.1075 71.2985 70.6827 71.6373 69.9532C71.8737 69.444 71.8957 68.972 71.8984 64.3196L71.9015 59.2419L71.5552 58.5468C71.1829 57.7997 70.7214 57.3864 69.9707 57.1275C69.616 57.0052 62.8379 56.9647 42.7303 56.9647C16.9741 56.9647 15.9533 56.9551 15.7322 56.7106C15.5199 56.4761 15.5023 54.4032 15.5023 29.7124C15.5023 9.62334 15.4617 2.85099 15.3395 2.4962C15.0805 1.74551 14.6673 1.28403 13.9202 0.911743L13.225 0.56543L8.14731 0.568486C3.49493 0.571264 3.02289 0.593213 2.51377 0.829645ZM24.0654 9.17659C23.5354 9.3426 23.1448 9.70725 22.915 10.2503C22.6801 10.8054 22.6564 13.7356 22.8828 14.2325C23.2038 14.9374 24.3055 15 24.6621 14.3338C24.7433 14.1822 24.8095 13.3979 24.8095 12.5907V11.1229H26.3376C28.0867 11.1229 28.4213 10.9591 28.4213 10.1026C28.4213 9.26439 28.0844 9.11283 26.1498 9.08046C25.2217 9.06491 24.2836 9.10811 24.0654 9.17659ZM59.7465 9.19215C59.0665 9.58222 58.9415 10.1622 59.4094 10.7569C59.689 11.1124 59.7408 11.1229 61.2152 11.1229H62.7332V12.5907C62.7332 13.3979 62.7994 14.1822 62.8805 14.3338C63.2371 15 64.3389 14.9374 64.6599 14.2325C64.7494 14.0365 64.8166 13.1582 64.8163 12.193C64.8159 10.7579 64.7744 10.4297 64.5452 10.0538C64.0463 9.23563 63.699 9.11283 61.7671 9.07074C60.6426 9.04629 59.9257 9.08935 59.7465 9.19215ZM42.9379 13.2976C42.4137 13.4392 30.0481 20.6383 29.6474 21.0353C28.7258 21.948 28.7686 21.5073 28.7686 30.0847V37.8639L29.0799 38.4463C29.251 38.7666 29.5949 39.1832 29.8439 39.3721C30.2941 39.7137 41.2952 46.0981 42.4114 46.6656C43.251 47.0923 44.3387 47.0672 45.2612 46.5997C46.6766 45.8825 57.5309 39.5659 57.8499 39.2738C58.0292 39.1096 58.3105 38.7252 58.475 38.4196C58.771 37.8698 58.7741 37.7832 58.7741 30.0847C58.7741 21.5023 58.8181 21.9542 57.89 21.0261C57.6668 20.8029 54.6325 18.9774 51.1471 16.9696C45.1381 13.5078 44.7689 13.3164 44.0129 13.2708C43.5745 13.2443 43.0907 13.2564 42.9379 13.2976ZM49.7522 18.5698C52.8805 20.3736 55.49 21.8957 55.551 21.9523C55.612 22.0087 54.8106 22.5424 53.7703 23.1382C51.3916 24.5002 51.2959 24.5782 51.2959 25.1536C51.2959 25.652 51.8445 26.2646 52.2908 26.2646C52.4221 26.2646 53.4031 25.7577 54.4709 25.1383C55.5389 24.5189 56.4908 23.9808 56.5862 23.9426C56.7237 23.8878 56.7598 25.2764 56.7598 30.6101C56.7598 36.8282 56.7411 37.3683 56.5167 37.6235C56.3418 37.8225 48.3425 42.5102 44.9161 44.4215C44.8581 44.4539 44.8268 41.376 44.8467 37.5815L44.8827 30.6828L46.7061 29.6196C47.7089 29.0351 48.631 28.4708 48.755 28.3661C49.0497 28.117 49.0472 27.2628 48.7507 26.9354C48.3143 26.453 47.734 26.6153 45.7096 27.7864C44.0668 28.7368 43.7584 28.8699 43.5075 28.7374C43.2342 28.5931 39.0724 26.1921 34.0882 23.3031C32.8882 22.6075 31.9376 22.0073 31.9758 21.9691C32.2619 21.6832 43.5559 15.2947 43.7788 15.2929C43.9358 15.2915 46.6238 16.7662 49.7522 18.5698ZM36.8256 27.2906L42.66 30.6658L42.696 37.5692L42.7321 44.4727L42.4054 44.2939C42.2256 44.1955 39.6064 42.6858 36.5847 40.9389C32.6681 38.6746 31.0466 37.6657 30.9368 37.4248C30.7603 37.0374 30.7119 23.8987 30.887 23.9093C30.9443 23.9128 33.6167 25.4343 36.8256 27.2906ZM23.47 45.5738C22.8464 45.8228 22.7258 46.2163 22.7258 48.003C22.7258 50.7692 23.0963 51.1303 25.9347 51.1303C27.4995 51.1303 27.7288 51.0991 28.0553 50.8423C28.3207 50.6335 28.4213 50.4264 28.4213 50.0884C28.4213 49.7504 28.3207 49.5433 28.0553 49.3345C27.7384 49.0853 27.4957 49.0465 26.2494 49.0465H24.8095V47.6034C24.8095 46.4286 24.7642 46.1078 24.5664 45.879C24.2653 45.5308 23.8603 45.418 23.47 45.5738ZM63.3326 45.5747C62.8462 45.7707 62.7332 46.1618 62.7332 47.6482V49.0465H61.2683C59.898 49.0465 59.7812 49.0686 59.4624 49.3876C59.2749 49.5751 59.1214 49.8905 59.1214 50.0884C59.1214 50.2864 59.2749 50.6017 59.4624 50.7892C59.7889 51.1158 59.8787 51.1303 61.5829 51.1303C64.4382 51.1303 64.8169 50.7694 64.8169 48.0482C64.8169 46.217 64.6906 45.7926 64.0824 45.5806C63.8524 45.5003 63.6578 45.4388 63.6501 45.4435C63.6424 45.4484 63.4995 45.5074 63.3326 45.5747ZM18.6369 59.0484H21.4756V61.0525C21.4756 63.0523 21.4764 63.0573 21.8416 63.3446C22.2592 63.6731 22.4363 63.6952 22.9124 63.4784C23.4484 63.234 23.5593 62.7835 23.5593 60.8477V59.0484H25.7819H28.0046V60.0695C28.0046 60.6312 28.0736 61.2888 28.1581 61.5311C28.4192 62.2802 29.1953 62.4782 29.7668 61.9414C30.0583 61.6675 30.0883 61.5184 30.0883 60.3439V59.0484H32.3804H34.6725V60.8612C34.6725 62.953 34.8162 63.4115 35.5201 63.5663C35.8445 63.6374 36.0494 63.5923 36.3214 63.3895C36.6834 63.1194 36.6871 63.098 36.7252 61.0826L36.7635 59.0484H39.052H41.3403V60.3049C41.3403 61.4538 41.3695 61.5907 41.6814 61.9024C41.8689 62.0899 42.1842 62.2434 42.3822 62.2434C42.5802 62.2434 42.8955 62.0899 43.083 61.9024C43.3949 61.5907 43.4241 61.4538 43.4241 60.3049V59.0484H45.7161H48.0082V60.9994C48.0082 62.909 48.0159 62.9583 48.3647 63.3071C48.6534 63.5957 48.805 63.6469 49.1616 63.5755C49.9641 63.415 50.018 63.2651 50.0675 61.0581L50.1125 59.0484H52.3943H54.6761V60.3245C54.6761 61.4433 54.7134 61.64 54.9781 61.922C55.2768 62.2398 55.692 62.3247 56.1285 62.1571C56.5491 61.9957 56.7598 61.3314 56.7598 60.1666V59.0484H58.9825H61.2051V60.7641C61.2051 62.6841 61.3369 63.2436 61.8437 63.4745C62.3285 63.6953 62.5037 63.6744 62.9228 63.3446C63.288 63.0573 63.2888 63.0523 63.2888 61.0525V59.0484H66.2992C68.9055 59.0484 69.3438 59.0792 69.5637 59.2783C69.8006 59.4925 69.8178 59.8342 69.8178 64.303C69.8178 68.5697 69.7925 69.1258 69.5879 69.3518C69.3665 69.5966 68.1665 69.6059 36.8395 69.6059H4.32105L9.72551 64.2C14.7193 59.2049 15.1553 58.8039 15.4641 58.9213C15.6479 58.9911 17.0756 59.0484 18.6369 59.0484Z" fill="#30B8C4"/>
</svg>
