<svg width="101" height="85" viewBox="0 0 101 85" fill="none" xmlns="http://www.w3.org/2000/svg">
<rect x="30.043" y="1.21484" width="41.3116" height="81.8984" stroke="#30B8C4" stroke-width="2" stroke-linejoin="round"/>
<rect x="1.45312" y="1.21484" width="28.5928" height="81.8984" stroke="#30B8C4" stroke-width="2" stroke-linejoin="round"/>
<line x1="1" y1="-1" x2="31.7596" y2="-1" transform="matrix(0.895414 0.445234 -0.660212 0.751079 0.0703125 40.0903)" stroke="#30B8C4" stroke-width="2" stroke-linecap="round" stroke-linejoin="round"/>
<line x1="1" y1="-1" x2="31.7596" y2="-1" transform="matrix(0.895414 0.445234 -0.660212 0.751079 0.0703125 28.7261)" stroke="#30B8C4" stroke-width="2" stroke-linecap="round" stroke-linejoin="round"/>
<line x1="1" y1="-1" x2="31.7596" y2="-1" transform="matrix(0.895414 0.445234 -0.660212 0.751079 0.0703125 17.354)" stroke="#30B8C4" stroke-width="2" stroke-linecap="round" stroke-linejoin="round"/>
<line x1="1" y1="-1" x2="31.7596" y2="-1" transform="matrix(0.895414 0.445234 -0.660212 0.751079 0.0703125 5.98975)" stroke="#30B8C4" stroke-width="2" stroke-linecap="round" stroke-linejoin="round"/>
<line x1="1" y1="-1" x2="19.1059" y2="-1" transform="matrix(0.887585 0.460643 -0.676043 0.736862 11.5547 2.16455)" stroke="#30B8C4" stroke-width="2" stroke-linecap="round" stroke-linejoin="round"/>
<line x1="1" y1="-1" x2="30.7789" y2="-1" transform="matrix(0.879527 0.47585 -0.691189 0.722674 1.45312 64.6948)" stroke="#30B8C4" stroke-width="2" stroke-linecap="round" stroke-linejoin="round"/>
<line x1="1" y1="-1" x2="32.0313" y2="-1" transform="matrix(0.888047 0.459752 -0.675141 0.737689 0.0703125 52.355)" stroke="#30B8C4" stroke-width="2" stroke-linecap="round" stroke-linejoin="round"/>
<line x1="1" y1="-1" x2="16.4334" y2="-1" transform="matrix(0.880997 0.473122 -0.688507 0.72523 0.0703125 75.6934)" stroke="#30B8C4" stroke-width="2" stroke-linecap="round" stroke-linejoin="round"/>
<rect x="71.3594" y="1.21484" width="28.5928" height="81.8984" stroke="#30B8C4" stroke-width="2" stroke-linejoin="round"/>
<line x1="1" y1="-1" x2="31.7596" y2="-1" transform="matrix(0.895414 0.445234 -0.660212 0.751079 69.9766 40.0903)" stroke="#30B8C4" stroke-width="2" stroke-linecap="round" stroke-linejoin="round"/>
<line x1="1" y1="-1" x2="31.7596" y2="-1" transform="matrix(0.895414 0.445234 -0.660212 0.751079 69.9766 28.7256)" stroke="#30B8C4" stroke-width="2" stroke-linecap="round" stroke-linejoin="round"/>
<line x1="1" y1="-1" x2="31.7596" y2="-1" transform="matrix(0.895414 0.445234 -0.660212 0.751079 69.9766 17.3535)" stroke="#30B8C4" stroke-width="2" stroke-linecap="round" stroke-linejoin="round"/>
<line x1="1" y1="-1" x2="31.7596" y2="-1" transform="matrix(0.895414 0.445234 -0.660212 0.751079 69.9766 5.98877)" stroke="#30B8C4" stroke-width="2" stroke-linecap="round" stroke-linejoin="round"/>
<line x1="1" y1="-1" x2="19.1059" y2="-1" transform="matrix(0.887585 0.460643 -0.676043 0.736862 81.4609 2.16406)" stroke="#30B8C4" stroke-width="2" stroke-linecap="round" stroke-linejoin="round"/>
<line x1="1" y1="-1" x2="30.7789" y2="-1" transform="matrix(0.879527 0.47585 -0.691189 0.722674 71.3594 64.6943)" stroke="#30B8C4" stroke-width="2" stroke-linecap="round" stroke-linejoin="round"/>
<line x1="1" y1="-1" x2="32.0313" y2="-1" transform="matrix(0.888047 0.459752 -0.675141 0.737689 69.9766 52.3545)" stroke="#30B8C4" stroke-width="2" stroke-linecap="round" stroke-linejoin="round"/>
<line x1="1" y1="-1" x2="16.4334" y2="-1" transform="matrix(0.880997 0.473122 -0.688507 0.72523 69.9766 75.6924)" stroke="#30B8C4" stroke-width="2" stroke-linecap="round" stroke-linejoin="round"/>
<line x1="39.8242" y1="2.48193" x2="39.8242" y2="28.664" stroke="#30B8C4" stroke-width="2" stroke-linecap="round"/>
<line x1="50.918" y1="20.2012" x2="50.918" y2="69.0889" stroke="#30B8C4" stroke-width="2" stroke-linecap="round"/>
<line x1="61.5117" y1="82.1133" x2="61.5117" y2="64.3705" stroke="#30B8C4" stroke-width="2" stroke-linecap="round"/>
<line x1="61.5117" y1="69.1826" x2="43.769" y2="69.1826" stroke="#30B8C4" stroke-width="2" stroke-linecap="round"/>
<line x1="40.8164" y1="19.0845" x2="54.8092" y2="19.0845" stroke="#30B8C4" stroke-width="2" stroke-linecap="round"/>
<circle cx="39.8119" cy="32.8578" r="4.13225" stroke="#30B8C4" stroke-width="2" stroke-linecap="round"/>
<circle cx="61.524" cy="59.9478" r="4.13225" transform="rotate(180 61.524 59.9478)" stroke="#30B8C4" stroke-width="2" stroke-linecap="round"/>
<circle cx="39.817" cy="69.1099" r="4.13225" transform="rotate(180 39.817 69.1099)" stroke="#30B8C4" stroke-width="2" stroke-linecap="round"/>
<circle cx="59.1965" cy="18.9152" r="4.13225" transform="rotate(0.622706 59.1965 18.9152)" stroke="#30B8C4" stroke-width="2" stroke-linecap="round"/>
</svg>
