<svg width="71" height="69" viewBox="0 0 71 69" fill="none" xmlns="http://www.w3.org/2000/svg">
<path fill-rule="evenodd" clip-rule="evenodd" d="M33.0859 0.0415529C27.1047 0.468182 21.3789 2.37291 16.3985 5.59261C14.9969 6.4987 14.796 6.7301 14.796 7.43853C14.796 8.0024 15.0694 8.40573 15.6009 8.62575C16.1691 8.86121 16.4336 8.76543 18.0515 7.73862C22.1035 5.16665 26.6614 3.54251 31.5279 2.93651C33.4145 2.70172 37.5508 2.72597 39.4535 2.98325C46.7563 3.97049 52.9819 7.0058 58.0033 12.0273C60.6546 14.6785 62.5327 17.3259 64.2014 20.764C66.3697 25.2315 67.3649 29.6016 67.3604 34.6357C67.3547 41.0043 65.5722 46.8252 61.9397 52.3366C60.8343 54.0138 60.7453 54.4638 61.391 55.1095C61.8123 55.5307 62.5182 55.6424 63.0296 55.3686C63.1702 55.2934 63.6783 54.6381 64.1588 53.9122C67.0816 49.4973 68.8424 44.9273 69.6787 39.5865C70.0403 37.2775 70.1159 32.3995 69.8225 30.3061C68.8569 23.4166 66.1934 17.3365 61.8992 12.2194C56.5099 5.79732 48.7032 1.51152 40.1771 0.294225C38.7926 0.0965581 34.4728 -0.057348 33.0859 0.0415529ZM27.2494 7.0119C25.9744 7.21295 24.8324 8.11309 24.2524 9.37428C23.9494 10.0335 23.9399 10.178 23.9006 14.7477L23.8602 19.4436L23.1895 19.6046C22.3476 19.8066 21.0788 20.6181 20.5794 21.2742C20.3698 21.5495 20.0356 22.1244 19.8365 22.5518C19.529 23.2116 19.474 23.5132 19.4723 24.551C19.4704 25.654 19.5122 25.8589 19.903 26.6524C20.4458 27.7552 21.3614 28.6804 22.396 29.1718L23.1958 29.5516L23.1985 33.1465C23.2021 37.9301 23.3829 39.06 24.5107 41.3477C25.683 43.7256 28.2827 46.2198 30.453 47.0485L31.0537 47.278L31.0567 48.716C31.059 49.8189 31.1177 50.2802 31.3083 50.6959C31.7537 51.667 32.7345 52.3894 33.6075 52.3894H34.0206L34.0655 58.0457C34.116 64.4173 34.0947 64.2682 35.1941 65.9375C36.4458 67.8379 38.7387 68.9377 41.0105 68.7276C42.2425 68.6136 44.8595 67.9673 46.87 67.2804C49.7583 66.2935 54.9673 63.4969 55.9113 62.4262C56.5576 61.6934 56.0445 60.4611 55.0265 60.3009C54.6168 60.2365 54.3624 60.3545 52.9498 61.2642C49.3397 63.5895 45.7308 65.0777 41.7289 65.8917C40.726 66.0956 40.4322 66.107 39.7645 65.9676C38.367 65.6757 37.1727 64.5363 36.8919 63.2271C36.7999 62.7979 36.7439 60.6196 36.7439 57.4633V52.3894H37.1638C38.0436 52.3894 39.023 51.6701 39.4699 50.6959C39.6605 50.2802 39.7192 49.8189 39.7215 48.716L39.7245 47.278L40.3252 47.0485C42.4955 46.2198 45.0952 43.7256 46.2675 41.3477C47.3953 39.06 47.5761 37.9301 47.5797 33.1465L47.5824 29.5516L48.3822 29.1718C49.4168 28.6804 50.3323 27.7552 50.8752 26.6524C51.2659 25.8589 51.3078 25.654 51.3059 24.551C51.3042 23.5132 51.2491 23.2116 50.9417 22.5518C50.7426 22.1244 50.4084 21.5495 50.1988 21.2742C49.6994 20.6181 48.4306 19.8066 47.5887 19.6046L46.918 19.4436L46.8776 14.7477C46.8383 10.1763 46.829 10.0334 46.5245 9.36087C45.3601 6.78836 41.9644 6.1451 40.0224 8.12894C39.7166 8.44136 39.3264 9.00171 39.1552 9.37428C38.8525 10.0327 38.8428 10.1816 38.8033 14.6919L38.7628 19.3321H35.3891H32.0154L31.9748 14.6919C31.9352 10.1503 31.9276 10.0366 31.6149 9.34529C30.8644 7.68551 29.0678 6.72522 27.2494 7.0119ZM28.8446 10.0398L29.2247 10.3667L29.2639 14.8493L29.303 19.3321H27.9377H26.5723L26.6114 14.8493L26.6506 10.3667L27.0308 10.0398C27.2916 9.81554 27.5762 9.71298 27.9377 9.71298C28.2991 9.71298 28.5838 9.81554 28.8446 10.0398ZM43.7474 10.0398L44.1276 10.3667L44.1668 14.8493L44.2059 19.3321H42.8405H41.4752L41.5143 14.8493L41.5535 10.3667L41.9336 10.0398C42.1944 9.81554 42.4791 9.71298 42.8405 9.71298C43.202 9.71298 43.4866 9.81554 43.7474 10.0398ZM10.7212 10.2445C9.68543 11.2804 10.7924 12.9325 12.144 12.3679C13.5151 11.7949 13.0998 9.84846 11.6065 9.84846C11.2463 9.84846 11.0127 9.95292 10.7212 10.2445ZM7.43672 14.1889C6.93137 14.5864 5.30235 17.2155 4.29194 19.2644C0.487369 26.9791 -0.300857 35.7761 2.0645 44.1251C2.94391 47.2294 4.42972 50.508 6.17092 53.1864L7.16711 54.719L6.69875 55.658C5.31468 58.4327 6.52724 61.9267 9.33534 63.2556C12.6045 64.8027 16.4167 63.0379 17.3658 59.5379C17.6602 58.4523 17.4993 56.8108 16.9924 55.7277C16.0522 53.7182 13.9414 52.3894 11.69 52.3894C11.238 52.3894 10.0533 52.6455 9.48397 52.8663C8.98391 53.0602 6.45055 48.5091 5.37687 45.4879C2.86614 38.4223 2.86831 30.5766 5.38297 23.5947C6.05048 21.7411 7.40122 19.0209 8.55172 17.2129C9.67906 15.4414 9.77186 14.9645 9.11627 14.3089C8.63437 13.827 7.95832 13.7786 7.43672 14.1889ZM47.2575 22.3396C47.8417 22.6597 48.4867 23.4296 48.599 23.9409C48.8381 25.0298 48.2004 26.3248 47.2243 26.7326C46.563 27.009 24.2152 27.009 23.5539 26.7326C22.5163 26.2991 21.8954 24.9246 22.2311 23.8043C22.4091 23.21 23.28 22.3593 23.836 22.2365C24.0427 22.1909 24.2729 22.1322 24.3474 22.1064C24.4219 22.0805 29.5126 22.0704 35.6601 22.0843C45.8926 22.1073 46.8727 22.129 47.2575 22.3396ZM44.8415 33.6592C44.7902 37.3943 44.7636 37.7593 44.4788 38.6381C43.1569 42.7166 39.5951 45.3444 35.3891 45.3444C31.1831 45.3444 27.6213 42.7166 26.2994 38.6381C26.0146 37.7593 25.988 37.3943 25.9367 33.6592L25.8813 29.6286H35.3891H44.8969L44.8415 33.6592ZM36.3375 30.5273C35.9943 30.7441 32.6287 34.9266 32.2947 35.5513C32.0502 36.0086 32.1942 36.6877 32.6204 37.0882C32.8976 37.3487 33.1446 37.421 33.9054 37.4639C34.4234 37.4932 34.8472 37.5429 34.8472 37.5745C34.8472 37.606 34.4852 38.2708 34.0427 39.0517C33.0703 40.7677 33.0269 40.8939 33.2127 41.4568C33.4708 42.2389 34.5587 42.6185 35.2181 42.1567C35.5376 41.9329 38.4375 36.9223 38.5831 36.3428C38.6943 35.8995 38.4209 35.2224 38.0463 35.0131C37.8889 34.925 37.4408 34.8207 37.0508 34.7811L36.3415 34.7092L37.2001 33.6199C38.4809 31.9951 38.5797 31.7194 38.1441 30.9821C37.754 30.3219 36.9735 30.1253 36.3375 30.5273ZM37.0149 48.8669V49.6798H35.3891H33.7633V48.8669V48.054H35.3891H37.0149V48.8669ZM13.1464 55.4513C15.0669 56.4082 15.3836 58.9429 13.7614 60.3708C12.4939 61.4865 10.6808 61.3543 9.54764 60.0637C8.30203 58.645 8.74804 56.3637 10.4444 55.4776C11.3905 54.9833 12.1918 54.9755 13.1464 55.4513ZM58.472 56.9206C57.6681 57.2683 57.4115 57.9841 57.8125 58.7597C58.5308 60.1487 60.7157 59.2063 60.2207 57.7211C59.9849 57.0139 59.1451 56.6294 58.472 56.9206Z" fill="#30B8C4"/>
</svg>
