<svg width="67" height="67" viewBox="0 0 67 67" fill="none" xmlns="http://www.w3.org/2000/svg">
<path fill-rule="evenodd" clip-rule="evenodd" d="M30.269 0.536347C27.594 0.795145 24.8511 1.41407 22.1704 2.36377C20.5328 2.94394 20.2086 3.21961 20.2086 4.03154C20.2086 4.39219 20.2968 4.6233 20.5194 4.84592C21.0541 5.38064 21.3467 5.36854 23.1967 4.73609C27.1014 3.40103 30.5296 2.87429 34.3717 3.01888C39.9651 3.2294 45.0249 4.80073 49.7545 7.79596C50.6023 8.333 51.3719 8.77232 51.4646 8.77232C51.8063 8.77232 52.5096 8.40008 52.6447 8.14785C52.8643 7.73738 52.8082 7.03553 52.527 6.67811C52.3859 6.49862 51.8209 6.06369 51.2716 5.71154C47.1792 3.08802 42.7117 1.41691 37.9125 0.714673C36.3243 0.482269 31.8956 0.378879 30.269 0.536347ZM9.78519 6.33781C8.36785 6.61566 6.99828 7.66451 6.3666 8.95566C5.65755 10.4047 5.65819 11.955 6.36828 13.3576L6.67536 13.9642L5.85944 15.1988C3.04587 19.4555 1.3427 24.0211 0.619606 29.2444C0.397631 30.8479 0.397631 35.8813 0.619606 37.4848C1.65673 44.9767 4.83467 51.4331 10.0539 56.6523C17.9842 64.5826 29.0395 67.868 40.1657 65.6006C42.4564 65.1337 45.6706 64.059 46.1206 63.6094C46.8078 62.9229 46.4722 61.7279 45.5255 61.4903C45.3033 61.4346 44.647 61.5973 43.4865 61.9961C41.4865 62.6832 39.6558 63.1354 37.5906 63.4524C35.514 63.7712 31.1532 63.7668 29.0283 63.4439C23.6019 62.6191 18.7023 60.4855 14.3457 57.0499C12.0069 55.2056 9.14437 51.9686 7.46463 49.2686C5.4151 45.9743 3.8954 41.8068 3.26154 37.7423C2.93991 35.6794 2.93862 31.0542 3.25909 29.0131C3.77759 25.711 4.70772 22.7378 6.10691 19.9097C6.79073 18.5275 8.24128 16.0811 8.60759 15.6921C8.65806 15.6387 8.97596 15.6892 9.31395 15.8044C10.2246 16.1147 11.8105 16.0046 12.7712 15.5644C13.7086 15.1348 14.6478 14.1987 15.1316 13.2115C15.4724 12.5164 15.509 12.3171 15.509 11.1543C15.509 10.0291 15.4658 9.77455 15.1665 9.13605C14.4861 7.68446 13.1112 6.62751 11.5261 6.33716C10.6692 6.18021 10.5894 6.18021 9.78519 6.33781ZM11.9979 9.23468C12.8707 9.79888 13.2378 11.0401 12.8243 12.0296C12.6172 12.5253 11.8369 13.2422 11.3794 13.357C11.2 13.4021 10.7689 13.4116 10.4216 13.3783C8.97261 13.239 8.02961 11.743 8.54309 10.3981C9.09776 8.94588 10.7109 8.40266 11.9979 9.23468ZM55.0914 10.3075C54.2171 11.1817 54.9829 12.6779 56.1886 12.4516C56.804 12.3363 57.22 11.8308 57.22 11.1982C57.22 10.7733 57.143 10.6085 56.8023 10.3042C56.2308 9.79348 55.6042 9.79463 55.0914 10.3075ZM31.6309 11.2214C30.0052 11.4789 28 12.2678 26.673 13.1719C25.7918 13.7723 24.3852 15.1556 23.7401 16.0563C22.9915 17.1012 22.204 18.777 21.8686 20.0384C21.659 20.8269 21.5791 21.5969 21.5276 23.3217L21.4603 25.5749L20.7745 26.0165C19.8728 26.5972 19.139 27.6007 18.8652 28.6279C18.6707 29.3568 18.6531 30.3614 18.6886 38.708L18.7279 47.9783L19.0628 48.6924C19.4793 49.5804 20.0348 50.222 20.828 50.731C22.0898 51.5406 21.9093 51.5299 33.6807 51.4905L44.3502 51.4547L45.0844 51.1581C46.1133 50.7423 47.0192 49.8855 47.5329 48.8419L47.9554 47.9841L47.9917 38.6612C48.031 28.5435 48.0334 28.5847 47.322 27.4587C46.9439 26.8603 46.1719 26.111 45.6362 25.8226L45.218 25.5974L45.1533 23.3329C45.0786 20.7216 44.8598 19.676 44.0219 17.9232C43.3533 16.5247 42.6013 15.483 41.4998 14.4297C39.3295 12.3543 36.7736 11.269 33.7923 11.1566C33.0133 11.1273 32.0407 11.1564 31.6309 11.2214ZM35.6737 13.9843C37.8568 14.5718 39.7819 15.949 41.017 17.807C42.1579 19.523 42.612 21.2017 42.612 23.7025V25.253H41.2601H39.9082V23.8604C39.9082 21.3534 39.4479 19.9604 38.1601 18.5693C36.7462 17.0423 35.4136 16.4584 33.3416 16.4584C32.2784 16.4584 31.827 16.5177 31.2276 16.7361C29.0867 17.5162 27.3671 19.4653 26.9174 21.622C26.8391 21.9973 26.7751 22.9677 26.7751 23.7786V25.253H25.4232H24.0713V23.7193C24.0713 21.2703 24.4941 19.6233 25.5443 17.9814C26.8401 15.956 29.0769 14.3796 31.2816 13.9381C31.671 13.8601 32.1056 13.7694 32.2472 13.7367C32.7212 13.6272 34.9427 13.7876 35.6737 13.9843ZM58.8825 14.6657C58.4832 14.9893 58.2841 15.448 58.3658 15.8566C58.4052 16.0532 58.7062 16.6297 59.0348 17.1376C61.0947 20.3222 62.6448 24.4402 63.3525 28.6085C63.7445 30.9177 63.779 35.4652 63.4217 37.7423C62.7543 41.9962 61.2474 46.0809 59.0993 49.459C57.9365 51.2877 58.0798 51.167 57.3633 50.9227C56.4172 50.6004 54.8318 50.7249 53.8659 51.1976C52.8978 51.6713 52.0305 52.5407 51.5517 53.5177C51.2108 54.2128 51.1743 54.4121 51.1743 55.5749C51.1743 56.7001 51.2175 56.9547 51.5168 57.5932C52.4456 59.5744 54.6956 60.7859 56.7453 60.4081C58.8831 60.0143 60.4292 58.4311 60.7944 56.2621C60.9568 55.2969 60.7935 54.3167 60.3114 53.3644L60.0006 52.7505L60.6241 51.8451C63.3853 47.835 65.1977 43.1258 66.0019 37.871C66.3196 35.7947 66.3191 30.9283 66.0008 28.8582C65.4435 25.2318 64.4783 22.0677 63.0249 19.1009C61.9631 16.9335 60.7564 14.9214 60.3459 14.6339C59.9733 14.3729 59.2238 14.3893 58.8825 14.6657ZM35.1006 19.3995C35.8822 19.7814 36.6105 20.5429 36.9897 21.3746C37.2083 21.8543 37.2705 22.2882 37.3099 23.6114L37.3589 25.253H33.3545H29.3502V23.8601C29.3502 22.2258 29.5593 21.3852 30.1623 20.5946C31.3459 19.0428 33.3685 18.5532 35.1006 19.3995ZM44.4159 28.1178C44.65 28.2772 44.9627 28.571 45.1109 28.771C45.3774 29.1306 45.3807 29.2308 45.415 38.1773L45.4497 47.2201L45.1507 47.7856C44.9455 48.1737 44.6757 48.444 44.291 48.6475L43.7303 48.944H33.3416H22.953L22.3855 48.6446C22.0329 48.4586 21.7086 48.154 21.529 47.8399L21.24 47.3346L21.2715 38.2345C21.3028 29.2274 21.3057 29.1307 21.5724 28.771C21.7206 28.571 22.0333 28.2772 22.2674 28.1178L22.6931 27.8281H33.3416H43.9902L44.4159 28.1178ZM31.9897 30.7125C30.6204 31.1467 29.5785 32.0275 28.9286 33.3002C28.2084 34.7106 28.3046 36.7055 29.1561 38.0137C29.4416 38.4525 29.4608 38.6131 29.5009 40.9107C29.5403 43.1689 29.5654 43.388 29.8513 43.9686C31.2984 46.9085 35.3919 46.891 36.8464 43.9389C37.1147 43.3944 37.1435 43.134 37.1824 40.9107C37.2225 38.6131 37.2416 38.4525 37.5272 38.0137C38.9345 35.8516 38.181 32.6694 35.9245 31.245C34.8756 30.583 33.1395 30.348 31.9897 30.7125ZM34.2813 33.281C34.5102 33.3767 34.8822 33.6651 35.1077 33.9221C35.8475 34.7646 35.8413 35.9203 35.0913 37.0093L34.6292 37.6801V40.2199V42.7596L34.2561 43.1772C33.9473 43.5228 33.7897 43.5949 33.3416 43.5949C32.8936 43.5949 32.736 43.5228 32.4272 43.1772L32.0541 42.7596V40.2199V37.6801L31.592 37.0093C30.8421 35.9204 30.8358 34.7646 31.5752 33.9225C31.8006 33.6659 32.1598 33.3797 32.3735 33.2866C32.8816 33.0652 33.7587 33.0627 34.2813 33.281ZM57.3392 53.7519C58.5298 54.6601 58.5941 56.3205 57.4766 57.3017C56.3366 58.3026 54.6108 57.9792 53.9255 56.636C53.3898 55.5859 53.8046 54.2013 54.8401 53.5838C55.5095 53.1846 56.7005 53.2648 57.3392 53.7519Z" fill="#30B8C4"/>
</svg>
