<svg width="101" height="85" viewBox="0 0 101 85" fill="none" xmlns="http://www.w3.org/2000/svg">
<rect x="1.38672" y="1.16553" width="57.2539" height="81.9962" stroke="#30B8C4" stroke-width="2" stroke-linejoin="round"/>
<line x1="1.32157" y1="39.584" x2="58.1372" y2="65.0543" stroke="#30B8C4" stroke-width="2" stroke-linecap="round" stroke-linejoin="round"/>
<line x1="1.31936" y1="28.2003" x2="58.1314" y2="53.3711" stroke="#30B8C4" stroke-width="2" stroke-linecap="round" stroke-linejoin="round"/>
<line x1="1.31936" y1="51.505" x2="58.1314" y2="76.6758" stroke="#30B8C4" stroke-width="2" stroke-linecap="round" stroke-linejoin="round"/>
<line x1="1.31942" y1="16.8147" x2="58.1316" y2="41.9931" stroke="#30B8C4" stroke-width="2" stroke-linecap="round" stroke-linejoin="round"/>
<line x1="1.40401" y1="4.08567" x2="58.2268" y2="30.1526" stroke="#30B8C4" stroke-width="2" stroke-linecap="round" stroke-linejoin="round"/>
<line x1="1.32178" y1="62.8926" x2="45.387" y2="82.6689" stroke="#30B8C4" stroke-width="2" stroke-linecap="round" stroke-linejoin="round"/>
<line x1="19.9614" y1="1.61108" x2="58.2144" y2="18.6837" stroke="#30B8C4" stroke-width="2" stroke-linecap="round" stroke-linejoin="round"/>
<line x1="44.1425" y1="1.64706" x2="58.1729" y2="8.37063" stroke="#30B8C4" stroke-width="2" stroke-linecap="round" stroke-linejoin="round"/>
<line x1="1.34584" y1="72.8444" x2="20.4887" y2="82.6449" stroke="#30B8C4" stroke-width="2" stroke-linecap="round" stroke-linejoin="round"/>
<rect x="58.6406" y="1.16553" width="41.3609" height="81.9962" stroke="#30B8C4" stroke-width="2" stroke-linejoin="round"/>
<line x1="68.4336" y1="2.43311" x2="68.4336" y2="28.6489" stroke="#30B8C4" stroke-width="2" stroke-linecap="round"/>
<line x1="79.5391" y1="20.1733" x2="79.5391" y2="69.1218" stroke="#30B8C4" stroke-width="2" stroke-linecap="round"/>
<line x1="90.1484" y1="82.1616" x2="90.1484" y2="64.3953" stroke="#30B8C4" stroke-width="2" stroke-linecap="round"/>
<line x1="90.1484" y1="69.2134" x2="72.3821" y2="69.2134" stroke="#30B8C4" stroke-width="2" stroke-linecap="round"/>
<line x1="69.4258" y1="19.0571" x2="83.4377" y2="19.0571" stroke="#30B8C4" stroke-width="2" stroke-linecap="round"/>
<circle cx="68.4223" cy="32.8467" r="4.13719" stroke="#30B8C4" stroke-width="2" stroke-linecap="round"/>
<circle cx="90.1597" cy="59.9688" r="4.13719" transform="rotate(180 90.1597 59.9688)" stroke="#30B8C4" stroke-width="2" stroke-linecap="round"/>
<circle cx="68.4253" cy="69.1416" r="4.13719" transform="rotate(180 68.4253 69.1416)" stroke="#30B8C4" stroke-width="2" stroke-linecap="round"/>
<circle cx="87.8303" cy="18.887" r="4.13719" transform="rotate(0.622706 87.8303 18.887)" stroke="#30B8C4" stroke-width="2" stroke-linecap="round"/>
</svg>
