<svg width="69" height="58" viewBox="0 0 69 58" fill="none" xmlns="http://www.w3.org/2000/svg">
<path fill-rule="evenodd" clip-rule="evenodd" d="M60.5325 0.526237C60.2868 0.648472 58.0355 2.84023 55.5294 5.39691L50.9731 10.0451L49.4995 9.35744C42.1469 5.9262 34.0887 5.13115 26.363 7.07486C16.2666 9.61502 7.41109 16.6938 1.0057 27.3444C0.251141 28.5991 0.263946 29.1744 1.07746 30.5745C4.21063 35.9669 9.08026 41.3567 14.0799 44.9657C14.5712 45.3205 15.0027 45.6351 15.0387 45.6649C15.0746 45.6948 13.1206 47.7109 10.6963 50.1452C5.91568 54.9455 5.86789 55.0107 6.25931 56.1968C6.56438 57.1211 7.42851 57.595 8.46045 57.404C8.94239 57.3148 9.66434 56.6566 13.7994 52.5366L18.581 47.7724L19.4853 48.2289C22.0265 49.5117 25.7095 50.705 28.7178 51.2202C40.5057 53.2391 51.8893 49.3159 60.9368 40.1162C63.7134 37.293 65.6576 34.8039 67.9692 31.1127C69.4208 28.7949 69.3887 28.6433 66.5467 24.4026C63.8732 20.4133 59.5041 15.8769 55.55 12.9851C54.933 12.5336 54.3982 12.1398 54.3616 12.1098C54.3249 12.0797 56.2472 10.0973 58.6333 7.70465C61.0193 5.3119 63.0425 3.16555 63.1292 2.93507C63.3634 2.31273 63.3207 1.77376 62.995 1.23985C62.4681 0.375565 61.4359 0.0764504 60.5325 0.526237ZM37.647 9.98649C41.134 10.3623 45.1126 11.4329 47.4193 12.6163L47.9493 12.8883L45.2874 15.5471L42.6254 18.2059L41.9758 17.7609C39.8989 16.338 37.4737 15.6355 34.6538 15.6399C32.7382 15.6428 31.5465 15.8613 29.8271 16.5242C26.1008 17.9613 23.2712 21.013 21.9525 25.0172C21.5602 26.2086 21.5358 26.4353 21.5358 28.8882C21.5358 31.3507 21.5589 31.5633 21.9569 32.7593C22.4139 34.1326 22.9802 35.3289 23.6067 36.2455L24.0052 36.8283L20.948 39.8856L17.8908 42.9428L17.0308 42.3549C14.1497 40.385 10.2261 36.7274 8.00932 33.9456C6.63093 32.2157 4.62558 29.2199 4.62558 28.8906C4.62558 28.7584 5.16067 27.8582 5.81488 26.8902C12.3162 17.2688 21.3498 11.2359 31.0068 10.0666C33.0951 9.81378 35.7464 9.78177 37.647 9.98649ZM52.8242 15.749C55.8565 17.9137 59.0909 20.967 61.3857 23.8308C62.7659 25.5536 64.7757 28.5531 64.7757 28.8905C64.7757 29.0254 64.2318 29.9342 63.5672 30.9103C54.5751 44.1144 41.4884 50.1203 28.0752 47.1984C26.2997 46.8116 23.9682 46.0508 22.5025 45.3799L21.4399 44.8935L24.1011 42.2387L26.7623 39.5839L27.6951 40.1868C30.8765 42.2431 35.4041 42.7296 39.1744 41.4205C41.6426 40.5635 44.0606 38.728 45.5292 36.5964C46.4813 35.2146 46.9202 34.3352 47.4446 32.7593C47.8424 31.5634 47.8655 31.3504 47.8655 28.8882C47.8655 26.4258 47.8424 26.2132 47.4444 25.0172C46.9875 23.6441 46.4212 22.4475 45.7949 21.5314L45.3968 20.9492L48.4222 17.9209C50.0863 16.2555 51.4876 14.8929 51.5363 14.8929C51.585 14.8929 52.1646 15.2782 52.8242 15.749ZM36.6362 19.5703C37.5923 19.7735 39.0462 20.3447 39.6071 20.7374C39.8762 20.9261 39.4464 21.3891 33.294 27.5405L26.692 34.1411L26.1495 33.0131C24.8295 30.2684 24.8587 27.3668 26.2347 24.5756C28.0931 20.8056 32.4907 18.6895 36.6362 19.5703ZM43.4334 25.128C44.563 27.6787 44.4724 30.4938 43.1745 33.1753C41.962 35.6801 39.4513 37.6087 36.6162 38.2128C34.5681 38.6494 32.0768 38.2794 30.1885 37.2585L29.4728 36.8717L36.061 30.2823C43.4626 22.8792 42.6799 23.4265 43.4334 25.128Z" fill="#30B8C4"/>
</svg>
