<svg width="45" height="56" viewBox="0 0 45 56" fill="none" xmlns="http://www.w3.org/2000/svg">
<path d="M29.8572 1.67026L43.3233 15.1364M11.2962 26.5669H33.2947M11.2962 42.8771H33.2947M11.2962 34.722H33.2947M3.89674 1.67026C3.19342 1.68754 2.52473 1.97914 2.03348 2.48276C1.54223 2.98638 1.26737 3.66212 1.26758 4.36565V51.6797C1.26736 52.383 1.54204 53.0586 2.033 53.5622C2.52396 54.0658 3.1923 54.3575 3.89539 54.3751H40.6955C41.4104 54.3751 42.096 54.0912 42.6015 53.5857C43.107 53.0802 43.3909 52.3946 43.3909 51.6797V33.4081V15.1364H32.608C31.9044 15.1191 31.2355 14.8274 30.7443 14.3234C30.253 13.8195 29.9783 13.1434 29.9788 12.4397V1.65674L3.89674 1.67026Z" stroke="#30B8C4" stroke-width="2" stroke-linecap="round" stroke-linejoin="round"/>
</svg>
