<svg width="23" height="16" viewBox="0 0 23 16" fill="none" xmlns="http://www.w3.org/2000/svg">
<path d="M11.7754 0.638184C6.77539 0.638184 2.50539 3.74818 0.775391 8.13818C2.50539 12.5282 6.77539 15.6382 11.7754 15.6382C16.7754 15.6382 21.0454 12.5282 22.7754 8.13818C21.0454 3.74818 16.7754 0.638184 11.7754 0.638184ZM11.7754 13.1382C9.01539 13.1382 6.77539 10.8982 6.77539 8.13818C6.77539 5.37818 9.01539 3.13818 11.7754 3.13818C14.5354 3.13818 16.7754 5.37818 16.7754 8.13818C16.7754 10.8982 14.5354 13.1382 11.7754 13.1382ZM11.7754 5.13818C10.1154 5.13818 8.77539 6.47818 8.77539 8.13818C8.77539 9.79818 10.1154 11.1382 11.7754 11.1382C13.4354 11.1382 14.7754 9.79818 14.7754 8.13818C14.7754 6.47818 13.4354 5.13818 11.7754 5.13818Z" fill="#30B8C4"/>
</svg>
