<svg width="19" height="16" viewBox="0 0 19 16" fill="none" xmlns="http://www.w3.org/2000/svg">
<path d="M3.04688 0.21875H15.7031C16.4814 0.218699 17.2302 0.516457 17.7958 1.05094C18.3615 1.58543 18.7013 2.31612 18.7453 3.09312L18.75 3.26562V12.1719C18.7501 12.9501 18.4523 13.6989 17.9178 14.2646C17.3833 14.8303 16.6526 15.17 15.8756 15.2141L15.7031 15.2188H3.04688C2.26862 15.2188 1.51985 14.921 0.954159 14.3866C0.388469 13.8521 0.0487488 13.1214 0.00468761 12.3444L6.53923e-09 12.1719V3.26562C-5.09501e-05 2.48737 0.297707 1.7386 0.832192 1.17291C1.36668 0.607219 2.09737 0.267499 2.87437 0.223438L3.04688 0.21875H15.7031H3.04688ZM17.3438 5.25594L9.70312 9.27781C9.61685 9.32339 9.52204 9.35051 9.42471 9.35745C9.32738 9.36439 9.22968 9.351 9.13781 9.31813L9.04781 9.27875L1.40625 5.25687V12.1719C1.40627 12.5836 1.5611 12.9803 1.84001 13.2832C2.11893 13.5861 2.50153 13.773 2.91188 13.8069L3.04688 13.8125H15.7031C16.115 13.8125 16.5118 13.6575 16.8147 13.3784C17.1176 13.0993 17.3045 12.7164 17.3381 12.3059L17.3438 12.1719V5.25594ZM15.7031 1.625H3.04688C2.63513 1.62502 2.23845 1.77985 1.93557 2.05876C1.63269 2.33768 1.44576 2.72028 1.41188 3.13063L1.40625 3.26562V3.66781L9.375 7.86125L17.3438 3.66687V3.26562C17.3437 2.85374 17.1888 2.45693 16.9096 2.15402C16.6305 1.85112 16.2477 1.66428 15.8372 1.63063L15.7031 1.625Z" fill="#979AB1"/>
</svg>
