<svg width="17" height="18" viewBox="0 0 17 18" fill="none" xmlns="http://www.w3.org/2000/svg">
<path d="M15.0196 17.2045H14.9086C2.08198 16.4669 0.260791 5.64424 0.00621737 2.34131C-0.0142953 2.0845 0.0160665 1.82617 0.095563 1.58112C0.175059 1.33606 0.302128 1.1091 0.469488 0.913244C0.636849 0.717384 0.841211 0.556472 1.07087 0.439728C1.30052 0.322984 1.55096 0.252703 1.80782 0.232911H5.40449C5.66596 0.232658 5.92148 0.310921 6.13795 0.457564C6.35442 0.604206 6.52187 0.812471 6.61862 1.05538L7.6108 3.49668C7.70633 3.73399 7.73004 3.99413 7.67898 4.2448C7.62792 4.49546 7.50434 4.7256 7.32359 4.90663L5.93322 6.31005C6.15041 7.54424 6.74145 8.68194 7.6264 9.56922C8.51135 10.4565 9.64748 11.0505 10.8811 11.271L12.2976 9.86756C12.4813 9.68881 12.7136 9.56811 12.9655 9.52051C13.2174 9.47292 13.4778 9.50054 13.7141 9.59993L16.1749 10.5856C16.4142 10.6854 16.6183 10.8541 16.7613 11.0704C16.9043 11.2866 16.9797 11.5405 16.9778 11.7997V15.2463C16.9778 15.7656 16.7715 16.2637 16.4043 16.631C16.037 16.9982 15.5389 17.2045 15.0196 17.2045ZM1.96448 1.53842C1.79136 1.53842 1.62533 1.60719 1.50291 1.72961C1.3805 1.85202 1.31173 2.01805 1.31173 2.19117V2.24339C1.61199 6.1077 3.53762 15.2463 14.9804 15.899C15.0661 15.9043 15.1521 15.8926 15.2333 15.8646C15.3146 15.8366 15.3895 15.7929 15.4538 15.7359C15.518 15.6789 15.5704 15.6097 15.6079 15.5324C15.6454 15.4551 15.6673 15.3712 15.6723 15.2854V11.7997L13.2114 10.8141L11.338 12.6744L11.0247 12.6352C5.34575 11.9237 4.5755 6.24477 4.5755 6.18603L4.53633 5.8727L6.39015 3.9993L5.41102 1.53842H1.96448Z" fill="#979AB1"/>
</svg>
