<svg width="19" height="18" viewBox="0 0 19 18" fill="none" xmlns="http://www.w3.org/2000/svg">
<path d="M9.03869 8.85423C9.53791 8.85423 9.94261 8.44953 9.94261 7.95031C9.94261 7.45109 9.53791 7.04639 9.03869 7.04639C8.53947 7.04639 8.13477 7.45109 8.13477 7.95031C8.13477 8.44953 8.53947 8.85423 9.03869 8.85423Z" fill="#979AB1"/>
<path d="M12.6539 8.85423C13.1531 8.85423 13.5578 8.44953 13.5578 7.95031C13.5578 7.45109 13.1531 7.04639 12.6539 7.04639C12.1547 7.04639 11.75 7.45109 11.75 7.95031C11.75 8.44953 12.1547 8.85423 12.6539 8.85423Z" fill="#979AB1"/>
<path d="M5.42345 8.85399C5.92268 8.85399 6.32738 8.44929 6.32738 7.95006C6.32738 7.45084 5.92268 7.04614 5.42345 7.04614C4.92423 7.04614 4.51953 7.45084 4.51953 7.95006C4.51953 8.44929 4.92423 8.85399 5.42345 8.85399Z" fill="#979AB1"/>
<path d="M15.3667 0.71875H2.71177C1.99256 0.71875 1.30281 1.00445 0.794258 1.51301C0.285703 2.02156 0 2.71131 0 3.43052V16.9894C0.000276019 17.1495 0.043107 17.3067 0.124109 17.4449C0.205111 17.5831 0.321375 17.6973 0.461 17.7758C0.596097 17.8523 0.748639 17.8928 0.903922 17.8933C1.06616 17.8932 1.2254 17.8495 1.36492 17.7667L5.42353 15.3081C5.57355 15.2187 5.74623 15.1748 5.92069 15.1815H15.3667C16.0859 15.1815 16.7756 14.8958 17.2842 14.3872C17.7927 13.8787 18.0784 13.1889 18.0784 12.4697V3.43052C18.0784 2.71131 17.7927 2.02156 17.2842 1.51301C16.7756 1.00445 16.0859 0.71875 15.3667 0.71875ZM16.2706 12.4697C16.2706 12.7095 16.1754 12.9394 16.0058 13.1089C15.8363 13.2784 15.6064 13.3737 15.3667 13.3737H5.92069C5.42699 13.3733 4.94255 13.5077 4.51961 13.7623L1.80784 15.3894V3.43052C1.80784 3.19078 1.90308 2.96087 2.0726 2.79135C2.24212 2.62183 2.47203 2.52659 2.71177 2.52659H15.3667C15.6064 2.52659 15.8363 2.62183 16.0058 2.79135C16.1754 2.96087 16.2706 3.19078 16.2706 3.43052V12.4697Z" fill="#979AB1"/>
</svg>
