<svg width="15" height="17" viewBox="0 0 15 17" fill="none" xmlns="http://www.w3.org/2000/svg">
<path d="M7.32237 2.20996C5.52502 2.20996 4.06798 3.667 4.06798 5.46435C4.06798 7.26169 5.52502 8.71873 7.32237 8.71873C9.11972 8.71873 10.5768 7.26169 10.5768 5.46435C10.5768 3.667 9.11972 2.20996 7.32237 2.20996ZM2.44079 5.46435C2.44079 2.76832 4.62635 0.582764 7.32237 0.582764C10.0184 0.582764 12.204 2.76832 12.204 5.46435C12.204 8.16037 10.0184 10.3459 7.32237 10.3459C4.62635 10.3459 2.44079 8.16037 2.44079 5.46435ZM4.06798 13.6003C2.71997 13.6003 1.62719 14.6931 1.62719 16.0411C1.62719 16.4904 1.26293 16.8547 0.813597 16.8547C0.36426 16.8547 0 16.4904 0 16.0411C0 13.7944 1.8213 11.9731 4.06798 11.9731H10.5768C12.8234 11.9731 14.6447 13.7944 14.6447 16.0411C14.6447 16.4904 14.2805 16.8547 13.8311 16.8547C13.3818 16.8547 13.0176 16.4904 13.0176 16.0411C13.0176 14.6931 11.9248 13.6003 10.5768 13.6003H4.06798Z" fill="#979AB1"/>
</svg>
