<svg width="22" height="21" viewBox="0 0 22 21" fill="none" xmlns="http://www.w3.org/2000/svg">
<path d="M11.1205 6.66057C11.7868 6.66057 12.2723 6.12747 12.2723 5.52773C12.2723 4.86135 11.7868 4.35681 11.1395 4.35681C10.5207 4.35681 9.97811 4.86135 9.97811 5.52773C9.97811 6.12747 10.5207 6.66057 11.1205 6.66057ZM13.4242 16.0945V15.4948C12.3104 15.352 12.2152 15.2568 12.2152 14.0478V7.86957C11.3204 8.18371 10.2827 8.41219 9.23557 8.54546V9.11664C10.2066 9.26895 10.3018 9.30703 10.3018 10.4589V14.0478C10.3018 15.2759 10.1685 15.352 9.11182 15.4948V16.0945H13.4242Z" fill="#232C2E"/>
<rect x="1.26807" y="0.725708" width="20" height="19" rx="9.5" stroke="#232C2E"/>
</svg>
