<svg width="45" height="45" viewBox="0 0 45 45" fill="none" xmlns="http://www.w3.org/2000/svg">
<rect x="0.945312" y="0.479614" width="43.6353" height="43.6353" rx="21.8176" fill="#232C2E"/>
<g clip-path="url(#clip0_253_1755)">
<path d="M28.5812 13.5704H16.9452C16.1736 13.5704 15.4337 13.8769 14.8882 14.4225C14.3426 14.968 14.0361 15.7079 14.0361 16.4795V28.1155C14.0361 28.887 14.3426 29.627 14.8882 30.1725C15.4337 30.7181 16.1736 31.0245 16.9452 31.0245H28.5812C29.3527 31.0245 30.0927 30.7181 30.6382 30.1725C31.1838 29.627 31.4902 28.887 31.4902 28.1155V16.4795C31.4902 15.7079 31.1838 14.968 30.6382 14.4225C30.0927 13.8769 29.3527 13.5704 28.5812 13.5704V13.5704ZM30.0357 28.1155C30.0357 28.5013 29.8825 28.8712 29.6097 29.144C29.3369 29.4168 28.967 29.57 28.5812 29.57H16.9452C16.5594 29.57 16.1894 29.4168 15.9167 29.144C15.6439 28.8712 15.4906 28.5013 15.4906 28.1155V16.4795C15.4906 16.0937 15.6439 15.7237 15.9167 15.451C16.1894 15.1782 16.5594 15.0249 16.9452 15.0249H28.5812C28.967 15.0249 29.3369 15.1782 29.6097 15.451C29.8825 15.7237 30.0357 16.0937 30.0357 16.4795V28.1155Z" fill="white"/>
<path d="M22.7629 17.9337C21.8999 17.9337 21.0563 18.1896 20.3387 18.6691C19.6211 19.1486 19.0618 19.8301 18.7316 20.6274C18.4013 21.4247 18.3149 22.3021 18.4833 23.1485C18.6516 23.995 19.0672 24.7725 19.6775 25.3827C20.2877 25.993 21.0652 26.4086 21.9117 26.5769C22.7581 26.7453 23.6355 26.6589 24.4328 26.3286C25.2301 25.9984 25.9116 25.4391 26.3911 24.7215C26.8706 24.0039 27.1265 23.1603 27.1265 22.2972C27.1265 21.14 26.6667 20.0301 25.8484 19.2118C25.0301 18.3934 23.9202 17.9337 22.7629 17.9337ZM22.7629 25.2063C22.1876 25.2063 21.6252 25.0357 21.1468 24.716C20.6684 24.3964 20.2955 23.942 20.0754 23.4105C19.8552 22.8789 19.7976 22.294 19.9098 21.7297C20.0221 21.1654 20.2991 20.6471 20.706 20.2403C21.1128 19.8334 21.6311 19.5564 22.1954 19.4441C22.7597 19.3319 23.3446 19.3895 23.8762 19.6097C24.4077 19.8298 24.8621 20.2027 25.1817 20.6811C25.5013 21.1595 25.672 21.7219 25.672 22.2972C25.672 23.0688 25.3655 23.8087 24.8199 24.3542C24.2744 24.8998 23.5345 25.2063 22.7629 25.2063Z" fill="white"/>
<path d="M27.4903 18.6614C28.0928 18.6614 28.5812 18.173 28.5812 17.5705C28.5812 16.968 28.0928 16.4796 27.4903 16.4796C26.8878 16.4796 26.3994 16.968 26.3994 17.5705C26.3994 18.173 26.8878 18.6614 27.4903 18.6614Z" fill="white"/>
</g>
<defs>
<clipPath id="clip0_253_1755">
<rect x="14.0361" y="13.5704" width="17.4541" height="17.4541" fill="white"/>
</clipPath>
</defs>
</svg>
