<svg width="58" height="51" viewBox="0 0 58 51" fill="none" xmlns="http://www.w3.org/2000/svg">
<path fill-rule="evenodd" clip-rule="evenodd" d="M27.9283 0.517987C27.7444 0.540732 27.3179 0.615101 26.9806 0.683114C26.5344 0.773092 4.97377 9.36316 1.43854 10.8594C0.611451 11.2094 -0.00111316 12.1889 1.81382e-06 13.1595C0.000782293 13.7753 0.472638 14.6623 0.977162 14.9961C1.21811 15.1557 4.71187 16.6139 8.74103 18.2366L16.0667 21.1873H28.551H41.0354L46.7465 18.8881C57.1238 14.7104 56.3318 15.0866 56.8102 14.1087C57.3167 13.0734 57.0896 11.9896 56.2118 11.2526C55.89 10.9824 52.6899 9.64703 43.361 5.8898C36.5288 3.13806 30.6628 0.817802 30.3255 0.733734C29.6409 0.563032 28.4387 0.454768 27.9283 0.517987ZM30.0522 2.40585C31.2331 2.7302 55.0222 12.3819 55.2172 12.6157C55.4834 12.9349 55.4622 13.2982 55.1615 13.5723C55.0234 13.698 51.7585 15.0692 47.9058 16.6195L40.9011 19.438L35.8641 17.4226C33.0939 16.3141 30.6516 15.3497 30.437 15.2794C29.8133 15.0752 28.1082 15.0105 27.2568 15.1588C26.7437 15.2481 24.7734 15.9833 21.3422 17.3659L16.1972 19.439L9.1529 16.6059C5.27849 15.0477 2.01007 13.683 1.88965 13.5733C1.61849 13.3261 1.60846 12.9237 1.8659 12.6182C1.98565 12.476 4.10666 11.5646 7.35713 10.2583C10.27 9.08765 15.8943 6.82593 19.8556 5.23219C27.3349 2.22311 27.7047 2.10069 28.9876 2.20895C29.2635 2.23225 29.7426 2.32078 30.0522 2.40585ZM29.8413 16.8747C30.1536 16.9558 31.7761 17.5703 33.4469 18.2406L36.4847 19.4591L32.5131 19.4884C30.3288 19.5045 26.7526 19.5045 24.5661 19.4884L20.5907 19.4591L23.6463 18.2373C25.3269 17.5653 26.9276 16.9541 27.2036 16.8791C27.8767 16.6959 29.1438 16.6938 29.8413 16.8747ZM5.3426 21.5099C3.10018 22.4188 1.1288 23.252 0.961775 23.3615C0.509878 23.6575 0.10414 24.4315 0.031444 25.136C-0.0224091 25.6572 0.0141619 25.8445 0.272947 26.3734C0.469739 26.7758 0.722056 27.0904 0.984855 27.2613C1.43631 27.555 25.6387 37.3279 26.7019 37.6458C27.6127 37.9182 29.4678 37.9187 30.3813 37.6467C31.3186 37.3678 55.3634 27.6905 55.9389 27.3606C57.0062 26.749 57.3792 25.1835 56.7234 24.0681C56.5553 23.7821 56.2543 23.4479 56.0545 23.3255C55.5255 23.0013 47.6672 19.8493 47.3878 19.8493C47.0679 19.8493 46.6041 20.3339 46.6041 20.6682C46.6041 20.8175 46.6919 21.045 46.7992 21.1738C46.9187 21.3173 48.5493 22.0338 51.0082 23.0233C53.5328 24.0393 55.0945 24.7269 55.2172 24.8765C55.4648 25.1783 55.4646 25.4464 55.2168 25.7526C54.9455 26.0875 30.7024 35.8593 29.545 36.1003C27.9339 36.4355 28.3574 36.5788 14.6326 31.0548C7.84092 28.3213 2.15858 25.9939 2.00528 25.8828C1.65852 25.6316 1.59653 25.2048 1.86033 24.8848C1.989 24.7288 3.5019 24.0609 6.07492 23.0243C8.65195 21.9862 10.162 21.3195 10.2931 21.1621C10.6773 20.7011 10.2613 19.8434 9.65832 19.8532C9.5272 19.8554 7.58503 20.6008 5.3426 21.5099ZM13.1432 21.9816C12.8655 22.0824 12.5975 22.4817 12.5975 22.7942C12.5975 22.875 12.7015 23.0734 12.8286 23.2349C13.2874 23.8182 14.2699 23.4948 14.2699 22.7606C14.2699 22.1581 13.7146 21.7741 13.1432 21.9816ZM23.2241 21.9699C22.3517 22.3176 22.5934 23.5287 23.5351 23.5287C24.032 23.5287 24.3047 23.2297 24.3047 22.6849C24.3047 22.1425 23.7357 21.766 23.2241 21.9699ZM33.3359 21.9365C32.7904 22.1335 32.6044 22.7846 32.9521 23.2809C33.0795 23.4628 33.2379 23.5287 33.548 23.5287C34.0134 23.5287 34.2778 23.316 34.3946 22.8476C34.516 22.361 33.8197 21.7618 33.3359 21.9365ZM43.2943 21.9686C43.0004 22.087 42.8132 22.4092 42.8132 22.7967C42.8132 23.4988 43.809 23.8015 44.2545 23.2349C44.3816 23.0734 44.4856 22.875 44.4856 22.7942C44.4856 22.4645 44.212 22.0834 43.8962 21.9734C43.7115 21.9089 43.5553 21.8595 43.5492 21.8633C43.5429 21.8672 43.4283 21.9146 43.2943 21.9686ZM7.82252 24.7902C7.41667 25.2224 7.51669 25.774 8.05109 26.0504C8.86881 26.4733 9.65196 25.4489 9.02524 24.7763C8.71584 24.4441 8.1414 24.4508 7.82252 24.7902ZM17.846 24.826C17.5292 25.2286 17.5558 25.4937 17.9521 25.8901C18.2225 26.1605 18.3497 26.2131 18.5932 26.1555C19.5857 25.9207 19.4711 24.5322 18.4592 24.5322C18.1791 24.5322 18.0152 24.6107 17.846 24.826ZM27.9385 24.7439C27.4686 25.2632 27.8458 26.1303 28.5416 26.1303C29.2373 26.1303 29.6145 25.2632 29.1447 24.7439C28.8873 24.4597 28.1958 24.4597 27.9385 24.7439ZM38.0188 24.7552C37.5728 25.2012 37.8423 26.0023 38.4899 26.1555C38.7334 26.2131 38.8606 26.1605 39.131 25.8901C39.5274 25.4937 39.5539 25.2286 39.2371 24.826C38.9476 24.4578 38.3509 24.4232 38.0188 24.7552ZM48.0579 24.7763C47.6639 25.1992 47.7746 25.7779 48.3015 26.0504C49.1338 26.4807 49.9239 25.4125 49.245 24.7746C48.9055 24.4557 48.3557 24.4565 48.0579 24.7763ZM13.0841 26.4442C12.8464 26.5617 12.5975 26.976 12.5975 27.2541C12.5975 27.3349 12.7015 27.5333 12.8286 27.6948C13.2874 28.2781 14.2699 27.9547 14.2699 27.2205C14.2699 26.608 13.6171 26.1806 13.0841 26.4442ZM23.2241 26.4298C22.3836 26.7647 22.589 27.9886 23.4857 27.9886C24.4577 27.9886 24.6303 26.6493 23.6914 26.3932C23.5688 26.3598 23.3585 26.3762 23.2241 26.4298ZM33.3359 26.3963C32.763 26.6033 32.5816 27.3457 33.0014 27.7656C33.704 28.4682 34.8742 27.4649 34.2082 26.7312C33.9298 26.4243 33.6044 26.2994 33.3359 26.3963ZM43.2943 26.4284C43.0004 26.5469 42.8132 26.8691 42.8132 27.2565C42.8132 27.9586 43.809 28.2613 44.2545 27.6948C44.3816 27.5333 44.4856 27.3349 44.4856 27.2541C44.4856 26.9593 44.2314 26.5608 43.9664 26.4399C43.6529 26.2971 43.6215 26.2967 43.2943 26.4284ZM17.846 29.2859C17.5468 29.6662 17.5542 29.9126 17.876 30.2867C18.392 30.8867 19.2873 30.5527 19.2873 29.7602C19.2873 29.026 18.3048 28.7027 17.846 29.2859ZM27.9385 29.2038C27.666 29.5051 27.6769 30.0724 27.9607 30.3563C28.4731 30.8686 29.3669 30.4898 29.3464 29.769C29.3323 29.273 29.0413 28.9921 28.5416 28.9921C28.279 28.9921 28.0608 29.0687 27.9385 29.2038ZM38.0188 29.2151C37.8962 29.3377 37.7958 29.583 37.7958 29.7602C37.7958 30.5527 38.6911 30.8867 39.2071 30.2867C39.5289 29.9126 39.5363 29.6662 39.2371 29.2859C38.9476 28.9177 38.3509 28.8831 38.0188 29.2151ZM22.9581 31.102C22.6744 31.3857 22.6235 31.5072 22.6853 31.7544C22.727 31.9216 22.8403 32.1461 22.9369 32.2534C23.1778 32.5206 23.8017 32.5055 24.0817 32.2255C24.3617 31.9455 24.3768 31.3216 24.1096 31.0808C24.0022 30.9841 23.7777 30.8708 23.6106 30.8291C23.3634 30.7674 23.2419 30.8182 22.9581 31.102ZM33.3359 30.8551C32.7621 31.0662 32.5816 31.8056 33.0014 32.2255C33.2814 32.5055 33.9054 32.5206 34.1462 32.2534C34.2429 32.1461 34.3561 31.9216 34.3978 31.7544C34.4593 31.5086 34.4094 31.3864 34.1364 31.1133C33.8032 30.7802 33.663 30.7349 33.3359 30.8551ZM5.29444 33.7668C3.0868 34.6669 1.11163 35.5236 0.905246 35.6709C0.465056 35.9849 0.000670796 36.9055 1.81382e-06 37.4659C-0.00111316 38.4146 0.511885 39.2754 1.3257 39.6902C2.18724 40.1295 26.4028 49.8231 26.9664 49.9543C27.7846 50.1449 29.458 50.1233 30.2727 49.9118C30.6423 49.8158 36.5333 47.4862 43.3641 44.7348C56.2691 39.5367 56.3999 39.4777 56.8161 38.6729C57.1224 38.0806 57.1449 37.2437 56.8712 36.6248C56.5742 35.9533 56.3671 35.7187 55.8291 35.4441C55.0122 35.0272 47.6798 32.114 47.4472 32.114C46.8488 32.114 46.4741 32.7659 46.7576 33.3136C46.895 33.5789 47.4434 33.8306 50.9132 35.2207C53.1118 36.1014 55.0236 36.9254 55.1615 37.0519C55.4622 37.3274 55.4834 37.6905 55.2172 38.0096C55.0265 38.2383 31.3342 47.8558 30.0214 48.2375C29.3186 48.4419 27.883 48.4633 27.1925 48.2799C26.8063 48.1773 7.44655 40.4337 2.953 38.5845C1.82186 38.119 1.54178 37.8217 1.73021 37.2861C1.82788 37.0084 2.21946 36.8245 5.90767 35.3241C8.14597 34.4135 10.0354 33.6413 10.1064 33.608C10.1776 33.5747 10.2926 33.4097 10.3624 33.2415C10.5966 32.676 10.1887 32.1024 9.56656 32.1223C9.42451 32.1267 7.50208 32.8668 5.29444 33.7668ZM27.9385 33.6637C27.666 33.965 27.6769 34.5323 27.9607 34.8161C28.2506 35.106 28.7951 35.1208 29.0976 34.847C29.3898 34.5826 29.4015 33.8929 29.1181 33.6365C28.838 33.3831 28.1788 33.3982 27.9385 33.6637Z" fill="#30B8C4"/>
</svg>
