<svg width="52" height="53" viewBox="0 0 52 53" fill="none" xmlns="http://www.w3.org/2000/svg">
<path fill-rule="evenodd" clip-rule="evenodd" d="M35.5285 0.272789C33.8481 0.461357 31.8589 1.12221 30.3264 2.00094C26.7019 4.07917 24.2777 7.42683 23.3606 11.6201C23.0986 12.8178 23.1019 15.8874 23.3664 17.0993C23.6432 18.368 24.192 19.8759 24.7893 21.0087L25.3149 22.0057L12.846 34.4852C5.98813 41.3488 0.292194 47.1254 0.188467 47.322C0.0430845 47.5971 -0.00020347 47.9023 7.18217e-07 48.6492C0.000307001 49.7515 0.150896 50.1488 0.821757 50.817C1.44678 51.4396 2.00972 51.6613 2.96043 51.6592C4.10174 51.6568 4.40138 51.4746 6.19753 49.6916L7.69902 48.2011L9.56663 50.0331C10.8194 51.2621 11.5975 51.9449 11.9301 52.1075C13.4657 52.8579 15.3123 52.1666 16.0272 50.5737C16.2725 50.027 16.3026 49.8533 16.2613 49.2212C16.1957 48.2169 15.9389 47.7726 14.6899 46.5014L13.6328 45.4257L14.5773 44.4851C15.0968 43.9678 15.563 43.5445 15.6134 43.5445C15.6637 43.5445 16.2146 44.0425 16.8374 44.6511C18.1565 45.9401 18.5747 46.1461 19.738 46.0804C21.3815 45.9876 22.5548 44.7398 22.5548 43.0851C22.5548 41.904 22.367 41.6109 20.2618 39.5082C19.253 38.5006 18.4277 37.6297 18.4277 37.5727C18.4277 37.5157 20.9458 34.9513 24.0236 31.874L29.6196 26.2787L30.3487 26.699C32.6474 28.0244 35.6405 28.6788 38.3363 28.4454C41.9447 28.133 44.9832 26.7087 47.4327 24.1815C50.0958 21.4341 51.4139 18.1764 51.4145 14.3409C51.4147 12.3961 51.1523 10.9616 50.4715 9.18592C49.2736 6.06204 46.8764 3.39136 43.8361 1.79318C41.2776 0.448289 38.498 -0.0604461 35.5285 0.272789ZM39.8097 2.11008C44.8144 3.09651 48.7844 7.24235 49.624 12.3591C49.9592 14.4023 49.6784 16.989 48.9112 18.9256C47.786 21.7657 45.5743 24.1549 42.7771 25.552C39.9528 26.9629 36.3497 27.2045 33.3123 26.1868C32.3375 25.8602 31.1726 25.3041 30.5081 24.8482C29.8529 24.3987 29.5994 24.329 29.2192 24.4939C29.032 24.5751 26.2213 27.3127 22.6391 30.9032C16.5363 37.0198 16.3858 37.1801 16.3858 37.564C16.3858 37.9397 16.4862 38.0586 18.6319 40.2242C20.9743 42.5883 20.9422 42.5437 20.8809 43.3403C20.8201 44.1338 19.7316 44.72 19.008 44.349C18.8854 44.2861 18.1611 43.6199 17.3986 42.8686C15.4969 40.995 15.7515 40.9693 13.4539 43.267C11.1526 45.5683 11.1761 45.2975 13.106 47.2599C14.5853 48.7639 14.7424 49.018 14.5986 49.6726C14.4366 50.41 13.6323 50.8969 12.9157 50.6914C12.667 50.6201 11.9531 49.9789 10.3593 48.3957C8.2634 46.3136 8.12792 46.1989 7.76273 46.1989C7.40019 46.1989 7.26574 46.3092 5.47521 48.075C3.44864 50.0738 3.24731 50.2058 2.5692 49.9821C1.86751 49.7505 1.45117 48.9949 1.62677 48.2718C1.67526 48.0726 5.5721 44.1074 14.452 35.2217C25.7349 23.9316 27.2078 22.4222 27.2078 22.1507C27.2078 21.9594 26.9899 21.479 26.63 20.8766C23.5449 15.713 24.3516 9.44452 28.631 5.32931C31.6256 2.44954 35.651 1.29036 39.8097 2.11008ZM35.7837 4.71082C33.5945 5.13451 31.8767 6.01773 30.432 7.46246C27.6089 10.2856 26.7906 14.4641 28.3415 18.138C29.0001 19.6978 30.3944 21.408 31.7702 22.3434C32.5854 22.8977 33.8846 23.4976 34.8359 23.759C35.4979 23.941 35.9118 23.9776 37.3151 23.9783C38.8546 23.9793 39.0771 23.9557 39.8977 23.7047C42.7279 22.8392 44.8787 20.9989 46.0962 18.4008C46.7418 17.0231 47.1606 14.8728 46.8858 14.3456C46.6894 13.9685 46.298 13.8106 45.9021 13.9486C45.482 14.095 45.3964 14.2761 45.27 15.2839C44.8011 19.0233 41.9584 21.8529 38.1927 22.3286C36.5236 22.5394 34.6897 22.1504 33.1803 21.2656C32.3175 20.7597 30.869 19.33 30.3875 18.5089C28.9663 16.0848 28.8677 13.1539 30.1236 10.6585C31.087 8.74415 33 7.17834 35.1201 6.56894C36.2848 6.23417 38.2412 6.23356 39.4022 6.56751C41.732 7.23765 43.45 8.70342 44.6093 11.0104C45.0229 11.8331 45.1821 12.0554 45.4113 12.1295C46.0951 12.3507 46.6572 11.7083 46.407 10.9915C45.7714 9.17111 44.3442 7.37262 42.6321 6.23448C40.977 5.13411 39.6914 4.74339 37.5703 4.69581C36.7281 4.67693 35.9241 4.68367 35.7837 4.71082Z" fill="#30B8C4"/>
</svg>
