<svg width="45" height="45" viewBox="0 0 45 45" fill="none" xmlns="http://www.w3.org/2000/svg">
<rect x="0.851562" y="0.479614" width="43.6353" height="43.6353" rx="21.8176" fill="#232C2E"/>
<path d="M31.3885 30.5683V30.5676H31.3928V23.9848C31.3928 20.7644 30.7188 18.2837 27.0584 18.2837C25.2987 18.2837 24.1179 19.2769 23.6358 20.2185H23.5849V18.5844H20.1143V30.5676H23.7281V24.6339C23.7281 23.0716 24.0161 21.5609 25.8972 21.5609C27.7506 21.5609 27.7782 23.3438 27.7782 24.7341V30.5683H31.3885Z" fill="white"/>
<path d="M14.2314 18.5848H17.8497V30.5675H14.2314V18.5848Z" fill="white"/>
<path d="M16.038 12.619C14.8811 12.619 13.9424 13.5847 13.9424 14.7747C13.9424 15.9647 14.8811 16.9506 16.038 16.9506C17.1949 16.9506 18.1336 15.9647 18.1336 14.7747C18.1329 13.5847 17.1941 12.619 16.038 12.619V12.619Z" fill="white"/>
</svg>
