<svg width="221" height="51" viewBox="0 0 221 51" fill="none" xmlns="http://www.w3.org/2000/svg">
<path d="M7.29652 38.8905L2.43217 41.7201V8.59835L7.29652 11.4219V8.60444L0 4.36914V45.9493L7.29652 41.7079V38.8905Z" fill="white"/>
<path d="M13.9844 12.4932V15.3106L19.2804 18.3897V31.9293L13.9844 35.0084V37.8198L21.7126 33.3289V16.984L13.9844 12.4932Z" fill="white"/>
<path d="M9.33203 51V0L29.7927 12.0061V38.282L9.33203 51ZM11.7642 4.24746V46.6248L27.3605 36.931V13.3996L11.7642 4.24746Z" fill="white"/>
<path d="M41.2218 34.5981C42.1372 34.5981 42.8363 34.823 43.3189 35.2727C43.8099 35.7224 44.0554 36.3929 44.0554 37.284V41.2817H42.9195V40.4072C42.7198 40.7154 42.4326 40.9528 42.0582 41.1193C41.692 41.2776 41.2551 41.3567 40.7474 41.3567C40.0068 41.3567 39.4118 41.1776 38.9624 40.8195C38.5213 40.4614 38.3008 39.9908 38.3008 39.4078C38.3008 38.8248 38.513 38.3584 38.9374 38.0086C39.3618 37.6505 40.0359 37.4714 40.9597 37.4714H42.8571V37.2341C42.8571 36.7177 42.7073 36.3221 42.4077 36.0473C42.1081 35.7724 41.667 35.635 41.0845 35.635C40.6934 35.635 40.3105 35.7016 39.9361 35.8349C39.5616 35.9598 39.2453 36.1305 38.9873 36.3471L38.488 35.4476C38.8292 35.1728 39.237 34.9646 39.7114 34.823C40.1857 34.6731 40.6892 34.5981 41.2218 34.5981ZM40.9472 40.4322C41.4049 40.4322 41.8002 40.3323 42.1331 40.1324C42.4659 39.9242 42.7073 39.6327 42.8571 39.2579V38.3334H41.0096C39.9943 38.3334 39.4867 38.6749 39.4867 39.3578C39.4867 39.691 39.6157 39.9533 39.8736 40.1449C40.1316 40.3364 40.4895 40.4322 40.9472 40.4322Z" fill="white"/>
<path d="M47.4215 35.7724C47.6296 35.3893 47.9375 35.0978 48.3453 34.8979C48.7531 34.698 49.2482 34.5981 49.8308 34.5981V35.7599C49.7642 35.7516 49.6726 35.7474 49.5561 35.7474C48.907 35.7474 48.3952 35.9432 48.0207 36.3346C47.6546 36.7177 47.4715 37.2674 47.4715 37.9836V41.2817H46.2731V34.6606H47.4215V35.7724Z" fill="white"/>
<path d="M54.1304 41.3567C53.4563 41.3567 52.8529 41.2109 52.3203 40.9194C51.796 40.6279 51.3841 40.2282 51.0845 39.7201C50.7849 39.2038 50.6351 38.6208 50.6351 37.9711C50.6351 37.3215 50.7849 36.7427 51.0845 36.2347C51.3841 35.7183 51.796 35.3185 52.3203 35.0353C52.8529 34.7438 53.4563 34.5981 54.1304 34.5981C54.7295 34.5981 55.2622 34.7189 55.7282 34.9604C56.2025 35.2019 56.5687 35.5517 56.8267 36.0098L55.9154 36.5969C55.7074 36.2805 55.4494 36.0431 55.1415 35.8849C54.8336 35.7266 54.4924 35.6475 54.1179 35.6475C53.6851 35.6475 53.294 35.7433 52.9445 35.9348C52.6033 36.1264 52.3328 36.4012 52.1331 36.7593C51.9417 37.1091 51.846 37.5131 51.846 37.9711C51.846 38.4375 51.9417 38.8498 52.1331 39.2079C52.3328 39.5577 52.6033 39.8284 52.9445 40.02C53.294 40.2115 53.6851 40.3073 54.1179 40.3073C54.4924 40.3073 54.8336 40.2282 55.1415 40.0699C55.4494 39.9117 55.7074 39.6743 55.9154 39.3578L56.8267 39.9325C56.5687 40.3906 56.2025 40.7445 55.7282 40.9944C55.2622 41.2359 54.7295 41.3567 54.1304 41.3567Z" fill="white"/>
<path d="M61.8255 34.5981C62.6661 34.5981 63.3318 34.8438 63.8228 35.3352C64.3221 35.8182 64.5718 36.5303 64.5718 37.4714V41.2817H63.3734V37.6089C63.3734 36.9676 63.2195 36.4845 62.9116 36.1597C62.6036 35.8349 62.1626 35.6725 61.5884 35.6725C60.9392 35.6725 60.4274 35.864 60.053 36.2471C59.6785 36.6219 59.4912 37.1633 59.4912 37.8712V41.2817H58.2929V32.0121H59.4912V35.5975C59.7409 35.281 60.0654 35.0353 60.4649 34.8604C60.8727 34.6855 61.3262 34.5981 61.8255 34.5981Z" fill="white"/>
<path d="M66.7896 34.6606H67.9879V41.2817H66.7896V34.6606ZM67.3887 33.3863C67.1557 33.3863 66.9602 33.3113 66.8021 33.1614C66.6523 33.0115 66.5774 32.8283 66.5774 32.6118C66.5774 32.3952 66.6523 32.212 66.8021 32.0621C66.9602 31.9038 67.1557 31.8247 67.3887 31.8247C67.6218 31.8247 67.8132 31.8997 67.963 32.0496C68.1211 32.1912 68.2001 32.3702 68.2001 32.5868C68.2001 32.8116 68.1211 33.0032 67.963 33.1614C67.8132 33.3113 67.6218 33.3863 67.3887 33.3863Z" fill="white"/>
<path d="M73.996 40.8945C73.8212 41.0444 73.6048 41.161 73.3468 41.2443C73.0889 41.3192 72.8226 41.3567 72.5479 41.3567C71.8822 41.3567 71.3662 41.1776 71 40.8195C70.6339 40.4614 70.4508 39.9492 70.4508 39.2829V35.6475H69.3273V34.6606H70.4508V33.2114H71.6492V34.6606H73.5466V35.6475H71.6492V39.2329C71.6492 39.591 71.7365 39.8659 71.9113 40.0574C72.0944 40.249 72.3524 40.3448 72.6852 40.3448C73.0514 40.3448 73.3635 40.2407 73.6215 40.0325L73.996 40.8945Z" fill="white"/>
<path d="M81.2047 38.0086C81.2047 38.1002 81.1964 38.221 81.1797 38.3709H75.812C75.8869 38.9539 76.1408 39.4245 76.5735 39.7826C77.0146 40.1324 77.5596 40.3073 78.2088 40.3073C78.9994 40.3073 79.636 40.0408 80.1187 39.5078L80.7803 40.2823C80.4807 40.6321 80.1062 40.8986 79.6568 41.0818C79.2157 41.2651 78.7206 41.3567 78.1713 41.3567C77.4723 41.3567 76.8523 41.2151 76.3114 40.9319C75.7704 40.6404 75.3502 40.2365 75.0506 39.7201C74.7593 39.2038 74.6137 38.6208 74.6137 37.9711C74.6137 37.3299 74.7551 36.751 75.0381 36.2347C75.3294 35.7183 75.7247 35.3185 76.224 35.0353C76.7316 34.7438 77.3017 34.5981 77.9341 34.5981C78.5666 34.5981 79.1283 34.7438 79.6193 35.0353C80.1187 35.3185 80.5056 35.7183 80.7803 36.2347C81.0632 36.751 81.2047 37.3423 81.2047 38.0086ZM77.9341 35.61C77.3599 35.61 76.8772 35.7849 76.4861 36.1347C76.1033 36.4845 75.8786 36.9426 75.812 37.5089H80.0562C79.9897 36.9509 79.7608 36.497 79.3697 36.1472C78.9869 35.7891 78.5084 35.61 77.9341 35.61Z" fill="white"/>
<path d="M85.7523 41.3567C85.0782 41.3567 84.4749 41.2109 83.9423 40.9194C83.418 40.6279 83.006 40.2282 82.7064 39.7201C82.4068 39.2038 82.2571 38.6208 82.2571 37.9711C82.2571 37.3215 82.4068 36.7427 82.7064 36.2347C83.006 35.7183 83.418 35.3185 83.9423 35.0353C84.4749 34.7438 85.0782 34.5981 85.7523 34.5981C86.3515 34.5981 86.8841 34.7189 87.3501 34.9604C87.8245 35.2019 88.1906 35.5517 88.4486 36.0098L87.5374 36.5969C87.3293 36.2805 87.0713 36.0431 86.7634 35.8849C86.4555 35.7266 86.1143 35.6475 85.7398 35.6475C85.3071 35.6475 84.9159 35.7433 84.5664 35.9348C84.2252 36.1264 83.9547 36.4012 83.755 36.7593C83.5636 37.1091 83.4679 37.5131 83.4679 37.9711C83.4679 38.4375 83.5636 38.8498 83.755 39.2079C83.9547 39.5577 84.2252 39.8284 84.5664 40.02C84.9159 40.2115 85.3071 40.3073 85.7398 40.3073C86.1143 40.3073 86.4555 40.2282 86.7634 40.0699C87.0713 39.9117 87.3293 39.6743 87.5374 39.3578L88.4486 39.9325C88.1906 40.3906 87.8245 40.7445 87.3501 40.9944C86.8841 41.2359 86.3515 41.3567 85.7523 41.3567Z" fill="white"/>
<path d="M93.8054 40.8945C93.6306 41.0444 93.4142 41.161 93.1562 41.2443C92.8983 41.3192 92.632 41.3567 92.3573 41.3567C91.6916 41.3567 91.1756 41.1776 90.8094 40.8195C90.4433 40.4614 90.2602 39.9492 90.2602 39.2829V35.6475H89.1367V34.6606H90.2602V33.2114H91.4586V34.6606H93.356V35.6475H91.4586V39.2329C91.4586 39.591 91.5459 39.8659 91.7207 40.0574C91.9038 40.249 92.1618 40.3448 92.4947 40.3448C92.8608 40.3448 93.1729 40.2407 93.4309 40.0325L93.8054 40.8945Z" fill="white"/>
<path d="M101.421 34.6606V41.2817H100.285V40.2823C100.043 40.6238 99.7231 40.8903 99.3236 41.0818C98.9325 41.2651 98.5039 41.3567 98.0379 41.3567C97.1557 41.3567 96.4609 41.1152 95.9532 40.6321C95.4456 40.1407 95.1918 39.4203 95.1918 38.4709V34.6606H96.3901V38.3334C96.3901 38.9747 96.5441 39.4619 96.852 39.7951C97.1599 40.1199 97.601 40.2823 98.1752 40.2823C98.8077 40.2823 99.307 40.0908 99.6731 39.7076C100.039 39.3245 100.222 38.7832 100.222 38.0836V34.6606H101.421Z" fill="white"/>
<path d="M104.851 35.7724C105.059 35.3893 105.367 35.0978 105.774 34.8979C106.182 34.698 106.677 34.5981 107.26 34.5981V35.7599C107.193 35.7516 107.102 35.7474 106.985 35.7474C106.336 35.7474 105.824 35.9432 105.45 36.3346C105.084 36.7177 104.9 37.2674 104.9 37.9836V41.2817H103.702V34.6606H104.851V35.7724Z" fill="white"/>
<path d="M111.134 34.5981C112.049 34.5981 112.748 34.823 113.231 35.2727C113.722 35.7224 113.967 36.3929 113.967 37.284V41.2817H112.831V40.4072C112.632 40.7154 112.345 40.9528 111.97 41.1193C111.604 41.2776 111.167 41.3567 110.659 41.3567C109.919 41.3567 109.324 41.1776 108.874 40.8195C108.433 40.4614 108.213 39.9908 108.213 39.4078C108.213 38.8248 108.425 38.3584 108.849 38.0086C109.274 37.6505 109.948 37.4714 110.872 37.4714H112.769V37.2341C112.769 36.7177 112.619 36.3221 112.32 36.0473C112.02 35.7724 111.579 35.635 110.996 35.635C110.605 35.635 110.223 35.7016 109.848 35.8349C109.474 35.9598 109.157 36.1305 108.899 36.3471L108.4 35.4476C108.741 35.1728 109.149 34.9646 109.623 34.823C110.098 34.6731 110.601 34.5981 111.134 34.5981ZM110.859 40.4322C111.317 40.4322 111.712 40.3323 112.045 40.1324C112.378 39.9242 112.619 39.6327 112.769 39.2579V38.3334H110.922C109.906 38.3334 109.399 38.6749 109.399 39.3578C109.399 39.691 109.528 39.9533 109.786 40.1449C110.044 40.3364 110.401 40.4322 110.859 40.4322Z" fill="white"/>
<path d="M116.185 32.0121H117.383V41.2817H116.185V32.0121Z" fill="white"/>
<path d="M129.353 34.6606V40.3822C129.353 41.5399 129.066 42.3936 128.491 42.9433C127.917 43.5013 127.06 43.7803 125.92 43.7803C125.296 43.7803 124.701 43.6928 124.135 43.5179C123.569 43.3514 123.111 43.1098 122.762 42.7934L123.336 41.8689C123.644 42.1354 124.023 42.3436 124.472 42.4935C124.93 42.6518 125.4 42.7309 125.883 42.7309C126.656 42.7309 127.227 42.5477 127.593 42.1812C127.967 41.8148 128.154 41.2567 128.154 40.5072V39.9825C127.871 40.3239 127.522 40.5821 127.106 40.757C126.698 40.9236 126.253 41.0069 125.77 41.0069C125.138 41.0069 124.563 40.8736 124.048 40.6071C123.54 40.3323 123.14 39.9533 122.849 39.4703C122.558 38.9789 122.412 38.4209 122.412 37.7962C122.412 37.1716 122.558 36.6178 122.849 36.1347C123.14 35.6433 123.54 35.2644 124.048 34.9979C124.563 34.7314 125.138 34.5981 125.77 34.5981C126.27 34.5981 126.731 34.6897 127.156 34.8729C127.589 35.0562 127.942 35.3268 128.217 35.685V34.6606H129.353ZM125.907 39.9575C126.34 39.9575 126.727 39.8659 127.068 39.6827C127.418 39.4994 127.688 39.2454 127.88 38.9206C128.08 38.5875 128.179 38.2127 128.179 37.7962C128.179 37.155 127.967 36.6386 127.543 36.2471C127.118 35.8474 126.573 35.6475 125.907 35.6475C125.233 35.6475 124.684 35.8474 124.26 36.2471C123.835 36.6386 123.623 37.155 123.623 37.7962C123.623 38.2127 123.719 38.5875 123.91 38.9206C124.11 39.2454 124.38 39.4994 124.722 39.6827C125.071 39.8659 125.466 39.9575 125.907 39.9575Z" fill="white"/>
<path d="M131.643 32.0121H132.841V41.2817H131.643V32.0121Z" fill="white"/>
<path d="M137.538 34.5981C138.454 34.5981 139.153 34.823 139.635 35.2727C140.126 35.7224 140.372 36.3929 140.372 37.284V41.2817H139.236V40.4072C139.036 40.7154 138.749 40.9528 138.375 41.1193C138.008 41.2776 137.571 41.3567 137.064 41.3567C136.323 41.3567 135.728 41.1776 135.279 40.8195C134.838 40.4614 134.617 39.9908 134.617 39.4078C134.617 38.8248 134.829 38.3584 135.254 38.0086C135.678 37.6505 136.352 37.4714 137.276 37.4714H139.173V37.2341C139.173 36.7177 139.024 36.3221 138.724 36.0473C138.424 35.7724 137.983 35.635 137.401 35.635C137.01 35.635 136.627 35.7016 136.252 35.8349C135.878 35.9598 135.562 36.1305 135.304 36.3471L134.804 35.4476C135.146 35.1728 135.553 34.9646 136.028 34.823C136.502 34.6731 137.006 34.5981 137.538 34.5981ZM137.264 40.4322C137.721 40.4322 138.117 40.3323 138.449 40.1324C138.782 39.9242 139.024 39.6327 139.173 39.2579V38.3334H137.326C136.311 38.3334 135.803 38.6749 135.803 39.3578C135.803 39.691 135.932 39.9533 136.19 40.1449C136.448 40.3364 136.806 40.4322 137.264 40.4322Z" fill="white"/>
<path d="M144.487 41.3567C143.946 41.3567 143.426 41.2859 142.927 41.1443C142.427 40.9944 142.036 40.807 141.753 40.5821L142.252 39.6327C142.544 39.8409 142.897 40.0075 143.314 40.1324C143.73 40.2573 144.15 40.3198 144.574 40.3198C145.623 40.3198 146.147 40.02 146.147 39.4203C146.147 39.2204 146.076 39.0622 145.935 38.9456C145.793 38.829 145.615 38.7457 145.398 38.6957C145.19 38.6374 144.891 38.575 144.499 38.5083C143.967 38.425 143.53 38.3293 143.189 38.221C142.856 38.1127 142.569 37.9295 142.327 37.6713C142.086 37.4131 141.965 37.0508 141.965 36.5844C141.965 35.9848 142.215 35.5059 142.714 35.1478C143.214 34.7813 143.884 34.5981 144.724 34.5981C145.165 34.5981 145.606 34.6522 146.047 34.7605C146.488 34.8688 146.85 35.0145 147.133 35.1978L146.622 36.1472C146.081 35.7974 145.444 35.6225 144.712 35.6225C144.204 35.6225 143.817 35.7058 143.551 35.8724C143.284 36.0389 143.151 36.2596 143.151 36.5345C143.151 36.751 143.226 36.9218 143.376 37.0467C143.526 37.1716 143.709 37.2632 143.925 37.3215C144.15 37.3798 144.462 37.4465 144.861 37.5214C145.394 37.613 145.823 37.713 146.147 37.8212C146.48 37.9212 146.763 38.0961 146.996 38.3459C147.229 38.5958 147.346 38.9456 147.346 39.3953C147.346 39.995 147.088 40.4739 146.572 40.832C146.064 41.1818 145.369 41.3567 144.487 41.3567Z" fill="white"/>
<path d="M150.741 41.3567C150.2 41.3567 149.68 41.2859 149.18 41.1443C148.681 40.9944 148.29 40.807 148.007 40.5821L148.506 39.6327C148.797 39.8409 149.151 40.0075 149.567 40.1324C149.983 40.2573 150.404 40.3198 150.828 40.3198C151.877 40.3198 152.401 40.02 152.401 39.4203C152.401 39.2204 152.33 39.0622 152.189 38.9456C152.047 38.829 151.868 38.7457 151.652 38.6957C151.444 38.6374 151.144 38.575 150.753 38.5083C150.22 38.425 149.784 38.3293 149.442 38.221C149.11 38.1127 148.822 37.9295 148.581 37.6713C148.34 37.4131 148.219 37.0508 148.219 36.5844C148.219 35.9848 148.469 35.5059 148.968 35.1478C149.467 34.7813 150.137 34.5981 150.978 34.5981C151.419 34.5981 151.86 34.6522 152.301 34.7605C152.742 34.8688 153.104 35.0145 153.387 35.1978L152.875 36.1472C152.334 35.7974 151.698 35.6225 150.965 35.6225C150.458 35.6225 150.071 35.7058 149.804 35.8724C149.538 36.0389 149.405 36.2596 149.405 36.5345C149.405 36.751 149.48 36.9218 149.63 37.0467C149.779 37.1716 149.963 37.2632 150.179 37.3215C150.404 37.3798 150.716 37.4465 151.115 37.5214C151.648 37.613 152.076 37.713 152.401 37.8212C152.734 37.9212 153.017 38.0961 153.25 38.3459C153.483 38.5958 153.599 38.9456 153.599 39.3953C153.599 39.995 153.341 40.4739 152.825 40.832C152.318 41.1818 151.623 41.3567 150.741 41.3567Z" fill="white"/>
<path d="M160.858 34.5981C161.774 34.5981 162.473 34.823 162.956 35.2727C163.447 35.7224 163.692 36.3929 163.692 37.284V41.2817H162.556V40.4072C162.356 40.7154 162.069 40.9528 161.695 41.1193C161.329 41.2776 160.892 41.3567 160.384 41.3567C159.643 41.3567 159.048 41.1776 158.599 40.8195C158.158 40.4614 157.937 39.9908 157.937 39.4078C157.937 38.8248 158.15 38.3584 158.574 38.0086C158.998 37.6505 159.673 37.4714 160.596 37.4714H162.494V37.2341C162.494 36.7177 162.344 36.3221 162.044 36.0473C161.745 35.7724 161.304 35.635 160.721 35.635C160.33 35.635 159.947 35.7016 159.573 35.8349C159.198 35.9598 158.882 36.1305 158.624 36.3471L158.125 35.4476C158.466 35.1728 158.874 34.9646 159.348 34.823C159.822 34.6731 160.326 34.5981 160.858 34.5981ZM160.584 40.4322C161.042 40.4322 161.437 40.3323 161.77 40.1324C162.103 39.9242 162.344 39.6327 162.494 39.2579V38.3334H160.646C159.631 38.3334 159.123 38.6749 159.123 39.3578C159.123 39.691 159.252 39.9533 159.51 40.1449C159.768 40.3364 160.126 40.4322 160.584 40.4322Z" fill="white"/>
<path d="M169.442 34.5981C170.283 34.5981 170.949 34.8438 171.44 35.3352C171.939 35.8182 172.189 36.5303 172.189 37.4714V41.2817H170.99V37.6089C170.99 36.9676 170.836 36.4845 170.528 36.1597C170.221 35.8349 169.779 35.6725 169.205 35.6725C168.556 35.6725 168.044 35.864 167.67 36.2471C167.295 36.6219 167.108 37.1633 167.108 37.8712V41.2817H165.91V34.6606H167.058V35.66C167.3 35.3185 167.624 35.0562 168.032 34.8729C168.448 34.6897 168.918 34.5981 169.442 34.5981Z" fill="white"/>
<path d="M180.685 32.0121V41.2817H179.536V40.2323C179.27 40.5988 178.933 40.8778 178.525 41.0694C178.117 41.2609 177.668 41.3567 177.177 41.3567C176.536 41.3567 175.962 41.2151 175.454 40.9319C174.947 40.6488 174.547 40.2532 174.256 39.7451C173.973 39.2288 173.831 38.6374 173.831 37.9711C173.831 37.3049 173.973 36.7177 174.256 36.2097C174.547 35.7016 174.947 35.306 175.454 35.0229C175.962 34.7397 176.536 34.5981 177.177 34.5981C177.651 34.5981 178.088 34.6897 178.488 34.8729C178.887 35.0478 179.22 35.3102 179.486 35.66V32.0121H180.685ZM177.277 40.3073C177.693 40.3073 178.071 40.2115 178.413 40.02C178.754 39.8201 179.02 39.5452 179.212 39.1954C179.403 38.8373 179.499 38.4292 179.499 37.9711C179.499 37.5131 179.403 37.1091 179.212 36.7593C179.02 36.4012 178.754 36.1264 178.413 35.9348C178.071 35.7433 177.693 35.6475 177.277 35.6475C176.852 35.6475 176.469 35.7433 176.128 35.9348C175.795 36.1264 175.529 36.4012 175.329 36.7593C175.138 37.1091 175.042 37.5131 175.042 37.9711C175.042 38.4292 175.138 38.8373 175.329 39.1954C175.529 39.5452 175.795 39.8201 176.128 40.02C176.469 40.2115 176.852 40.3073 177.277 40.3073Z" fill="white"/>
<path d="M194.581 34.5981C195.413 34.5981 196.07 34.8396 196.553 35.3227C197.044 35.8057 197.289 36.522 197.289 37.4714V41.2817H196.091V37.6089C196.091 36.9676 195.941 36.4845 195.642 36.1597C195.35 35.8349 194.93 35.6725 194.381 35.6725C193.773 35.6725 193.291 35.864 192.933 36.2471C192.575 36.6219 192.396 37.1633 192.396 37.8712V41.2817H191.198V37.6089C191.198 36.9676 191.048 36.4845 190.748 36.1597C190.457 35.8349 190.037 35.6725 189.487 35.6725C188.88 35.6725 188.397 35.864 188.039 36.2471C187.682 36.6219 187.503 37.1633 187.503 37.8712V41.2817H186.304V34.6606H187.453V35.6475C187.694 35.306 188.01 35.0478 188.401 34.8729C188.793 34.6897 189.238 34.5981 189.737 34.5981C190.253 34.5981 190.711 34.7022 191.11 34.9104C191.51 35.1186 191.818 35.4226 192.034 35.8224C192.284 35.4393 192.629 35.1395 193.07 34.9229C193.519 34.7064 194.023 34.5981 194.581 34.5981Z" fill="white"/>
<path d="M205.51 38.0086C205.51 38.1002 205.502 38.221 205.485 38.3709H200.118C200.193 38.9539 200.446 39.4245 200.879 39.7826C201.32 40.1324 201.865 40.3073 202.514 40.3073C203.305 40.3073 203.942 40.0408 204.424 39.5078L205.086 40.2823C204.786 40.6321 204.412 40.8986 203.962 41.0818C203.521 41.2651 203.026 41.3567 202.477 41.3567C201.778 41.3567 201.158 41.2151 200.617 40.9319C200.076 40.6404 199.656 40.2365 199.356 39.7201C199.065 39.2038 198.919 38.6208 198.919 37.9711C198.919 37.3299 199.061 36.751 199.344 36.2347C199.635 35.7183 200.03 35.3185 200.53 35.0353C201.037 34.7438 201.607 34.5981 202.24 34.5981C202.872 34.5981 203.434 34.7438 203.925 35.0353C204.424 35.3185 204.811 35.7183 205.086 36.2347C205.369 36.751 205.51 37.3423 205.51 38.0086ZM202.24 35.61C201.665 35.61 201.183 35.7849 200.792 36.1347C200.409 36.4845 200.184 36.9426 200.118 37.5089H204.362C204.295 36.9509 204.066 36.497 203.675 36.1472C203.292 35.7891 202.814 35.61 202.24 35.61Z" fill="white"/>
<path d="M210.894 40.8945C210.719 41.0444 210.503 41.161 210.245 41.2443C209.987 41.3192 209.721 41.3567 209.446 41.3567C208.78 41.3567 208.264 41.1776 207.898 40.8195C207.532 40.4614 207.349 39.9492 207.349 39.2829V35.6475H206.226V34.6606H207.349V33.2114H208.547V34.6606H210.445V35.6475H208.547V39.2329C208.547 39.591 208.635 39.8659 208.81 40.0574C208.993 40.249 209.251 40.3448 209.584 40.3448C209.95 40.3448 210.262 40.2407 210.52 40.0325L210.894 40.8945Z" fill="white"/>
<path d="M214.752 34.5981C215.668 34.5981 216.367 34.823 216.849 35.2727C217.34 35.7224 217.586 36.3929 217.586 37.284V41.2817H216.45V40.4072C216.25 40.7154 215.963 40.9528 215.589 41.1193C215.222 41.2776 214.786 41.3567 214.278 41.3567C213.537 41.3567 212.942 41.1776 212.493 40.8195C212.052 40.4614 211.831 39.9908 211.831 39.4078C211.831 38.8248 212.043 38.3584 212.468 38.0086C212.892 37.6505 213.566 37.4714 214.49 37.4714H216.387V37.2341C216.387 36.7177 216.238 36.3221 215.938 36.0473C215.639 35.7724 215.197 35.635 214.615 35.635C214.224 35.635 213.841 35.7016 213.466 35.8349C213.092 35.9598 212.776 36.1305 212.518 36.3471L212.018 35.4476C212.36 35.1728 212.767 34.9646 213.242 34.823C213.716 34.6731 214.22 34.5981 214.752 34.5981ZM214.478 40.4322C214.935 40.4322 215.331 40.3323 215.663 40.1324C215.996 39.9242 216.238 39.6327 216.387 39.2579V38.3334H214.54C213.525 38.3334 213.017 38.6749 213.017 39.3578C213.017 39.691 213.146 39.9533 213.404 40.1449C213.662 40.3364 214.02 40.4322 214.478 40.4322Z" fill="white"/>
<path d="M219.804 32.0121H221.002V41.2817H219.804V32.0121Z" fill="white"/>
<path d="M41.6942 24.6894H38.3008L44.2817 9.36443H47.7388L53.6562 24.6894H50.2415L48.9902 21.2084H42.9456L41.6942 24.6894ZM44.0909 18.067L43.9 18.6188H48.0358L47.8449 18.067C46.7137 15.0671 46.1057 13.3195 46.0209 12.8242H45.9573C45.9148 13.0931 45.2927 14.8407 44.0909 18.067Z" fill="white"/>
<path d="M58.2093 24.6894H55.0916V9.36443H61.518C63.4409 9.36443 64.8902 9.68989 65.8658 10.3408C66.9828 11.0908 67.5413 12.1521 67.5413 13.5247C67.5413 14.5011 67.2585 15.3501 66.693 16.0718C66.1274 16.7934 65.3356 17.3241 64.3176 17.6637C65.2083 17.9325 65.8305 18.35 66.184 18.916C66.5374 19.482 66.8839 20.3594 67.2232 21.548C67.5625 22.7366 67.9797 23.7838 68.4745 24.6894H64.9538C64.671 24.1658 64.4377 23.5786 64.2539 22.9277C64.0701 22.2626 63.9287 21.7249 63.8297 21.3145C63.7308 20.89 63.5682 20.4796 63.3419 20.0834C63.1157 19.6872 62.7622 19.3971 62.2815 19.2132C61.8007 19.0151 61.1574 18.916 60.3515 18.916H58.2093V24.6894ZM60.9665 12.1662H58.2093V16.1779H60.9665C62.0835 16.1779 62.9036 16.0222 63.4268 15.7109C64.0065 15.3289 64.2963 14.7982 64.2963 14.119C64.2963 13.4539 64.0418 12.9586 63.5328 12.6332C63.0521 12.3219 62.1966 12.1662 60.9665 12.1662Z" fill="white"/>
<path d="M77.2316 24.6894H74.1138V12.1662H69.0661V9.36443H82.2581V12.1662H77.2316V24.6894Z" fill="white"/>
<path d="M94.9692 24.6894H84.0677V9.36443H87.1854V21.8876H94.9692V24.6894Z" fill="white"/>
<path d="M108.806 11.1898C110.262 12.6898 110.99 14.6072 110.99 16.942C110.99 19.2768 110.262 21.1942 108.806 22.6942C107.349 24.1941 105.49 24.9441 103.228 24.9441C100.965 24.9441 99.106 24.1941 97.6496 22.6942C96.1933 21.1942 95.4651 19.2768 95.4651 16.942C95.4651 14.6072 96.1933 12.6898 97.6496 11.1898C99.106 9.68989 100.965 8.93991 103.228 8.93991C105.49 8.93991 107.349 9.68989 108.806 11.1898ZM99.9402 13.2275C99.106 14.1756 98.6889 15.4138 98.6889 16.942C98.6889 18.4703 99.106 19.7084 99.9402 20.6565C100.774 21.6046 101.87 22.0786 103.228 22.0786C104.585 22.0786 105.681 21.6046 106.515 20.6565C107.349 19.7084 107.766 18.4703 107.766 16.942C107.766 15.4138 107.349 14.1756 106.515 13.2275C105.681 12.2653 104.585 11.7842 103.228 11.7842C101.87 11.7842 100.774 12.2653 99.9402 13.2275Z" fill="white"/>
<path d="M125.976 11.1898C127.432 12.6898 128.16 14.6072 128.16 16.942C128.16 19.2768 127.432 21.1942 125.976 22.6942C124.52 24.1941 122.66 24.9441 120.398 24.9441C118.136 24.9441 116.276 24.1941 114.82 22.6942C113.364 21.1942 112.635 19.2768 112.635 16.942C112.635 14.6072 113.364 12.6898 114.82 11.1898C116.276 9.68989 118.136 8.93991 120.398 8.93991C122.66 8.93991 124.52 9.68989 125.976 11.1898ZM117.11 13.2275C116.276 14.1756 115.859 15.4138 115.859 16.942C115.859 18.4703 116.276 19.7084 117.11 20.6565C117.945 21.6046 119.041 22.0786 120.398 22.0786C121.755 22.0786 122.851 21.6046 123.685 20.6565C124.52 19.7084 124.937 18.4703 124.937 16.942C124.937 15.4138 124.52 14.1756 123.685 13.2275C122.851 12.2653 121.755 11.7842 120.398 11.7842C119.041 11.7842 117.945 12.2653 117.11 13.2275Z" fill="white"/>
<path d="M133.56 24.6894H130.442V9.36443H133.56V16.5175L139.795 9.36443H143.676L138.12 15.6048L144.079 24.6894H140.219L135.956 18.0245L133.56 20.7202V24.6894Z" fill="white"/>
<path d="M164.306 24.6894H161.591V23.0126C160.375 24.3003 158.784 24.9441 156.819 24.9441C154.698 24.9441 152.952 24.2012 151.58 22.7154C150.223 21.2155 149.544 19.3122 149.544 17.0057C149.544 14.6426 150.279 12.711 151.75 11.2111C153.22 9.69696 155.115 8.93991 157.434 8.93991C158.989 8.93991 160.361 9.30075 161.549 10.0224C162.736 10.7299 163.613 11.7134 164.178 12.9728L161.315 14.6284C161.075 13.7369 160.608 13.0436 159.915 12.5483C159.237 12.0389 158.395 11.7842 157.392 11.7842C156.006 11.7842 154.889 12.2582 154.04 13.2063C153.192 14.1402 152.768 15.3642 152.768 16.8783C152.768 18.4632 153.185 19.7509 154.019 20.7414C154.854 21.7178 155.956 22.206 157.328 22.206C158.431 22.206 159.364 21.8876 160.128 21.2508C160.891 20.5999 161.365 19.7438 161.549 18.6825H157.01V15.9656H164.306V24.6894Z" fill="white"/>
<path d="M177.714 24.6894H166.812V9.36443H169.93V21.8876H177.714V24.6894Z" fill="white"/>
<path d="M182.142 24.6894H178.749L184.73 9.36443H188.187L194.104 24.6894H190.69L189.438 21.2084H183.394L182.142 24.6894ZM184.539 18.067L184.348 18.6188H188.484L188.293 18.067C187.162 15.0671 186.554 13.3195 186.469 12.8242H186.405C186.363 13.0931 185.741 14.8407 184.539 18.067Z" fill="white"/>
<path d="M207.228 20.2532C207.228 21.6824 206.677 22.8215 205.574 23.6706C204.471 24.5196 203.015 24.9441 201.205 24.9441C199.423 24.9441 197.911 24.5267 196.666 23.6918C195.422 22.8428 194.701 21.739 194.503 20.3806L197.536 19.0221C197.592 19.9561 197.96 20.7131 198.639 21.2933C199.332 21.8593 200.201 22.1423 201.247 22.1423C202.053 22.1423 202.697 21.9796 203.178 21.6541C203.658 21.3287 203.899 20.9183 203.899 20.423C203.899 20.14 203.828 19.8924 203.687 19.6801C203.545 19.4537 203.262 19.2344 202.838 19.0221C202.414 18.8099 202.096 18.6613 201.884 18.5764C201.672 18.4915 201.219 18.3358 200.526 18.1094C200.371 18.0528 200.251 18.0104 200.166 17.9821C199.586 17.784 199.098 17.6142 198.702 17.4727C198.321 17.317 197.882 17.1047 197.387 16.8359C196.907 16.5529 196.518 16.2628 196.221 15.9656C195.924 15.6543 195.669 15.2723 195.457 14.8194C195.259 14.3525 195.16 13.836 195.16 13.27C195.16 11.8974 195.677 10.829 196.709 10.0649C197.755 9.2866 199.134 8.89746 200.844 8.89746C202.287 8.89746 203.566 9.2017 204.683 9.81017C205.814 10.4045 206.613 11.3101 207.08 12.5271L204.217 13.9704C204.047 13.2063 203.651 12.6261 203.029 12.2299C202.407 11.8195 201.672 11.6144 200.823 11.6144C200.116 11.6144 199.537 11.7559 199.084 12.0389C198.632 12.3077 198.405 12.6615 198.405 13.1002C198.405 13.4256 198.568 13.7228 198.893 13.9916C199.233 14.2605 199.572 14.4657 199.911 14.6072C200.265 14.7345 200.823 14.9256 201.587 15.1803C201.629 15.1944 201.665 15.2086 201.693 15.2227C201.721 15.2227 201.757 15.2298 201.799 15.244C201.841 15.2581 201.877 15.2723 201.905 15.2864C202.513 15.4845 203.015 15.6614 203.411 15.817C203.821 15.9586 204.287 16.1779 204.811 16.475C205.348 16.7581 205.772 17.0623 206.083 17.3877C206.394 17.7132 206.663 18.1236 206.889 18.6188C207.115 19.1141 207.228 19.6589 207.228 20.2532Z" fill="white"/>
<path d="M221.002 20.2532C221.002 21.6824 220.45 22.8215 219.348 23.6706C218.245 24.5196 216.788 24.9441 214.979 24.9441C213.197 24.9441 211.684 24.5267 210.44 23.6918C209.196 22.8428 208.474 21.739 208.276 20.3806L211.309 19.0221C211.366 19.9561 211.734 20.7131 212.412 21.2933C213.105 21.8593 213.975 22.1423 215.021 22.1423C215.827 22.1423 216.47 21.9796 216.951 21.6541C217.432 21.3287 217.672 20.9183 217.672 20.423C217.672 20.14 217.601 19.8924 217.46 19.6801C217.319 19.4537 217.036 19.2344 216.612 19.0221C216.187 18.8099 215.869 18.6613 215.657 18.5764C215.445 18.4915 214.993 18.3358 214.3 18.1094C214.144 18.0528 214.024 18.0104 213.939 17.9821C213.36 17.784 212.872 17.6142 212.476 17.4727C212.094 17.317 211.656 17.1047 211.161 16.8359C210.68 16.5529 210.291 16.2628 209.994 15.9656C209.697 15.6543 209.443 15.2723 209.231 14.8194C209.033 14.3525 208.934 13.836 208.934 13.27C208.934 11.8974 209.45 10.829 210.482 10.0649C211.529 9.2866 212.907 8.89746 214.618 8.89746C216.06 8.89746 217.34 9.2017 218.457 9.81017C219.588 10.4045 220.387 11.3101 220.853 12.5271L217.99 13.9704C217.821 13.2063 217.425 12.6261 216.803 12.2299C216.18 11.8195 215.445 11.6144 214.597 11.6144C213.89 11.6144 213.31 11.7559 212.858 12.0389C212.405 12.3077 212.179 12.6615 212.179 13.1002C212.179 13.4256 212.342 13.7228 212.667 13.9916C213.006 14.2605 213.345 14.4657 213.685 14.6072C214.038 14.7345 214.597 14.9256 215.36 15.1803C215.403 15.1944 215.438 15.2086 215.466 15.2227C215.495 15.2227 215.53 15.2298 215.572 15.244C215.615 15.2581 215.65 15.2723 215.678 15.2864C216.286 15.4845 216.788 15.6614 217.184 15.817C217.594 15.9586 218.061 16.1779 218.584 16.475C219.121 16.7581 219.546 17.0623 219.857 17.3877C220.168 17.7132 220.436 18.1236 220.663 18.6188C220.889 19.1141 221.002 19.6589 221.002 20.2532Z" fill="white"/>
</svg>
