<svg width="51" height="59" viewBox="0 0 51 59" fill="none" xmlns="http://www.w3.org/2000/svg">
<path fill-rule="evenodd" clip-rule="evenodd" d="M30.1098 0.145057C27.1153 0.640297 24.1216 1.85901 21.3485 3.71179L20.0919 4.55133L19.3617 3.7772C18.2468 2.59541 17.0528 2.04883 15.5799 2.04597C15.1982 2.04517 14.6064 2.12567 14.2649 2.22481C12.8555 2.63372 12.795 2.69272 6.64771 9.64872C0.661264 16.4228 0.364532 16.8052 0.0982159 18.0877C0.011083 18.5078 -0.0157888 23.5571 0.0085673 34.9791C0.0412707 50.3041 0.0555642 51.3117 0.249955 51.9532C1.27211 55.3276 3.77415 57.6649 7.09972 58.3518C8.34108 58.6082 22.703 58.622 24.0303 58.368C27.5433 57.6959 30.298 54.9998 31.014 51.5331C31.1756 50.7511 31.1957 48.8279 31.1931 34.4384L31.1901 18.2248L30.9259 17.4815C30.7806 17.0727 30.6253 16.6569 30.5809 16.5574C30.5203 16.4214 30.675 16.2688 31.2037 15.9424C31.5906 15.7035 32.3169 15.1995 32.8177 14.8222C33.3184 14.4448 33.7687 14.1812 33.8182 14.2366C34.11 14.5617 48.1898 39.1298 48.3557 39.6033C48.8906 41.1299 48.904 42.5798 48.3972 44.0981C47.956 45.4198 47.1633 46.5493 46.1349 47.3215C45.4535 47.8332 34.1587 54.3766 32.9717 54.9473C32.5333 55.1582 32.0807 55.3306 31.966 55.3306C31.6049 55.3306 31.1961 55.8468 31.1961 56.3026C31.1961 56.7851 31.6115 57.2749 32.02 57.2738C32.4541 57.2728 33.1529 57.0447 33.9671 56.6382C35.1283 56.0582 46.6115 49.414 47.2231 48.9682C50.3819 46.6652 51.6007 42.0694 50.0087 38.4643C49.8699 38.1499 46.5064 32.2667 42.5345 25.3905C38.5624 18.5144 35.3126 12.8357 35.3126 12.7712C35.3126 12.7066 35.5766 12.3649 35.8994 12.0117C36.7733 11.0557 37.5659 9.88862 38.1259 8.73394C38.8234 7.29545 39.0056 6.48998 38.9532 5.07504C38.9154 4.05117 38.8681 3.8322 38.5426 3.17092C37.8591 1.78274 36.4743 0.739894 34.6837 0.265351C33.7512 0.0181314 31.2712 -0.0470468 30.1098 0.145057ZM33.8619 2.09411C34.9717 2.30646 35.7412 2.7045 36.326 3.36875C36.8672 3.98371 37.0263 4.45025 37.0271 5.42563C37.0284 6.69992 36.4238 8.15968 35.2294 9.76684C34.2557 11.077 34.2912 11.0619 33.7825 10.3805C33.1021 9.46908 32.2732 9.01672 29.7319 8.16963C28.4931 7.75672 27.3925 7.41894 27.286 7.41894C26.9776 7.41894 26.5139 7.90057 26.4372 8.30056C26.312 8.95314 26.7384 9.23101 29.0246 9.98616C30.1247 10.3496 31.2416 10.7708 31.5069 10.9223C31.953 11.1771 32.6826 12.0477 32.6826 12.3253C32.6826 12.5363 30.463 14.1754 29.5195 14.6609L29.158 14.847L25.3172 10.4889C23.2049 8.09199 21.4765 6.09777 21.4765 6.05717C21.4765 5.9546 23.436 4.66728 24.3352 4.17913C27.5022 2.45991 31.3604 1.61545 33.8619 2.09411ZM17.0613 4.37512C17.4323 4.5925 18.923 6.20285 22.2895 10.0226C24.8798 12.9616 27.0734 15.4527 27.1643 15.5584C27.3132 15.7316 27.2859 15.773 26.8901 15.9737C25.6812 16.5872 23.0569 17.193 21.2193 17.283L20.4474 17.3209V16.54C20.4474 14.1688 18.6618 12.1002 16.3408 11.7828C15.4774 11.6648 14.7846 11.7732 14.4844 12.0733C14.151 12.4068 13.9775 13.6557 14.1289 14.6335C14.3818 16.2681 15.3267 17.6081 16.7678 18.3762C17.1708 18.5909 17.4464 18.8066 17.4044 18.8744C17.2945 19.0523 16.4554 19.3918 15.9063 19.4806C14.3586 19.7308 12.6718 18.236 12.6718 16.6144C12.6718 15.7508 11.6211 15.32 11.0086 15.9327C10.6731 16.2681 10.6443 16.7694 10.9032 17.7634C11.1561 18.7347 11.6009 19.4786 12.3239 20.1399C14.3173 21.9634 17.2307 21.8662 19.0936 19.9141L19.7237 19.2539L20.9758 19.2348C23.1122 19.2022 25.5096 18.6774 27.6544 17.7729C28.1835 17.5497 28.6501 17.3672 28.6914 17.3672C28.7328 17.3672 28.8759 17.6212 29.0094 17.9315L29.2522 18.4959V34.5063C29.2522 45.8221 29.2149 50.6944 29.1249 51.1227C28.9437 51.9857 28.3047 53.3183 27.7422 54.0061C26.7458 55.2245 25.3182 56.102 23.8207 56.4165C22.6428 56.6637 8.53719 56.6644 7.3546 56.4171C6.13714 56.1626 4.97617 55.5237 4.02995 54.5875C3.12786 53.6949 2.64337 52.918 2.24704 51.7287L1.98026 50.9282V34.6337V18.3391L2.22485 17.8246C2.47264 17.3035 13.0047 5.26086 13.7524 4.64395C14.3416 4.15752 14.9117 3.98519 15.7792 4.03082C16.3488 4.06089 16.6741 4.14825 17.0613 4.37512ZM16.8345 13.9325C17.7188 14.2688 18.546 15.5643 18.4809 16.5113L18.4463 17.0144L17.9318 16.7844C16.8953 16.3209 16.1797 15.3763 16.0343 14.2797L15.954 13.6748L16.2518 13.7495C16.4155 13.7906 16.6777 13.873 16.8345 13.9325ZM12.2601 24.5057C11.6798 24.7583 11.5497 25.5944 12.0216 26.0377C12.2809 26.2813 12.3545 26.2863 15.6235 26.2863C18.7941 26.2863 18.9722 26.275 19.1867 26.0605C19.6678 25.5794 19.5544 24.7905 18.9609 24.4904C18.5404 24.2777 12.7534 24.2909 12.2601 24.5057ZM36.3417 30.8023C35.304 31.3994 34.3907 31.9751 34.3121 32.0819C34.2335 32.1887 34.1691 32.4684 34.1691 32.7034C34.1691 33.1979 34.574 33.6046 35.0664 33.6046C35.4307 33.6046 39.1565 31.499 39.3145 31.2038C39.4694 30.9145 39.4531 30.3864 39.2825 30.1642C39.1023 29.9295 38.6998 29.7167 38.4361 29.7168C38.3219 29.7168 37.3794 30.2053 36.3417 30.8023ZM14.9473 30.5034C14.7256 30.683 14.6745 30.8506 14.6365 31.5217L14.5911 32.325L14.0921 32.5156C13.4205 32.7721 12.5663 33.5617 12.1529 34.308C11.8408 34.8714 11.8142 35.0095 11.8142 36.063C11.8142 37.045 11.8537 37.2868 12.0941 37.7753C12.684 38.9742 13.9003 39.8161 15.2456 39.9569C16.2542 40.0623 16.6233 40.206 17.0061 40.642C17.7138 41.4481 17.7295 42.4101 17.0479 43.2202C16.4797 43.8954 15.6311 44.0663 14.7759 43.678C14.1862 43.4102 13.8439 42.9349 13.702 42.1868C13.554 41.4056 13.4278 41.1983 13.013 41.0536C12.6096 40.913 12.2565 41.015 11.9435 41.3625C11.7697 41.5555 11.7385 41.7343 11.776 42.319C11.8609 43.6403 12.6441 44.7862 13.8772 45.3932L14.6157 45.7569V46.436C14.6157 47.0342 14.6555 47.155 14.9499 47.4494C15.345 47.8445 15.8329 47.8885 16.2324 47.5653C16.4586 47.3823 16.5117 47.2123 16.5596 46.5166L16.6168 45.6862L17.1313 45.5156C17.4781 45.4007 17.8757 45.1154 18.3512 44.6404C18.9637 44.0285 19.0899 43.8261 19.3095 43.1027C20.0651 40.6151 18.4893 38.3568 15.7865 38.0537C14.3573 37.8934 13.7009 37.2577 13.7009 36.0341C13.7009 34.9995 14.5249 34.1763 15.5604 34.1763C16.6193 34.1763 17.402 34.8742 17.5494 35.9498C17.5983 36.3064 17.7219 36.6069 17.8882 36.7731C18.3937 37.2787 19.3066 37.0051 19.4849 36.2948C19.5744 35.9385 19.3602 34.9398 19.0619 34.3216C18.7323 33.6387 17.8975 32.8591 17.1751 32.5598L16.5596 32.3046V31.5979C16.5596 30.6759 16.2903 30.2885 15.6492 30.2885C15.3924 30.2885 15.1035 30.377 14.9473 30.5034ZM37.1052 35.9916C35.1667 37.1137 33.497 38.1156 33.3946 38.2178C33.1147 38.4977 33.1584 39.1479 33.4801 39.4904C33.9721 40.014 34.1914 39.9296 37.9426 37.7732C39.8608 36.6706 41.5203 35.6617 41.6303 35.5314C42.1068 34.9671 41.6669 33.9452 40.9494 33.9495C40.7455 33.9507 39.3542 34.6897 37.1052 35.9916ZM43.3169 39.1805C41.5954 40.0809 34.9622 43.993 34.7123 44.2555C34.537 44.4394 34.3978 44.7151 34.3978 44.8784C34.3978 45.2638 34.9751 45.8398 35.3613 45.8398C35.6829 45.8398 44.1112 41.0463 44.5462 40.616C45.0392 40.1282 44.7202 39.2004 44.003 39.0365C43.8322 38.9974 43.556 39.0554 43.3169 39.1805ZM12.2716 51.8036C11.6872 52.1232 11.558 52.9312 12.0216 53.3668C12.2808 53.6102 12.355 53.6154 15.602 53.6154C18.7748 53.6154 18.9285 53.6054 19.1666 53.3835C19.6694 52.9151 19.5656 52.1253 18.9609 51.8195C18.5856 51.6296 12.6155 51.6155 12.2716 51.8036Z" fill="#30B8C4"/>
</svg>
