<svg width="48" height="66" viewBox="0 0 48 66" fill="none" xmlns="http://www.w3.org/2000/svg">
<path fill-rule="evenodd" clip-rule="evenodd" d="M12.6078 0.957514C12.3981 1.05271 10.5015 2.86672 8.39322 4.98855C5.19211 8.21012 4.5372 8.93036 4.42218 9.35485C4.32762 9.70398 4.28428 13.8926 4.2839 22.7246L4.28314 35.5861L2.52429 37.1072C0.471726 38.8821 0.150433 39.2359 0.0359215 39.8464C-0.106551 40.6057 0.16149 41.2436 1.07911 42.3288C5.11103 47.0974 5.3159 47.2923 6.29363 47.2923C6.74787 47.2923 6.86187 47.3582 7.26908 47.855L7.73005 48.4176L7.53165 49.0854C7.28344 49.9214 7.28319 50.2545 7.53026 51.0863C7.79067 51.9634 8.57192 52.7772 9.45001 53.0863C10.0626 53.3018 10.1104 53.3496 10.1863 53.8242C10.3769 55.0163 11.3508 56.156 12.4267 56.4456C12.8704 56.5651 12.9155 56.6214 13.0426 57.2141C13.1181 57.5659 13.2618 58.0125 13.3621 58.2065C13.614 58.6935 14.4265 59.4035 14.9599 59.6027C15.7148 59.8846 15.7831 59.9501 15.8531 60.46C16.0867 62.1585 17.9544 63.467 19.6056 63.0892L20.1799 62.9578L21.1388 64.079C22.3313 65.4735 22.8899 65.7865 24.1733 65.7799C25.1607 65.7748 25.6747 65.5725 26.3769 64.9123C26.8537 64.464 27.2871 63.7016 27.2871 63.3112C27.2871 63.1246 27.37 63.0519 27.5822 63.0519C28.087 63.0519 28.9959 62.6811 29.4909 62.273C29.9406 61.9024 30.5915 60.8401 30.5915 60.477C30.5915 60.3751 30.8678 60.2504 31.2893 60.162C32.5093 59.9061 33.5603 58.9356 33.8375 57.8093C33.8848 57.617 33.9927 57.4598 34.0773 57.4598C34.5703 57.4598 35.6275 57.0062 36.0733 56.6035C36.8471 55.9044 37.1259 55.2748 37.1319 54.2144C37.1358 53.4932 37.0729 53.1967 36.8063 52.6824L36.4758 52.0446L38.1846 50.5899C39.8445 49.1769 39.9089 49.1363 40.4339 49.1767C40.7312 49.1996 41.1834 49.1311 41.4387 49.0244C42.0246 48.7796 47.0503 44.4791 47.3777 43.9424C47.7468 43.3375 47.8084 42.7811 47.5742 42.1713C47.4499 41.8478 46.5926 40.7334 45.4032 39.349L43.4377 37.0613L43.4011 19.713C43.3601 0.305397 43.4444 1.95177 42.4531 1.19569L41.9862 0.839571L27.4877 0.811865C15.4758 0.788988 12.9236 0.814026 12.6078 0.957514ZM41.2361 18.6753C41.2544 27.5958 41.2205 34.3319 41.1572 34.3078C41.0961 34.2844 39.9477 32.9784 38.6053 31.4056C37.2628 29.8328 35.9926 28.4228 35.7824 28.2722C35.5722 28.1216 35.2057 27.962 34.9678 27.9173C34.0697 27.7489 33.6738 27.9895 30.8001 30.4501C29.2933 31.7404 27.9651 32.9415 27.8486 33.1195C27.578 33.5324 27.4724 34.4566 27.6405 34.9391L27.7709 35.313L27.1159 35.3916C26.7557 35.435 26.1711 35.471 25.8169 35.4715C24.8674 35.4731 23.9992 35.7804 23.2947 36.3644C22.9224 36.673 22.5931 36.8523 22.479 36.8086C22.3739 36.7682 21.8067 36.6145 21.2188 36.467C20.2354 36.2204 20.1569 36.1775 20.2396 35.931C20.4666 35.2554 20.4455 34.4878 20.1862 33.996C19.8053 33.2736 15.6055 28.4728 15.096 28.1773C14.5643 27.869 13.6454 27.8495 13.1162 28.1352C12.9064 28.2485 11.3666 29.5167 9.69415 30.9537C8.02173 32.3906 6.60616 33.5662 6.54858 33.5662C6.49088 33.5662 6.44373 28.3903 6.44373 22.0642V10.5622H9.27246C10.8282 10.5622 12.2965 10.5062 12.5355 10.4377C13.0238 10.2976 13.621 9.781 13.89 9.26588C14.0296 8.99873 14.0694 8.25892 14.0694 5.92904V2.93547L27.6366 2.96776L41.2039 3.00016L41.2361 18.6753ZM11.9088 6.49524V8.40165H9.97223H8.03558L9.93881 6.49524C10.9856 5.44672 11.857 4.58884 11.8753 4.58884C11.8938 4.58884 11.9088 5.44672 11.9088 6.49524ZM14.7944 11.6653C14.6689 11.6992 13.954 12.5416 13.2055 13.5374L11.845 15.3477L11.4638 15.1163C10.9238 14.7884 10.5475 14.8271 10.1197 15.2549C9.5363 15.8383 9.61637 16.1697 10.5823 17.1702C11.4571 18.0763 11.7959 18.2382 12.3377 18.0089C12.5344 17.9257 13.3781 16.9148 14.4477 15.4806C15.8901 13.5469 16.2299 13.0118 16.2299 12.675C16.2299 12.0125 15.4749 11.4815 14.7944 11.6653ZM20.2152 11.7051C19.5237 11.984 19.3261 12.9072 19.8464 13.4276C20.1247 13.706 20.2661 13.7396 21.1586 13.7396C22.04 13.7396 22.1919 13.7046 22.4354 13.4455C22.7303 13.1316 22.802 12.4934 22.5873 12.0923C22.3496 11.6484 20.9301 11.4166 20.2152 11.7051ZM25.5586 11.7584C24.9135 12.0426 24.7692 12.9707 25.2935 13.4633C25.5868 13.7387 25.6062 13.7396 31.4436 13.7396C37.9937 13.7396 37.7674 13.771 37.9163 12.8404C37.9749 12.4744 37.9269 12.3137 37.6694 12.0143L37.3496 11.6425L31.6511 11.6137C27.0639 11.5906 25.8757 11.6188 25.5586 11.7584ZM20.3313 15.9895C19.9483 16.0635 19.5344 16.6165 19.5344 17.0541C19.5344 17.2504 19.6723 17.5716 19.8409 17.7677L20.1475 18.1243L24.0279 18.163C28.471 18.2072 28.8361 18.1588 29.1586 17.4826C29.3525 17.0759 29.3525 17.0122 29.1592 16.6067C29.003 16.2793 28.8295 16.1358 28.4683 16.0355C28.0063 15.9072 20.9636 15.8674 20.3313 15.9895ZM14.5557 20.5073C14.4469 20.5948 13.8272 21.3811 13.1784 22.2549C12.5297 23.1286 11.9515 23.8965 11.8934 23.9612C11.8305 24.0314 11.681 23.9824 11.5242 23.8405C10.9558 23.3263 9.97846 23.6565 9.81082 24.4194C9.7094 24.8815 9.95876 25.3523 10.6594 26.021C12.0123 27.3124 12.1252 27.2585 14.3947 24.234C16.4084 21.5504 16.5279 21.2703 15.9179 20.6605C15.5724 20.3148 14.8906 20.2381 14.5557 20.5073ZM19.8464 20.6605C19.1657 21.3411 19.6461 22.3541 20.7063 22.4736C22.0065 22.6201 22.7117 22.2382 22.7117 21.3873C22.7117 20.594 22.3405 20.3485 21.1408 20.3485C20.2671 20.3485 20.1237 20.383 19.8464 20.6605ZM25.2757 20.6425C24.9183 21.0231 24.9035 21.7776 25.2465 22.1206C25.3825 22.2566 25.6827 22.4023 25.9137 22.4445C26.1448 22.4867 28.8125 22.5041 31.8418 22.4834L37.3497 22.4455L37.6694 22.0738C37.9269 21.7743 37.9749 21.6137 37.9163 21.2476C37.7674 20.3168 37.9958 20.3485 31.4258 20.3485H25.5521L25.2757 20.6425ZM19.8464 24.9817C19.4091 25.4189 19.4318 25.9847 19.9059 26.4587L20.2774 26.8302H24.2824C26.5249 26.8302 28.4281 26.7767 28.6072 26.7086C29.0077 26.5563 29.3633 25.8984 29.249 25.5212C29.2024 25.3674 29.0465 25.1129 28.9026 24.9556C28.6412 24.67 28.6356 24.6696 24.3995 24.6696H20.1583L19.8464 24.9817ZM16.2193 32.5564C17.3593 33.8884 18.2712 34.9944 18.2459 35.0143C18.2206 35.0343 15.5458 37.323 12.302 40.1002L6.40408 45.1498L6.11735 44.8548C5.57937 44.3012 2.25027 40.366 2.25002 40.2834C2.24964 40.1889 13.9639 30.1347 14.0742 30.1347C14.114 30.1347 15.0792 31.2245 16.2193 32.5564ZM39.9905 36.3612C42.9336 39.7859 45.3701 42.6622 45.4049 42.7529C45.4424 42.8504 44.8314 43.4616 43.9111 44.2473C43.0546 44.9783 41.9699 45.9075 41.5005 46.3122L40.6471 47.0477L35.1717 40.6655C31.661 36.5734 29.7404 34.2394 29.8188 34.161C30.1838 33.796 34.4812 30.1483 34.5536 30.142C34.6007 30.138 37.0474 32.9367 39.9905 36.3612ZM33.8962 42.5022C36.2816 45.285 38.2154 47.6079 38.1934 47.6642C38.1348 47.8151 35.1673 50.3426 35.0488 50.3426C34.9932 50.3426 33.2486 48.3599 31.1717 45.9365C28.0863 42.3363 27.4111 41.4821 27.4804 41.2658C27.7242 40.5037 27.7003 40.3145 27.3107 39.925C26.9138 39.528 26.5535 39.4471 26.1485 39.6639C26.0207 39.7323 24.3802 41.1048 22.5029 42.7139C19.5385 45.255 19.0341 45.6397 18.6681 45.64C18.0906 45.6402 17.8064 45.4619 17.6448 44.9982C17.5431 44.7065 17.5479 44.512 17.6632 44.2455C17.7935 43.9443 24.2909 38.2444 24.9823 37.8249C25.1635 37.7148 28.7641 37.3869 29.3446 37.4276C29.4627 37.4358 31.5109 39.7194 33.8962 42.5022ZM19.5827 38.2739C20.6433 38.5522 20.6964 38.5821 20.4665 38.7689C20.3319 38.8782 19.2974 39.7596 18.1676 40.7274C15.788 42.766 15.4674 43.2223 15.4674 44.5702C15.4674 46.9159 17.8955 48.4897 19.9792 47.4948C20.3292 47.3277 21.7473 46.2203 23.136 45.0297L25.6572 42.8681L26.0685 43.3326C26.2946 43.5882 28.4058 46.0412 30.7598 48.7838C35.3494 54.1311 35.3414 54.119 34.7877 54.823C34.4886 55.203 34.0301 55.344 33.6106 55.1845C33.444 55.121 32.7695 54.4359 32.112 53.6616C30.6405 51.9295 30.2344 51.7375 29.4795 52.4171C28.976 52.8703 29.0893 53.4594 29.8502 54.346C31.934 56.7743 32.0164 56.9411 31.4719 57.6333C31.264 57.8978 31.099 57.9682 30.6875 57.9682C30.2134 57.9682 30.1083 57.9027 29.5212 57.2408C28.2639 55.8239 28.0954 55.6805 27.6882 55.6805C27.1118 55.6805 26.6008 56.1749 26.6008 56.7326C26.6008 57.0881 26.7325 57.3358 27.2299 57.9153C27.5759 58.3185 27.9876 58.821 28.145 59.032C28.669 59.7349 28.4266 60.6613 27.6756 60.8261C27.1845 60.9341 26.8346 60.7393 26.1651 59.9855C25.6888 59.4491 25.5504 59.3662 25.1307 59.3662C24.4387 59.3662 24.0519 59.7167 24.0519 60.3441C24.0519 60.7463 24.1589 60.9677 24.6147 61.5081C25.3127 62.336 25.3779 62.9123 24.8271 63.3862C24.1659 63.9548 23.729 63.7733 22.6029 62.4622L21.8235 61.5546L22.0135 61.0164C22.1179 60.7203 22.2034 60.1773 22.2034 59.8095C22.2034 58.5256 21.1529 57.1575 19.9103 56.823C19.5065 56.7142 19.4073 56.6289 19.4073 56.3906C19.4073 55.9389 19.074 55.0912 18.7079 54.611C18.4214 54.2354 17.4649 53.6492 16.8517 53.4733C16.726 53.4372 16.6144 53.2098 16.5623 52.8837C16.3762 51.72 15.4296 50.5946 14.4069 50.3211C13.8673 50.1767 13.8548 50.1609 13.7052 49.4368C13.5035 48.4604 12.9321 47.7125 12.035 47.2505C11.4045 46.9258 11.2409 46.8962 10.3461 46.944L9.35545 46.9967L8.99438 46.5408L8.63343 46.0849L13.4166 41.9856C16.0474 39.7311 18.2571 37.9071 18.327 37.9321C18.3969 37.9573 18.962 38.1111 19.5827 38.2739ZM11.3426 49.3836C12 50.041 11.5249 51.1051 10.5743 51.1051C9.8975 51.1051 9.43857 50.6082 9.53859 49.9838C9.68144 49.0907 10.7081 48.7491 11.3426 49.3836ZM14.1647 52.7112C14.546 53.1306 14.5353 53.701 14.1386 54.0976C13.4007 54.8356 12.1298 54.1574 12.3523 53.1444C12.5455 52.2651 13.5424 52.0267 14.1647 52.7112ZM16.6514 55.7012C17.3227 56.0589 17.4592 56.8776 16.9347 57.402C16.5329 57.8039 15.9722 57.8081 15.5126 57.4128C14.5897 56.619 15.58 55.1306 16.6514 55.7012ZM19.7307 59.1699C20.4688 59.9078 19.7906 61.1787 18.7775 60.9562C17.9296 60.7698 17.6558 59.7207 18.3087 59.1591C18.7683 58.7638 19.329 58.768 19.7307 59.1699Z" fill="#30B8C4"/>
</svg>
