<svg width="97" height="58" viewBox="0 0 97 58" fill="none" xmlns="http://www.w3.org/2000/svg">
<path opacity="0.2" d="M1.46777 2.14453H47.3767V57.1794H1.46777V2.14453Z" fill="#30B8C4"/>
<path fill-rule="evenodd" clip-rule="evenodd" d="M58.6408 35.5424H1.55566V34.8789H58.6408V35.5424Z" fill="#333333"/>
<path fill-rule="evenodd" clip-rule="evenodd" d="M58.6408 46.7543H1.55566V46.0908H58.6408V46.7543Z" fill="#333333"/>
<path fill-rule="evenodd" clip-rule="evenodd" d="M58.6408 24.519H1.55566V23.8555H58.6408V24.519Z" fill="#333333"/>
<path fill-rule="evenodd" clip-rule="evenodd" d="M58.6408 13.3705H1.55566V12.707H58.6408V13.3705Z" fill="#333333"/>
<path fill-rule="evenodd" clip-rule="evenodd" d="M1.13574 2.14425C1.13574 1.96103 1.28427 1.8125 1.4675 1.8125H47.3764C47.5596 1.8125 47.7081 1.96103 47.7081 2.14425V57.1791C47.7081 57.3623 47.5596 57.5109 47.3764 57.5109H1.4675C1.28427 57.5109 1.13574 57.3623 1.13574 57.1791V2.14425ZM1.79925 2.47601V56.8474H47.0446V2.47601H1.79925Z" fill="#333333"/>
<path fill-rule="evenodd" clip-rule="evenodd" d="M13.2964 57.179L13.2965 2.29395L13.96 2.29395L13.96 57.179L13.2964 57.179Z" fill="#333333"/>
<path fill-rule="evenodd" clip-rule="evenodd" d="M45.8295 57.2903L45.8295 2.40527L46.3271 2.40527L46.3271 57.2903L45.8295 57.2903Z" fill="#333333"/>
<path fill-rule="evenodd" clip-rule="evenodd" d="M22.8862 57.179L22.8862 2.29395L23.3838 2.29395L23.3838 57.179L22.8862 57.179Z" fill="#333333"/>
<path fill-rule="evenodd" clip-rule="evenodd" d="M34.1108 57.179L34.1108 2.29395L34.6084 2.29395L34.6084 57.179L34.1108 57.179Z" fill="#333333"/>
<path fill-rule="evenodd" clip-rule="evenodd" d="M25.1596 57.179L25.1596 2.29395L25.6572 2.29395L25.6572 57.179L25.1596 57.179Z" fill="#333333"/>
<path fill-rule="evenodd" clip-rule="evenodd" d="M36.3842 57.179L36.3842 2.29395L36.8818 2.29395L36.8818 57.179L36.3842 57.179Z" fill="#333333"/>
<path d="M1.55371 1.31641H96.3298V2.40607H1.55371V1.31641Z" fill="black"/>
<path d="M1.20307 2.49124L0.233398 2.04102H23.4291V2.5487L1.20307 2.49124Z" fill="black"/>
<path d="M0.233398 0.951172H96.3313V2.04083H0.233398V0.951172Z" fill="#333333"/>
<path opacity="0.2" d="M12.3018 2.14453H58.6432V57.1794H12.3018V2.14453Z" fill="#30B8C4"/>
<path fill-rule="evenodd" clip-rule="evenodd" d="M11.9697 2.14425C11.9697 1.96103 12.1183 1.8125 12.3015 1.8125H58.6429C58.8261 1.8125 58.9746 1.96103 58.9746 2.14425V57.1791C58.9746 57.3623 58.8261 57.5109 58.6429 57.5109H12.3015C12.1183 57.5109 11.9697 57.3623 11.9697 57.1791V2.14425ZM12.6332 2.47601V56.8474H58.3111V2.47601H12.6332Z" fill="#333333"/>
<path fill-rule="evenodd" clip-rule="evenodd" d="M58.6431 35.5424H12.3018V34.8789H58.6431V35.5424Z" fill="#333333"/>
<path fill-rule="evenodd" clip-rule="evenodd" d="M58.6431 46.7534H12.3018V46.0898H58.6431V46.7534Z" fill="#333333"/>
<path fill-rule="evenodd" clip-rule="evenodd" d="M58.6431 24.518H12.3018V23.8545H58.6431V24.518Z" fill="#333333"/>
<path fill-rule="evenodd" clip-rule="evenodd" d="M58.6431 13.3696H12.3018V12.7061H58.6431V13.3696Z" fill="#333333"/>
<path fill-rule="evenodd" clip-rule="evenodd" d="M55.0834 35.3357L55.0834 24.3594L55.5811 24.3594L55.5811 35.3357L55.0834 35.3357Z" fill="#333333"/>
<path fill-rule="evenodd" clip-rule="evenodd" d="M24.0621 57.179L24.0621 2.29395L24.7256 2.29395L24.7256 57.179L24.0621 57.179Z" fill="#333333"/>
<path fill-rule="evenodd" clip-rule="evenodd" d="M35.2867 57.179L35.2867 2.29395L35.9502 2.29395L35.9502 57.179L35.2867 57.179Z" fill="#333333"/>
<path fill-rule="evenodd" clip-rule="evenodd" d="M12.3022 57.179L12.3022 2.29395L12.7998 2.29395L12.7998 57.179L12.3022 57.179Z" fill="#333333"/>
<path fill-rule="evenodd" clip-rule="evenodd" d="M47.105 57.2903L47.105 2.40527L47.7686 2.40527L47.7686 57.2903L47.105 57.2903Z" fill="#333333"/>
</svg>
