<svg width="204" height="204" viewBox="0 0 204 204" fill="none" xmlns="http://www.w3.org/2000/svg">
<circle cx="101.911" cy="101.855" r="84.142" fill="#232C2E" stroke="white" stroke-width="8"/>
<circle cx="101.911" cy="101.855" r="81.142" fill="white" stroke="#232C2E" stroke-width="2"/>
<path d="M54.3534 77.0463C54.3534 79.0181 52.7549 80.6166 50.7831 80.6166C48.8113 80.6166 47.2129 79.0181 47.2129 77.0463C47.2129 75.0745 48.8113 73.4761 50.7831 73.4761C52.7549 73.4761 54.3534 75.0745 54.3534 77.0463Z" fill="#232C2E"/>
<circle cx="101.911" cy="101.855" r="34.0944" fill="white" stroke="#232C2E" stroke-width="2"/>
<circle cx="54.1679" cy="67.5552" r="2.57248" transform="rotate(113.497 54.1679 67.5552)" fill="white"/>
<path d="M67.2184 61.3926L62.8864 65.3241L63.8745 68.0735L61.6618 70.0815L57.3529 56.9769L59.4855 55.0414L72.1253 60.5856L69.8593 62.642L67.2184 61.3926ZM65.0507 60.3701L60.3292 58.1406L62.0916 63.0556L65.0507 60.3701Z" fill="#232C2E"/>
<path d="M81.6511 55.4509L77.9688 53.2909L77.8382 53.3516L75.5363 54.4206L77.0146 57.604L74.3699 58.8322L69.0629 47.4044L74.0096 45.1072C75.0217 44.6372 75.9762 44.399 76.873 44.3927C77.7806 44.3813 78.5799 44.5923 79.2707 45.0257C79.9614 45.4591 80.504 46.1002 80.8982 46.9491C81.2924 47.7981 81.4268 48.6287 81.3013 49.4412C81.1816 50.2377 80.8221 50.9735 80.2228 51.6488L84.4917 54.1318L81.6511 55.4509ZM78.2208 48.1925C77.9226 47.5503 77.4884 47.1566 76.9181 47.0113C76.3428 46.8551 75.6579 46.9614 74.8634 47.3304L72.7084 48.3311L74.5583 52.3146L76.7132 51.3138C77.5077 50.9449 78.0309 50.4902 78.2828 49.9499C78.5346 49.4095 78.5139 48.8237 78.2208 48.1925Z" fill="#232C2E"/>
<path d="M89.5041 42.1793L85.5189 42.7915L85.1581 40.443L96.0108 38.7759L96.3716 41.1243L92.3863 41.7365L93.9387 51.842L91.0565 52.2848L89.5041 42.1793Z" fill="#232C2E"/>
<path d="M103.18 38.3716L106.08 38.6699L105.034 48.8402L111.319 49.4866L111.076 51.8502L101.89 50.9054L103.18 38.3716Z" fill="#232C2E"/>
<path d="M119.771 54.5809C118.565 54.076 117.583 53.3595 116.827 52.4316C116.081 51.5083 115.622 50.477 115.448 49.3376C115.29 48.1918 115.45 47.0488 115.927 45.9087C116.404 44.7685 117.104 43.858 118.026 43.1773C118.964 42.4901 120.023 42.0879 121.204 41.9706C122.396 41.858 123.595 42.0542 124.802 42.5591C126.009 43.064 126.985 43.7781 127.73 44.7014C128.475 45.6247 128.932 46.6616 129.101 47.812C129.275 48.9514 129.123 50.0911 128.646 51.2313C128.169 52.3715 127.461 53.2852 126.523 53.9724C125.59 54.6485 124.533 55.0452 123.352 55.1624C122.171 55.2797 120.978 55.0858 119.771 54.5809ZM120.73 52.2894C121.416 52.5767 122.101 52.6811 122.784 52.6028C123.472 52.5134 124.089 52.2512 124.635 51.8164C125.193 51.3862 125.622 50.8113 125.923 50.0917C126.224 49.3722 126.332 48.663 126.247 47.9641C126.174 47.2698 125.925 46.6519 125.501 46.1103C125.082 45.5577 124.529 45.1377 123.843 44.8505C123.157 44.5633 122.47 44.4644 121.782 44.5538C121.099 44.6322 120.478 44.8864 119.921 45.3166C119.375 45.7515 118.951 46.3287 118.65 47.0482C118.349 47.7678 118.235 48.4747 118.309 49.1689C118.394 49.8678 118.646 50.4936 119.065 51.0463C119.489 51.5878 120.044 52.0022 120.73 52.2894Z" fill="#232C2E"/>
<path d="M134.486 63.2071C133.514 62.3311 132.825 61.3301 132.419 60.2041C132.021 59.0861 131.929 57.9608 132.143 56.8282C132.373 55.6948 132.902 54.6691 133.73 53.7512C134.557 52.8333 135.519 52.2059 136.615 51.8689C137.727 51.531 138.86 51.5022 140.013 51.7825C141.175 52.0709 142.242 52.653 143.213 53.529C144.184 54.405 144.869 55.4019 145.267 56.5199C145.664 57.6379 145.752 58.7677 145.531 59.9092C145.317 61.0417 144.797 62.067 143.969 62.9849C143.141 63.9028 142.171 64.5307 141.059 64.8685C139.954 65.1975 138.825 65.2218 137.672 64.9415C136.519 64.6612 135.457 64.083 134.486 63.2071ZM136.149 61.3624C136.702 61.8606 137.313 62.1859 137.984 62.3382C138.663 62.4815 139.332 62.4385 139.991 62.209C140.659 61.9876 141.255 61.5872 141.777 61.008C142.299 60.4287 142.636 59.7953 142.788 59.1077C142.948 58.4282 142.918 57.7628 142.697 57.1115C142.485 56.4512 142.102 55.872 141.55 55.3737C140.997 54.8755 140.381 54.5547 139.703 54.4113C139.032 54.259 138.363 54.2936 137.694 54.515C137.035 54.7445 136.444 55.1489 135.922 55.7281C135.4 56.3074 135.058 56.9368 134.898 57.6163C134.746 58.3038 134.777 58.9777 134.99 59.638C135.21 60.2893 135.597 60.8641 136.149 61.3624Z" fill="#232C2E"/>
<path d="M149.17 72.2632L146.8 71.6639L144.03 73.2382L142.598 70.7187L153.553 64.4926L154.985 67.0121L149.867 69.9206L157.742 71.8632L159.343 74.68L151.881 72.9169L148.54 81.1722L146.859 78.2146L149.17 72.2632Z" fill="#232C2E"/>
<path d="M159.1 99.0202L159.302 101.677L154.205 102.065C153.639 101.422 153.184 100.663 152.84 99.7865C152.496 98.9101 152.29 98.0172 152.22 97.1078C152.121 95.8036 152.307 94.61 152.778 93.5271C153.261 92.4432 153.97 91.5647 154.906 90.8916C155.854 90.2296 156.95 89.8511 158.195 89.7562C159.439 89.6613 160.574 89.8696 161.6 90.3811C162.639 90.9036 163.474 91.6704 164.104 92.6813C164.747 93.6914 165.118 94.8545 165.219 96.1707C165.303 97.2715 165.194 98.2847 164.891 99.2104C164.589 100.136 164.108 100.931 163.448 101.595L161.583 99.8599C162.46 98.8904 162.85 97.7715 162.753 96.5032C162.692 95.7015 162.47 95.0023 162.088 94.4057C161.705 93.8091 161.196 93.3605 160.559 93.06C159.922 92.7596 159.209 92.6395 158.419 92.6997C157.642 92.759 156.961 92.9854 156.377 93.379C155.793 93.7725 155.351 94.2876 155.051 94.9243C154.763 95.572 154.649 96.2908 154.71 97.0805C154.773 97.918 155.01 98.6582 155.421 99.3008L159.1 99.0202Z" fill="#232C2E"/>
<path d="M165.103 108.767L164.54 111.628L154.509 109.653L153.288 115.852L150.956 115.392L152.741 106.332L165.103 108.767Z" fill="#232C2E"/>
<path d="M148.953 127.186L151.614 121.977L149.717 119.755L151.077 117.094L159.742 127.827L158.432 130.392L144.649 129.677L146.041 126.952L148.953 127.186ZM151.342 127.376L156.547 127.791L153.16 123.818L151.342 127.376Z" fill="#232C2E"/>
<path d="M139.917 135.104C140.601 134.38 141.36 133.769 142.195 133.27C143.03 132.788 143.798 132.49 144.5 132.376L145.416 134.604C144.758 134.725 144.086 134.973 143.4 135.349C142.715 135.725 142.117 136.184 141.606 136.724C141.037 137.326 140.704 137.854 140.607 138.306C140.518 138.767 140.622 139.138 140.919 139.418C141.137 139.624 141.398 139.706 141.702 139.663C142.007 139.637 142.331 139.531 142.674 139.343C143.008 139.163 143.442 138.896 143.975 138.541C144.8 138 145.506 137.585 146.091 137.297C146.677 137.009 147.306 136.876 147.977 136.899C148.64 136.932 149.277 137.236 149.888 137.813C150.42 138.315 150.764 138.913 150.919 139.604C151.084 140.304 151.02 141.061 150.729 141.876C150.43 142.7 149.885 143.53 149.094 144.367C148.542 144.952 147.933 145.457 147.266 145.884C146.599 146.31 145.937 146.609 145.279 146.781L144.288 144.606C145.567 144.213 146.606 143.594 147.405 142.748C147.966 142.154 148.286 141.623 148.366 141.154C148.438 140.694 148.317 140.315 148.003 140.018C147.689 139.722 147.301 139.661 146.839 139.835C146.377 140.026 145.755 140.388 144.972 140.92C144.147 141.461 143.442 141.876 142.856 142.164C142.27 142.452 141.65 142.585 140.995 142.561C140.333 142.546 139.696 142.25 139.086 141.673C138.562 141.179 138.222 140.577 138.066 139.868C137.911 139.177 137.983 138.419 138.282 137.596C138.581 136.772 139.126 135.942 139.917 135.104Z" fill="#232C2E"/>
<path d="M129.842 143.904C130.693 143.386 131.587 142.996 132.523 142.735C133.456 142.49 134.276 142.406 134.982 142.482L135.279 144.872C134.611 144.815 133.898 144.877 133.137 145.059C132.377 145.241 131.679 145.525 131.044 145.912C130.336 146.343 129.876 146.763 129.663 147.174C129.456 147.596 129.458 147.98 129.67 148.329C129.826 148.585 130.057 148.733 130.361 148.772C130.662 148.828 131.003 148.81 131.383 148.719C131.753 148.634 132.242 148.491 132.85 148.29C133.788 147.985 134.578 147.771 135.219 147.648C135.861 147.524 136.502 147.562 137.143 147.762C137.774 147.968 138.308 148.429 138.745 149.147C139.126 149.772 139.3 150.439 139.267 151.147C139.241 151.865 138.98 152.579 138.485 153.288C137.979 154.004 137.234 154.661 136.25 155.26C135.564 155.678 134.842 156.005 134.086 156.24C133.331 156.476 132.613 156.589 131.934 156.581L131.551 154.222C132.889 154.181 134.055 153.857 135.049 153.252C135.746 152.828 136.195 152.4 136.396 151.968C136.586 151.543 136.569 151.146 136.345 150.777C136.12 150.408 135.762 150.247 135.27 150.293C134.775 150.356 134.079 150.541 133.184 150.847C132.246 151.151 131.456 151.365 130.814 151.489C130.173 151.612 129.54 151.576 128.915 151.381C128.28 151.191 127.744 150.738 127.307 150.02C126.933 149.405 126.764 148.736 126.8 148.011C126.833 147.303 127.102 146.591 127.608 145.876C128.113 145.16 128.858 144.503 129.842 143.904Z" fill="#232C2E"/>
<path d="M111.377 164.354C110.269 164.491 109.288 164.425 108.432 164.156C107.565 163.889 106.869 163.443 106.344 162.819C105.819 162.195 105.499 161.419 105.384 160.49C105.27 159.573 105.391 158.741 105.746 157.996C106.102 157.263 106.669 156.66 107.445 156.189C108.21 155.732 109.147 155.434 110.254 155.297L112.773 154.985L112.345 151.537L115.239 151.178L116.79 163.683L111.377 164.354ZM110.707 157.635C109.838 157.743 109.2 158.009 108.793 158.435C108.388 158.872 108.228 159.436 108.314 160.126C108.401 160.829 108.693 161.337 109.192 161.65C109.691 161.975 110.376 162.084 111.245 161.976L113.603 161.683L113.065 157.343L110.707 157.635Z" fill="#232C2E"/>
<path d="M92.1225 151.471L93.9004 155.352L94.0422 155.377L96.541 155.821L97.1556 152.366L100.027 152.876L97.8202 165.282L92.4505 164.327C91.3517 164.131 90.4332 163.779 89.695 163.27C88.9449 162.759 88.4112 162.127 88.0938 161.376C87.7764 160.625 87.6997 159.789 87.8636 158.867C88.0275 157.946 88.3938 157.188 88.9625 156.594C89.5173 156.011 90.2339 155.614 91.1121 155.404L89.0389 150.922L92.1225 151.471ZM90.77 159.384C90.646 160.081 90.7759 160.653 91.1598 161.099C91.5415 161.557 92.1636 161.862 93.026 162.016L95.3653 162.432L96.1344 158.108L93.7951 157.692C92.9326 157.538 92.2433 157.611 91.7271 157.909C91.2109 158.207 90.8919 158.699 90.77 159.384Z" fill="#232C2E"/>
<path d="M79.8514 147.127C81.0022 147.749 81.9083 148.559 82.5694 149.557C83.22 150.549 83.5754 151.621 83.6358 152.772C83.6798 153.927 83.4082 155.049 82.8209 156.136C82.2335 157.224 81.4474 158.061 80.4624 158.647C79.4612 159.239 78.3673 159.534 77.1807 159.534C75.9835 159.529 74.8095 159.215 73.6586 158.594C72.5077 157.972 71.607 157.165 70.9564 156.173C70.3058 155.181 69.9532 154.104 69.8986 152.942C69.8382 151.791 70.1017 150.672 70.6891 149.584C71.2764 148.497 72.0707 147.658 73.0719 147.066C74.0675 146.486 75.1585 146.195 76.3451 146.195C77.5317 146.195 78.7005 146.506 79.8514 147.127ZM78.671 149.313C78.0163 148.959 77.3452 148.788 76.6576 148.798C75.9643 148.819 75.3245 149.019 74.738 149.398C74.141 149.771 73.6571 150.301 73.2865 150.987C72.9158 151.674 72.7382 152.369 72.7536 153.072C72.7584 153.771 72.9449 154.41 73.3132 154.991C73.6758 155.582 74.1843 156.055 74.839 156.408C75.4936 156.762 76.1676 156.928 76.8609 156.907C77.5485 156.896 78.1908 156.705 78.7878 156.331C79.3742 155.953 79.8528 155.42 80.2235 154.734C80.5941 154.047 80.777 153.355 80.7722 152.657C80.7568 151.953 80.5679 151.306 80.2053 150.714C79.837 150.134 79.3256 149.666 78.671 149.313Z" fill="#232C2E"/>
<path d="M60.8462 150.372L56.9509 146.178C56.02 145.176 55.3927 144.112 55.0691 142.988C54.7286 141.863 54.7096 140.767 55.0123 139.7C55.3067 138.624 55.9156 137.657 56.8388 136.8C57.7621 135.942 58.7711 135.406 59.8659 135.192C60.9525 134.969 62.0485 135.065 63.154 135.479C64.2426 135.893 65.2523 136.601 66.1833 137.603L70.0786 141.797L60.8462 150.372ZM64.5271 139.338C63.6697 138.415 62.7328 137.917 61.7165 137.846C60.6833 137.774 59.727 138.146 58.8477 138.963C57.9685 139.779 57.5311 140.701 57.5356 141.729C57.5231 142.756 57.9456 143.731 58.8031 144.654L60.616 146.606L66.34 141.29L64.5271 139.338Z" fill="#232C2E"/>
<path d="M56.9764 124.519C57.7223 126.157 57.851 127.641 57.3623 128.971C56.8687 130.291 55.7809 131.333 54.0991 132.099L47.6776 135.023L46.4691 132.37L52.7923 129.49C54.8455 128.555 55.4841 127.236 54.7083 125.532C54.3303 124.702 53.7961 124.181 53.1057 123.968C52.4045 123.76 51.5241 123.897 50.4648 124.379L44.1416 127.259L42.948 124.638L49.3695 121.713C51.0513 120.947 52.5543 120.817 53.8785 121.321C55.1977 121.815 56.2304 122.881 56.9764 124.519Z" fill="#232C2E"/>
<path d="M52.1158 108.875C52.2691 110.15 52.1341 111.339 51.7107 112.441C51.274 113.533 50.603 114.436 49.6977 115.149C48.7791 115.852 47.7002 116.278 46.4611 116.427C45.2221 116.576 44.079 116.417 43.0318 115.951C41.9712 115.474 41.1053 114.756 40.434 113.798C39.7494 112.829 39.3297 111.701 39.1749 110.414C39.0445 109.33 39.1176 108.33 39.3942 107.414C39.6694 106.487 40.1286 105.682 40.7718 105.001L42.711 106.653C41.8358 107.616 41.4734 108.723 41.6239 109.974C41.7171 110.749 41.9729 111.419 42.3915 111.985C42.7982 112.553 43.3262 112.972 43.9753 113.245C44.6231 113.505 45.3342 113.589 46.1086 113.496C46.883 113.403 47.554 113.153 48.1215 112.746C48.6875 112.328 49.1068 111.794 49.3792 111.145C49.6397 110.497 49.7234 109.786 49.6302 109.011C49.4797 107.76 48.8592 106.771 47.7685 106.044L49.2606 103.979C50.059 104.488 50.7019 105.16 51.1892 105.995C51.6765 106.831 51.9853 107.791 52.1158 108.875Z" fill="#232C2E"/>
<path d="M41.4221 95.4017L40.7747 99.3814L38.4295 98.9999L40.1925 88.1623L42.5377 88.5438L41.8903 92.5235L51.9817 94.1651L51.5134 97.0433L41.4221 95.4017Z" fill="#232C2E"/>
</svg>
