<svg width="24" height="23" viewBox="0 0 24 23" fill="none" xmlns="http://www.w3.org/2000/svg">
<path fill-rule="evenodd" clip-rule="evenodd" d="M0.775391 1.4282V2.53315H5.96868H11.162V1.4282V0.323242H5.96868H0.775391V1.4282ZM13.0183 5.51654V10.7098H14.1233H15.2282V5.51654V0.323242H14.1233H13.0183V5.51654ZM17.0845 5.51654V10.7098H18.2116H19.3387V5.51654V0.323242H18.2116H17.0845V5.51654ZM21.195 5.51654V10.7098H22.2999H23.4049V5.51654V0.323242H22.2999H21.195V5.51654ZM0.775391 5.51654V6.64359H5.96868H11.162V5.51654V4.38948H5.96868H0.775391V5.51654ZM0.775391 9.60487V10.7098H5.96868H11.162V9.60487V8.49992H5.96868H0.775391V9.60487ZM0.775391 17.7594V22.9527H1.88035H2.9853V17.7594V12.5662H1.88035H0.775391V17.7594ZM4.84163 17.7594V22.9527H5.96868H7.09574V17.7594V12.5662H5.96868H4.84163V17.7594ZM8.95207 17.7594V22.9527H10.057H11.162V17.7594V12.5662H10.057H8.95207V17.7594ZM13.0183 13.6711V14.7761H18.2116H23.4049V13.6711V12.5662H18.2116H13.0183V13.6711ZM13.0183 17.7594V18.8865H18.2116H23.4049V17.7594V16.6324H18.2116H13.0183V17.7594ZM13.0183 21.8478V22.9527H18.2116H23.4049V21.8478V20.7428H18.2116H13.0183V21.8478Z" fill="#30B8C4"/>
</svg>
