<svg width="19" height="18" viewBox="0 0 19 18" fill="none" xmlns="http://www.w3.org/2000/svg">
<path fill-rule="evenodd" clip-rule="evenodd" d="M14.3392 0.729261C14.5732 0.495194 14.9527 0.495194 15.1868 0.729261L18.1836 3.72609C18.4177 3.96016 18.4177 4.33966 18.1836 4.57372L6.1963 16.561C6.11883 16.6385 6.02542 16.6904 5.92663 16.7165L1.74158 17.9123C1.53228 17.9721 1.30702 17.9137 1.1531 17.7598C0.999188 17.6059 0.940816 17.3806 1.00061 17.1713L2.19636 12.9862C2.22255 12.8874 2.27437 12.794 2.35184 12.7166L11.9416 3.12684L14.3392 0.729261ZM3.07212 14.2845L4.62839 15.8408L2.44961 16.4633L3.07212 14.2845ZM5.77248 15.2896L3.62328 13.1404L12.3655 4.39817L14.5147 6.54737L5.77248 15.2896ZM15.3623 5.69974L13.2131 3.55054L14.763 2.00071L16.9122 4.14991L15.3623 5.69974Z" fill="#979AB1"/>
</svg>
