<svg width="24" height="24" viewBox="0 0 24 24" fill="none" xmlns="http://www.w3.org/2000/svg">
<path fill-rule="evenodd" clip-rule="evenodd" d="M18.711 0.757236C18.0448 0.878134 17.4752 1.12341 16.9294 1.52432C16.7588 1.64966 16.061 2.30506 15.3788 2.98088L14.1383 4.20956L14.019 4.11104C13.7528 3.89114 13.3932 3.76743 13.0168 3.76633C12.4558 3.76466 12.2827 3.87282 11.3612 4.80075C10.4604 5.70782 10.3743 5.84837 10.3732 6.41193C10.3725 6.78927 10.4959 7.14862 10.7172 7.41385L10.8167 7.53312L6.84083 11.5169C3.65186 14.7123 2.83802 15.5527 2.72871 15.7632C2.60538 16.0006 2.59245 16.071 2.59245 16.5027C2.59245 16.9264 2.60653 17.0065 2.71846 17.2183C2.78773 17.3496 2.88969 17.4978 2.94503 17.5478C3.00033 17.5978 3.04561 17.6659 3.04561 17.6992C3.04561 17.7324 2.58048 18.4859 2.01196 19.3736C1.44349 20.2612 0.934228 21.0841 0.880267 21.2022C0.736802 21.5162 0.741287 22.1858 0.889046 22.5104C1.287 23.3848 2.33405 23.8205 3.1542 23.4531C3.26503 23.4034 4.08159 22.8981 4.96881 22.3302C5.85599 21.7622 6.60462 21.2976 6.63238 21.2976C6.66015 21.2976 6.75371 21.3598 6.84031 21.4358C7.25715 21.8018 8.04433 21.881 8.58002 21.611C8.79481 21.5026 9.565 20.7575 12.8263 17.5025L16.8101 13.5262L16.9294 13.6259C17.3204 13.9526 17.9417 14.0569 18.4561 13.8821C18.6868 13.8038 18.8152 13.6976 19.5193 13.0022C20.4724 12.0611 20.579 11.8922 20.5762 11.3264C20.5744 10.9408 20.4753 10.6478 20.2491 10.3588L20.1304 10.2071L21.3834 8.94168C22.9455 7.36394 23.2024 7.01184 23.4973 6.04441C23.6117 5.66903 23.6252 5.54918 23.6252 4.90905C23.6252 4.2692 23.6117 4.14902 23.4975 3.7744C23.2273 2.88794 22.7349 2.14175 22.0766 1.62122C21.1149 0.860768 19.8831 0.544543 18.711 0.757236ZM16.0419 8.30742C17.6846 9.9404 19.0286 11.2933 19.0286 11.314C19.0286 11.3346 18.7816 11.5979 18.4796 11.899L17.9306 12.4465L14.9136 9.42957L11.8967 6.41264L12.4444 5.86345C12.7456 5.56135 13.0063 5.31964 13.0237 5.32632C13.041 5.333 14.3993 6.67448 16.0419 8.30742ZM13.8278 10.5385L15.7116 12.4228L15.2121 12.9241L14.7125 13.4254H10.9189H7.12523L9.51037 11.0398C10.8222 9.7278 11.9064 8.65432 11.9198 8.65432C11.9332 8.65432 12.7918 9.50223 13.8278 10.5385Z" fill="#30B8C4"/>
</svg>
