<svg width="68" height="67" viewBox="0 0 68 67" fill="none" xmlns="http://www.w3.org/2000/svg">
<path fill-rule="evenodd" clip-rule="evenodd" d="M26.3107 1.10361V2.20722H27.4143H28.5179V1.10361V0H27.4143H26.3107V1.10361ZM9.7388 1.22059C8.65754 1.52243 6.95357 2.29468 7.03524 2.44601C7.06683 2.50436 7.32508 2.93477 7.60912 3.40242L8.12574 4.25275L8.78046 3.92388C9.79619 3.41374 10.9525 3.16501 12.3087 3.16501C14.1985 3.16501 15.6432 3.63832 17.254 4.78497C17.6217 5.0468 17.9365 5.24131 17.9535 5.21717C17.9705 5.19289 18.2754 4.8098 18.6311 4.3656L19.278 3.55817L18.6903 3.09052C17.9299 2.48546 16.5443 1.76081 15.4126 1.3762C14.1258 0.938757 11.0507 0.854469 9.7388 1.22059ZM47.9001 1.05008C45.493 1.6223 43.3739 2.97547 42.1087 4.74841C41.5222 5.57046 40.7999 6.94556 40.797 7.2456C40.7956 7.38728 42.6839 8.09441 42.7806 7.98861C42.809 7.95757 43.0221 7.55323 43.2543 7.08999C44.1303 5.34215 45.9704 3.84401 47.8228 3.37056C48.456 3.20874 49.1161 3.15853 50.1213 3.19577L51.5316 3.24792L51.6839 2.22405C51.7677 1.66079 51.799 1.16279 51.7536 1.1174C51.6532 1.01684 48.2874 0.957932 47.9001 1.05008ZM57.213 2.20473C56.9567 2.73447 56.7739 3.19288 56.8069 3.22323C56.9386 3.34462 58.8981 4.29124 58.9339 4.25082C59.036 4.13591 59.8328 2.47691 59.8328 2.37938C59.8328 2.29164 57.8821 1.24156 57.719 1.24156C57.6969 1.24156 57.4692 1.675 57.213 2.20473ZM21.1314 2.54589C20.9451 2.73212 20.7927 3.03327 20.7927 3.21509C20.7927 3.39704 21.9411 6.0726 23.3448 9.16078C24.7484 12.2489 25.8969 14.8328 25.8969 14.9027C25.8969 14.9725 25.1674 15.6154 24.2757 16.3311C23.1203 17.2585 22.503 17.6608 22.1271 17.7313C20.18 18.0966 18.987 20.4714 19.8243 22.3158C20.1851 23.1107 21.4046 24.3732 22.2019 24.7772C23.1341 25.2497 23.9974 25.2017 27.1039 24.5045C28.5646 24.1767 29.7595 23.9326 29.7595 23.962C29.7595 23.9912 29.0611 24.8204 28.2076 25.8046C26.6121 27.6441 25.7868 28.8617 25.1987 30.2431C25.0137 30.6781 24.8203 31.0195 24.769 31.0019C24.5107 30.9134 11.0034 23.2348 11.0022 23.1758C11.0013 23.1378 12.5838 22.2155 14.5188 21.1262L18.037 19.1457L17.6016 18.3672C17.3621 17.939 17.0975 17.5152 17.0137 17.4253C16.898 17.3014 15.7704 17.8796 12.3586 19.8123L7.85619 22.3628L4.39196 28.1381C2.44161 31.3895 0.927734 34.0575 0.927734 34.2432C0.927734 34.4246 1.00595 34.6799 1.10141 34.8106C1.19701 34.9412 2.6713 35.8717 4.37775 36.8782L7.48041 38.7084L7.54938 45.0082C7.60801 50.3684 7.64926 51.337 7.82529 51.5017C8.24755 51.8965 33.7652 66.2165 34.0465 66.2165C34.4039 66.2165 59.9425 51.8213 60.2812 51.429C60.5034 51.1716 60.5226 50.656 60.5226 44.9613V38.7733L63.592 36.9615C65.2802 35.9651 66.77 35.0249 66.9028 34.8725C67.0355 34.7199 67.1442 34.4418 67.1442 34.2542C67.1442 34.0542 65.7137 31.5284 63.6788 28.1359L60.2133 22.3586L53.01 18.2838C49.0482 16.0426 45.7501 14.2095 45.6808 14.2102C45.5279 14.2117 44.5194 15.9556 44.6157 16.0518C44.6532 16.0894 47.471 17.6921 50.8773 19.6135C54.2837 21.5347 57.0706 23.1378 57.0705 23.1758C57.0704 23.2137 53.1848 25.439 48.436 28.121C42.2318 31.6249 39.7596 32.9551 39.6521 32.8477C39.4289 32.6245 39.4957 31.046 39.7538 30.4434C39.8778 30.1537 40.2132 29.6571 40.499 29.3398C42.0581 27.6084 42.9142 26.1456 43.5008 24.2104C43.8362 23.1039 43.8771 22.7513 43.8771 20.9686C43.8771 19.193 43.8356 18.8318 43.5073 17.7533C42.7715 15.3364 42.033 14.2145 39.4037 11.5189L37.3853 9.44965L37.304 8.43653C37.0898 5.76539 34.9816 3.60066 32.3586 3.35814C31.4985 3.27868 31.4171 3.29606 31.0826 3.6306C30.7268 3.98637 30.7252 3.99837 30.7252 6.27167V8.55517L26.4953 5.38119C21.9374 1.96111 21.7926 1.88455 21.1314 2.54589ZM34.0841 6.51819C34.9251 7.3641 35.1396 7.9435 35.1396 9.36812C35.1396 10.347 35.1463 10.3654 35.7448 11.0075L36.3501 11.6569L37.2166 15.5195C38.0989 19.4522 38.2177 20.4653 37.8914 21.2732C37.7905 21.5228 37.1527 22.5605 36.4743 23.579C35.7958 24.5975 35.0477 25.8391 34.8118 26.338C34.426 27.154 34.3828 27.3772 34.3818 28.5559C34.3802 30.6723 35.1479 32.2015 36.8273 33.4268C37.3445 33.8042 37.7506 34.1292 37.7296 34.1492C37.7088 34.1692 36.8689 34.6525 35.8634 35.223L34.035 36.2606L30.4833 34.2498C28.5298 33.1438 26.9076 32.2193 26.8785 32.1953C26.7433 32.0837 27.5284 30.3494 28.1131 29.4681C28.4712 28.9285 29.9503 27.1352 31.4 25.4831C33.5783 23.001 34.036 22.407 34.036 22.0625C34.036 21.5762 33.5028 20.9686 33.0761 20.9686C32.9206 20.9686 30.8384 21.4031 28.449 21.9342C26.0595 22.4653 23.9044 22.8999 23.66 22.8999C23.3092 22.8999 23.0618 22.7481 22.4869 22.1803C21.8676 21.5686 21.7583 21.3841 21.7583 20.9488C21.7583 20.3243 22.2561 19.8649 22.9324 19.8649C23.3041 19.8649 23.8774 19.4672 26.3281 17.509C27.9499 16.2132 29.3387 15.0928 29.4146 15.0191C29.4905 14.9455 29.5865 14.3302 29.6279 13.652C29.6853 12.7134 29.7696 12.3299 29.9813 12.0464C30.4316 11.4432 30.8903 11.1749 31.686 11.0492C32.8827 10.8599 32.9324 10.7407 32.9324 8.05482C32.9324 5.40961 32.9538 5.38106 34.0841 6.51819ZM55.2407 6.58247C54.1454 6.86969 49.8213 9.01276 49.6352 9.36067C49.5534 9.51338 49.4865 9.76735 49.4865 9.92489C49.4865 10.3622 51.9268 15.1421 52.2341 15.3065C52.7177 15.5653 53.088 15.4606 54.1128 14.7751C55.5766 13.7962 56.2822 13.5873 58.1084 13.5926C59.4391 13.5963 59.7376 13.6431 60.5333 13.972C62.3154 14.7082 62.4558 14.5665 63.2783 11.2009C64.0497 8.04392 64.0992 8.19208 61.9911 7.34782C61.1687 7.01853 60.1475 6.65834 59.7216 6.54743C58.7226 6.28726 56.2942 6.30629 55.2407 6.58247ZM6.6338 6.6251C6.24409 6.69532 5.51916 6.90017 5.02309 7.08034C3.7669 7.53626 1.21329 9.07069 1.02568 9.4822C0.902765 9.75217 0.989261 10.2842 1.48726 12.3221C2.32118 15.7346 2.57611 15.9636 4.34961 14.8929C5.6858 14.0863 6.53048 13.8616 8.17016 13.8769C9.69632 13.8911 10.5162 14.1302 11.9789 14.9874C12.8074 15.473 13.1837 15.5457 13.6307 15.3065C13.9564 15.1321 16.3783 10.3492 16.3783 9.88019C16.3783 9.6981 16.2697 9.42178 16.1368 9.26589C15.8753 8.95909 12.1967 7.34162 10.7304 6.88872C9.68983 6.56743 7.67368 6.43762 6.6338 6.6251ZM26.8625 8.41363C27.8109 9.11925 28.6386 9.74238 28.7018 9.79839C28.765 9.85426 28.6002 10.2023 28.3356 10.5716C28.071 10.9409 27.7472 11.5723 27.616 11.9748L27.3776 12.7068L26.0855 9.86281C25.3747 8.29872 24.7933 6.98405 24.7933 6.94128C24.7933 6.89866 24.8709 6.9239 24.9657 6.99729C25.0606 7.07068 25.9141 7.70801 26.8625 8.41363ZM60.3157 9.04186C60.8468 9.25155 61.307 9.4444 61.3384 9.47048C61.3699 9.49655 61.2812 10.019 61.1413 10.6315C60.9105 11.6416 60.8604 11.7374 60.6014 11.6628C58.4191 11.034 55.5922 11.3245 53.8009 12.3617L53.2181 12.6991L52.6541 11.5774C52.3439 10.9605 52.1096 10.4383 52.1334 10.417C52.324 10.2458 54.9553 9.0071 55.5563 8.80555C56.7206 8.41501 59.0166 8.5291 60.3157 9.04186ZM9.42083 8.84114C10.1545 8.97578 11.0604 9.30797 13.1032 10.1915L13.7595 10.4754L13.1811 11.6418L12.6025 12.8082L11.967 12.4861C10.7311 11.8599 9.79785 11.6657 8.03221 11.6675C6.54082 11.669 6.25375 11.7116 5.13524 12.0979C4.45238 12.3336 3.8734 12.5072 3.84857 12.4835C3.82388 12.4599 3.68965 11.9976 3.55046 11.4564L3.29732 10.4723L3.80443 10.1522C5.81175 8.88501 7.50552 8.48964 9.42083 8.84114ZM43.9685 11.0361V12.1397H45.0721H46.1757V11.0361V9.93247H45.0721H43.9685V11.0361ZM18.5457 12.1099C18.1883 12.473 17.8957 12.8315 17.8957 12.9066C17.8957 12.9817 18.3617 13.5062 18.9313 14.072L19.9669 15.1007L20.7567 14.3109L21.5464 13.5211L20.5177 12.4855C19.952 11.9159 19.4231 11.4499 19.3424 11.4499C19.2618 11.4499 18.9033 11.7469 18.5457 12.1099ZM31.8288 14.3469V15.4505H32.9324H34.036V14.3469V13.2433H32.9324H31.8288V14.3469ZM40.7248 16.7611C42.4971 20.3402 41.921 24.3878 39.2032 27.4523C38.2399 28.5383 37.873 29.1416 37.4897 30.2694L37.2578 30.9514L36.9321 30.2785C36.5303 29.4484 36.4387 28.4112 36.6943 27.5858C36.8008 27.2419 37.4652 26.0979 38.1708 25.0436C39.69 22.7738 40.056 22.0217 40.2232 20.8263C40.3648 19.8146 40.2835 19.0894 39.7754 16.83C39.5793 15.9575 39.3857 15.0884 39.3454 14.8987C39.2108 14.2659 40.0511 15.4002 40.7248 16.7611ZM9.18148 16.6952C6.0482 17.224 3.24531 19.099 1.59155 21.7727L1.08265 22.5953L1.93643 23.1138C2.40588 23.3991 2.82967 23.6534 2.87822 23.6787C2.92664 23.7041 3.23041 23.3197 3.55308 22.8243C4.32064 21.6463 5.79203 20.2969 6.90805 19.7474C7.88474 19.2667 9.67369 18.7613 10.3995 18.7613H10.8602V17.6577V16.5541L10.3429 16.5704C10.0584 16.5792 9.53574 16.6355 9.18148 16.6952ZM59.4155 17.6648C59.1618 18.1893 58.9811 18.6434 59.0141 18.6737C59.1458 18.7951 61.1053 19.7418 61.1412 19.7013C61.2176 19.6153 62.04 17.9397 62.04 17.8702C62.04 17.8309 61.5534 17.554 60.9585 17.2549L59.8768 16.7111L59.4155 17.6648ZM63.8334 23.1758V24.2794H64.937H66.0406V23.1758V22.0722H64.937H63.8334V23.1758ZM46.7965 22.716C46.2653 22.9868 45.8038 23.2332 45.7708 23.2635C45.7106 23.3188 46.6028 25.245 46.6886 25.245C46.7512 25.245 48.7129 24.2608 48.7878 24.1918C48.8631 24.1223 47.9434 22.2076 47.8389 22.2169C47.7967 22.2206 47.3276 22.4452 46.7965 22.716ZM20.7941 31.305C27.1208 34.8812 32.3222 37.8322 32.3528 37.8629C32.408 37.918 26.0643 47.0413 25.971 47.0413C25.9443 47.0413 25.3115 46.6786 24.5647 46.2355C23.8178 45.7923 21.4686 44.4042 19.3442 43.1508C9.82061 37.5321 4.14613 34.1756 3.8654 33.9953C3.56453 33.8019 3.58991 33.7521 6.27954 29.2503C7.77466 26.7482 9.06381 24.7237 9.14437 24.7517C9.22494 24.7797 14.4674 27.7287 20.7941 31.305ZM61.7873 29.2426C63.7364 32.5043 64.4552 33.8191 64.3394 33.9114C64.1272 34.0804 42.1836 47.0413 42.1097 47.0413C42.0783 47.0413 40.6122 44.9847 38.8519 42.4713C36.4096 38.9841 35.6968 37.8745 35.8437 37.7887C37.3158 36.9289 58.9552 24.7028 59.0051 24.7025C59.0431 24.7023 60.2951 26.7454 61.7873 29.2426ZM11.1671 31.2147C10.6189 31.7665 10.1705 32.281 10.1705 32.3579C10.1705 32.5371 11.4459 33.798 11.6271 33.798C11.7023 33.798 12.2259 33.3327 12.7908 32.7641L13.818 31.73L13.0681 30.9707C12.6556 30.553 12.2835 30.2113 12.241 30.2113C12.1986 30.2113 11.7154 30.6628 11.1671 31.2147ZM45.0733 38.6238C44.817 39.1535 44.6342 39.6119 44.6672 39.6423C44.7989 39.7637 46.7584 40.7103 46.7942 40.6699C46.8963 40.555 47.6931 38.896 47.6931 38.7985C47.6931 38.7107 45.7424 37.6606 45.5793 37.6606C45.5572 37.6606 45.3295 38.0941 45.0733 38.6238ZM17.9597 44.9031C22.3893 47.5207 26.1467 49.6624 26.3092 49.6624C26.4717 49.6624 26.7093 49.6061 26.8371 49.5374C26.9649 49.4685 28.3731 47.5479 29.9664 45.2692L32.8634 41.1261L32.8994 46.6357C32.9193 49.6661 32.9193 54.627 32.8994 57.6598L32.8634 63.174L21.3148 56.6597L9.76626 50.1452L9.76143 45.1445C9.75881 42.3941 9.79012 40.1437 9.83123 40.1437C9.8722 40.1437 13.5301 42.2854 17.9597 44.9031ZM58.3123 45.1445L58.3093 50.1452L46.7589 56.666L35.2086 63.1868L35.1726 57.6662C35.1527 54.6299 35.1527 49.6661 35.1726 46.6357L35.2086 41.1261L38.1055 45.2692C39.6989 47.5479 41.1071 49.4685 41.2348 49.5374C41.701 49.7882 42.1006 49.6409 44.0163 48.5117C49.7418 45.1376 53.931 42.6597 55.9012 41.4822C57.1152 40.7567 58.1549 40.1586 58.2119 40.1534C58.2689 40.148 58.314 42.3941 58.3123 45.1445ZM64.1449 43.7273C62.8054 45.5273 62.5378 46.1474 62.5316 47.4663C62.5269 48.4436 62.5695 48.5977 63.1799 49.8115C64.119 51.6787 64.0665 52.1841 62.795 53.5171C62.3187 54.0165 62.0672 54.3864 62.1224 54.5062C62.171 54.6115 62.5161 54.9724 62.8894 55.3084L63.5681 55.9191L64.3285 55.1705C64.7727 54.733 65.2725 54.05 65.5303 53.5279C65.9166 52.7456 65.9716 52.4952 65.9716 51.52C65.9716 50.4657 65.9365 50.3358 65.3164 49.103C64.9559 48.3863 64.6611 47.6584 64.6611 47.4852C64.6611 46.9472 65.0432 46.219 65.9984 44.9362L66.9184 43.7004L66.583 43.4427C66.3985 43.301 65.9992 43.005 65.6957 42.785L65.1439 42.3849L64.1449 43.7273ZM2.03258 51.8671C1.77627 52.3968 1.59349 52.8552 1.62646 52.8856C1.7582 53.007 3.71766 53.9536 3.75352 53.9132C3.85561 53.7983 4.65241 52.1393 4.65241 52.0417C4.65241 51.954 2.70165 50.9039 2.53859 50.9039C2.51652 50.9039 2.28876 51.3374 2.03258 51.8671ZM55.0045 58.4912V59.5948H56.1081H57.2118V58.4912V57.3876H56.1081H55.0045V58.4912ZM5.34341 60.696C5.0871 61.2257 4.90431 61.6841 4.93728 61.7145C4.97025 61.7448 5.44149 61.9922 5.98447 62.2639C6.73395 62.6391 7.00406 62.7178 7.10629 62.5905C7.28962 62.3619 7.96324 61.0106 7.96324 60.8713C7.96324 60.783 6.01316 59.7328 5.84941 59.7328C5.82734 59.7328 5.59958 60.1662 5.34341 60.696ZM15.8954 61.3423C15.3643 61.6131 14.9027 61.8594 14.8698 61.8898C14.8368 61.9201 15.0175 62.3741 15.2712 62.8986L15.7325 63.8523L16.8142 63.3085C17.409 63.0094 17.8957 62.7354 17.8957 62.6998C17.8957 62.5596 17.0043 60.8368 16.9349 60.8432C16.8943 60.8469 16.4265 61.0715 15.8954 61.3423ZM47.2195 62.9059L46.7348 63.8719L47.8327 64.424L48.9307 64.976L49.4108 64.0228C49.7754 63.2986 49.8505 63.0371 49.7231 62.9348C49.5378 62.7858 47.8785 61.94 47.7716 61.94C47.7347 61.94 47.4862 62.3747 47.2195 62.9059ZM59.3587 62.9071L58.8745 63.8719L59.9724 64.424L61.0704 64.976L61.556 64.0118L62.0416 63.0475L60.9422 62.4947L59.843 61.9421L59.3587 62.9071Z" fill="#30B8C4"/>
</svg>
