<svg width="32" height="33" viewBox="0 0 32 33" fill="none" xmlns="http://www.w3.org/2000/svg">
<ellipse cx="15.9974" cy="16.4989" rx="9.11065" ry="9.39536" fill="#30B8C4"/>
<path d="M31.5 16.5C31.5 25.3512 24.546 32.5 16 32.5C7.45398 32.5 0.5 25.3512 0.5 16.5C0.5 7.64883 7.45398 0.5 16 0.5C24.546 0.5 31.5 7.64883 31.5 16.5Z" stroke="#30B8C4"/>
<path d="M24.608 16.4989C24.608 21.4263 20.7385 25.3942 15.9974 25.3942C11.2562 25.3942 7.38672 21.4263 7.38672 16.4989C7.38672 11.5715 11.2562 7.60352 15.9974 7.60352C20.7385 7.60352 24.608 11.5715 24.608 16.4989Z" fill="#E3E3E3" stroke="#E3E3E3"/>
<path d="M31.5 16.5C31.5 25.3512 24.546 32.5 16 32.5C7.45398 32.5 0.5 25.3512 0.5 16.5C0.5 7.64883 7.45398 0.5 16 0.5C24.546 0.5 31.5 7.64883 31.5 16.5Z" stroke="#E3E3E3"/>
</svg>
