<svg width="73" height="73" viewBox="0 0 73 73" fill="none" xmlns="http://www.w3.org/2000/svg">
<path fill-rule="evenodd" clip-rule="evenodd" d="M5.29038 0.140881C3.02732 0.582832 1.08071 2.58063 0.637915 4.91603C0.442464 5.94673 0.444156 37.327 0.639748 38.3583C0.963949 40.0683 2.10634 41.6858 3.56742 42.504C4.93741 43.271 5.046 43.2786 14.5516 43.2786H23.3305L23.3709 48.3541L23.4112 53.4297L26.4078 56.4286L29.4045 59.4275L29.409 65.4197C29.4136 71.7325 29.4078 71.6731 30.065 72.0233C30.2944 72.1454 34.8733 72.1873 48.0166 72.1873C66.8013 72.1873 66.2929 72.2049 66.5456 71.5463C66.5937 71.4208 66.6332 65.0233 66.6332 57.3296V43.341L67.6029 43.1883C70.097 42.7956 72.0781 40.8627 72.553 38.3583C72.7483 37.3287 72.7503 5.95125 72.5553 4.9056C72.1112 2.52634 70.163 0.58255 67.767 0.12819C66.8234 -0.0507623 6.20869 -0.0384937 5.29038 0.140881ZM67.9544 2.6706C68.4522 2.85675 68.9184 3.17065 69.28 3.56311C70.3709 4.74639 70.3088 3.59342 70.2667 21.9225L70.2292 38.2724L69.9261 38.8383C69.5033 39.6276 68.938 40.1608 68.1139 40.5476C67.4226 40.872 67.3246 40.8786 63.1121 40.8799L58.8156 40.8813L51.7602 33.8462C47.4185 29.5168 44.4067 26.6231 43.9293 26.3226C42.003 25.1095 39.8185 24.9657 37.7837 25.918C35.3793 27.0432 33.8575 29.9144 34.2992 32.4928C34.6185 34.3571 35.0467 34.9857 38.1006 38.074L40.8766 40.8813L23.3302 40.8799L5.78394 40.8784L5.07885 40.5476C4.25474 40.1608 3.6894 39.6276 3.26663 38.8383L2.96358 38.2724L2.92607 21.8905C2.88913 5.77963 2.89322 5.49604 3.17187 4.75104C3.52004 3.82046 4.30001 3.03105 5.23002 2.66792C5.90804 2.40309 6.67038 2.39632 36.5558 2.38998C67.0347 2.38335 67.1905 2.38476 67.9544 2.6706ZM18.0981 4.94113C17.8368 5.03674 16.7131 6.42352 14.4457 9.44877L11.1707 13.8182L9.6618 12.3313C8.37966 11.0679 8.08522 10.8444 7.70235 10.8444C7.412 10.8444 7.12869 10.9675 6.90574 11.1906L6.55954 11.5367V19.0936C6.55954 27.253 6.59296 27.7061 7.33585 29.6018C8.46413 32.4805 10.8121 34.9371 13.6773 36.2363C16.6134 37.5675 20.4787 37.5675 23.4149 36.2363C26.2801 34.9371 28.628 32.4805 29.7563 29.6018C30.4992 27.7061 30.5326 27.253 30.5326 19.0936V11.5367L30.1864 11.1906C29.9635 10.9675 29.6801 10.8444 29.3898 10.8444C29.0069 10.8444 28.7125 11.0679 27.4303 12.3313L25.9215 13.8182L22.6484 9.45131C20.0856 6.03191 19.2809 5.05141 18.9397 4.93253C18.7001 4.84905 18.4976 4.78573 18.4898 4.7918C18.4819 4.79786 18.3056 4.86513 18.0981 4.94113ZM21.5789 12.0783C25.1457 16.8474 25.0742 16.7672 25.7593 16.7672C26.2167 16.7672 26.4216 16.6456 27.2135 15.9049L28.1353 15.0427V17.174V19.3055H18.5461H8.95685V17.174V15.0427L9.87868 15.9049C10.6705 16.6456 10.8754 16.7672 11.3329 16.7672C12.0179 16.7672 11.9464 16.8474 15.5132 12.0783C17.1229 9.92598 18.4877 8.16509 18.5461 8.16509C18.6045 8.16509 19.9692 9.92598 21.5789 12.0783ZM52.6984 12.1187C51.5843 12.3464 50.647 13.1212 50.1455 14.2289C49.8841 14.8065 49.8581 15.1482 49.8566 18.0363C49.8549 21.0657 49.8697 21.2411 50.1836 21.9153C50.3645 22.3037 50.7559 22.8352 51.0534 23.0964C52.1347 24.0458 52.0111 24.0296 58.1721 24.0296C63.2234 24.0296 63.8044 24.0056 64.4082 23.7727C65.2171 23.4606 66.2269 22.3917 66.4655 21.5951C66.693 20.8358 66.693 15.2369 66.4655 14.4776C66.2443 13.7392 65.2345 12.6334 64.4838 12.3075C63.9391 12.071 63.3932 12.0444 58.5952 12.0205C55.6867 12.0061 53.0332 12.0503 52.6984 12.1187ZM17.3762 14.4587C17.3216 14.5133 17.2769 15.0549 17.2769 15.6626V16.7672H18.5517H19.8267L19.7856 15.6038L19.7447 14.4404L18.6101 14.3999C17.9859 14.3776 17.4308 14.404 17.3762 14.4587ZM54.6467 15.5685V16.7672H53.448H52.2494V16.0528C52.2494 15.6599 52.3178 15.2105 52.4015 15.0542C52.6049 14.6742 53.3128 14.3821 54.0474 14.3754L54.6467 14.3699V15.5685ZM59.4413 15.5685V16.7672H58.2426H57.044V15.5685V14.3699H58.2426H59.4413V15.5685ZM63.9186 14.8641C64.1638 15.1482 64.2359 15.4062 64.2359 15.9995V16.7672H63.0373H61.8386V15.6626C61.8386 15.0549 61.8861 14.5091 61.9444 14.4493C62.0026 14.3895 62.3991 14.3757 62.8257 14.4187C63.4289 14.4793 63.6718 14.5783 63.9186 14.8641ZM54.6467 20.5042V21.7028H54.0781C53.3648 21.7028 52.6009 21.3912 52.4017 21.0189C52.3179 20.8623 52.2494 20.4128 52.2494 20.0199V19.3055H53.448H54.6467V20.5042ZM59.4413 20.5042V21.7028H58.2426H57.044V20.5042V19.3055H58.2426H59.4413V20.5042ZM64.2359 20.0732C64.2359 21.2064 63.8656 21.5899 62.7477 21.6141L61.9091 21.6323L61.8682 20.4689L61.8272 19.3055H63.0316H64.2359V20.0732ZM28.1038 24.4174C28.0511 26.9061 28.0144 27.2285 27.6632 28.2905C26.8983 30.6033 25.0409 32.7455 22.8732 33.8153C21.3999 34.5424 20.2253 34.8133 18.5461 34.8133C16.8668 34.8133 15.6923 34.5424 14.2189 33.8153C12.0512 32.7455 10.1939 30.6033 9.42898 28.2905C9.0777 27.2285 9.04104 26.9061 8.9883 24.4174L8.9309 21.7028H18.5461H28.1612L28.1038 24.4174ZM11.3542 25.6444C11.3542 27.781 12.9819 30.3715 15.0622 31.5455C17.1546 32.7263 19.9375 32.7263 22.0299 31.5455C24.1102 30.3715 25.738 27.781 25.738 25.6444V25.2283H24.5575H23.3771L23.2868 25.8981C23.0837 27.4066 22.0138 28.8688 20.5781 29.5998C19.9836 29.9026 19.6964 29.9524 18.5461 29.9524C17.3958 29.9524 17.1085 29.9026 16.514 29.5998C15.0783 28.8688 14.0084 27.4066 13.8053 25.8981L13.7151 25.2283H12.5346H11.3542V25.6444ZM52.2494 27.6961V28.8947H53.448H54.6467V27.6961V26.4974H53.448H52.2494V27.6961ZM57.044 27.6961V28.8947H58.2426H59.4413V27.6961V26.4974H58.2426H57.044V27.6961ZM61.8386 27.6961V28.8947H63.0373H64.2359V27.6961V26.4974H63.0373H61.8386V27.6961ZM41.2769 27.7855C41.6871 27.8735 42.1821 28.043 42.3767 28.1623C42.5714 28.2814 46.0965 31.7315 50.2103 35.8287L57.6898 43.2786H60.9629H64.2359V53.5024V63.7262H48.0188H31.8018V61.2513C31.8018 59.3742 31.753 58.6846 31.5997 58.3957C31.4886 58.1863 30.1242 56.7464 28.5678 55.1959L25.738 52.3769V47.8277V43.2786H34.1991H42.6602V47.1769V51.0752L45.193 53.6284L47.7259 56.1817L48.5788 55.3386L49.4318 54.4956L47.2446 52.3051L45.0575 50.1147V46.1418C45.0575 43.704 45.0001 42.0153 44.909 41.7718C44.8272 41.5535 43.0888 39.6932 41.0461 37.6379C38.6654 35.2427 37.2207 33.6792 37.0225 33.2835C36.3885 32.0177 36.5019 30.6147 37.3387 29.3702C37.995 28.394 38.9188 27.8776 40.4322 27.6411C40.4865 27.6325 40.8667 27.6975 41.2769 27.7855ZM64.2359 67.9567V69.79H48.0188H31.8018V67.9567V66.1235H48.0188H64.2359V67.9567Z" fill="#30B8C4"/>
</svg>
