<svg width="64" height="69" viewBox="0 0 64 69" fill="none" xmlns="http://www.w3.org/2000/svg">
<path fill-rule="evenodd" clip-rule="evenodd" d="M16.277 8.4743C7.87502 13.1311 0.923312 17.0469 0.828941 17.1758C0.558751 17.5454 0.622832 18.1459 0.967603 18.4758C1.13831 18.6391 4.25633 20.4083 7.89656 22.4075C11.5368 24.4066 14.5152 26.0726 14.5152 26.1096C14.5152 26.1466 11.5368 27.8126 7.89656 29.8118C4.25633 31.8109 1.13831 33.5802 0.967603 33.7435C0.557674 34.1356 0.557674 34.777 0.967603 35.1691C1.13831 35.3324 4.25633 37.1017 7.89656 39.1008C11.5368 41.1 14.5152 42.7659 14.5152 42.803C14.5152 42.84 11.5368 44.506 7.89656 46.5051C4.25633 48.5043 1.13831 50.2735 0.967603 50.4368C0.594561 50.7937 0.560501 51.4127 0.893022 51.7936C1.218 52.1661 31.5467 68.92 31.8958 68.92C32.248 68.92 62.5654 52.1686 62.8873 51.7962C63.2187 51.4128 63.1856 50.794 62.8147 50.4368C62.6451 50.2735 59.5279 48.5043 55.8874 46.5051C52.2469 44.506 49.2683 42.84 49.2683 42.803C49.2683 42.7659 52.2469 41.1 55.8874 39.1008C59.5279 37.1017 62.6451 35.3324 62.8147 35.1691C63.1401 34.8559 63.2124 34.3366 62.9888 33.9189C62.9151 33.7812 59.8255 31.9912 56.123 29.9413C52.4205 27.8915 49.3912 26.1672 49.3912 26.1096C49.3912 26.052 52.4205 24.3277 56.123 22.278C59.8255 20.228 62.9151 18.4381 62.9888 18.3004C63.1925 17.9198 63.1497 17.4198 62.8873 17.1163C62.5397 16.7142 32.2309 -0.0086126 31.8652 3.32817e-06C31.6939 0.00404204 24.6792 3.81753 16.277 8.4743ZM34.5584 3.76207C35.9756 4.53952 37.1348 5.20591 37.1344 5.24293C37.1341 5.27995 35.954 5.95711 34.512 6.74775L31.8902 8.18527L29.2684 6.74775C27.8263 5.95711 26.6474 5.27995 26.6484 5.24293C26.6509 5.15758 31.7952 2.30544 31.9023 2.33021C31.9459 2.3403 33.1411 2.98461 34.5584 3.76207ZM27.0114 7.9354C28.4309 8.71286 29.5929 9.37924 29.5936 9.41627C29.5944 9.45329 28.4158 10.1286 26.9744 10.9168L24.3538 12.3499L21.7313 10.9168C20.2888 10.1286 19.1094 9.45329 19.11 9.41627C19.1118 9.3332 24.2552 6.4781 24.3573 6.50354C24.3975 6.51364 25.5919 7.15795 27.0114 7.9354ZM42.0973 7.9354C43.5145 8.71286 44.6739 9.37924 44.6735 9.41627C44.6732 9.45329 43.4928 10.129 42.0503 10.9177L39.4277 12.352L36.7849 10.8967C34.4733 9.62399 34.1739 9.42192 34.396 9.28514C35.2256 8.77451 39.3751 6.48524 39.4412 6.50193C39.4848 6.51283 40.68 7.15795 42.0973 7.9354ZM19.4727 12.1087C20.8938 12.8862 22.0563 13.5526 22.0562 13.5896C22.056 13.6266 20.8778 14.3028 19.4379 15.0924L16.8198 16.5278L14.1963 15.0924C12.7534 14.3028 11.5727 13.6266 11.5727 13.5896C11.5725 13.5075 16.7155 10.651 16.8171 10.6769C16.8567 10.687 18.0518 11.3313 19.4727 12.1087ZM34.5503 12.1087C35.9698 12.8862 37.1319 13.5526 37.1325 13.5896C37.1333 13.6266 35.9547 14.3019 34.5133 15.0901L31.8927 16.5232L29.2702 15.0901C27.8277 14.3019 26.6483 13.6266 26.649 13.5896C26.6507 13.5065 31.7942 10.6514 31.8962 10.6769C31.9365 10.687 33.1308 11.3313 34.5503 12.1087ZM49.6363 12.1087C51.0534 12.8862 52.2124 13.5526 52.2117 13.5896C52.2111 13.6266 51.0304 14.3019 49.5879 15.0901L46.9655 16.5232L44.3449 15.0901C42.9035 14.3019 41.7251 13.6266 41.7262 13.5896C41.7289 13.5043 46.8731 10.6522 46.9801 10.6769C47.0237 10.687 48.2189 11.3313 49.6363 12.1087ZM11.9365 16.2821C13.3568 17.0595 14.5184 17.7259 14.518 17.7629C14.5176 17.8 13.3379 18.4752 11.8965 19.2635L9.27591 20.6965L6.65344 19.2635C5.21095 18.4752 4.03083 17.8 4.0307 17.7629C4.03043 17.6804 9.17642 14.8256 9.28022 14.8506C9.32101 14.8605 10.5163 15.5046 11.9365 16.2821ZM27.0114 16.2821C28.4309 17.0595 29.5919 17.7259 29.5914 17.7629C29.591 17.8 28.4121 18.4751 26.9718 19.2632L24.3528 20.6961L21.7308 19.2632C20.2887 18.4751 19.1087 17.8 19.1086 17.7629C19.1083 17.6807 24.2542 14.8254 24.3573 14.8506C24.3975 14.8605 25.5919 15.5046 27.0114 16.2821ZM42.0892 16.2821C43.5087 17.0595 44.6697 17.7259 44.6693 17.7629C44.6689 17.8 43.49 18.4751 42.0497 19.2632L39.4307 20.6961L36.8086 19.2632C35.3665 18.4751 34.1866 17.8 34.1864 17.7629C34.1862 17.6807 39.332 14.8254 39.4351 14.8506C39.4754 14.8605 40.6698 15.5046 42.0892 16.2821ZM57.1752 16.2821C58.5924 17.0595 59.7516 17.7259 59.7512 17.7629C59.7509 17.8 58.5723 18.4763 57.1321 19.2659L54.5137 20.7016L51.8884 19.2659C50.4444 18.4763 49.2629 17.8 49.2629 17.7629C49.2627 17.6781 54.4112 14.8248 54.5191 14.85C54.5627 14.8602 55.7579 15.5046 57.1752 16.2821ZM19.4754 20.4554C20.8957 21.2329 22.0571 21.8993 22.0563 21.9363C22.0555 21.9733 20.8748 22.6484 19.4327 23.4365L16.8107 24.8695L14.1917 23.4365C12.7514 22.6484 11.5727 21.9733 11.5727 21.9363C11.5725 21.8535 16.7158 18.998 16.8192 19.0236C16.8599 19.0337 18.0553 19.678 19.4754 20.4554ZM34.5533 20.4554C35.9736 21.2329 37.1342 21.8993 37.1325 21.9363C37.1309 21.9733 35.9507 22.6486 34.5099 23.4369L31.8902 24.8704L29.2704 23.4369C27.8296 22.6486 26.6499 21.9733 26.649 21.9363C26.647 21.8543 31.7925 18.9988 31.897 19.024C31.9378 19.0338 33.1331 19.678 34.5533 20.4554ZM49.6282 20.4554C51.0477 21.2329 52.2096 21.8993 52.2104 21.9363C52.2111 21.9733 51.0335 22.6495 49.5936 23.4391L46.9756 24.8744L44.352 23.4391C42.9091 22.6495 41.7275 21.9733 41.7262 21.9363C41.7233 21.8543 46.8707 18.997 46.9741 19.0233C47.0143 19.0335 48.2087 19.678 49.6282 20.4554ZM27.0195 24.6288C28.4366 25.4062 29.5949 26.0726 29.5935 26.1096C29.5919 26.1466 28.4117 26.8219 26.971 27.6103L24.3512 29.0437L21.7314 27.6103C20.2907 26.8219 19.1107 26.1466 19.1094 26.1096C19.1064 26.0255 24.2546 23.1712 24.3633 23.1966C24.407 23.2069 25.6021 23.8513 27.0195 24.6288ZM42.0922 24.6288C43.5125 25.4062 44.6742 26.0726 44.6736 26.1096C44.6731 26.1466 43.493 26.8238 42.051 27.6144L39.4292 29.052L37.1068 27.7667C35.8296 27.0599 34.6408 26.3917 34.4651 26.2817C34.1537 26.0867 34.2121 26.0446 36.7537 24.6294C38.1881 23.8308 39.3952 23.1859 39.4359 23.1962C39.4767 23.2067 40.6721 23.8513 42.0922 24.6288ZM24.1991 31.4273C28.2766 33.6856 31.7382 35.5333 31.8915 35.5333C32.045 35.5333 35.5014 33.6904 39.5727 31.438L46.975 27.3428L53.3618 30.8659C56.8746 32.8037 59.7485 34.4193 59.7483 34.4563C59.7481 34.4933 53.4817 37.9871 45.8229 42.2201L31.898 49.9165L17.9661 42.2201C10.3036 37.9871 4.03406 34.4933 4.03366 34.4563C4.03326 34.4193 6.89321 32.8051 10.389 30.8692C13.8848 28.9335 16.7541 27.3432 16.7652 27.3354C16.7763 27.3276 20.1215 29.1689 24.1991 31.4273ZM34.5584 28.8021C35.9756 29.5795 37.1348 30.2459 37.1344 30.283C37.1341 30.32 35.954 30.9971 34.5121 31.7878L31.8903 33.2253L29.5679 31.94C28.2907 31.2333 27.1019 30.565 26.9262 30.455C26.6148 30.2601 26.6732 30.2179 29.2148 28.8028C30.6492 28.0042 31.8585 27.3592 31.9023 27.3696C31.9459 27.3801 33.1411 28.0246 34.5584 28.8021ZM19.4805 45.4954C20.8977 46.2729 22.0567 46.9393 22.0559 46.9763C22.0552 47.0133 19.1803 48.628 15.6672 50.5646L9.27995 54.0855L6.65532 52.6512C5.21189 51.8623 4.03137 51.1867 4.03204 51.1497C4.03353 51.0647 16.7167 44.0392 16.8244 44.0639C16.868 44.0737 18.0632 44.718 19.4805 45.4954ZM49.6363 45.4954C51.0534 46.2729 52.2117 46.9393 52.21 46.9763C52.2084 47.0133 45.9399 50.5059 38.2799 54.7375L24.3528 62.4313L21.7324 60.9975C20.291 60.2089 19.1115 59.5333 19.1113 59.4963C19.111 59.4593 22.5466 57.5343 26.7458 55.2187C30.945 52.9029 37.1977 49.4415 40.6407 47.5265C44.0837 45.6116 46.9364 44.0532 46.9801 44.0635C47.0237 44.0736 48.2189 44.718 49.6363 45.4954ZM27.0195 49.6688C28.4366 50.4462 29.5955 51.1126 29.5945 51.1497C29.5935 51.1867 26.7167 52.8018 23.2014 54.7386L16.8101 58.2602L14.287 56.8597C12.8993 56.0895 11.7033 55.4287 11.6293 55.3911C11.5395 55.3457 11.5395 55.3001 11.6293 55.2543C11.7033 55.2165 14.5809 53.6174 18.0239 51.7008C21.4669 49.784 24.3196 48.2247 24.3633 48.2356C24.407 48.2464 25.6021 48.8913 27.0195 49.6688ZM57.1752 49.6688C58.5924 50.4462 59.7511 51.1126 59.75 51.1497C59.7488 51.1867 53.4811 54.6807 45.8218 58.9141L31.8957 66.6112L29.3879 65.2203C28.0087 64.4552 26.8315 63.7782 26.7722 63.7158C26.6754 63.6143 54.326 48.1878 54.5191 48.2356C54.5627 48.2464 55.7579 48.8913 57.1752 49.6688Z" fill="#30B8C4"/>
</svg>
