<svg width="83" height="61" viewBox="0 0 83 61" fill="none" xmlns="http://www.w3.org/2000/svg">
<g opacity="0.6" filter="url(#filter0_f_602_10226)">
<path d="M1.00293 54.1133H76.5097L76.6034 54.207H1.09666L1.00293 54.1133Z" fill="#333333"/>
<path d="M14.6494 54.1133H62.8679L63.0118 54.2571H14.7933L14.6494 54.1133Z" fill="#333333"/>
<path opacity="0.2" d="M2.08105 54.2393H31.0471L36.2837 59.4758H7.31763L2.08105 54.2393Z" fill="#66BFFF"/>
<path opacity="0.2" d="M49.585 54.2393H76.0899L81.3264 59.4758H54.8215L49.585 54.2393Z" fill="#66BFFF"/>
<path opacity="0.3" d="M9.08691 54.2393H14.4915L19.7281 59.4758H14.3235L9.08691 54.2393Z" fill="#6BAFFF"/>
<path opacity="0.3" d="M55.5479 54.2393H62.0917L67.3283 59.4758H60.7844L55.5479 54.2393Z" fill="#6BAFFF"/>
<path opacity="0.3" d="M18.6279 54.2393H21.7288L26.9654 59.4758H23.8645L18.6279 54.2393Z" fill="#6BAFFF"/>
<path opacity="0.3" d="M63.5869 54.2393H68.1209L73.3574 59.4758H68.8235L63.5869 54.2393Z" fill="#6BAFFF"/>
<path fill-rule="evenodd" clip-rule="evenodd" d="M30.762 54.2678H2.42322L7.60273 59.4473H35.9415L30.762 54.2678ZM2.08105 54.2393L7.31763 59.4758H36.2837L31.0471 54.2393H2.08105Z" fill="#333333"/>
<path fill-rule="evenodd" clip-rule="evenodd" d="M75.8048 54.2678H49.9271L55.1066 59.4473H80.9843L75.8048 54.2678ZM49.585 54.2393L54.8215 59.4758H81.3264L76.0899 54.2393H49.585Z" fill="#333333"/>
<path fill-rule="evenodd" clip-rule="evenodd" d="M14.2065 54.2678H9.42908L14.6086 59.4473H19.386L14.2065 54.2678ZM9.08691 54.2393L14.3235 59.4758H19.7281L14.4915 54.2393H9.08691Z" fill="#333333"/>
<path fill-rule="evenodd" clip-rule="evenodd" d="M61.8066 54.2678H55.89L61.0695 59.4473H66.9861L61.8066 54.2678ZM55.5479 54.2393L60.7844 59.4758H67.3283L62.0917 54.2393H55.5479Z" fill="#333333"/>
<path fill-rule="evenodd" clip-rule="evenodd" d="M21.4437 54.2678H18.9701L24.1496 59.4473H26.6232L21.4437 54.2678ZM18.6279 54.2393L23.8645 59.4758H26.9654L21.7288 54.2393H18.6279Z" fill="#333333"/>
<path fill-rule="evenodd" clip-rule="evenodd" d="M67.8358 54.2678H63.9291L69.1086 59.4473H73.0153L67.8358 54.2678ZM63.5869 54.2393L68.8235 59.4758H73.3574L68.1209 54.2393H63.5869Z" fill="#333333"/>
<path fill-rule="evenodd" clip-rule="evenodd" d="M35.0845 58.426H6.41623L6.3877 58.3975H35.0559L35.0845 58.426Z" fill="black"/>
<path fill-rule="evenodd" clip-rule="evenodd" d="M80.1408 58.426H53.9084L53.8799 58.3975H80.1123L80.1408 58.426Z" fill="black"/>
<path fill-rule="evenodd" clip-rule="evenodd" d="M80.1408 58.426H53.9084L53.8799 58.3975H80.1123L80.1408 58.426Z" fill="#333333"/>
<path fill-rule="evenodd" clip-rule="evenodd" d="M34.0571 57.3957H5.38889L5.36035 57.3672H34.0286L34.0571 57.3957Z" fill="black"/>
<path fill-rule="evenodd" clip-rule="evenodd" d="M79.1135 57.3957H52.8811L52.8525 57.3672H79.0849L79.1135 57.3957Z" fill="black"/>
<path fill-rule="evenodd" clip-rule="evenodd" d="M33.0044 56.3449H4.33615L4.30762 56.3164H32.9759L33.0044 56.3449Z" fill="black"/>
<path fill-rule="evenodd" clip-rule="evenodd" d="M78.0607 56.3449H51.8283L51.7998 56.3164H78.0322L78.0607 56.3449Z" fill="black"/>
<path fill-rule="evenodd" clip-rule="evenodd" d="M31.9536 55.2942H3.28537L3.25684 55.2656H31.9251L31.9536 55.2942Z" fill="black"/>
<path fill-rule="evenodd" clip-rule="evenodd" d="M77.008 55.2942H50.7756L50.7471 55.2656H76.9795L77.008 55.2942Z" fill="black"/>
<path d="M2.29795 54.2565L1.07711 54.205L18.3175 54.2012L18.3728 54.2565H2.29795Z" fill="black"/>
<path d="M76.1022 54.2565L76.6025 54.205L62.1991 54.2012L62.2545 54.2565H76.1022Z" fill="black"/>
</g>
<path d="M5.94629 0.524414H81.4742V1.55484H5.94629V0.524414Z" fill="#333333"/>
<path d="M19.5908 0.524414H67.8228V2.10607H19.5908V0.524414Z" fill="#333333"/>
<path opacity="0.2" d="M6.89746 1.90527H35.8716V59.4752H6.89746V1.90527Z" fill="#7ABFFF"/>
<path opacity="0.2" d="M54.4131 1.90527H80.9254V59.4752H54.4131V1.90527Z" fill="#7ABFFF"/>
<path opacity="0.2" d="M13.9033 1.90527H19.3095V59.4752H13.9033V1.90527Z" fill="#6DB9FF"/>
<path opacity="0.2" d="M60.3779 1.90527H66.9236V59.4752H60.3779V1.90527Z" fill="#6DB9FF"/>
<path opacity="0.2" d="M23.4502 1.90527H26.5519V59.4752H23.4502V1.90527Z" fill="#6DB9FF"/>
<path opacity="0.2" d="M68.417 1.90527H72.9522V59.4752H68.417V1.90527Z" fill="#6DB9FF"/>
<path fill-rule="evenodd" clip-rule="evenodd" d="M35.4011 2.37585H7.36804V59.0046H35.4011V2.37585ZM6.89746 1.90527V59.4752H35.8716V1.90527H6.89746Z" fill="#333333"/>
<path fill-rule="evenodd" clip-rule="evenodd" d="M80.4548 2.37585H54.8837V59.0046H80.4548V2.37585ZM54.4131 1.90527V59.4752H80.9254V1.90527H54.4131Z" fill="#333333"/>
<path fill-rule="evenodd" clip-rule="evenodd" d="M18.8389 2.37585H14.3739V59.0046H18.8389V2.37585ZM13.9033 1.90527V59.4752H19.3095V1.90527H13.9033Z" fill="#333333"/>
<path fill-rule="evenodd" clip-rule="evenodd" d="M66.453 2.37585H60.8485V59.0046H66.453V2.37585ZM60.3779 1.90527V59.4752H66.9236V1.90527H60.3779Z" fill="#333333"/>
<path fill-rule="evenodd" clip-rule="evenodd" d="M26.0813 2.37585H23.9208V59.0046H26.0813V2.37585ZM23.4502 1.90527V59.4752H26.5519V1.90527H23.4502Z" fill="#333333"/>
<path fill-rule="evenodd" clip-rule="evenodd" d="M72.4816 2.37585H68.8876V59.0046H72.4816V2.37585ZM68.417 1.90527V59.4752H72.9522V1.90527H68.417Z" fill="#333333"/>
<path fill-rule="evenodd" clip-rule="evenodd" d="M35.7222 47.9335H7.0459V47.4629H35.7222V47.9335Z" fill="black"/>
<path fill-rule="evenodd" clip-rule="evenodd" d="M80.7895 47.9338H54.5498V47.6201H80.7895V47.9338Z" fill="black"/>
<path fill-rule="evenodd" clip-rule="evenodd" d="M80.7896 47.9335H54.5498V47.4629H80.7896V47.9335Z" fill="#333333"/>
<path fill-rule="evenodd" clip-rule="evenodd" d="M35.7222 36.6141H7.0459V36.1436H35.7222V36.6141Z" fill="black"/>
<path fill-rule="evenodd" clip-rule="evenodd" d="M80.7895 36.6141H54.5498V36.1436H80.7895V36.6141Z" fill="black"/>
<path fill-rule="evenodd" clip-rule="evenodd" d="M35.7222 25.0585H7.0459V24.5879H35.7222V25.0585Z" fill="black"/>
<path fill-rule="evenodd" clip-rule="evenodd" d="M80.7895 25.0585H54.5498V24.5879H80.7895V25.0585Z" fill="black"/>
<path fill-rule="evenodd" clip-rule="evenodd" d="M35.7222 13.5048H7.0459V13.0342H35.7222V13.5048Z" fill="black"/>
<path fill-rule="evenodd" clip-rule="evenodd" d="M80.7895 13.5048H54.5498V13.0342H80.7895V13.5048Z" fill="black"/>
<path d="M7.09254 2.10653L5.92285 1.54062L23.1719 1.49805V2.10653H7.09254Z" fill="black"/>
<path d="M80.9197 2.10653L81.4717 1.54062L67.0681 1.49805V2.10653H80.9197Z" fill="black"/>
<defs>
<filter id="filter0_f_602_10226" x="0.00292969" y="53.1133" width="82.3232" height="7.36279" filterUnits="userSpaceOnUse" color-interpolation-filters="sRGB">
<feFlood flood-opacity="0" result="BackgroundImageFix"/>
<feBlend mode="normal" in="SourceGraphic" in2="BackgroundImageFix" result="shape"/>
<feGaussianBlur stdDeviation="0.5" result="effect1_foregroundBlur_602_10226"/>
</filter>
</defs>
</svg>
