<svg width="58" height="84" viewBox="0 0 58 84" fill="none" xmlns="http://www.w3.org/2000/svg">
<path opacity="0.2" d="M31.8926 3.22382C31.8926 2.67413 32.3382 2.22852 32.8879 2.22852H39.2249C39.7746 2.22852 40.2202 2.67413 40.2202 3.22382V50.9527C40.2202 51.5024 39.7746 51.948 39.2249 51.948H32.8879C32.3382 51.948 31.8926 51.5024 31.8926 50.9527V3.22382Z" fill="#30B8C4"/>
<path opacity="0.2" fill-rule="evenodd" clip-rule="evenodd" d="M32.8902 0.238281H39.2272C40.8763 0.238281 42.2131 1.57512 42.2131 3.22419V50.9531C42.2131 52.6021 40.8763 53.939 39.2272 53.939H32.8902C31.2411 53.939 29.9043 52.6021 29.9043 50.9531V3.22419C29.9043 1.57512 31.2411 0.238281 32.8902 0.238281ZM32.8902 2.22889C32.3405 2.22889 31.8949 2.6745 31.8949 3.22419V50.9531C31.8949 51.5028 32.3405 51.9484 32.8902 51.9484H39.2272C39.7769 51.9484 40.2225 51.5028 40.2225 50.9531V3.22419C40.2225 2.6745 39.7769 2.22889 39.2272 2.22889H32.8902Z" fill="#30B8C4"/>
<path fill-rule="evenodd" clip-rule="evenodd" d="M32.8902 0.238281H39.2272C40.8763 0.238281 42.2131 1.57512 42.2131 3.22419V50.9531C42.2131 52.6021 40.8763 53.939 39.2272 53.939H32.8902C31.2411 53.939 29.9043 52.6021 29.9043 50.9531V3.22419C29.9043 1.57512 31.2411 0.238281 32.8902 0.238281ZM32.8902 2.22889C32.3405 2.22889 31.8949 2.6745 31.8949 3.22419V50.9531C31.8949 51.5028 32.3405 51.9484 32.8902 51.9484H39.2272C39.7769 51.9484 40.2225 51.5028 40.2225 50.9531V3.22419C40.2225 2.6745 39.7769 2.22889 39.2272 2.22889H32.8902Z" fill="#30B8C4"/>
<path fill-rule="evenodd" clip-rule="evenodd" d="M-0.000320261 70.735L20.998 70.735L20.998 72.7256L-0.000320435 72.7256L-0.000320261 70.735Z" fill="#232C2E"/>
<path fill-rule="evenodd" clip-rule="evenodd" d="M19.6347 71.6012L15.582 67.0912L17.0627 65.7607L22.3578 71.6534L17.0366 77.137L15.6081 75.7508L19.6347 71.6012Z" fill="#232C2E"/>
<path fill-rule="evenodd" clip-rule="evenodd" d="M57.0511 72.3451L36.0527 72.3451L36.0527 70.3545L57.0511 70.3545L57.0511 72.3451Z" fill="#232C2E"/>
<path fill-rule="evenodd" clip-rule="evenodd" d="M37.4161 71.2679L41.4687 75.7779L39.9881 77.1084L34.693 71.2157L40.0141 65.7321L41.4427 67.1184L37.4161 71.2679Z" fill="#232C2E"/>
<path fill-rule="evenodd" clip-rule="evenodd" d="M17.0679 0.238281H23.4049C25.054 0.238281 26.3908 1.57512 26.3908 3.22419V50.9531C26.3908 52.6021 25.054 53.939 23.4049 53.939H17.0679C15.4189 53.939 14.082 52.6021 14.082 50.9531V3.22419C14.082 1.57512 15.4189 0.238281 17.0679 0.238281ZM17.0679 2.22889C16.5183 2.22889 16.0726 2.6745 16.0726 3.22419V50.9531C16.0726 51.5028 16.5183 51.9484 17.0679 51.9484H23.4049C23.9546 51.9484 24.4002 51.5028 24.4002 50.9531V3.22419C24.4002 2.6745 23.9546 2.22889 23.4049 2.22889H17.0679Z" fill="black"/>
<path fill-rule="evenodd" clip-rule="evenodd" d="M14.9007 9.99226L24.5048 1.58884L25.1602 2.33789L15.5561 10.7413L14.9007 9.99226Z" fill="#232C2E"/>
<path fill-rule="evenodd" clip-rule="evenodd" d="M14.9007 15.9952L24.5048 7.59177L25.1602 8.34082L15.5561 16.7442L14.9007 15.9952Z" fill="#232C2E"/>
<path fill-rule="evenodd" clip-rule="evenodd" d="M14.9007 23.1055L24.5048 14.7021L25.1602 15.4512L15.5561 23.8546L14.9007 23.1055Z" fill="#232C2E"/>
<path fill-rule="evenodd" clip-rule="evenodd" d="M14.9007 29.5704L24.5048 21.167L25.1602 21.916L15.5561 30.3194L14.9007 29.5704Z" fill="#232C2E"/>
<path fill-rule="evenodd" clip-rule="evenodd" d="M14.9007 36.7745L24.5048 28.3711L25.1602 29.1201L15.5561 37.5235L14.9007 36.7745Z" fill="#232C2E"/>
<path fill-rule="evenodd" clip-rule="evenodd" d="M14.9007 43.1466L24.5048 34.7431L25.1602 35.4922L15.5561 43.8956L14.9007 43.1466Z" fill="#232C2E"/>
<path fill-rule="evenodd" clip-rule="evenodd" d="M14.9007 49.8878L24.5048 41.4844L25.1602 42.2334L15.5561 50.6368L14.9007 49.8878Z" fill="#232C2E"/>
<path fill-rule="evenodd" clip-rule="evenodd" d="M18.7807 52.934L24.5062 48.3179L25.1309 49.0928L19.4054 53.7088L18.7807 52.934Z" fill="#232C2E"/>
<path fill-rule="evenodd" clip-rule="evenodd" d="M24.402 83.2392L24.402 61.4502L26.3926 61.4502L26.3926 83.2392L24.402 83.2392Z" fill="#232C2E"/>
<path fill-rule="evenodd" clip-rule="evenodd" d="M31.0563 83.2392L31.0563 61.4502L33.0469 61.4502L33.0469 83.2392L31.0563 83.2392Z" fill="#232C2E"/>
</svg>
