<svg width="60" height="74" viewBox="0 0 60 74" fill="none" xmlns="http://www.w3.org/2000/svg">
<path fill-rule="evenodd" clip-rule="evenodd" d="M18.8185 0.430981C18.1538 0.622297 17.0493 1.77005 16.8348 2.49244C16.7077 2.92066 16.6607 5.02328 16.6607 10.2918V17.5049H9.75167C3.11871 17.5049 2.83166 17.5158 2.56798 17.7795C2.18506 18.1624 2.09645 18.969 2.15287 21.5573L2.20159 23.7979L2.60131 24.1415C2.92682 24.4213 3.15817 24.4851 3.84779 24.4851C4.31347 24.4851 4.69425 24.5333 4.69397 24.592C4.69354 24.6507 4.14865 33.994 3.4831 45.3547C2.81742 56.7154 2.27281 66.0586 2.27281 66.1174C2.27281 66.1763 1.95585 66.2243 1.56852 66.2243C1.02947 66.2243 0.770346 66.3049 0.464496 66.5679L0.064769 66.9115L0.0160498 69.1521C-0.0416443 71.7965 0.0452525 72.5391 0.456946 72.9226C0.756385 73.2015 1.05896 73.2045 29.6241 73.2045C58.1892 73.2045 58.4917 73.2015 58.7912 72.9226C59.2029 72.5391 59.2898 71.7965 59.2321 69.1521L59.1833 66.9115L58.7836 66.5679C58.4778 66.3049 58.2186 66.2243 57.6796 66.2243C57.2923 66.2243 56.9752 66.1763 56.9752 66.1174C56.975 66.0586 56.4304 56.7154 55.7649 45.3547C55.0992 33.994 54.5544 24.6507 54.5541 24.592C54.5539 24.5333 54.9346 24.4851 55.4003 24.4851C56.0899 24.4851 56.3213 24.4213 56.6468 24.1415L57.0465 23.7979L57.0952 21.5573C57.1517 18.969 57.063 18.1624 56.6801 17.7795C56.4165 17.5158 56.1294 17.5049 49.4964 17.5049H42.5874V14.0976C42.5874 12.2236 42.5475 10.5866 42.4989 10.4598C42.3655 10.1119 41.6469 9.79266 41.2319 9.89679C40.4912 10.0827 40.4506 10.2981 40.4506 14.0465V17.5049H39.3822H38.3138V11.3729V5.24081L37.964 4.89123L37.6145 4.5415H29.6241H21.6336L21.2841 4.89123L20.9343 5.24081V11.3729V17.5049H19.8659H18.7975V10.3045V3.104L19.1472 2.75441L19.4968 2.40469H29.6241H39.7513L40.1009 2.75441C40.4295 3.08291 40.4506 3.19802 40.4506 4.65832C40.4506 6.01491 40.4881 6.26022 40.7459 6.58786C41.1542 7.10696 41.8838 7.10696 42.2921 6.58786C42.5502 6.25979 42.5874 6.01505 42.5874 4.64564C42.5874 3.78393 42.5091 2.81496 42.4133 2.49244C42.1843 1.72148 41.1338 0.671017 40.3628 0.44195C39.6299 0.22428 19.572 0.214166 18.8185 0.430981ZM36.177 12.0916V17.5049H29.6241H23.0712V12.0916V6.67832H29.6241H36.177V12.0916ZM54.8385 20.995V22.3483H34.6812C14.7138 22.3483 14.5212 22.351 14.239 22.6332C13.8148 23.0574 13.8591 23.8199 14.3294 24.1898L14.7048 24.4851H33.5608C43.9316 24.4851 52.4168 24.5351 52.4168 24.5961C52.4168 24.6571 52.9616 34.023 53.6276 45.4091C54.2936 56.7953 54.8385 66.1367 54.8385 66.1678C54.8385 66.1989 53.0728 66.2243 50.9146 66.2243H46.9905L46.6409 66.574C46.1952 67.0196 46.1952 67.5658 46.6409 68.0114L46.9905 68.3611H51.983H56.9753V69.7144V71.0677H29.6241H2.27281V69.7144V68.3611H22.5726C42.6824 68.3611 42.875 68.3584 43.1572 68.0762C43.6202 67.6132 43.586 67.0078 43.0708 66.5448L42.7139 66.2243H23.5618C13.0281 66.2243 4.40963 66.1931 4.40963 66.155C4.40963 66.117 4.95452 56.7738 5.62049 45.3924C6.28646 34.0112 6.83135 24.6509 6.83135 24.5921C6.83135 24.5333 7.60559 24.4851 8.55177 24.4851H10.2722L10.7031 24.0542C11.0486 23.7087 11.1158 23.5462 11.0422 23.2351C10.8433 22.3946 10.6527 22.3483 7.38536 22.3483H4.40963V20.995V19.6417H29.6241H54.8385V20.995Z" fill="#30B8C4"/>
</svg>
