<svg width="74" height="65" viewBox="0 0 74 65" fill="none" xmlns="http://www.w3.org/2000/svg">
<path opacity="0.2" d="M32.2871 4.29656C32.2871 3.64144 32.8182 3.11035 33.4733 3.11035H41.0258C41.6809 3.11035 42.212 3.64144 42.212 4.29656V61.1803C42.212 61.8354 41.6809 62.3665 41.0258 62.3665H33.4733C32.8182 62.3665 32.2871 61.8354 32.2871 61.1803V4.29656Z" fill="#30B8C4"/>
<path opacity="0.2" fill-rule="evenodd" clip-rule="evenodd" d="M33.4727 0.738281H41.0252C42.9905 0.738281 44.5838 2.33154 44.5838 4.29692V61.1806C44.5838 63.146 42.9905 64.7393 41.0252 64.7393H33.4727C31.5073 64.7393 29.9141 63.146 29.9141 61.1806V4.29692C29.9141 2.33154 31.5073 0.738281 33.4727 0.738281ZM33.4727 3.1107C32.8176 3.1107 32.2865 3.64179 32.2865 4.29692V61.1806C32.2865 61.8357 32.8176 62.3668 33.4727 62.3668H41.0252C41.6803 62.3668 42.2114 61.8357 42.2114 61.1806V4.29692C42.2114 3.64179 41.6803 3.1107 41.0252 3.1107H33.4727Z" fill="#30B8C4"/>
<path fill-rule="evenodd" clip-rule="evenodd" d="M33.4727 0.738281H41.0252C42.9905 0.738281 44.5838 2.33154 44.5838 4.29692V61.1806C44.5838 63.146 42.9905 64.7393 41.0252 64.7393H33.4727C31.5073 64.7393 29.9141 63.146 29.9141 61.1806V4.29692C29.9141 2.33154 31.5073 0.738281 33.4727 0.738281ZM33.4727 3.1107C32.8176 3.1107 32.2865 3.64179 32.2865 4.29692V61.1806C32.2865 61.8357 32.8176 62.3668 33.4727 62.3668H41.0252C41.6803 62.3668 42.2114 61.8357 42.2114 61.1806V4.29692C42.2114 3.64179 41.6803 3.1107 41.0252 3.1107H33.4727Z" fill="#30B8C4"/>
<path fill-rule="evenodd" clip-rule="evenodd" d="M0.000213416 31.9079L26.416 31.9079L26.416 34.2803L0.000213623 34.2803L0.000213416 31.9079Z" fill="#232C2E"/>
<path fill-rule="evenodd" clip-rule="evenodd" d="M24.7909 32.9392L19.9609 27.5642L21.7256 25.9785L28.0363 33.0014L21.6946 39.5369L19.992 37.8847L24.7909 32.9392Z" fill="#232C2E"/>
<path fill-rule="evenodd" clip-rule="evenodd" d="M73.8902 33.8168H48.9453V31.4443H73.8902V33.8168Z" fill="#232C2E"/>
<path fill-rule="evenodd" clip-rule="evenodd" d="M49.7071 32.5422L54.5371 37.9172L52.7725 39.5029L46.4617 32.48L52.8035 25.9446L54.5061 27.5967L49.7071 32.5422Z" fill="#232C2E"/>
</svg>
