<svg width="55" height="55" viewBox="0 0 55 55" fill="none" xmlns="http://www.w3.org/2000/svg">
<path fill-rule="evenodd" clip-rule="evenodd" d="M23.7848 0.192152C22.9975 0.440483 22.4105 0.932274 22.0149 1.67489C21.8376 2.00781 21.7948 2.41297 21.7472 4.20643L21.6906 6.34165L20.7853 6.67151C20.2873 6.85291 19.4833 7.18742 18.9984 7.41491L18.1169 7.82857L16.6766 6.40563C15.0992 4.84747 14.7207 4.61907 13.7157 4.61907C12.6302 4.61907 12.2069 4.91598 9.72262 7.42024C7.61538 9.54435 7.49206 9.69269 7.3085 10.3239C6.92644 11.6383 7.23513 12.3127 9.08158 14.1958L10.4262 15.5671L9.92385 16.6326C9.64766 17.2186 9.31961 18.0038 9.19482 18.3775L8.96789 19.0569L6.83642 19.1145C4.93708 19.1659 4.65557 19.1988 4.25199 19.4156C3.65964 19.7338 3.24361 20.1832 2.95893 20.8121C2.74457 21.2855 2.72803 21.5477 2.72577 24.5064C2.72305 27.952 2.76416 28.2489 3.35096 29.0181C3.68806 29.4601 4.64979 29.9843 5.12347 29.9843H5.44099V29.0784C5.44099 28.3368 5.40928 28.1725 5.26603 28.1725C5.16978 28.1725 4.96595 28.0474 4.81308 27.8945L4.53508 27.6167V24.5754C4.53508 21.3543 4.5147 21.5034 5.02076 21.0156C5.0339 21.0029 6.23433 20.9646 7.68842 20.9306L10.3322 20.8687L10.6964 19.6797C11.1136 18.3175 11.5782 17.2291 12.2448 16.053L12.7103 15.2314L10.8647 13.3833C9.16764 11.6839 9.0193 11.5028 9.0193 11.1301C9.0193 10.7551 9.17931 10.5646 11.164 8.57787C13.9605 5.77851 13.5567 5.80603 16.0259 8.24676L17.863 10.0626L19.1725 9.37472C20.5752 8.638 21.8591 8.13046 22.9079 7.89799L23.559 7.75372L23.5627 5.13895C23.5664 2.39859 23.5826 2.30302 24.0894 2.03306C24.4241 1.85482 29.8893 1.84961 30.2789 2.02706C30.7564 2.2447 30.8063 2.54795 30.8063 5.23463V7.76448L31.2228 7.84261C32.1408 8.01485 33.7696 8.64207 35.1416 9.35173L36.5894 10.1005L38.4268 8.26567C40.1004 6.59451 40.2994 6.43088 40.6603 6.43088C41.0237 6.43088 41.2339 6.60843 43.2013 8.57787C45.186 10.5646 45.346 10.7551 45.346 11.1301C45.346 11.5028 45.1977 11.684 43.4998 13.3841L41.6534 15.233L42.1659 16.1258C42.7854 17.205 43.3864 18.6393 43.7559 19.9199L44.0297 20.8687L46.6186 20.9254C48.0424 20.9566 49.2897 21.023 49.3903 21.0732C49.7801 21.2674 49.8302 21.6778 49.8302 24.6727V27.6167L49.5522 27.8945C49.3993 28.0474 49.1955 28.1725 49.0993 28.1725C48.956 28.1725 48.9243 28.3368 48.9243 29.0784V29.9843L49.2357 29.9819C49.7046 29.9781 50.422 29.6104 50.8796 29.1393C51.5886 28.4092 51.6424 28.0809 51.6395 24.5005C51.6373 21.5477 51.6206 21.2854 51.4064 20.8121C51.1217 20.1832 50.7057 19.7338 50.1133 19.4156C49.7097 19.1988 49.4282 19.1659 47.5289 19.1145L45.3974 19.0569L45.1705 18.3775C45.0457 18.0038 44.7176 17.2186 44.4415 16.6326L43.9391 15.5671L45.2837 14.1958C47.1302 12.3127 47.4389 11.6383 47.0568 10.3239C46.8732 9.69269 46.7499 9.54435 44.6427 7.42024C42.1584 4.91598 41.7351 4.61907 40.6496 4.61907C39.6446 4.61907 39.2663 4.84736 37.6882 6.4063L36.247 7.82982L35.2536 7.3583C34.7071 7.09898 33.9033 6.76697 33.4674 6.62032L32.6747 6.35376L32.6181 4.21255C32.556 1.8666 32.4697 1.53368 31.7509 0.866823C30.9842 0.155689 30.9398 0.148216 27.3525 0.124436C25.5464 0.112432 23.9409 0.143007 23.7848 0.192152ZM25.5407 11.9939C22.1899 12.4126 18.8382 14.4251 16.8898 17.1885C15.5028 19.1555 14.7431 21.2427 14.5437 23.6344L14.4674 24.5489H15.3896H16.3118V24.1108C16.3118 23.8698 16.3864 23.2457 16.4777 22.7236C17.2517 18.294 20.5937 14.8671 25.0878 13.8948C25.9632 13.7054 28.4021 13.7054 29.2776 13.8948C31.3239 14.3375 33.1485 15.2815 34.6223 16.6602C36.511 18.427 37.797 21.0824 38.0118 23.6594L38.0861 24.5489H38.992H39.8979L39.8216 23.6344C39.2129 16.3356 32.7775 11.09 25.5407 11.9939ZM26.108 21.0584C24.5712 21.3514 22.9677 22.6057 22.2968 24.0394C20.9388 26.9412 22.3625 30.4103 25.3518 31.4842C27.9043 32.4011 30.8014 31.2282 32.0088 28.7889C33.0729 26.6393 32.6783 24.2415 30.9846 22.5662C29.6277 21.224 27.9537 20.7064 26.108 21.0584ZM28.7016 23.1182C29.4457 23.4635 30.0824 24.1071 30.4536 24.8886C30.8681 25.7611 30.8758 27.0667 30.4714 27.8894C29.3559 30.1593 26.4656 30.6933 24.6846 28.9586C23.8838 28.1785 23.6194 27.5491 23.6175 26.4174C23.6161 25.673 23.6685 25.4004 23.9117 24.8886C24.7861 23.0474 26.8811 22.273 28.7016 23.1182ZM10.7077 24.682C9.17081 24.975 7.56737 26.2293 6.89643 27.663C5.53848 30.5648 6.96211 34.034 9.95148 35.1078C12.504 36.0247 15.401 34.8518 16.6085 32.4125C17.6726 30.2629 17.278 27.8651 15.5843 26.1899C14.2273 24.8477 12.5533 24.33 10.7077 24.682ZM41.5084 24.682C39.9715 24.975 38.3681 26.2293 37.6971 27.663C36.3392 30.5648 37.7628 34.034 40.7522 35.1078C43.3047 36.0247 46.2017 34.8518 47.4092 32.4125C48.4733 30.2629 48.0787 27.8651 46.385 26.1899C45.028 24.8477 43.354 24.33 41.5084 24.682ZM13.3013 26.7418C14.0454 27.0872 14.6821 27.7307 15.0533 28.5123C15.4677 29.3848 15.4754 30.6903 15.0711 31.5131C13.9556 33.7829 11.0653 34.3169 9.28428 32.5822C8.48346 31.8022 8.21905 31.1727 8.21712 30.041C8.21577 29.2967 8.2682 29.024 8.51132 28.5123C9.38574 26.671 11.4808 25.8966 13.3013 26.7418ZM44.102 26.7418C44.8461 27.0872 45.4828 27.7307 45.854 28.5123C46.2684 29.3848 46.2761 30.6903 45.8718 31.5131C44.7563 33.7829 41.866 34.3169 40.085 32.5822C39.2842 31.8022 39.0197 31.1727 39.0178 30.041C39.0165 29.2967 39.0689 29.024 39.312 28.5123C40.1864 26.671 42.2814 25.8966 44.102 26.7418ZM22.2987 32.819C20.3783 33.1142 18.6021 34.1298 17.3277 35.6611L16.7469 36.359L12.2546 36.3373C7.41449 36.314 6.48108 36.3902 5.20987 36.912C2.54278 38.0069 0.691452 40.2345 0.165915 42.9812C-0.0620328 44.1728 -0.0528605 48.5763 0.179617 49.5628C0.580026 51.2611 1.82564 52.8741 3.3565 53.6767C4.79474 54.4305 4.91715 54.4437 10.4472 54.4437H15.4059V53.5378V52.6319H11.3294H7.25279V47.6495V42.667H6.34689H5.44099V47.6051V52.5433L5.12958 52.4677C4.08157 52.2135 2.75985 51.1153 2.29196 50.11C1.85565 49.1727 1.79371 48.5804 1.84195 45.804C1.88509 43.3231 1.90366 43.1344 2.17521 42.4202C2.98203 40.2987 4.74639 38.7565 6.88522 38.3033C7.46624 38.1802 8.63486 38.141 11.7672 38.1394L15.8853 38.1375L15.811 38.3923C15.4191 39.7357 15.3956 40.1815 15.4306 45.6C15.4633 50.6541 15.4794 51.0237 15.6881 51.5319C16.1988 52.7752 17.3325 53.836 18.5602 54.2192C19.1424 54.4008 19.6019 54.4437 20.9665 54.4437H22.6531V47.1965V39.9493H21.7472H20.8413V46.2906V52.6319H20.0709C18.7434 52.6319 17.7807 51.9689 17.3736 50.774C17.232 50.3584 17.211 49.4317 17.241 44.9166L17.2766 39.5529L17.5699 38.7966C17.7311 38.3807 18.0276 37.7842 18.2286 37.471C18.7476 36.6622 19.9123 35.6142 20.7492 35.2031C22.077 34.5509 22.6596 34.494 27.579 34.5371C31.8486 34.5744 32.0197 34.5844 32.7313 34.8364C33.744 35.1951 34.3737 35.5797 35.1357 36.3048C35.912 37.0437 36.3993 37.7752 36.7954 38.7966L37.0887 39.5529L37.1243 44.9124C37.1641 50.9178 37.1561 50.993 36.3873 51.7846C35.8041 52.3851 35.2044 52.6265 34.2883 52.6294L33.524 52.6319V46.2906V39.9493H32.6181H31.7122V47.206V54.4629L33.6089 54.4198C35.9897 54.3659 36.5086 54.1989 37.5495 53.1515C38.2746 52.4216 38.6605 51.7351 38.8549 50.8288C38.9314 50.4718 38.9592 48.3584 38.9331 44.8579C38.898 40.1332 38.8682 39.3672 38.7009 38.8735C38.5953 38.5621 38.5084 38.2692 38.5077 38.2224C38.507 38.1756 40.3537 38.1384 42.6113 38.1394C45.7321 38.141 46.8993 38.1802 47.4801 38.3033C49.6482 38.7628 51.4954 40.4074 52.2295 42.5322C52.477 43.2483 52.4913 43.4512 52.4913 46.2399V49.1899L52.0649 50.0527C51.4638 51.269 50.3866 52.1885 49.2357 52.4677L48.9243 52.5433V47.6051V42.667H48.0184H47.1125V47.6495V52.6319H43.0359H38.9594V53.5431V54.4543L44.1966 54.4207C49.4101 54.3872 49.4369 54.3859 50.1133 54.1174C51.0533 53.7443 52.2273 52.9475 52.7709 52.3139C53.409 51.5701 54.0026 50.3921 54.1936 49.4904C54.43 48.375 54.4209 44.0857 54.1796 42.9178C53.6073 40.1467 51.8144 38.0036 49.1554 36.912C47.8842 36.3902 46.9508 36.314 42.1107 36.3373L37.6184 36.359L37.0502 35.6761C36.0181 34.436 34.9294 33.7038 33.2491 33.12L32.2217 32.763L27.579 32.742C25.0255 32.7305 22.6493 32.7651 22.2987 32.819ZM23.559 53.5378V54.4437H27.1827H30.8063V53.5378V52.6319H27.1827H23.559V53.5378Z" fill="#30B8C4"/>
</svg>
