<svg width="56" height="64" viewBox="0 0 56 64" fill="none" xmlns="http://www.w3.org/2000/svg">
<path opacity="0.2" d="M0.359375 0.835938H54.8052V13.285H0.359375V0.835938Z" fill="#7ABFFF"/>
<path fill-rule="evenodd" clip-rule="evenodd" d="M0.0644531 0.835801C0.0644531 0.672996 0.196433 0.541016 0.359239 0.541016H54.805C54.9678 0.541016 55.0998 0.672996 55.0998 0.835801V13.2849C55.0998 13.4477 54.9678 13.5797 54.805 13.5797H0.359239C0.196433 13.5797 0.0644531 13.4477 0.0644531 13.2849V0.835801ZM0.654024 1.13059V12.9901H54.5102V1.13059H0.654024Z" fill="#333333"/>
<path fill-rule="evenodd" clip-rule="evenodd" d="M27.1546 13.285L27.1546 0.835937L27.7441 0.835938L27.7441 13.285L27.1546 13.285Z" fill="#333333"/>
<path opacity="0.2" d="M0.359375 13.2842H13.7114V63.1642H0.359375V13.2842Z" fill="#7ABFFF"/>
<path fill-rule="evenodd" clip-rule="evenodd" d="M0.0644531 0.835801C0.0644531 0.672996 0.196433 0.541016 0.359239 0.541016H13.7112C13.874 0.541016 14.006 0.672996 14.006 0.835801V63.1649C14.006 63.3278 13.874 63.4597 13.7112 63.4597H0.359239C0.196433 63.4597 0.0644531 63.3278 0.0644531 63.1649V0.835801ZM0.654024 1.13059V62.8702H13.4164V1.13059H0.654024Z" fill="#333333"/>
<path fill-rule="evenodd" clip-rule="evenodd" d="M13.7114 26.0583H0.359375V25.4688H13.7114V26.0583Z" fill="#333333"/>
<path fill-rule="evenodd" clip-rule="evenodd" d="M13.7114 38.4958H0.359375V37.9062H13.7114V38.4958Z" fill="#333333"/>
<path fill-rule="evenodd" clip-rule="evenodd" d="M13.7114 51.1316H0.359375V50.542H13.7114V51.1316Z" fill="#333333"/>
<path opacity="0.2" d="M41.4531 13.2842H54.8051V63.1642H41.4531V13.2842Z" fill="#7ABFFF"/>
<path fill-rule="evenodd" clip-rule="evenodd" d="M41.1582 0.835801C41.1582 0.672996 41.2902 0.541016 41.453 0.541016H54.805C54.9678 0.541016 55.0998 0.672996 55.0998 0.835801V63.1649C55.0998 63.3278 54.9678 63.4597 54.805 63.4597H41.453C41.2902 63.4597 41.1582 63.3278 41.1582 63.1649V0.835801ZM41.7478 1.13059V62.8702H54.5102V1.13059H41.7478Z" fill="#333333"/>
<path fill-rule="evenodd" clip-rule="evenodd" d="M54.8051 26.0583H41.4531V25.4688H54.8051V26.0583Z" fill="#333333"/>
<path fill-rule="evenodd" clip-rule="evenodd" d="M54.8051 38.4958H41.4531V37.9062H54.8051V38.4958Z" fill="#333333"/>
<path fill-rule="evenodd" clip-rule="evenodd" d="M54.8051 51.1316H41.4531V50.542H54.8051V51.1316Z" fill="#333333"/>
</svg>
