<svg width="72" height="60" viewBox="0 0 72 60" fill="none" xmlns="http://www.w3.org/2000/svg">
<path fill-rule="evenodd" clip-rule="evenodd" d="M24.4876 55.3165L24.4876 3.08887L25.1592 3.08887L25.1592 55.3165L24.4876 55.3165Z" fill="#4D4D4D"/>
<path d="M0.834961 2.71094H71.4048V3.59324H0.834961V2.71094Z" fill="#333333"/>
<path opacity="0.2" d="M42.9317 0.87793L25.2607 3.84669L25.2608 55.518L42.9317 59.1218V0.87793Z" fill="#7ABFFF"/>
<path fill-rule="evenodd" clip-rule="evenodd" d="M43.1062 0.672923C43.1665 0.723962 43.2013 0.798977 43.2013 0.878001V59.1219C43.2013 59.2025 43.1651 59.2789 43.1026 59.3299C43.0401 59.381 42.9581 59.4012 42.879 59.3851L25.2081 55.7813C25.083 55.7558 24.9932 55.6457 24.9932 55.5181L24.9932 3.84676C24.9932 3.71558 25.0879 3.60359 25.2173 3.58185L42.8882 0.61309C42.9661 0.599997 43.0459 0.621883 43.1062 0.672923ZM25.5304 4.07402L25.5304 55.2987L42.6641 58.7929V1.19552L25.5304 4.07402Z" fill="#333333"/>
<path d="M40.4189 26.3535H42.9336V33.9178H40.4189V26.3535Z" fill="#333333"/>
<path fill-rule="evenodd" clip-rule="evenodd" d="M40.912 29.1295H38.3643V28.7266H40.912V29.1295Z" fill="#4D4D4D"/>
<path fill-rule="evenodd" clip-rule="evenodd" d="M41.0823 28.2827C41.3147 28.2128 41.5834 28.2337 41.7559 28.2687L41.6759 28.6636C41.5364 28.6353 41.3418 28.6254 41.1983 28.6685C41.1291 28.6893 41.0869 28.7179 41.0632 28.7474C41.0426 28.773 41.0218 28.8165 41.0281 28.9015C41.0346 28.99 41.0624 29.0441 41.0941 29.0803C41.1276 29.1184 41.1767 29.1492 41.2429 29.1707C41.3807 29.2156 41.5553 29.2081 41.6747 29.1831L41.7572 29.5775C41.5962 29.6112 41.3453 29.6277 41.1183 29.5539C41.0021 29.5161 40.884 29.4519 40.7911 29.3459C40.6964 29.2379 40.6387 29.0987 40.6262 28.9313C40.6136 28.7604 40.6553 28.6118 40.7491 28.495C40.8397 28.3822 40.9636 28.3183 41.0823 28.2827Z" fill="#4D4D4D"/>
<path fill-rule="evenodd" clip-rule="evenodd" d="M41.1208 30.4956C41.348 30.4212 41.5811 30.4825 41.7189 30.5583C41.8997 30.6577 41.9787 30.8302 42.014 30.9597C42.0504 31.0928 42.056 31.2337 42.0516 31.3515C42.0472 31.4725 42.0313 31.5881 42.014 31.6794C42.0052 31.7253 41.9956 31.7676 41.986 31.8036C41.9787 31.8307 41.965 31.8793 41.9435 31.9223C41.8499 32.1095 41.6672 32.175 41.5405 32.1935C41.4061 32.2131 41.2635 32.1942 41.132 32.153C41.1289 32.1521 41.1255 32.151 41.1216 32.1498C41.0844 32.1385 41.0094 32.1156 40.9445 32.0769C40.8471 32.0188 40.7774 31.9337 40.7366 31.8256C40.7031 31.7368 40.6919 31.639 40.6862 31.5496C40.6802 31.4552 40.6787 31.3367 40.6787 31.1917C40.6787 31.0313 40.7116 30.8792 40.7928 30.7508C40.8768 30.6182 40.9962 30.5364 41.1208 30.4956ZM41.3543 31.1349C41.3521 31.1479 41.3503 31.1665 41.3503 31.1917C41.3503 31.3368 41.3519 31.436 41.3564 31.5067C41.3567 31.511 41.3569 31.5152 41.3572 31.5191C41.3583 31.5194 41.3593 31.5196 41.3603 31.5199C41.3701 31.4615 41.3781 31.3938 41.3805 31.3267C41.3836 31.2432 41.3775 31.1783 41.3663 31.1371C41.3627 31.1362 41.3589 31.1355 41.3552 31.135C41.3549 31.1349 41.3546 31.1349 41.3543 31.1349ZM41.3588 31.115C41.3588 31.1149 41.3588 31.1149 41.3588 31.1149C41.3589 31.115 41.3589 31.1152 41.359 31.1153C41.3589 31.1152 41.3588 31.1151 41.3588 31.115ZM41.3331 31.6442C41.333 31.6447 41.3329 31.6449 41.3329 31.6449C41.3329 31.6449 41.333 31.6446 41.3331 31.6442ZM41.4441 31.5289C41.4444 31.5288 41.4446 31.5288 41.4446 31.5288C41.4446 31.5288 41.4444 31.5289 41.4441 31.5289Z" fill="#4D4D4D"/>
<path fill-rule="evenodd" clip-rule="evenodd" d="M33.3613 57.4811L33.3661 2.38081L33.9033 2.38086L33.8986 57.4811L33.3613 57.4811Z" fill="#333333"/>
<path fill-rule="evenodd" clip-rule="evenodd" d="M42.9313 12.6634L25.2604 14.2636L25.2119 13.7285L42.8828 12.1283L42.9313 12.6634Z" fill="#333333"/>
<path fill-rule="evenodd" clip-rule="evenodd" d="M42.9319 24.2205L25.2609 24.9343L25.2393 24.3975L42.9102 23.6836L42.9319 24.2205Z" fill="#333333"/>
<path fill-rule="evenodd" clip-rule="evenodd" d="M42.931 35.7075L25.2601 35.1063L25.2783 34.5693L42.9492 35.1705L42.931 35.7075Z" fill="#333333"/>
<path fill-rule="evenodd" clip-rule="evenodd" d="M42.9338 47.4666L25.2628 45.3361L25.3271 44.8027L42.9981 46.9332L42.9338 47.4666Z" fill="#333333"/>
<path opacity="0.2" d="M2.16699 3.87402H24.6144V55.5458H2.16699V3.87402Z" fill="#7ABFFF"/>
<path fill-rule="evenodd" clip-rule="evenodd" d="M1.89941 3.87409C1.89941 3.72574 2.01968 3.60547 2.16804 3.60547H24.6155C24.7638 3.60547 24.8841 3.72574 24.8841 3.87409V55.5459C24.8841 55.6943 24.7638 55.8145 24.6155 55.8145H2.16804C2.01968 55.8145 1.89941 55.6943 1.89941 55.5459V3.87409ZM2.43666 4.14272V55.2773H24.3469V4.14272H2.43666Z" fill="#333333"/>
<path fill-rule="evenodd" clip-rule="evenodd" d="M13.0282 55.3152L13.0282 3.87402L13.5654 3.87402L13.5654 55.3152L13.0282 55.3152Z" fill="#333333"/>
<path fill-rule="evenodd" clip-rule="evenodd" d="M24.6152 14.2638H2.31152V13.7266H24.6152V14.2638Z" fill="#333333"/>
<path fill-rule="evenodd" clip-rule="evenodd" d="M24.6152 24.9699H2.31152V24.4326H24.6152V24.9699Z" fill="#333333"/>
<path fill-rule="evenodd" clip-rule="evenodd" d="M24.6152 35.1046H2.31152V34.5674H24.6152V35.1046Z" fill="#333333"/>
<path fill-rule="evenodd" clip-rule="evenodd" d="M24.6152 45.6369H2.31152V45.0996H24.6152V45.6369Z" fill="#333333"/>
<path opacity="0.2" d="M47.7959 3.875H70.2433V55.5468H47.7959V3.875Z" fill="#7ABFFF"/>
<path fill-rule="evenodd" clip-rule="evenodd" d="M47.5283 3.87507C47.5283 3.72671 47.6486 3.60645 47.7969 3.60645H70.2444C70.3928 3.60645 70.513 3.72671 70.513 3.87507V55.5469C70.513 55.6952 70.3928 55.8155 70.2444 55.8155H47.7969C47.6486 55.8155 47.5283 55.6952 47.5283 55.5469V3.87507ZM48.0656 4.14369V55.2783H69.9758V4.14369H48.0656Z" fill="#333333"/>
<path fill-rule="evenodd" clip-rule="evenodd" d="M58.6571 55.5469L58.6571 3.875L59.1943 3.875L59.1943 55.5469L58.6571 55.5469Z" fill="#333333"/>
<path fill-rule="evenodd" clip-rule="evenodd" d="M70.2441 14.2648H47.9404V13.7275H70.2441V14.2648Z" fill="#333333"/>
<path fill-rule="evenodd" clip-rule="evenodd" d="M70.2441 24.9708H47.9404V24.4336H70.2441V24.9708Z" fill="#333333"/>
<path fill-rule="evenodd" clip-rule="evenodd" d="M70.2441 35.1056H47.9404V34.5684H70.2441V35.1056Z" fill="#333333"/>
<path fill-rule="evenodd" clip-rule="evenodd" d="M70.2441 45.6369H47.9404V45.0996H70.2441V45.6369Z" fill="#333333"/>
<path d="M2.12646 4.10752L0.836914 3.58496H24.9066V4.10752H2.12646Z" fill="black"/>
<path d="M70.5 4.11631L71.4033 3.59375H47.5203V4.11631H70.5Z" fill="black"/>
</svg>
