<svg width="42" height="52" viewBox="0 0 42 52" fill="none" xmlns="http://www.w3.org/2000/svg">
<circle cx="20.9511" cy="20.8784" r="11.457" fill="#30B8C4"/>
<circle cx="20.9527" cy="20.8784" r="19.6206" stroke="#30B8C4"/>
<path d="M10.2882 36.6399C10.2877 35.0245 14.5966 36.9988 16.7511 38.1879H17.5587C17.5812 35.9668 17.6126 31.1342 17.5587 29.5726C17.4914 27.6206 17.8279 24.2554 17.9626 22.7747C18.0702 21.5901 20.0715 21.7426 21.0587 21.967L22.4721 24.9285L23.4144 31.5246C23.8631 31.4348 24.9355 31.3092 25.6355 31.5246C26.3355 31.7399 27.1835 32.6015 27.5201 33.0053C27.9688 32.8258 29.0008 32.4803 29.5393 32.5341C30.0777 32.588 31.7828 33.6335 32.5681 34.1495C32.9046 33.97 33.7796 33.638 34.5872 33.7457C35.5968 33.8803 36.1353 35.4957 36.5391 37.0437C36.943 38.5918 35.8661 45.1878 35.3276 46.6685C34.7892 48.1493 31.895 49.7646 29.5393 50.1685C27.1835 50.5723 24.2221 51.0435 21.0587 49.7646C17.8952 48.4858 14.0579 43.4378 11.1637 40.2071C8.26954 36.9764 10.2887 38.6591 10.2882 36.6399Z" fill="white" stroke="#232C2E"/>
<path d="M34.1703 32.4718C33.5714 32.474 32.9836 32.6339 32.4661 32.9356C32.1535 32.4398 31.7208 32.0311 31.208 31.7473C30.6952 31.4636 30.119 31.314 29.533 31.3125C28.934 31.3146 28.3462 31.4746 27.8287 31.7762C27.4069 31.1125 26.7727 30.6114 26.0294 30.3545C25.2862 30.0976 24.4778 30.1002 23.7363 30.3618V24.3564C23.7363 23.434 23.3698 22.5494 22.7176 21.8971C22.0653 21.2449 21.1807 20.8784 20.2582 20.8784C19.3358 20.8784 18.4512 21.2449 17.7989 21.8971C17.1466 22.5494 16.7802 23.434 16.7802 24.3564V37.2251L14.1949 35.4629C13.6022 35.0215 12.8818 34.7855 12.1429 34.7905C11.453 34.7888 10.7783 34.9923 10.2044 35.375C9.63048 35.7578 9.18338 36.3026 8.91991 36.9402C8.65645 37.5777 8.58852 38.2792 8.72476 38.9554C8.86101 39.6317 9.19527 40.2521 9.68505 40.7379L18.9598 49.2011C20.2728 50.3763 21.9741 51.0246 23.7363 51.0213H29.533C31.6853 51.0213 33.7495 50.1662 35.2714 48.6443C36.7933 47.1224 37.6483 45.0582 37.6483 42.9059V35.9498C37.6483 35.0274 37.2819 34.1428 36.6296 33.4905C35.9774 32.8383 35.0927 32.4718 34.1703 32.4718ZM35.3297 42.9059C35.3297 44.4433 34.7189 45.9177 33.6318 47.0048C32.5448 48.0919 31.0703 48.7026 29.533 48.7026H23.7363C22.5644 48.7167 21.4273 48.3047 20.5365 47.5432L11.3197 39.0801C11.1055 38.8641 10.9848 38.5727 10.9835 38.2685C10.9835 38.0532 11.0435 37.8422 11.1567 37.659C11.2699 37.4759 11.4318 37.3279 11.6244 37.2316C11.817 37.1353 12.0325 37.0945 12.247 37.1139C12.4614 37.1332 12.6662 37.2119 12.8385 37.341L19.0989 41.6306V24.3564C19.0989 24.049 19.221 23.7541 19.4385 23.5367C19.6559 23.3192 19.9508 23.1971 20.2582 23.1971C20.5657 23.1971 20.8606 23.3192 21.078 23.5367C21.2954 23.7541 21.4176 24.049 21.4176 24.3564V37.1092H23.7363V33.6312C23.7363 33.3237 23.8584 33.0288 24.0758 32.8114C24.2932 32.594 24.5881 32.4718 24.8956 32.4718C25.2031 32.4718 25.498 32.594 25.7154 32.8114C25.9328 33.0288 26.0549 33.3237 26.0549 33.6312V37.1092H28.3736V34.7905C28.3736 34.483 28.4958 34.1881 28.7132 33.9707C28.9306 33.7533 29.2255 33.6312 29.533 33.6312C29.8404 33.6312 30.1353 33.7533 30.3527 33.9707C30.5702 34.1881 30.6923 34.483 30.6923 34.7905V37.1092H33.011V35.9498C33.011 35.6424 33.1331 35.3475 33.3505 35.1301C33.568 34.9126 33.8628 34.7905 34.1703 34.7905C34.4778 34.7905 34.7727 34.9126 34.9901 35.1301C35.2075 35.3475 35.3297 35.6424 35.3297 35.9498V42.9059Z" fill="#232C2E"/>
</svg>
