<svg width="64" height="66" viewBox="0 0 64 66" fill="none" xmlns="http://www.w3.org/2000/svg">
<path d="M59.7314 1.39648H62.3312V64.1193H56.4522L59.7314 60.8715V1.39648ZM59.7314 1.39648H3.72672M3.72672 1.39648H1V64.1193H14.2695V60.8715H3.72672V1.39648Z" stroke="#232C2E" stroke-width="2"/>
<path d="M7.46484 61.0964V11.5486H5.46484V61.0964H7.46484ZM8.46484 10.5486H33.7546V8.54857H8.46484V10.5486ZM33.7546 5.99707H13.0339V7.99707H33.7546V5.99707ZM12.3346 5.51788C12.375 5.1529 12.472 4.8914 12.5915 4.73246C12.6849 4.60827 12.8238 4.49756 13.1272 4.46997L12.9462 2.47818C12.0896 2.55605 11.4319 2.9468 10.993 3.53046C10.5803 4.07936 10.4093 4.73208 10.3467 5.29806L12.3346 5.51788ZM13.1272 4.46997C14.1889 4.37346 15.5085 4.00313 16.676 3.61023C17.8614 3.21135 18.9688 2.76184 19.6353 2.46552L18.8229 0.637994C18.2082 0.911274 17.159 1.3375 16.0382 1.71468C14.8996 2.09783 13.7636 2.40387 12.9462 2.47818L13.1272 4.46997ZM13.0339 5.99707C12.791 5.99707 12.5821 5.90876 12.459 5.80041C12.3515 5.70573 12.3236 5.61727 12.3346 5.51788L10.3467 5.29806C10.255 6.12783 10.6063 6.83393 11.1374 7.3015C11.6529 7.75542 12.3421 7.99707 13.0339 7.99707V5.99707ZM36.0304 8.27282C36.0304 7.01596 35.0115 5.99707 33.7546 5.99707V7.99707C33.9069 7.99707 34.0304 8.12053 34.0304 8.27282H36.0304ZM33.7546 10.5486C35.0115 10.5486 36.0304 9.52968 36.0304 8.27282H34.0304C34.0304 8.42511 33.9069 8.54857 33.7546 8.54857V10.5486ZM7.46484 11.5486C7.46484 10.9963 7.91256 10.5486 8.46484 10.5486V8.54857C6.80799 8.54857 5.46484 9.89172 5.46484 11.5486H7.46484Z" fill="#232C2E"/>
<path d="M34.7281 6.3501C34.4338 6.04563 34.231 5.65517 34.2266 5.39762C34.2251 5.3103 34.2442 5.2371 34.3192 5.14919C34.4092 5.04362 34.6255 4.86767 35.1144 4.70467L34.4818 2.80735C33.7703 3.04457 33.1956 3.38451 32.7974 3.85148C32.3841 4.33612 32.2177 4.89213 32.2269 5.43166C32.2439 6.42783 32.847 7.28168 33.29 7.74005L34.7281 6.3501ZM35.1144 4.70467C38.418 3.60323 38.7348 2.74374 42.429 2.5385L42.3181 0.541579C38.2909 0.765314 37.1802 1.90769 34.4818 2.80735L35.1144 4.70467Z" fill="#232C2E"/>
<path d="M50.8371 1.57977C50.9569 1.69958 50.9062 6.5168 50.8544 9.6377C50.8453 10.1826 50.4007 10.6179 49.8557 10.6179H44.9766C44.4243 10.6179 43.9766 10.1701 43.9766 9.61785V9.22018C43.9766 8.6679 44.4243 8.22018 44.9766 8.22018H47.3655C47.9178 8.22018 48.3655 7.77247 48.3655 7.22018V1.3584" stroke="#232C2E" stroke-width="2"/>
<rect x="54.1211" y="1.54004" width="2.43425" height="7.12217" rx="1" stroke="#232C2E" stroke-width="2"/>
<path d="M41.1572 63.5611L40.1866 63.802L42.1277 63.3202L41.1572 63.5611ZM47.4492 48.6608L47.6105 47.6739L47.4492 48.6608ZM59.3644 50.3855L60.345 50.5816L60.3644 50.4845V50.3855H59.3644ZM59.3644 44.8296H60.3644V43.3128L58.9704 43.9106L59.3644 44.8296ZM55.6228 45.2334L56.2229 44.4335L55.6228 45.2334ZM53.6543 41.9549L53.5933 42.9531L53.6543 41.9549ZM51.6412 45.2334L51.175 46.1181L51.8118 46.4536L52.3322 45.9562L51.6412 45.2334ZM45.0137 44.0204L44.7613 44.988L44.8169 45.0025L44.8738 45.0105L45.0137 44.0204ZM41.1578 47.4541L42.1556 47.5203L41.1578 47.4541ZM42.1277 63.3202C41.5604 61.0346 41.8056 57.2969 42.8424 54.2289C43.3584 52.7021 44.0395 51.4371 44.8278 50.6194C45.594 49.8247 46.4 49.5026 47.2879 49.6477L47.6105 47.6739C45.9115 47.3962 44.4816 48.0969 43.388 49.2313C42.3165 50.3427 41.514 51.913 40.9477 53.5886C39.82 56.9255 39.5062 61.0607 40.1866 63.802L42.1277 63.3202ZM47.2879 49.6477C49.3238 49.9804 50.6895 50.3704 51.8528 50.7595C52.9884 51.1393 54.0764 51.5737 55.3603 51.9228L55.8852 49.9929C54.6679 49.6619 53.7652 49.2902 52.4872 48.8628C51.237 48.4446 49.7666 48.0262 47.6105 47.6739L47.2879 49.6477ZM55.3603 51.9228C56.7173 52.2919 57.81 52.3218 58.6392 52.1076C59.4187 51.9061 60.1796 51.4087 60.345 50.5816L58.3839 50.1894C58.4359 49.9292 58.5766 50.0581 58.1388 50.1712C57.7509 50.2714 57.0294 50.3041 55.8852 49.9929L55.3603 51.9228ZM60.3644 50.3855V44.8296H58.3644V50.3855H60.3644ZM58.9704 43.9106C58.5401 44.095 57.9725 44.355 57.3807 44.4907C56.756 44.6339 56.4008 44.567 56.2229 44.4335L55.0226 46.0332C55.9332 46.7165 57.052 46.6179 57.8276 46.4401C58.636 46.2548 59.3951 45.9045 59.7585 45.7487L58.9704 43.9106ZM56.2229 44.4335C55.8831 44.1785 55.7672 43.7754 55.5885 43.0129C55.5167 42.7062 55.4096 42.2321 55.175 41.8418C55.0452 41.626 54.8605 41.4047 54.5949 41.2346C54.3257 41.0622 54.0253 40.9757 53.7153 40.9568L53.5933 42.9531C53.6076 42.954 53.5696 42.9529 53.5164 42.9189C53.4667 42.887 53.4516 42.8568 53.4609 42.8724C53.5044 42.9447 53.5533 43.0938 53.6413 43.4692C53.7823 44.0708 54.0018 45.2673 55.0226 46.0332L56.2229 44.4335ZM53.7153 40.9568C52.9524 40.9102 52.5127 41.437 52.3132 41.759C52.1152 42.0788 51.9663 42.4898 51.8514 42.8012C51.5807 43.5354 51.3498 44.1285 50.9502 44.5105L52.3322 45.9562C53.1273 45.1962 53.4948 44.1253 53.7279 43.4932C53.865 43.1216 53.9443 42.9239 54.0136 42.8121C54.0814 42.7026 53.9481 42.9748 53.5933 42.9531L53.7153 40.9568ZM52.1074 44.3487C51.8994 44.2391 51.619 44.1605 51.3987 44.104C51.1441 44.0388 50.8351 43.9712 50.4997 43.9039C49.8273 43.7689 49.0075 43.6269 48.2196 43.4982C47.4299 43.3692 46.6638 43.2522 46.0957 43.1676C45.8115 43.1253 45.5764 43.091 45.4122 43.0673C45.3301 43.0554 45.2657 43.0462 45.2217 43.0399C45.1997 43.0367 45.1828 43.0343 45.1713 43.0327C45.1656 43.0319 45.1612 43.0313 45.1583 43.0309C45.1568 43.0306 45.1556 43.0305 45.1549 43.0304C45.1545 43.0303 45.1542 43.0303 45.154 43.0302C45.1539 43.0302 45.1538 43.0302 45.1537 43.0302C45.1537 43.0302 45.1536 43.0302 45.0137 44.0204C44.8738 45.0105 44.8738 45.0105 44.8739 45.0105C44.8739 45.0105 44.8739 45.0105 44.874 45.0106C44.8742 45.0106 44.8744 45.0106 44.8747 45.0107C44.8754 45.0107 44.8764 45.0109 44.8778 45.0111C44.8805 45.0115 44.8846 45.0121 44.8901 45.0128C44.901 45.0144 44.9174 45.0167 44.9389 45.0198C44.9818 45.0259 45.0451 45.035 45.126 45.0467C45.2878 45.0701 45.52 45.104 45.8011 45.1458C46.3635 45.2296 47.1198 45.345 47.8972 45.472C48.6765 45.5993 49.4688 45.7369 50.1062 45.8648C50.4258 45.9289 50.6962 45.9886 50.9022 46.0414C51.1424 46.103 51.2036 46.1331 51.175 46.1181L52.1074 44.3487ZM45.2661 43.0527C44.0526 42.7362 42.8015 43.0095 41.8366 43.8039C40.8734 44.5969 40.2621 45.8482 40.16 47.3879L42.1556 47.5203C42.2275 46.4355 42.639 45.7339 43.1078 45.348C43.5747 44.9636 44.1646 44.8323 44.7613 44.988L45.2661 43.0527ZM40.16 47.3879C39.9841 50.0392 39.6719 52.9225 39.5635 55.658C39.4538 58.4257 39.5409 61.2003 40.1866 63.802L42.1277 63.3202C41.5483 60.9859 41.4552 58.4283 41.5619 55.7372C41.6698 53.0138 41.9705 50.3116 42.1556 47.5203L40.16 47.3879Z" fill="#232C2E"/>
</svg>
