<svg width="64" height="66" viewBox="0 0 64 66" fill="none" xmlns="http://www.w3.org/2000/svg">
<path fill-rule="evenodd" clip-rule="evenodd" d="M0 2.37793C0 1.27336 0.89543 0.37793 2 0.37793H61.3312C62.4358 0.37793 63.3312 1.27336 63.3312 2.37793V63.1007C63.3312 64.2053 62.4358 65.1007 61.3312 65.1007H35.403C34.2984 65.1007 33.403 64.2053 33.403 63.1007V61.8529C33.403 60.7483 34.2984 59.8529 35.403 59.8529H58.7314V2.37793H4.72672V59.8529H13.2695C14.3741 59.8529 15.2695 60.7483 15.2695 61.8529V63.1007C15.2695 64.2053 14.3741 65.1007 13.2695 65.1007H2C0.89543 65.1007 0 64.2053 0 63.1007V2.37793ZM2.72672 2.37793H2V63.1007H13.2695V61.8529H4.72672C3.62215 61.8529 2.72672 60.9575 2.72672 59.8529V2.37793ZM60.7314 2.37793V59.8529C60.7314 60.9575 59.836 61.8529 58.7314 61.8529H35.403V63.1007H61.3312V2.37793H60.7314Z" fill="#232C2E"/>
<path fill-rule="evenodd" clip-rule="evenodd" d="M16.676 3.59138C15.5085 3.98428 14.1889 4.3546 13.1272 4.45112C12.8238 4.4787 12.6849 4.58942 12.5915 4.71361C12.472 4.87255 12.375 5.13405 12.3346 5.49902C12.3236 5.59842 12.3515 5.68687 12.459 5.78156C12.5821 5.88991 12.791 5.97822 13.0339 5.97822H33.7546C35.0115 5.97822 36.0304 6.99711 36.0304 8.25397C36.0304 9.51083 35.0115 10.5297 33.7546 10.5297H8.46484C7.91256 10.5297 7.46484 10.9774 7.46484 11.5297V61.0776H5.46484V11.5297C5.46484 9.87286 6.80799 8.52972 8.46484 8.52972H33.7546C33.9069 8.52972 34.0304 8.40626 34.0304 8.25397C34.0304 8.10168 33.9069 7.97822 33.7546 7.97822H13.0339C12.3421 7.97822 11.6529 7.73656 11.1374 7.28265C10.6063 6.81508 10.255 6.10898 10.3467 5.27921C10.4093 4.71322 10.5803 4.06051 10.993 3.51161C11.4319 2.92795 12.0896 2.5372 12.9462 2.45933C13.7636 2.38502 14.8996 2.07898 16.0382 1.69583C17.159 1.31865 18.2082 0.892421 18.8229 0.619141L19.6353 2.44667C18.9688 2.74298 17.8614 3.1925 16.676 3.59138Z" fill="#232C2E"/>
<path fill-rule="evenodd" clip-rule="evenodd" d="M37.6653 3.67781C36.9904 3.97669 36.2195 4.31807 35.1144 4.68653C34.6255 4.84953 34.4092 5.02548 34.3192 5.13105C34.2442 5.21896 34.2251 5.29216 34.2266 5.37948C34.231 5.63703 34.4338 6.02749 34.7281 6.33196L33.29 7.72191C32.847 7.26354 32.2439 6.40969 32.2269 5.41352C32.2177 4.87399 32.3841 4.31798 32.7974 3.83334C33.1956 3.36637 33.7703 3.02642 34.4818 2.78921C35.2894 2.51997 35.9547 2.22899 36.5986 1.9474C38.1062 1.28807 39.4961 0.680216 42.3181 0.523438L42.429 2.52036C39.9706 2.65694 39.0079 3.08326 37.6653 3.67781Z" fill="#232C2E"/>
<path fill-rule="evenodd" clip-rule="evenodd" d="M47.2683 49.1306C46.8125 48.6372 45.8881 48.4885 44.6285 48.9526C44.2414 49.0952 43.9761 49.3903 43.5765 49.9201C43.5513 49.9535 43.525 49.9889 43.4974 50.0259C43.1814 50.4501 42.7065 51.0878 41.9665 51.4298C41.9417 51.501 41.912 51.6149 41.887 51.7821C41.8196 52.2345 41.8166 52.8649 41.8647 53.5718C41.923 54.429 42.0485 55.2981 42.1707 55.9492C42.3268 55.8138 42.5028 55.6539 42.6987 55.471C42.8492 55.3305 43.0107 55.1772 43.1777 55.0186C43.5127 54.7005 43.8705 54.3609 44.2087 54.059C44.7078 53.6135 45.2731 53.1487 45.805 52.8827C46.0326 52.7689 46.2725 52.6662 46.5124 52.6119C46.7573 52.5565 47.0966 52.5305 47.4426 52.6911C47.7901 52.8524 47.976 53.1241 48.0733 53.3054C48.1599 53.4667 48.2216 53.6454 48.2595 53.7553C48.2612 53.7601 48.2628 53.7647 48.2644 53.7693L48.2653 53.772C48.3532 54.0261 48.4269 54.2392 48.5791 54.4739C48.7264 54.7011 48.9703 54.9798 49.4209 55.2705C49.886 55.5705 50.2299 55.6795 50.4958 55.714C50.7634 55.7487 51.0234 55.7174 51.3482 55.6344C51.4678 55.6038 51.6084 55.5599 51.7673 55.5103C52.3791 55.3194 53.2628 55.0437 54.2724 55.1132C54.6442 55.1388 55.0257 55.2562 55.3427 55.5273C55.6602 55.7987 55.8236 56.1478 55.8969 56.4746C56.0315 57.075 55.8948 57.7375 55.7305 58.2719C55.3861 59.3923 54.6895 60.6548 54.1708 61.4646L52.4866 60.3859C52.9647 59.6395 53.5517 58.553 53.8187 57.6843C53.8995 57.4215 53.9345 57.2298 53.9466 57.1007C53.4438 57.0945 53.0681 57.21 52.5844 57.3589C52.3665 57.4259 52.1268 57.4996 51.8437 57.572C51.3844 57.6895 50.851 57.7767 50.2388 57.6974C49.6248 57.6179 49.0022 57.3804 48.3367 56.9512C47.6567 56.5125 47.2075 56.0346 46.9011 55.5621C46.717 55.2783 46.5929 55.0076 46.5047 54.7838C46.2525 54.9453 45.9285 55.2047 45.5405 55.5511C45.2235 55.834 44.9086 56.1331 44.5888 56.4368C44.4156 56.6014 44.2409 56.7674 44.0636 56.9329C43.5972 57.3683 43.084 57.8291 42.6378 58.099C42.4383 58.2197 42.0857 58.4093 41.6735 58.4042C41.4329 58.4012 41.1585 58.3312 40.916 58.1392C40.6825 57.9544 40.5576 57.7189 40.4915 57.5209C40.2719 56.8623 39.9722 55.2192 39.8693 53.7075C39.8176 52.9463 39.8102 52.1497 39.9089 51.4874C39.9578 51.1587 40.0405 50.8084 40.1909 50.4974C40.3391 50.1909 40.6096 49.8107 41.0882 49.6308C41.3429 49.535 41.5323 49.309 41.9798 48.7156L41.9812 48.7138C42.3655 48.2044 42.9395 47.4434 43.9371 47.0759C45.4494 46.5187 47.4415 46.3705 48.7375 47.7736C49.17 48.2418 50.0461 49.1716 50.916 49.9973C51.3526 50.4117 51.7717 50.7847 52.1233 51.0571C52.1279 51.0607 52.1325 51.0642 52.1371 51.0678C52.153 50.9974 52.1705 50.9202 52.1902 50.835C52.27 50.4891 52.3922 49.9894 52.6345 49.5715C52.904 49.1065 53.4036 48.6194 54.2037 48.6194C54.9147 48.6194 55.4396 49.0013 55.7839 49.355C56.125 49.7054 56.3995 50.1418 56.6088 50.4876C56.6614 50.5746 56.7098 50.6555 56.755 50.7311C56.913 50.9952 57.0315 51.1934 57.1522 51.3515C57.1636 51.3664 57.174 51.3796 57.1835 51.3912H59.6738V53.3912H56.9749C56.5875 53.3912 56.2782 53.235 56.063 53.0756C55.8537 52.9205 55.6882 52.7299 55.5623 52.5648C55.3655 52.307 55.1694 51.9781 55.0047 51.7017C54.9673 51.639 54.9315 51.5789 54.8977 51.523C54.6876 51.1758 54.5154 50.9192 54.3507 50.75C54.3338 50.7326 54.3182 50.7174 54.3039 50.7042C54.2522 50.8353 54.1994 51.0229 54.1389 51.285C54.1281 51.3319 54.1165 51.3838 54.1042 51.4393C54.041 51.7234 53.9565 52.1032 53.8378 52.3958C53.7641 52.5774 53.6327 52.8467 53.3877 53.0632C53.096 53.3211 52.7059 53.4472 52.2882 53.3776C51.9949 53.3288 51.7293 53.193 51.5391 53.0812C51.3295 52.958 51.1117 52.8034 50.8982 52.638C50.4702 52.3063 49.9959 51.8815 49.5391 51.4478C48.6223 50.5776 47.7118 49.6107 47.2683 49.1306Z" fill="#232C2E"/>
<path fill-rule="evenodd" clip-rule="evenodd" d="M46.3896 59.9614L50.2523 55.8436L51.7109 57.2119L47.8483 61.3297L46.3896 59.9614Z" fill="#232C2E"/>
<path fill-rule="evenodd" clip-rule="evenodd" d="M42.2797 59.9622L47.4803 54.7616L48.8945 56.1758L43.6939 61.3764L42.2797 59.9622Z" fill="#232C2E"/>
<path fill-rule="evenodd" clip-rule="evenodd" d="M49.9246 1.96729C49.942 2.00758 50.0005 2.13919 50.13 2.26871L51.5442 0.854492C51.6775 0.987756 51.7396 1.1254 51.7606 1.17397C51.7883 1.23821 51.8047 1.29366 51.8136 1.32708C51.8317 1.3945 51.8417 1.45549 51.8472 1.49367C51.859 1.57461 51.8666 1.66422 51.8721 1.74753C51.8836 1.9196 51.8917 2.14767 51.8974 2.41051C51.909 2.94021 51.9122 3.6609 51.9101 4.46775C51.9059 6.0839 51.8802 8.07371 51.8543 9.63613C51.8361 10.7295 50.9437 11.5997 49.8557 11.5997H44.9766C43.872 11.5997 42.9766 10.7043 42.9766 9.59968V9.20201C42.9766 8.09745 43.872 7.20202 44.9766 7.20202H47.3655V1.34023H49.3655V7.20202C49.3655 8.30658 48.47 9.20201 47.3655 9.20201H44.9766V9.59968H49.8546C49.8804 8.0417 49.906 6.06409 49.9101 4.46256C49.9122 3.66002 49.9089 2.95889 49.8979 2.45414C49.8923 2.19975 49.885 2.00743 49.8766 1.88093C49.8745 1.8503 49.8726 1.82625 49.8709 1.80806C49.8691 1.78906 49.868 1.78111 49.868 1.78143L49.868 1.78145C49.8681 1.78197 49.8689 1.78725 49.8706 1.79617C49.8721 1.8044 49.8757 1.82201 49.882 1.84572C49.8876 1.86641 49.9004 1.91133 49.9246 1.96729Z" fill="#232C2E"/>
<path fill-rule="evenodd" clip-rule="evenodd" d="M53.1211 2.52148C53.1211 1.41691 54.0165 0.521484 55.1211 0.521484H55.5553C56.6599 0.521484 57.5553 1.41692 57.5553 2.52148V7.64366C57.5553 8.74823 56.6599 9.64366 55.5553 9.64366H55.1211C54.0165 9.64366 53.1211 8.74823 53.1211 7.64366V2.52148ZM55.5553 2.52148L55.1211 2.52148V7.64366L55.5553 7.64366L55.5553 2.52148Z" fill="#232C2E"/>
</svg>
