<svg width="45" height="45" viewBox="0 0 45 45" fill="none" xmlns="http://www.w3.org/2000/svg">
<rect x="0.581055" y="0.479614" width="43.6353" height="43.6353" rx="21.8176" fill="#232C2E"/>
<g clip-path="url(#clip0_253_1744)">
<path d="M32.5809 16.7708C31.8236 17.1029 31.0168 17.3231 30.1755 17.43C31.0409 16.9133 31.7015 16.1013 32.012 15.1226C31.2051 15.6037 30.3142 15.9435 29.3648 16.1332C28.5986 15.3174 27.5067 14.8121 26.3154 14.8121C24.0042 14.8121 22.1435 16.688 22.1435 18.9878C22.1435 19.3187 22.1715 19.6369 22.2402 19.9398C18.7696 19.7705 15.6986 18.1071 13.6356 15.5732C13.2754 16.1981 13.0641 16.9133 13.0641 17.6833C13.0641 19.1291 13.8086 20.4107 14.9184 21.1527C14.2477 21.1399 13.5897 20.9452 13.0323 20.6385C13.0323 20.6512 13.0323 20.6678 13.0323 20.6843C13.0323 22.713 14.4794 24.398 16.3769 24.7862C16.0371 24.8791 15.6668 24.9237 15.2824 24.9237C15.0152 24.9237 14.7453 24.9084 14.4921 24.8524C15.033 26.5056 16.5678 27.721 18.3929 27.7605C16.9726 28.8716 15.1692 29.541 13.2168 29.541C12.8745 29.541 12.5461 29.5257 12.2178 29.4837C14.067 30.6762 16.2586 31.3571 18.622 31.3571C26.304 31.3571 30.5039 24.9937 30.5039 19.4778C30.5039 19.2933 30.4975 19.1151 30.4886 18.9382C31.3171 18.3502 32.0133 17.6158 32.5809 16.7708Z" fill="white"/>
</g>
<defs>
<clipPath id="clip0_253_1744">
<rect x="12.2178" y="12.1154" width="20.3631" height="20.3631" fill="white"/>
</clipPath>
</defs>
</svg>
