<svg width="58" height="59" viewBox="0 0 58 59" fill="none" xmlns="http://www.w3.org/2000/svg">
<path fill-rule="evenodd" clip-rule="evenodd" d="M22.075 1.45856V2.41835H23.0348H23.9946V1.45856V0.498779H23.0348H22.075V1.45856ZM7.6628 1.5603C6.72245 1.8228 5.24054 2.49441 5.31157 2.62602C5.33904 2.67677 5.56363 3.05109 5.81066 3.4578L6.25995 4.19731L6.82935 3.91129C7.71271 3.46763 8.71832 3.25132 9.89778 3.25132C11.5413 3.25132 12.7978 3.66295 14.1986 4.66017C14.5184 4.88787 14.7922 5.05704 14.807 5.03604C14.8217 5.01493 15.0869 4.68176 15.3963 4.29545L15.9588 3.59324L15.4477 3.18654C14.7864 2.66033 13.5814 2.03012 12.5972 1.69563C11.4781 1.3152 8.80374 1.24189 7.6628 1.5603ZM40.8508 1.41201C38.7574 1.90966 36.9145 3.08648 35.8142 4.62837C35.3041 5.34329 34.6759 6.53918 34.6734 6.80013C34.6722 6.92334 36.3144 7.53832 36.3985 7.4463C36.4232 7.41931 36.6086 7.06766 36.8105 6.66479C37.5723 5.14474 39.1726 3.84183 40.7836 3.43008C41.3343 3.28935 41.9084 3.24568 42.7826 3.27808L44.0091 3.32343L44.1416 2.43299C44.2144 1.94314 44.2416 1.51003 44.2022 1.47056C44.1148 1.3831 41.1877 1.33187 40.8508 1.41201ZM48.9501 2.41619C48.7272 2.87689 48.5682 3.27556 48.5969 3.30195C48.7115 3.40753 50.4156 4.23078 50.4468 4.19563C50.5355 4.09569 51.2285 2.6529 51.2285 2.56807C51.2285 2.49177 49.532 1.57854 49.3902 1.57854C49.371 1.57854 49.1729 1.95549 48.9501 2.41619ZM17.5707 2.71288C17.4087 2.87485 17.2761 3.13675 17.2761 3.29487C17.2761 3.45312 18.2749 5.77999 19.4956 8.46571C20.7164 11.1514 21.7151 13.3985 21.7151 13.4593C21.7151 13.5201 21.0807 14.0791 20.3052 14.7016C19.3004 15.5081 18.7635 15.858 18.4366 15.9193C16.7433 16.237 15.7058 18.3023 16.4339 19.9063C16.7478 20.5976 17.8083 21.6956 18.5016 22.047C19.3124 22.4579 20.0632 22.4162 22.7649 21.8098C24.0352 21.5248 25.0744 21.3124 25.0744 21.338C25.0744 21.3634 24.4669 22.0846 23.7247 22.9405C22.3372 24.5403 21.6194 25.5992 21.1079 26.8006C20.9471 27.1789 20.7789 27.4758 20.7342 27.4604C20.5096 27.3835 8.76259 20.7056 8.76151 20.6543C8.76079 20.6213 10.137 19.8191 11.8199 18.8718L14.8795 17.1494L14.5009 16.4724C14.2926 16.1 14.0625 15.7314 13.9896 15.6532C13.889 15.5454 12.9084 16.0482 9.94121 17.7291L6.02553 19.9473L3.01276 24.9699C1.31658 27.7976 0 30.1178 0 30.2793C0 30.4371 0.0680248 30.6592 0.151046 30.7728C0.234188 30.8864 1.51634 31.6956 3.00041 32.5709L5.69872 34.1626L5.75871 39.6414C5.8097 44.3031 5.84557 45.1454 5.99865 45.2887C6.36589 45.632 28.558 58.0859 28.8027 58.0859C29.1135 58.0859 51.3239 45.5667 51.6184 45.2255C51.8117 45.0016 51.8284 44.5532 51.8284 39.6006V34.2191L54.4978 32.6434C55.966 31.7768 57.2616 30.9592 57.3771 30.8267C57.4925 30.694 57.5871 30.4521 57.5871 30.2889C57.5871 30.115 56.343 27.9184 54.5732 24.968L51.5594 19.9435L45.2949 16.3998C41.8494 14.4507 38.981 12.8565 38.9208 12.8571C38.7878 12.8584 37.9108 14.375 37.9945 14.4587C38.0271 14.4914 40.4777 15.8852 43.4401 17.5562C46.4026 19.2271 48.8263 20.6213 48.8262 20.6543C48.826 20.6872 45.4469 22.6225 41.3169 24.9551C35.9213 28.0022 33.7712 29.1591 33.6778 29.0657C33.4836 28.8716 33.5417 27.4988 33.7662 26.9748C33.874 26.7229 34.1657 26.291 34.4143 26.015C35.7702 24.5092 36.5148 23.237 37.0249 21.5541C37.3165 20.5917 37.3522 20.2851 37.3522 18.7347C37.3522 17.1905 37.3161 16.8764 37.0305 15.9385C36.3906 13.8365 35.7484 12.8608 33.4617 10.5165L31.7064 8.71693L31.6357 7.83585C31.4494 5.51281 29.616 3.6302 27.3348 3.41928C26.5868 3.35018 26.516 3.3653 26.225 3.65623C25.9156 3.96564 25.9142 3.97608 25.9142 5.95311V7.93903L22.2356 5.17869C18.2717 2.20432 18.1457 2.13773 17.5707 2.71288ZM28.8354 6.16751C29.5668 6.90318 29.7533 7.40707 29.7533 8.64603C29.7533 9.49736 29.7592 9.51332 30.2796 10.0718L30.8061 10.6365L31.5596 13.9957C32.327 17.4159 32.4303 18.297 32.1465 18.9996C32.0587 19.2167 31.5041 20.1192 30.9141 21.0049C30.324 21.8907 29.6734 22.9705 29.4683 23.4044C29.1327 24.114 29.0951 24.3082 29.0943 25.3332C29.0929 27.1738 29.7605 28.5037 31.2211 29.5693C31.6709 29.8976 32.0241 30.1802 32.0058 30.1976C31.9877 30.215 31.2573 30.6353 30.3828 31.1315L28.7927 32.0338L25.7039 30.2851C24.0049 29.3233 22.5942 28.5192 22.5689 28.4983C22.4513 28.4013 23.134 26.893 23.6425 26.1266C23.9539 25.6573 25.2403 24.0977 26.5011 22.6609C28.3955 20.5022 28.7935 19.9856 28.7935 19.6861C28.7935 19.2632 28.3298 18.7347 27.9588 18.7347C27.8236 18.7347 26.0127 19.1126 23.9346 19.5745C21.8566 20.0364 19.9824 20.4143 19.7698 20.4143C19.4647 20.4143 19.2496 20.2823 18.7495 19.7885C18.211 19.2566 18.1159 19.096 18.1159 18.7175C18.1159 18.1744 18.5488 17.7749 19.137 17.7749C19.4602 17.7749 19.9588 17.429 22.0902 15.726C23.5006 14.5991 24.7085 13.6247 24.7744 13.5606C24.8404 13.4965 24.9239 12.9615 24.9599 12.3717C25.0098 11.5554 25.0831 11.2219 25.2673 10.9753C25.6589 10.4507 26.0578 10.2173 26.7498 10.108C27.7906 9.94342 27.8338 9.83976 27.8338 7.50389C27.8338 5.2034 27.8523 5.17857 28.8354 6.16751ZM47.2348 6.22341C46.2823 6.4732 42.5217 8.33698 42.3599 8.63955C42.2887 8.77236 42.2305 8.99323 42.2305 9.13024C42.2305 9.51056 44.3528 13.6675 44.62 13.8105C45.0406 14.0356 45.3627 13.9445 46.2539 13.3484C47.527 12.497 48.1406 12.3154 49.7288 12.32C50.8861 12.3232 51.1457 12.3639 51.8377 12.6499C53.3875 13.2902 53.5097 13.167 54.2249 10.24C54.8958 7.49441 54.9389 7.62326 53.1055 6.88902C52.3903 6.60265 51.5022 6.2894 51.1318 6.19294C50.263 5.96667 48.1511 5.98323 47.2348 6.22341ZM4.96245 6.26049C4.62352 6.32155 3.99306 6.49971 3.56164 6.6564C2.46917 7.05291 0.248344 8.38737 0.0851808 8.74525C-0.0217152 8.98004 0.053508 9.44277 0.486611 11.215C1.21185 14.1828 1.43356 14.3819 2.97593 13.4508C4.13799 12.7493 4.87259 12.5539 6.29859 12.5672C7.62585 12.5796 8.33885 12.7875 9.61092 13.533C10.3315 13.9553 10.6588 14.0185 11.0475 13.8105C11.3307 13.6589 13.437 9.49928 13.437 9.09137C13.437 8.93301 13.3426 8.6927 13.227 8.55713C12.9996 8.29031 9.80036 6.88363 8.52517 6.48975C7.62021 6.21034 5.8668 6.09744 4.96245 6.26049ZM22.5549 7.81594C23.3798 8.4296 24.0996 8.97152 24.1545 9.02023C24.2095 9.06882 24.0661 9.37151 23.836 9.69268C23.6059 10.0138 23.3243 10.563 23.2102 10.913L23.0029 11.5496L21.8791 9.07625C21.261 7.716 20.7553 6.57266 20.7553 6.53546C20.7553 6.49839 20.8229 6.52035 20.9053 6.58417C20.9878 6.648 21.7301 7.20227 22.5549 7.81594ZM51.6484 8.36229C52.1103 8.54465 52.5105 8.71238 52.5379 8.73505C52.5652 8.75773 52.4881 9.21206 52.3664 9.74474C52.1657 10.6232 52.1222 10.7066 51.8969 10.6417C49.999 10.0948 47.5405 10.3475 45.9827 11.2494L45.4758 11.5429L44.9853 10.5674C44.7155 10.0309 44.5118 9.57678 44.5324 9.55819C44.6982 9.4093 46.9866 8.33206 47.5093 8.15678C48.5219 7.81714 50.5186 7.91635 51.6484 8.36229ZM7.38626 8.18773C8.02428 8.30483 8.81214 8.59372 10.5887 9.36215L11.1595 9.60905L10.6565 10.6234L10.1533 11.6378L9.60061 11.3577C8.52577 10.8131 7.71415 10.6442 6.17861 10.6457C4.88158 10.6471 4.63192 10.6841 3.65918 11.0201C3.06531 11.2251 2.56178 11.376 2.54019 11.3554C2.51871 11.3349 2.40198 10.9328 2.28093 10.4622L2.06078 9.6063L2.5018 9.32796C4.24753 8.22589 5.72056 7.88204 7.38626 8.18773ZM37.4316 10.0966V11.0564H38.3914H39.3512V10.0966V9.13684H38.3914H37.4316V10.0966ZM15.322 11.0305C15.0112 11.3463 14.7567 11.6581 14.7567 11.7233C14.7567 11.7887 15.162 12.2449 15.6573 12.7369L16.558 13.6315L17.2448 12.9447L17.9317 12.2578L17.037 11.3572C16.545 10.8618 16.085 10.4565 16.0148 10.4565C15.9448 10.4565 15.633 10.7148 15.322 11.0305ZM26.874 12.976V13.9358H27.8338H28.7935V12.976V12.0162H27.8338H26.874V12.976ZM34.6107 15.0755C36.152 18.1882 35.651 21.7083 33.2874 24.3734C32.4496 25.318 32.1305 25.8426 31.7972 26.8234L31.5955 27.4165L31.3123 26.8313C30.9628 26.1094 30.8831 25.2074 31.1054 24.4896C31.198 24.1905 31.7758 23.1955 32.3895 22.2787C33.7108 20.3047 34.029 19.6506 34.1744 18.611C34.2975 17.7311 34.2269 17.1004 33.785 15.1355C33.6144 14.3767 33.4461 13.6208 33.4111 13.4559C33.294 12.9056 34.0247 13.892 34.6107 15.0755ZM7.17811 15.0183C4.45316 15.4781 2.01555 17.1088 0.57731 19.434L0.13473 20.1494L0.877243 20.6004C1.28551 20.8485 1.65407 21.0696 1.6963 21.0917C1.73841 21.1138 2.00259 20.7794 2.28321 20.3486C2.95074 19.3241 4.23037 18.1505 5.20095 17.6727C6.05036 17.2546 7.60617 16.8151 8.23735 16.8151H8.63806V15.8553V14.8955L8.18816 14.9097C7.94078 14.9174 7.4862 14.9663 7.17811 15.0183ZM50.8656 15.8615C50.645 16.3176 50.4878 16.7125 50.5165 16.7389C50.631 16.8445 52.3351 17.6678 52.3663 17.6326C52.4328 17.5577 53.1481 16.1006 53.1481 16.0401C53.1481 16.0059 52.7248 15.7651 52.2075 15.505L51.2668 15.0321L50.8656 15.8615ZM54.7077 20.6543V21.614H55.6675H56.6273V20.6543V19.6945H55.6675H54.7077V20.6543ZM39.891 20.2544C39.4291 20.4899 39.0277 20.7042 38.999 20.7306C38.9467 20.7787 39.7226 22.4539 39.7972 22.4539C39.8517 22.4539 41.5577 21.5978 41.6229 21.5379C41.6884 21.4774 40.8885 19.8123 40.7977 19.8203C40.761 19.8236 40.3529 20.0189 39.891 20.2544ZM17.2773 27.724C22.7795 30.8342 27.3031 33.4007 27.3297 33.4273C27.3777 33.4753 21.8608 41.4096 21.7796 41.4096C21.7564 41.4096 21.2061 41.0942 20.5565 40.7088C19.907 40.3234 17.864 39.1162 16.0164 38.0261C7.73394 33.1396 2.79897 30.2205 2.55483 30.0637C2.29316 29.8955 2.31524 29.8522 4.65436 25.9371C5.95462 23.7611 7.07577 22.0005 7.14584 22.0248C7.2159 22.0492 11.7751 24.6138 17.2773 27.724ZM52.9283 25.9304C54.6234 28.7671 55.2484 29.9105 55.1478 29.9908C54.9633 30.1378 35.8794 41.4096 35.8151 41.4096C35.7877 41.4096 34.5128 39.621 32.9818 37.4351C30.8578 34.4025 30.2379 33.4374 30.3657 33.3628C31.6459 32.6151 50.4652 21.9822 50.5087 21.982C50.5417 21.9819 51.6305 23.7587 52.9283 25.9304ZM8.905 27.6456C8.42823 28.1255 8.0382 28.5728 8.0382 28.6398C8.0382 28.7956 9.14747 29.8922 9.30499 29.8922C9.37038 29.8922 9.8258 29.4875 10.3171 28.993L11.2104 28.0937L10.5582 27.4333C10.1995 27.0701 9.87582 26.7729 9.83887 26.7729C9.80204 26.7729 9.38177 27.1656 8.905 27.6456ZM38.3925 34.0891C38.1696 34.5498 38.0106 34.9484 38.0393 34.9748C38.1538 35.0804 39.8579 35.9037 39.8891 35.8685C39.9779 35.7686 40.6709 34.3258 40.6709 34.241C40.6709 34.1647 38.9743 33.2514 38.8325 33.2514C38.8133 33.2514 38.6153 33.6284 38.3925 34.0891ZM14.8124 39.55C18.6647 41.8265 21.9324 43.6891 22.0737 43.6891C22.2151 43.6891 22.4216 43.6401 22.5329 43.5804C22.644 43.5205 23.8686 41.8501 25.2543 39.8684L27.7738 36.2653L27.8051 41.0569C27.8224 43.6923 27.8224 48.0067 27.8051 50.6443L27.7738 55.4398L17.7302 49.7745L7.68667 44.109L7.68248 39.76C7.6802 37.3681 7.70743 35.4109 7.74318 35.4109C7.77881 35.4109 10.96 37.2735 14.8124 39.55ZM49.9062 39.76L49.9035 44.109L39.8584 49.78L29.8133 55.451L29.782 50.6498C29.7647 48.0092 29.7647 43.6923 29.782 41.0569L29.8133 36.2653L32.3327 39.8684C33.7184 41.8501 34.9431 43.5205 35.0542 43.5804C35.4596 43.7985 35.8072 43.6704 37.4732 42.6884C42.4526 39.754 46.0958 37.599 47.8093 36.5749C48.865 35.944 49.7693 35.4239 49.8188 35.4193C49.8684 35.4147 49.9076 37.3681 49.9062 39.76ZM54.9786 38.5275C53.8137 40.0929 53.5809 40.6322 53.5755 41.7792C53.5715 42.6291 53.6085 42.7631 54.1394 43.8188C54.9561 45.4426 54.9105 45.8822 53.8047 47.0415C53.3904 47.4758 53.1717 47.7974 53.2197 47.9017C53.2619 47.9932 53.5621 48.3071 53.8867 48.5993L54.477 49.1305L55.1383 48.4794C55.5246 48.0989 55.9593 47.5049 56.1835 47.0508C56.5194 46.3705 56.5673 46.1527 56.5673 45.3046C56.5673 44.3877 56.5367 44.2748 55.9974 43.2026C55.6839 42.5793 55.4276 41.9462 55.4276 41.7957C55.4276 41.3278 55.7599 40.6944 56.5906 39.5788L57.3907 38.5041L57.099 38.28C56.9385 38.1568 56.5913 37.8993 56.3274 37.7079L55.8475 37.36L54.9786 38.5275ZM0.960864 45.6065C0.737954 46.0672 0.57899 46.4659 0.607664 46.4923C0.722238 46.5978 2.42634 47.4211 2.45753 47.3859C2.54631 47.286 3.23927 45.8432 3.23927 45.7584C3.23927 45.6821 1.54273 44.7688 1.40093 44.7688C1.38173 44.7688 1.18365 45.1458 0.960864 45.6065ZM47.0294 51.3674V52.3271H47.9892H48.949V51.3674V50.4076H47.9892H47.0294V51.3674ZM3.84022 53.2848C3.61731 53.7455 3.45834 54.1441 3.48702 54.1705C3.51569 54.1969 3.92552 54.412 4.39773 54.6484C5.04955 54.9747 5.28445 55.0431 5.37335 54.9324C5.5328 54.7336 6.11863 53.5584 6.11863 53.4373C6.11863 53.3605 4.42269 52.4471 4.28028 52.4471C4.26108 52.4471 4.06301 52.8241 3.84022 53.2848ZM13.0171 53.8468C12.5552 54.0824 12.1538 54.2966 12.1251 54.323C12.0964 54.3494 12.2536 54.7442 12.4742 55.2004L12.8754 56.0298L13.8161 55.5568C14.3334 55.2967 14.7567 55.0585 14.7567 55.0275C14.7567 54.9055 13.9814 53.4073 13.9211 53.4128C13.8858 53.416 13.479 53.6113 13.0171 53.8468ZM40.259 55.2067L39.8374 56.0468L40.7923 56.5269L41.7472 57.0071L42.1647 56.178C42.4817 55.5482 42.5471 55.3208 42.4363 55.2318C42.2752 55.1022 40.8321 54.3667 40.7391 54.3667C40.707 54.3667 40.4909 54.7447 40.259 55.2067ZM50.8162 55.2077L50.3951 56.0468L51.3499 56.5269L52.3048 57.0071L52.7271 56.1684L53.1494 55.3298L52.1933 54.8491L51.2374 54.3685L50.8162 55.2077Z" fill="#30B8C4"/>
</svg>
