<svg width="44" height="45" viewBox="0 0 44 45" fill="none" xmlns="http://www.w3.org/2000/svg">
<rect x="0.216797" y="0.479614" width="43.6353" height="43.6353" rx="21.8176" fill="#232C2E"/>
<path d="M28.7706 16.5129H15.2996C14.3856 16.5129 13.5091 16.8866 12.8628 17.5518C12.2166 18.2171 11.8535 19.1194 11.8535 20.0602V27.4772C11.8535 28.418 12.2166 29.3203 12.8628 29.9856C13.5091 30.6508 14.3856 31.0245 15.2996 31.0245H28.7706C29.6845 31.0245 30.5611 30.6508 31.2073 29.9856C31.8536 29.3203 32.2166 28.418 32.2166 27.4772V20.0602C32.2166 19.1194 31.8536 18.2171 31.2073 17.5518C30.5611 16.8866 29.6845 16.5129 28.7706 16.5129ZM26.0231 23.9106L19.9142 27.1354C19.8904 27.1481 19.8639 27.1543 19.8371 27.1534C19.8103 27.1525 19.7842 27.1446 19.7613 27.1303C19.7383 27.1161 19.7193 27.0961 19.706 27.0721C19.6928 27.0481 19.6857 27.0211 19.6855 26.9935V20.5439C19.6857 20.5163 19.6928 20.4893 19.706 20.4653C19.7193 20.4413 19.7383 20.4213 19.7613 20.4071C19.7842 20.3928 19.8103 20.3849 19.8371 20.384C19.8639 20.3831 19.8904 20.3893 19.9142 20.402L26.0231 23.6268C26.0488 23.6403 26.0703 23.6609 26.0853 23.6862C26.1004 23.7115 26.1083 23.7406 26.1083 23.7703C26.1083 23.8 26.1004 23.8291 26.0853 23.8544C26.0703 23.8797 26.0488 23.9003 26.0231 23.9138V23.9106Z" fill="white"/>
</svg>
