<svg width="129" height="57" viewBox="0 0 129 57" fill="none" xmlns="http://www.w3.org/2000/svg">
<rect opacity="0.2" x="1.48438" y="1.71875" width="62.6358" height="54.564" fill="#30B8C4"/>
<rect opacity="0.2" x="64.8481" y="1.71875" width="61.9075" height="54.564" fill="#30B8C4"/>
<rect x="1.48438" y="1.07031" width="37.2161" height="55.302" stroke="#232C2E" stroke-width="1.17335"/>
<rect x="90.0554" y="1.1875" width="37.4292" height="55.1848" stroke="#232C2E" stroke-width="1.17335"/>
<line x1="60.8295" y1="21.0352" x2="60.8295" y2="39.529" stroke="#232C2E" stroke-width="1.17335"/>
<line x1="64.8481" y1="55.6946" x2="85.9695" y2="55.6946" stroke="#232C2E" stroke-width="1.17335"/>
<line x1="42.9993" y1="55.6946" x2="64.1207" y2="55.6946" stroke="#232C2E" stroke-width="1.17335"/>
<line x1="64.8481" y1="1.84887" x2="85.9695" y2="1.84887" stroke="#232C2E" stroke-width="1.17335"/>
<line x1="42.9993" y1="1.84887" x2="64.1207" y2="1.84887" stroke="#232C2E" stroke-width="1.17335"/>
<line x1="67.5803" y1="21.0352" x2="67.5803" y2="39.529" stroke="#232C2E" stroke-width="1.17335"/>
<rect x="39.0005" y="54" width="6" height="2" fill="black"/>
<rect width="5.07281" height="2.1645" transform="matrix(-1 0 0 1 89.5113 54.2871)" fill="black"/>
<rect x="39.3571" y="1" width="5.33127" height="2.1645" fill="black"/>
<rect x="84.513" y="1" width="5.09827" height="2.15384" fill="black"/>
<rect x="39.0005" y="55" width="4" height="2" fill="black"/>
<rect width="3.55013" height="2.1645" transform="matrix(-1 0 0 1 89.5113 54.8359)" fill="black"/>
</svg>
